G04 #@! TF.GenerationSoftware,KiCad,Pcbnew,8.0.7*
G04 #@! TF.CreationDate,2025-01-02T16:06:29-06:00*
G04 #@! TF.ProjectId,right,72696768-742e-46b6-9963-61645f706362,rev?*
G04 #@! TF.SameCoordinates,Original*
G04 #@! TF.FileFunction,Copper,L2,Bot*
G04 #@! TF.FilePolarity,Positive*
%FSLAX46Y46*%
G04 Gerber Fmt 4.6, Leading zero omitted, Abs format (unit mm)*
G04 Created by KiCad (PCBNEW 8.0.7) date 2025-01-02 16:06:29*
%MOMM*%
%LPD*%
G01*
G04 APERTURE LIST*
G04 Aperture macros list*
%AMRoundRect*
0 Rectangle with rounded corners*
0 $1 Rounding radius*
0 $2 $3 $4 $5 $6 $7 $8 $9 X,Y pos of 4 corners*
0 Add a 4 corners polygon primitive as box body*
4,1,4,$2,$3,$4,$5,$6,$7,$8,$9,$2,$3,0*
0 Add four circle primitives for the rounded corners*
1,1,$1+$1,$2,$3*
1,1,$1+$1,$4,$5*
1,1,$1+$1,$6,$7*
1,1,$1+$1,$8,$9*
0 Add four rect primitives between the rounded corners*
20,1,$1+$1,$2,$3,$4,$5,0*
20,1,$1+$1,$4,$5,$6,$7,0*
20,1,$1+$1,$6,$7,$8,$9,0*
20,1,$1+$1,$8,$9,$2,$3,0*%
G04 Aperture macros list end*
G04 #@! TA.AperFunction,SMDPad,CuDef*
%ADD10R,2.500000X1.000000*%
G04 #@! TD*
G04 #@! TA.AperFunction,ComponentPad*
%ADD11RoundRect,0.325000X-0.925000X-0.325000X0.925000X-0.325000X0.925000X0.325000X-0.925000X0.325000X0*%
G04 #@! TD*
G04 #@! TA.AperFunction,ComponentPad*
%ADD12O,1.000000X1.600000*%
G04 #@! TD*
G04 #@! TA.AperFunction,ComponentPad*
%ADD13O,1.000000X2.100000*%
G04 #@! TD*
G04 #@! TA.AperFunction,ComponentPad*
%ADD14C,2.200000*%
G04 #@! TD*
G04 #@! TA.AperFunction,ViaPad*
%ADD15C,0.600000*%
G04 #@! TD*
G04 #@! TA.AperFunction,Conductor*
%ADD16C,0.350000*%
G04 #@! TD*
G04 #@! TA.AperFunction,Conductor*
%ADD17C,0.200000*%
G04 #@! TD*
G04 APERTURE END LIST*
D10*
X24025000Y-85830000D03*
X24025000Y-83290000D03*
X24025000Y-80750000D03*
X24025000Y-78210000D03*
X24025000Y-75670000D03*
X24025000Y-73130000D03*
X24025000Y-70590000D03*
X24025000Y-68050000D03*
X24025000Y-65510000D03*
X24025000Y-62970000D03*
D11*
X17900000Y-16900000D03*
X17900000Y-15200000D03*
X17900000Y-13300000D03*
X17900000Y-18600000D03*
D12*
X28076875Y-15055000D03*
D13*
X28076875Y-19235000D03*
D12*
X36716875Y-15055000D03*
D13*
X36716875Y-19235000D03*
D14*
X178490000Y-62582500D03*
X172140000Y-65122500D03*
X121340000Y-38770000D03*
X114990000Y-41310000D03*
X178490000Y-24482500D03*
X172140000Y-27022500D03*
X83240000Y-43532500D03*
X76890000Y-46072500D03*
X102290000Y-22101250D03*
X95940000Y-24641250D03*
X102290000Y-60201250D03*
X95940000Y-62741250D03*
X159440000Y-81620000D03*
X153090000Y-84160000D03*
X178490000Y-100682500D03*
X172140000Y-103222500D03*
X140390000Y-41151250D03*
X134040000Y-43691250D03*
X159440000Y-24482500D03*
X153090000Y-27022500D03*
X159592400Y-43532500D03*
X153242400Y-46072500D03*
X102290000Y-41151250D03*
X95940000Y-43691250D03*
X178490000Y-43532500D03*
X172140000Y-46072500D03*
X83240000Y-62582500D03*
X76890000Y-65122500D03*
X178540000Y-81620000D03*
X172190000Y-84160000D03*
X140340000Y-79220000D03*
X133990000Y-81760000D03*
X121340000Y-19720000D03*
X114990000Y-22260000D03*
X64190000Y-74488750D03*
X57840000Y-77028750D03*
X140390000Y-98301250D03*
X134040000Y-100841250D03*
X121340000Y-76820000D03*
X114990000Y-79360000D03*
X159440000Y-100682500D03*
X153090000Y-103222500D03*
X79159705Y-103630591D03*
X74930444Y-109005296D03*
X140390000Y-22101250D03*
X134040000Y-24641250D03*
X140390000Y-60201250D03*
X134040000Y-62741250D03*
X83240000Y-24482500D03*
X76890000Y-27022500D03*
X102240000Y-79220000D03*
X95890000Y-81760000D03*
X64190000Y-55438750D03*
X57840000Y-57978750D03*
X159440000Y-62582500D03*
X153090000Y-65122500D03*
X121340000Y-57820000D03*
X114990000Y-60360000D03*
X121340000Y-95920000D03*
X114990000Y-98460000D03*
X64190000Y-36388750D03*
X57840000Y-38928750D03*
X83240000Y-81620000D03*
X76890000Y-84160001D03*
X63900000Y-110300000D03*
X58525295Y-106070739D03*
D15*
X33700000Y-48300000D03*
X29800000Y-47800000D03*
X38900000Y-38300000D03*
X24025735Y-69274265D03*
X39100000Y-48700000D03*
X23800000Y-47900000D03*
X35668628Y-21568628D03*
X17400000Y-39700000D03*
X32800000Y-28000000D03*
X29100000Y-27500000D03*
X18000000Y-50500000D03*
X20700000Y-34700000D03*
X26093750Y-30500000D03*
X24000000Y-55100000D03*
X20100000Y-38700000D03*
X21300000Y-37700000D03*
X22400000Y-37100000D03*
X25800000Y-36768750D03*
X26600000Y-36268750D03*
X28000000Y-35768750D03*
X29500000Y-35100000D03*
X36600000Y-85000000D03*
X37300000Y-92000000D03*
X31022740Y-35653560D03*
X30899758Y-36444053D03*
X36000000Y-79000000D03*
X30400000Y-37068750D03*
X35400000Y-70800000D03*
X29700000Y-37568750D03*
X34800000Y-63600000D03*
X29200000Y-38200000D03*
X34100000Y-56100000D03*
X25700000Y-38200000D03*
X31572535Y-17700000D03*
D16*
X31572535Y-17700000D02*
X30772535Y-16900000D01*
X30772535Y-16900000D02*
X17900000Y-16900000D01*
X24025000Y-69273530D02*
X24025735Y-69274265D01*
X24025000Y-68050000D02*
X24025000Y-69273530D01*
D17*
X18000000Y-50500000D02*
X18000000Y-79805000D01*
X18000000Y-79805000D02*
X24025000Y-85830000D01*
X20700000Y-34700000D02*
X19100000Y-36300000D01*
X19100000Y-36300000D02*
X19100000Y-65665000D01*
X19100000Y-65665000D02*
X24025000Y-70590000D01*
X26093750Y-30500000D02*
X19500000Y-37093750D01*
X19500000Y-60985000D02*
X24025000Y-65510000D01*
X19500000Y-37093750D02*
X19500000Y-60985000D01*
D16*
X24025000Y-62970000D02*
X24025000Y-55125000D01*
X24025000Y-55125000D02*
X24000000Y-55100000D01*
D17*
X172140000Y-27022500D02*
X172140000Y-84110000D01*
X172140000Y-84110000D02*
X172190000Y-84160000D01*
X163017500Y-17900000D02*
X172140000Y-27022500D01*
X20100000Y-38700000D02*
X20100000Y-37985786D01*
X20100000Y-37985786D02*
X40185786Y-17900000D01*
X40185786Y-17900000D02*
X163017500Y-17900000D01*
X153090000Y-27022500D02*
X153090000Y-84160000D01*
X144367500Y-18300000D02*
X153090000Y-27022500D01*
X21300000Y-37700000D02*
X21300000Y-37351471D01*
X21300000Y-37351471D02*
X40351471Y-18300000D01*
X40351471Y-18300000D02*
X144367500Y-18300000D01*
X133990000Y-81760000D02*
X148636598Y-81760000D01*
X148636598Y-81760000D02*
X170099098Y-103222500D01*
X170099098Y-103222500D02*
X172140000Y-103222500D01*
X134040000Y-24641250D02*
X134040000Y-77216598D01*
X134040000Y-77216598D02*
X133990000Y-77266598D01*
X133990000Y-77266598D02*
X133990000Y-81760000D01*
X124281351Y-24641250D02*
X134040000Y-24641250D01*
X22400000Y-37100000D02*
X39198750Y-20301250D01*
X39198750Y-20301250D02*
X119941351Y-20301250D01*
X119941351Y-20301250D02*
X124281351Y-24641250D01*
X114990000Y-79360000D02*
X129227500Y-79360000D01*
X129227500Y-79360000D02*
X153090000Y-103222500D01*
X114990000Y-22260000D02*
X114990000Y-79360000D01*
X25800000Y-36220221D02*
X41318971Y-20701250D01*
X25800000Y-36768750D02*
X25800000Y-36220221D01*
X41318971Y-20701250D02*
X113431250Y-20701250D01*
X113431250Y-20701250D02*
X114990000Y-22260000D01*
X95890000Y-81760000D02*
X114958750Y-81760000D01*
X114958750Y-81760000D02*
X134040000Y-100841250D01*
X95940000Y-24641250D02*
X95940000Y-81710000D01*
X95940000Y-81710000D02*
X95890000Y-81760000D01*
X26600000Y-36268750D02*
X39968750Y-22900000D01*
X94198750Y-22900000D02*
X95940000Y-24641250D01*
X39968750Y-22900000D02*
X94198750Y-22900000D01*
X76890000Y-84160001D02*
X81483403Y-84160001D01*
X81483403Y-84160001D02*
X95783402Y-98460000D01*
X95783402Y-98460000D02*
X114990000Y-98460000D01*
X76890000Y-27022500D02*
X76890000Y-84160001D01*
X28000000Y-35768750D02*
X28000000Y-35751471D01*
X28000000Y-35751471D02*
X36728971Y-27022500D01*
X36728971Y-27022500D02*
X76890000Y-27022500D01*
X57840000Y-77028750D02*
X57840000Y-105385444D01*
X57840000Y-105385444D02*
X58525295Y-106070739D01*
X74930444Y-109005296D02*
X71995887Y-106070739D01*
X71995887Y-106070739D02*
X58525295Y-106070739D01*
X57840000Y-38928750D02*
X57840000Y-77028750D01*
X37300000Y-92000000D02*
X37200000Y-91900000D01*
X37200000Y-41830820D02*
X31022740Y-35653560D01*
X37200000Y-91900000D02*
X37200000Y-41830820D01*
X34800000Y-63600000D02*
X34800000Y-43800000D01*
X34800000Y-43800000D02*
X29200000Y-38200000D01*
X35400000Y-70800000D02*
X35400000Y-43268750D01*
X35400000Y-43268750D02*
X29700000Y-37568750D01*
X36000000Y-79000000D02*
X36000000Y-42668750D01*
X36000000Y-42668750D02*
X30400000Y-37068750D01*
X36600000Y-85000000D02*
X36600000Y-42144295D01*
X36600000Y-42144295D02*
X30899758Y-36444053D01*
X25700000Y-38200000D02*
X25700000Y-47700000D01*
X25700000Y-47700000D02*
X34100000Y-56100000D01*
X29500000Y-35100000D02*
X29546440Y-35053560D01*
X53964810Y-35053560D02*
X57840000Y-38928750D01*
X29546440Y-35053560D02*
X53964810Y-35053560D01*
G04 #@! TA.AperFunction,Conductor*
G36*
X30152074Y-35682513D02*
G01*
X30208009Y-35724383D01*
X30231963Y-35784813D01*
X30237371Y-35832812D01*
X30237371Y-35832814D01*
X30237372Y-35832815D01*
X30243911Y-35851503D01*
X30253792Y-35879741D01*
X30257353Y-35949519D01*
X30241744Y-35986667D01*
X30173968Y-36094531D01*
X30141844Y-36186339D01*
X30114390Y-36264798D01*
X30114389Y-36264800D01*
X30112091Y-36271370D01*
X30109565Y-36270486D01*
X30081392Y-36320820D01*
X30055990Y-36338647D01*
X30056374Y-36339257D01*
X30050480Y-36342960D01*
X30050478Y-36342961D01*
X29993032Y-36379057D01*
X29897737Y-36438934D01*
X29770184Y-36566487D01*
X29674293Y-36719098D01*
X29621958Y-36765389D01*
X29583183Y-36776346D01*
X29520750Y-36783380D01*
X29350478Y-36842960D01*
X29197737Y-36938934D01*
X29070184Y-37066487D01*
X28974210Y-37219228D01*
X28914630Y-37389501D01*
X28914115Y-37391758D01*
X28913382Y-37393066D01*
X28912333Y-37396067D01*
X28911807Y-37395882D01*
X28879999Y-37452732D01*
X28855854Y-37469679D01*
X28856374Y-37470506D01*
X28697737Y-37570184D01*
X28570184Y-37697737D01*
X28474211Y-37850476D01*
X28414631Y-38020745D01*
X28414630Y-38020750D01*
X28394435Y-38199996D01*
X28394435Y-38200003D01*
X28414630Y-38379249D01*
X28414631Y-38379254D01*
X28474211Y-38549523D01*
X28554689Y-38677602D01*
X28570184Y-38702262D01*
X28697738Y-38829816D01*
X28850478Y-38925789D01*
X29020745Y-38985368D01*
X29107669Y-38995161D01*
X29172080Y-39022226D01*
X29181465Y-39030700D01*
X34163181Y-44012416D01*
X34196666Y-44073739D01*
X34199500Y-44100097D01*
X34199500Y-55050903D01*
X34179815Y-55117942D01*
X34127011Y-55163697D01*
X34057853Y-55173641D01*
X33994297Y-55144616D01*
X33987819Y-55138584D01*
X26336819Y-47487584D01*
X26303334Y-47426261D01*
X26300500Y-47399903D01*
X26300500Y-38782412D01*
X26320185Y-38715373D01*
X26327555Y-38705097D01*
X26329810Y-38702267D01*
X26329816Y-38702262D01*
X26425789Y-38549522D01*
X26485368Y-38379255D01*
X26485655Y-38376707D01*
X26505565Y-38200003D01*
X26505565Y-38199996D01*
X26485369Y-38020750D01*
X26485368Y-38020745D01*
X26437998Y-37885369D01*
X26425789Y-37850478D01*
X26329816Y-37697738D01*
X26245404Y-37613326D01*
X26211919Y-37552003D01*
X26216903Y-37482311D01*
X26258775Y-37426378D01*
X26267114Y-37420651D01*
X26302259Y-37398568D01*
X26302259Y-37398567D01*
X26302262Y-37398566D01*
X26429816Y-37271012D01*
X26518090Y-37130523D01*
X26570422Y-37084235D01*
X26609195Y-37073278D01*
X26702536Y-37062761D01*
X26779250Y-37054119D01*
X26779253Y-37054118D01*
X26779255Y-37054118D01*
X26949522Y-36994539D01*
X27102262Y-36898566D01*
X27229816Y-36771012D01*
X27325789Y-36618272D01*
X27368447Y-36496361D01*
X27409169Y-36439586D01*
X27474121Y-36413838D01*
X27542683Y-36427294D01*
X27551462Y-36432323D01*
X27650475Y-36494538D01*
X27820745Y-36554118D01*
X27820750Y-36554119D01*
X27999996Y-36574315D01*
X28000000Y-36574315D01*
X28000004Y-36574315D01*
X28179249Y-36554119D01*
X28179252Y-36554118D01*
X28179255Y-36554118D01*
X28349522Y-36494539D01*
X28502262Y-36398566D01*
X28629816Y-36271012D01*
X28725789Y-36118272D01*
X28785368Y-35948005D01*
X28797355Y-35841606D01*
X28824420Y-35777196D01*
X28832894Y-35767811D01*
X28849914Y-35750791D01*
X28911237Y-35717306D01*
X28980929Y-35722290D01*
X29003567Y-35733479D01*
X29150473Y-35825787D01*
X29150477Y-35825788D01*
X29150478Y-35825789D01*
X29223973Y-35851506D01*
X29320745Y-35885368D01*
X29320750Y-35885369D01*
X29499996Y-35905565D01*
X29500000Y-35905565D01*
X29500004Y-35905565D01*
X29679249Y-35885369D01*
X29679252Y-35885368D01*
X29679255Y-35885368D01*
X29849522Y-35825789D01*
X30002262Y-35729816D01*
X30021062Y-35711015D01*
X30082382Y-35677530D01*
X30152074Y-35682513D01*
G37*
G04 #@! TD.AperFunction*
G04 #@! TA.AperFunction,Conductor*
G36*
X106090067Y-12446201D02*
G01*
X185475426Y-13390194D01*
X185542224Y-13410673D01*
X185587348Y-13464017D01*
X185597949Y-13514303D01*
X185500027Y-115449188D01*
X185480278Y-115516209D01*
X185427430Y-115561913D01*
X185391503Y-115572099D01*
X63946834Y-130848761D01*
X63928480Y-130849698D01*
X59446229Y-130745636D01*
X58958910Y-130734322D01*
X58892346Y-130713087D01*
X58885535Y-130708138D01*
X32962941Y-110492781D01*
X55980091Y-110492781D01*
X55980091Y-110787808D01*
X56007455Y-110995647D01*
X56018598Y-111080288D01*
X56062372Y-111243656D01*
X56094952Y-111365246D01*
X56094955Y-111365256D01*
X56207845Y-111637795D01*
X56207849Y-111637805D01*
X56355352Y-111893288D01*
X56534943Y-112127335D01*
X56534949Y-112127342D01*
X56743543Y-112335936D01*
X56743550Y-112335942D01*
X56977597Y-112515533D01*
X57233080Y-112663036D01*
X57233081Y-112663036D01*
X57233084Y-112663038D01*
X57505639Y-112775934D01*
X57790598Y-112852288D01*
X58083085Y-112890795D01*
X58083092Y-112890795D01*
X58378090Y-112890795D01*
X58378097Y-112890795D01*
X58670584Y-112852288D01*
X58955543Y-112775934D01*
X59228098Y-112663038D01*
X59483585Y-112515533D01*
X59717633Y-112335941D01*
X59926237Y-112127337D01*
X60105829Y-111893289D01*
X60253334Y-111637802D01*
X60366230Y-111365247D01*
X60442584Y-111080288D01*
X60481091Y-110787801D01*
X60481091Y-110492789D01*
X60455710Y-110300000D01*
X62294551Y-110300000D01*
X62314317Y-110551151D01*
X62373126Y-110796110D01*
X62469533Y-111028859D01*
X62601160Y-111243653D01*
X62601161Y-111243656D01*
X62601164Y-111243659D01*
X62764776Y-111435224D01*
X62854659Y-111511991D01*
X62956343Y-111598838D01*
X62956346Y-111598839D01*
X63171140Y-111730466D01*
X63403889Y-111826873D01*
X63648852Y-111885683D01*
X63900000Y-111905449D01*
X64151148Y-111885683D01*
X64396111Y-111826873D01*
X64628859Y-111730466D01*
X64843659Y-111598836D01*
X65035224Y-111435224D01*
X65198836Y-111243659D01*
X65330466Y-111028859D01*
X65426873Y-110796111D01*
X65485683Y-110551148D01*
X65505449Y-110300000D01*
X65485683Y-110048852D01*
X65426873Y-109803889D01*
X65360143Y-109642788D01*
X65330466Y-109571140D01*
X65198839Y-109356346D01*
X65198838Y-109356343D01*
X65113516Y-109256444D01*
X65035224Y-109164776D01*
X64848497Y-109005296D01*
X64843656Y-109001161D01*
X64843653Y-109001160D01*
X64628859Y-108869533D01*
X64396110Y-108773126D01*
X64151151Y-108714317D01*
X63900000Y-108694551D01*
X63648848Y-108714317D01*
X63403889Y-108773126D01*
X63171140Y-108869533D01*
X62956346Y-109001160D01*
X62956343Y-109001161D01*
X62764776Y-109164776D01*
X62601161Y-109356343D01*
X62601160Y-109356346D01*
X62469533Y-109571140D01*
X62373126Y-109803889D01*
X62314317Y-110048848D01*
X62294551Y-110300000D01*
X60455710Y-110300000D01*
X60442584Y-110200302D01*
X60366230Y-109915343D01*
X60253334Y-109642788D01*
X60105829Y-109387301D01*
X60082074Y-109356343D01*
X59926238Y-109153254D01*
X59926232Y-109153247D01*
X59717638Y-108944653D01*
X59717631Y-108944647D01*
X59483584Y-108765056D01*
X59228101Y-108617553D01*
X59228091Y-108617549D01*
X58955552Y-108504659D01*
X58955545Y-108504657D01*
X58955543Y-108504656D01*
X58670584Y-108428302D01*
X58621704Y-108421866D01*
X58378104Y-108389795D01*
X58378097Y-108389795D01*
X58083085Y-108389795D01*
X58083077Y-108389795D01*
X57804676Y-108426448D01*
X57790598Y-108428302D01*
X57697479Y-108453253D01*
X57505639Y-108504656D01*
X57505629Y-108504659D01*
X57233090Y-108617549D01*
X57233080Y-108617553D01*
X56977597Y-108765056D01*
X56743550Y-108944647D01*
X56743543Y-108944653D01*
X56534949Y-109153247D01*
X56534943Y-109153254D01*
X56355352Y-109387301D01*
X56207849Y-109642784D01*
X56207845Y-109642794D01*
X56094955Y-109915333D01*
X56094952Y-109915343D01*
X56034617Y-110140520D01*
X56018599Y-110200299D01*
X56018597Y-110200310D01*
X55980091Y-110492781D01*
X32962941Y-110492781D01*
X11548246Y-93792844D01*
X11507486Y-93736096D01*
X11500500Y-93695062D01*
X11500500Y-50499996D01*
X17194435Y-50499996D01*
X17194435Y-50500003D01*
X17214630Y-50679249D01*
X17214631Y-50679254D01*
X17274211Y-50849523D01*
X17370185Y-51002263D01*
X17372445Y-51005097D01*
X17373334Y-51007275D01*
X17373889Y-51008158D01*
X17373734Y-51008255D01*
X17398855Y-51069783D01*
X17399500Y-51082412D01*
X17399500Y-79718330D01*
X17399499Y-79718348D01*
X17399499Y-79884054D01*
X17399498Y-79884054D01*
X17399499Y-79884057D01*
X17440423Y-80036785D01*
X17451922Y-80056702D01*
X17469358Y-80086900D01*
X17469359Y-80086904D01*
X17469360Y-80086904D01*
X17519479Y-80173714D01*
X17519481Y-80173717D01*
X17638349Y-80292585D01*
X17638355Y-80292590D01*
X22302625Y-84956861D01*
X22336110Y-85018184D01*
X22331126Y-85087874D01*
X22280909Y-85222514D01*
X22280908Y-85222516D01*
X22274501Y-85282116D01*
X22274501Y-85282123D01*
X22274500Y-85282135D01*
X22274500Y-86377870D01*
X22274501Y-86377876D01*
X22280908Y-86437483D01*
X22331202Y-86572328D01*
X22331206Y-86572335D01*
X22417452Y-86687544D01*
X22417455Y-86687547D01*
X22532664Y-86773793D01*
X22532671Y-86773797D01*
X22667517Y-86824091D01*
X22667516Y-86824091D01*
X22674444Y-86824835D01*
X22727127Y-86830500D01*
X25322872Y-86830499D01*
X25382483Y-86824091D01*
X25517331Y-86773796D01*
X25632546Y-86687546D01*
X25718796Y-86572331D01*
X25769091Y-86437483D01*
X25775500Y-86377873D01*
X25775499Y-85282128D01*
X25769091Y-85222517D01*
X25765523Y-85212952D01*
X25718797Y-85087671D01*
X25718793Y-85087664D01*
X25632547Y-84972455D01*
X25632544Y-84972452D01*
X25517335Y-84886206D01*
X25517328Y-84886202D01*
X25382482Y-84835908D01*
X25382483Y-84835908D01*
X25322883Y-84829501D01*
X25322881Y-84829500D01*
X25322873Y-84829500D01*
X25322865Y-84829500D01*
X23925098Y-84829500D01*
X23858059Y-84809815D01*
X23837417Y-84793181D01*
X23545917Y-84501681D01*
X23512432Y-84440358D01*
X23517416Y-84370666D01*
X23559288Y-84314733D01*
X23624752Y-84290316D01*
X23633598Y-84290000D01*
X23775000Y-84290000D01*
X24275000Y-84290000D01*
X25322828Y-84290000D01*
X25322844Y-84289999D01*
X25382372Y-84283598D01*
X25382379Y-84283596D01*
X25517086Y-84233354D01*
X25517093Y-84233350D01*
X25632187Y-84147190D01*
X25632190Y-84147187D01*
X25718350Y-84032093D01*
X25718354Y-84032086D01*
X25768596Y-83897379D01*
X25768598Y-83897372D01*
X25774999Y-83837844D01*
X25775000Y-83837827D01*
X25775000Y-83540000D01*
X24275000Y-83540000D01*
X24275000Y-84290000D01*
X23775000Y-84290000D01*
X23775000Y-83040000D01*
X24275000Y-83040000D01*
X25775000Y-83040000D01*
X25775000Y-82742172D01*
X25774999Y-82742155D01*
X25768598Y-82682627D01*
X25768596Y-82682620D01*
X25718354Y-82547913D01*
X25718350Y-82547906D01*
X25632190Y-82432812D01*
X25632187Y-82432809D01*
X25517093Y-82346649D01*
X25517086Y-82346645D01*
X25382379Y-82296403D01*
X25382372Y-82296401D01*
X25322844Y-82290000D01*
X24275000Y-82290000D01*
X24275000Y-83040000D01*
X23775000Y-83040000D01*
X23775000Y-82290000D01*
X22727155Y-82290000D01*
X22667627Y-82296401D01*
X22667620Y-82296403D01*
X22532913Y-82346645D01*
X22532906Y-82346649D01*
X22417812Y-82432809D01*
X22417809Y-82432812D01*
X22331649Y-82547906D01*
X22331645Y-82547913D01*
X22281403Y-82682620D01*
X22281401Y-82682627D01*
X22275000Y-82742155D01*
X22275000Y-82931402D01*
X22255315Y-82998441D01*
X22202511Y-83044196D01*
X22133353Y-83054140D01*
X22069797Y-83025115D01*
X22063319Y-83019083D01*
X19246371Y-80202135D01*
X22274500Y-80202135D01*
X22274500Y-81297870D01*
X22274501Y-81297876D01*
X22280908Y-81357483D01*
X22331202Y-81492328D01*
X22331206Y-81492335D01*
X22417452Y-81607544D01*
X22417455Y-81607547D01*
X22532664Y-81693793D01*
X22532671Y-81693797D01*
X22667517Y-81744091D01*
X22667516Y-81744091D01*
X22674444Y-81744835D01*
X22727127Y-81750500D01*
X25322872Y-81750499D01*
X25382483Y-81744091D01*
X25517331Y-81693796D01*
X25632546Y-81607546D01*
X25718796Y-81492331D01*
X25769091Y-81357483D01*
X25775500Y-81297873D01*
X25775499Y-80202128D01*
X25769091Y-80142517D01*
X25750669Y-80093126D01*
X25718797Y-80007671D01*
X25718793Y-80007664D01*
X25632547Y-79892455D01*
X25632544Y-79892452D01*
X25517335Y-79806206D01*
X25517328Y-79806202D01*
X25382482Y-79755908D01*
X25382483Y-79755908D01*
X25322883Y-79749501D01*
X25322881Y-79749500D01*
X25322873Y-79749500D01*
X25322864Y-79749500D01*
X22727129Y-79749500D01*
X22727123Y-79749501D01*
X22667516Y-79755908D01*
X22532671Y-79806202D01*
X22532664Y-79806206D01*
X22417455Y-79892452D01*
X22417452Y-79892455D01*
X22331206Y-80007664D01*
X22331202Y-80007671D01*
X22280908Y-80142517D01*
X22274501Y-80202116D01*
X22274501Y-80202123D01*
X22274500Y-80202135D01*
X19246371Y-80202135D01*
X18636819Y-79592583D01*
X18603334Y-79531260D01*
X18600500Y-79504902D01*
X18600500Y-77662135D01*
X22274500Y-77662135D01*
X22274500Y-78757870D01*
X22274501Y-78757876D01*
X22280908Y-78817483D01*
X22331202Y-78952328D01*
X22331206Y-78952335D01*
X22417452Y-79067544D01*
X22417455Y-79067547D01*
X22532664Y-79153793D01*
X22532671Y-79153797D01*
X22667517Y-79204091D01*
X22667516Y-79204091D01*
X22674444Y-79204835D01*
X22727127Y-79210500D01*
X25322872Y-79210499D01*
X25382483Y-79204091D01*
X25517331Y-79153796D01*
X25632546Y-79067546D01*
X25718796Y-78952331D01*
X25769091Y-78817483D01*
X25775500Y-78757873D01*
X25775499Y-77662128D01*
X25769091Y-77602517D01*
X25740127Y-77524861D01*
X25718797Y-77467671D01*
X25718793Y-77467664D01*
X25632547Y-77352455D01*
X25632544Y-77352452D01*
X25517335Y-77266206D01*
X25517328Y-77266202D01*
X25382482Y-77215908D01*
X25382483Y-77215908D01*
X25322883Y-77209501D01*
X25322881Y-77209500D01*
X25322873Y-77209500D01*
X25322864Y-77209500D01*
X22727129Y-77209500D01*
X22727123Y-77209501D01*
X22667516Y-77215908D01*
X22532671Y-77266202D01*
X22532664Y-77266206D01*
X22417455Y-77352452D01*
X22417452Y-77352455D01*
X22331206Y-77467664D01*
X22331202Y-77467671D01*
X22280908Y-77602517D01*
X22274501Y-77662116D01*
X22274501Y-77662123D01*
X22274500Y-77662135D01*
X18600500Y-77662135D01*
X18600500Y-75122135D01*
X22274500Y-75122135D01*
X22274500Y-76217870D01*
X22274501Y-76217876D01*
X22280908Y-76277483D01*
X22331202Y-76412328D01*
X22331206Y-76412335D01*
X22417452Y-76527544D01*
X22417455Y-76527547D01*
X22532664Y-76613793D01*
X22532671Y-76613797D01*
X22667517Y-76664091D01*
X22667516Y-76664091D01*
X22674444Y-76664835D01*
X22727127Y-76670500D01*
X25322872Y-76670499D01*
X25382483Y-76664091D01*
X25517331Y-76613796D01*
X25632546Y-76527546D01*
X25718796Y-76412331D01*
X25769091Y-76277483D01*
X25775500Y-76217873D01*
X25775499Y-75122128D01*
X25769091Y-75062517D01*
X25740127Y-74984861D01*
X25718797Y-74927671D01*
X25718793Y-74927664D01*
X25632547Y-74812455D01*
X25632544Y-74812452D01*
X25517335Y-74726206D01*
X25517328Y-74726202D01*
X25382482Y-74675908D01*
X25382483Y-74675908D01*
X25322883Y-74669501D01*
X25322881Y-74669500D01*
X25322873Y-74669500D01*
X25322864Y-74669500D01*
X22727129Y-74669500D01*
X22727123Y-74669501D01*
X22667516Y-74675908D01*
X22532671Y-74726202D01*
X22532664Y-74726206D01*
X22417455Y-74812452D01*
X22417452Y-74812455D01*
X22331206Y-74927664D01*
X22331202Y-74927671D01*
X22280908Y-75062517D01*
X22274501Y-75122116D01*
X22274501Y-75122123D01*
X22274500Y-75122135D01*
X18600500Y-75122135D01*
X18600500Y-73677844D01*
X22275000Y-73677844D01*
X22281401Y-73737372D01*
X22281403Y-73737379D01*
X22331645Y-73872086D01*
X22331649Y-73872093D01*
X22417809Y-73987187D01*
X22417812Y-73987190D01*
X22532906Y-74073350D01*
X22532913Y-74073354D01*
X22667620Y-74123596D01*
X22667627Y-74123598D01*
X22727155Y-74129999D01*
X22727172Y-74130000D01*
X23775000Y-74130000D01*
X24275000Y-74130000D01*
X25322828Y-74130000D01*
X25322844Y-74129999D01*
X25382372Y-74123598D01*
X25382379Y-74123596D01*
X25517086Y-74073354D01*
X25517093Y-74073350D01*
X25632187Y-73987190D01*
X25632190Y-73987187D01*
X25718350Y-73872093D01*
X25718354Y-73872086D01*
X25768596Y-73737379D01*
X25768598Y-73737372D01*
X25774999Y-73677844D01*
X25775000Y-73677827D01*
X25775000Y-73380000D01*
X24275000Y-73380000D01*
X24275000Y-74130000D01*
X23775000Y-74130000D01*
X23775000Y-73380000D01*
X22275000Y-73380000D01*
X22275000Y-73677844D01*
X18600500Y-73677844D01*
X18600500Y-72582155D01*
X22275000Y-72582155D01*
X22275000Y-72880000D01*
X23775000Y-72880000D01*
X24275000Y-72880000D01*
X25775000Y-72880000D01*
X25775000Y-72582172D01*
X25774999Y-72582155D01*
X25768598Y-72522627D01*
X25768596Y-72522620D01*
X25718354Y-72387913D01*
X25718350Y-72387906D01*
X25632190Y-72272812D01*
X25632187Y-72272809D01*
X25517093Y-72186649D01*
X25517086Y-72186645D01*
X25382379Y-72136403D01*
X25382372Y-72136401D01*
X25322844Y-72130000D01*
X24275000Y-72130000D01*
X24275000Y-72880000D01*
X23775000Y-72880000D01*
X23775000Y-72130000D01*
X22727155Y-72130000D01*
X22667627Y-72136401D01*
X22667620Y-72136403D01*
X22532913Y-72186645D01*
X22532906Y-72186649D01*
X22417812Y-72272809D01*
X22417809Y-72272812D01*
X22331649Y-72387906D01*
X22331645Y-72387913D01*
X22281403Y-72522620D01*
X22281401Y-72522627D01*
X22275000Y-72582155D01*
X18600500Y-72582155D01*
X18600500Y-66314097D01*
X18620185Y-66247058D01*
X18672989Y-66201303D01*
X18742147Y-66191359D01*
X18805703Y-66220384D01*
X18812181Y-66226416D01*
X22302625Y-69716861D01*
X22336110Y-69778184D01*
X22331126Y-69847874D01*
X22280909Y-69982514D01*
X22280908Y-69982516D01*
X22274501Y-70042116D01*
X22274501Y-70042123D01*
X22274500Y-70042135D01*
X22274500Y-71137870D01*
X22274501Y-71137876D01*
X22280908Y-71197483D01*
X22331202Y-71332328D01*
X22331206Y-71332335D01*
X22417452Y-71447544D01*
X22417455Y-71447547D01*
X22532664Y-71533793D01*
X22532671Y-71533797D01*
X22667517Y-71584091D01*
X22667516Y-71584091D01*
X22674444Y-71584835D01*
X22727127Y-71590500D01*
X25322872Y-71590499D01*
X25382483Y-71584091D01*
X25517331Y-71533796D01*
X25632546Y-71447546D01*
X25718796Y-71332331D01*
X25769091Y-71197483D01*
X25775500Y-71137873D01*
X25775499Y-70042128D01*
X25769091Y-69982517D01*
X25743162Y-69912999D01*
X25718797Y-69847671D01*
X25718793Y-69847664D01*
X25632547Y-69732455D01*
X25632544Y-69732452D01*
X25517335Y-69646206D01*
X25517328Y-69646202D01*
X25382482Y-69595908D01*
X25382483Y-69595908D01*
X25322883Y-69589501D01*
X25322881Y-69589500D01*
X25322873Y-69589500D01*
X25322865Y-69589500D01*
X23925098Y-69589500D01*
X23858059Y-69569815D01*
X23837417Y-69553181D01*
X23545917Y-69261681D01*
X23512432Y-69200358D01*
X23517416Y-69130666D01*
X23559288Y-69074733D01*
X23624752Y-69050316D01*
X23633598Y-69050000D01*
X23775000Y-69050000D01*
X24275000Y-69050000D01*
X25322828Y-69050000D01*
X25322844Y-69049999D01*
X25382372Y-69043598D01*
X25382379Y-69043596D01*
X25517086Y-68993354D01*
X25517093Y-68993350D01*
X25632187Y-68907190D01*
X25632190Y-68907187D01*
X25718350Y-68792093D01*
X25718354Y-68792086D01*
X25768596Y-68657379D01*
X25768598Y-68657372D01*
X25774999Y-68597844D01*
X25775000Y-68597827D01*
X25775000Y-68300000D01*
X24275000Y-68300000D01*
X24275000Y-69050000D01*
X23775000Y-69050000D01*
X23775000Y-67800000D01*
X24275000Y-67800000D01*
X25775000Y-67800000D01*
X25775000Y-67502172D01*
X25774999Y-67502155D01*
X25768598Y-67442627D01*
X25768596Y-67442620D01*
X25718354Y-67307913D01*
X25718350Y-67307906D01*
X25632190Y-67192812D01*
X25632187Y-67192809D01*
X25517093Y-67106649D01*
X25517086Y-67106645D01*
X25382379Y-67056403D01*
X25382372Y-67056401D01*
X25322844Y-67050000D01*
X24275000Y-67050000D01*
X24275000Y-67800000D01*
X23775000Y-67800000D01*
X23775000Y-67050000D01*
X22727155Y-67050000D01*
X22667627Y-67056401D01*
X22667620Y-67056403D01*
X22532913Y-67106645D01*
X22532906Y-67106649D01*
X22417812Y-67192809D01*
X22417809Y-67192812D01*
X22331649Y-67307906D01*
X22331645Y-67307913D01*
X22281403Y-67442620D01*
X22281401Y-67442627D01*
X22275000Y-67502155D01*
X22275000Y-67691402D01*
X22255315Y-67758441D01*
X22202511Y-67804196D01*
X22133353Y-67814140D01*
X22069797Y-67785115D01*
X22063319Y-67779083D01*
X19736819Y-65452583D01*
X19703334Y-65391260D01*
X19700500Y-65364902D01*
X19700500Y-62334097D01*
X19720185Y-62267058D01*
X19772989Y-62221303D01*
X19842147Y-62211359D01*
X19905703Y-62240384D01*
X19912181Y-62246416D01*
X22302625Y-64636860D01*
X22336110Y-64698183D01*
X22331126Y-64767873D01*
X22280909Y-64902514D01*
X22280908Y-64902516D01*
X22274501Y-64962116D01*
X22274501Y-64962123D01*
X22274500Y-64962135D01*
X22274500Y-66057870D01*
X22274501Y-66057876D01*
X22280908Y-66117483D01*
X22331202Y-66252328D01*
X22331206Y-66252335D01*
X22417452Y-66367544D01*
X22417455Y-66367547D01*
X22532664Y-66453793D01*
X22532671Y-66453797D01*
X22667517Y-66504091D01*
X22667516Y-66504091D01*
X22674444Y-66504835D01*
X22727127Y-66510500D01*
X25322872Y-66510499D01*
X25382483Y-66504091D01*
X25517331Y-66453796D01*
X25632546Y-66367546D01*
X25718796Y-66252331D01*
X25769091Y-66117483D01*
X25775500Y-66057873D01*
X25775499Y-64962128D01*
X25769091Y-64902517D01*
X25757467Y-64871352D01*
X25718797Y-64767671D01*
X25718793Y-64767664D01*
X25632547Y-64652455D01*
X25632544Y-64652452D01*
X25517335Y-64566206D01*
X25517328Y-64566202D01*
X25382482Y-64515908D01*
X25382483Y-64515908D01*
X25322883Y-64509501D01*
X25322881Y-64509500D01*
X25322873Y-64509500D01*
X25322865Y-64509500D01*
X23925097Y-64509500D01*
X23858058Y-64489815D01*
X23837416Y-64473181D01*
X23546415Y-64182180D01*
X23512930Y-64120857D01*
X23517914Y-64051165D01*
X23559786Y-63995232D01*
X23625250Y-63970815D01*
X23634096Y-63970499D01*
X25322871Y-63970499D01*
X25322872Y-63970499D01*
X25382483Y-63964091D01*
X25517331Y-63913796D01*
X25632546Y-63827546D01*
X25718796Y-63712331D01*
X25769091Y-63577483D01*
X25775500Y-63517873D01*
X25775499Y-62422128D01*
X25769091Y-62362517D01*
X25757467Y-62331352D01*
X25718797Y-62227671D01*
X25718793Y-62227664D01*
X25632547Y-62112455D01*
X25632544Y-62112452D01*
X25517335Y-62026206D01*
X25517328Y-62026202D01*
X25382482Y-61975908D01*
X25382483Y-61975908D01*
X25322883Y-61969501D01*
X25322881Y-61969500D01*
X25322873Y-61969500D01*
X25322865Y-61969500D01*
X24824500Y-61969500D01*
X24757461Y-61949815D01*
X24711706Y-61897011D01*
X24700500Y-61845500D01*
X24700500Y-55525493D01*
X24719508Y-55459519D01*
X24725787Y-55449525D01*
X24725786Y-55449525D01*
X24725789Y-55449522D01*
X24785368Y-55279255D01*
X24801218Y-55138584D01*
X24805565Y-55100003D01*
X24805565Y-55099996D01*
X24785369Y-54920750D01*
X24785368Y-54920745D01*
X24725788Y-54750476D01*
X24629815Y-54597737D01*
X24502262Y-54470184D01*
X24349523Y-54374211D01*
X24179254Y-54314631D01*
X24179249Y-54314630D01*
X24000004Y-54294435D01*
X23999996Y-54294435D01*
X23820750Y-54314630D01*
X23820745Y-54314631D01*
X23650476Y-54374211D01*
X23497737Y-54470184D01*
X23370184Y-54597737D01*
X23274211Y-54750476D01*
X23214631Y-54920745D01*
X23214630Y-54920750D01*
X23194435Y-55099996D01*
X23194435Y-55100003D01*
X23214630Y-55279249D01*
X23214631Y-55279254D01*
X23274211Y-55449524D01*
X23330493Y-55539094D01*
X23349500Y-55605067D01*
X23349500Y-61845500D01*
X23329815Y-61912539D01*
X23277011Y-61958294D01*
X23225500Y-61969500D01*
X22727129Y-61969500D01*
X22727123Y-61969501D01*
X22667516Y-61975908D01*
X22532671Y-62026202D01*
X22532664Y-62026206D01*
X22417455Y-62112452D01*
X22417452Y-62112455D01*
X22331206Y-62227664D01*
X22331202Y-62227671D01*
X22280908Y-62362517D01*
X22277525Y-62393988D01*
X22274501Y-62422123D01*
X22274500Y-62422135D01*
X22274500Y-62610903D01*
X22254815Y-62677942D01*
X22202011Y-62723697D01*
X22132853Y-62733641D01*
X22069297Y-62704616D01*
X22062819Y-62698584D01*
X20136819Y-60772584D01*
X20103334Y-60711261D01*
X20100500Y-60684903D01*
X20100500Y-39616321D01*
X20120185Y-39549282D01*
X20172989Y-39503527D01*
X20210612Y-39493101D01*
X20279255Y-39485368D01*
X20449522Y-39425789D01*
X20602262Y-39329816D01*
X20729816Y-39202262D01*
X20825789Y-39049522D01*
X20885368Y-38879255D01*
X20885369Y-38879249D01*
X20905565Y-38700003D01*
X20905565Y-38699997D01*
X20893653Y-38594278D01*
X20905707Y-38525456D01*
X20953056Y-38474076D01*
X21020666Y-38456452D01*
X21057828Y-38463353D01*
X21120737Y-38485366D01*
X21120743Y-38485367D01*
X21120745Y-38485368D01*
X21120746Y-38485368D01*
X21120750Y-38485369D01*
X21299996Y-38505565D01*
X21300000Y-38505565D01*
X21300004Y-38505565D01*
X21479249Y-38485369D01*
X21479252Y-38485368D01*
X21479255Y-38485368D01*
X21649522Y-38425789D01*
X21802262Y-38329816D01*
X21929816Y-38202262D01*
X22025789Y-38049522D01*
X22057275Y-37959537D01*
X22097996Y-37902763D01*
X22162949Y-37877015D01*
X22215272Y-37883453D01*
X22220745Y-37885368D01*
X22220752Y-37885368D01*
X22220753Y-37885369D01*
X22399996Y-37905565D01*
X22400000Y-37905565D01*
X22400004Y-37905565D01*
X22579249Y-37885369D01*
X22579252Y-37885368D01*
X22579255Y-37885368D01*
X22749522Y-37825789D01*
X22902262Y-37729816D01*
X23029816Y-37602262D01*
X23125789Y-37449522D01*
X23185368Y-37279255D01*
X23195161Y-37192329D01*
X23222226Y-37127918D01*
X23230690Y-37118543D01*
X39411166Y-20938069D01*
X39472489Y-20904584D01*
X39498847Y-20901750D01*
X39969874Y-20901750D01*
X40036913Y-20921435D01*
X40082668Y-20974239D01*
X40092612Y-21043397D01*
X40063587Y-21106953D01*
X40057555Y-21113430D01*
X32736742Y-28434243D01*
X25431286Y-35739699D01*
X25319481Y-35851503D01*
X25319480Y-35851505D01*
X25276720Y-35925568D01*
X25240423Y-35988436D01*
X25199499Y-36141164D01*
X25199499Y-36141166D01*
X25199499Y-36186339D01*
X25179814Y-36253378D01*
X25172445Y-36263653D01*
X25170184Y-36266487D01*
X25074211Y-36419226D01*
X25014631Y-36589495D01*
X25014630Y-36589500D01*
X24994435Y-36768746D01*
X24994435Y-36768753D01*
X25014630Y-36947999D01*
X25014631Y-36948004D01*
X25074211Y-37118273D01*
X25170184Y-37271012D01*
X25254595Y-37355423D01*
X25288080Y-37416746D01*
X25283096Y-37486438D01*
X25241224Y-37542371D01*
X25232888Y-37548096D01*
X25197742Y-37570180D01*
X25197737Y-37570184D01*
X25070184Y-37697737D01*
X24974211Y-37850476D01*
X24914631Y-38020745D01*
X24914630Y-38020750D01*
X24894435Y-38199996D01*
X24894435Y-38200003D01*
X24914630Y-38379249D01*
X24914631Y-38379254D01*
X24974211Y-38549523D01*
X25070185Y-38702263D01*
X25072445Y-38705097D01*
X25073334Y-38707275D01*
X25073889Y-38708158D01*
X25073734Y-38708255D01*
X25098855Y-38769783D01*
X25099500Y-38782412D01*
X25099500Y-47613330D01*
X25099499Y-47613348D01*
X25099499Y-47779054D01*
X25099498Y-47779054D01*
X25140423Y-47931785D01*
X25169358Y-47981900D01*
X25169359Y-47981904D01*
X25169360Y-47981904D01*
X25219479Y-48068714D01*
X25219481Y-48068717D01*
X25338349Y-48187585D01*
X25338355Y-48187590D01*
X33269298Y-56118533D01*
X33302783Y-56179856D01*
X33304837Y-56192330D01*
X33314630Y-56279249D01*
X33374210Y-56449521D01*
X33422782Y-56526822D01*
X33470184Y-56602262D01*
X33597738Y-56729816D01*
X33750478Y-56825789D01*
X33874585Y-56869216D01*
X33920745Y-56885368D01*
X33920750Y-56885369D01*
X34089383Y-56904369D01*
X34153797Y-56931435D01*
X34193352Y-56989030D01*
X34199500Y-57027589D01*
X34199500Y-63017587D01*
X34179815Y-63084626D01*
X34172450Y-63094896D01*
X34170186Y-63097734D01*
X34074211Y-63250476D01*
X34014631Y-63420745D01*
X34014630Y-63420750D01*
X33994435Y-63599996D01*
X33994435Y-63600003D01*
X34014630Y-63779249D01*
X34014631Y-63779254D01*
X34074211Y-63949523D01*
X34170184Y-64102262D01*
X34297738Y-64229816D01*
X34450478Y-64325789D01*
X34620745Y-64385368D01*
X34689384Y-64393101D01*
X34753796Y-64420166D01*
X34793352Y-64477760D01*
X34799500Y-64516321D01*
X34799500Y-70217587D01*
X34779815Y-70284626D01*
X34772450Y-70294896D01*
X34770186Y-70297734D01*
X34674211Y-70450476D01*
X34614631Y-70620745D01*
X34614630Y-70620750D01*
X34594435Y-70799996D01*
X34594435Y-70800003D01*
X34614630Y-70979249D01*
X34614631Y-70979254D01*
X34674211Y-71149523D01*
X34770184Y-71302262D01*
X34897738Y-71429816D01*
X35050478Y-71525789D01*
X35220745Y-71585368D01*
X35289384Y-71593101D01*
X35353796Y-71620166D01*
X35393352Y-71677760D01*
X35399500Y-71716321D01*
X35399500Y-78417587D01*
X35379815Y-78484626D01*
X35372450Y-78494896D01*
X35370186Y-78497734D01*
X35274211Y-78650476D01*
X35214631Y-78820745D01*
X35214630Y-78820750D01*
X35194435Y-78999996D01*
X35194435Y-79000003D01*
X35214630Y-79179249D01*
X35214631Y-79179254D01*
X35274211Y-79349523D01*
X35350634Y-79471148D01*
X35370184Y-79502262D01*
X35497738Y-79629816D01*
X35588080Y-79686582D01*
X35638635Y-79718348D01*
X35650478Y-79725789D01*
X35820745Y-79785368D01*
X35889384Y-79793101D01*
X35953796Y-79820166D01*
X35993352Y-79877760D01*
X35999500Y-79916321D01*
X35999500Y-84417587D01*
X35979815Y-84484626D01*
X35972450Y-84494896D01*
X35970186Y-84497734D01*
X35874211Y-84650476D01*
X35814631Y-84820745D01*
X35814630Y-84820750D01*
X35794435Y-84999996D01*
X35794435Y-85000003D01*
X35814630Y-85179249D01*
X35814631Y-85179254D01*
X35874211Y-85349523D01*
X35942898Y-85458837D01*
X35970184Y-85502262D01*
X36097738Y-85629816D01*
X36250478Y-85725789D01*
X36420745Y-85785368D01*
X36489384Y-85793101D01*
X36553796Y-85820166D01*
X36593352Y-85877760D01*
X36599500Y-85916321D01*
X36599500Y-91574507D01*
X36580494Y-91640478D01*
X36574209Y-91650479D01*
X36514633Y-91820737D01*
X36514630Y-91820750D01*
X36494435Y-91999996D01*
X36494435Y-92000003D01*
X36514630Y-92179249D01*
X36514631Y-92179254D01*
X36574211Y-92349523D01*
X36670184Y-92502262D01*
X36797738Y-92629816D01*
X36950478Y-92725789D01*
X37120745Y-92785368D01*
X37120750Y-92785369D01*
X37299996Y-92805565D01*
X37300000Y-92805565D01*
X37300004Y-92805565D01*
X37479249Y-92785369D01*
X37479252Y-92785368D01*
X37479255Y-92785368D01*
X37649522Y-92725789D01*
X37802262Y-92629816D01*
X37929816Y-92502262D01*
X38025789Y-92349522D01*
X38085368Y-92179255D01*
X38105565Y-92000000D01*
X38085368Y-91820745D01*
X38025789Y-91650478D01*
X38000499Y-91610230D01*
X37978053Y-91574507D01*
X37929816Y-91497738D01*
X37836818Y-91404740D01*
X37803334Y-91343416D01*
X37800500Y-91317059D01*
X37800500Y-41919879D01*
X37800501Y-41919866D01*
X37800501Y-41751765D01*
X37800501Y-41751763D01*
X37759577Y-41599035D01*
X37727684Y-41543795D01*
X37680520Y-41462104D01*
X37568716Y-41350300D01*
X37568715Y-41350299D01*
X37564385Y-41345969D01*
X37564374Y-41345959D01*
X32084156Y-35865741D01*
X32050671Y-35804418D01*
X32055655Y-35734726D01*
X32097527Y-35678793D01*
X32162991Y-35654376D01*
X32171837Y-35654060D01*
X53664713Y-35654060D01*
X53731752Y-35673745D01*
X53752394Y-35690379D01*
X56307707Y-38245692D01*
X56341192Y-38307015D01*
X56336208Y-38376707D01*
X56334588Y-38380823D01*
X56313127Y-38432636D01*
X56313127Y-38432637D01*
X56254317Y-38677598D01*
X56234551Y-38928750D01*
X56254317Y-39179901D01*
X56313126Y-39424860D01*
X56409533Y-39657609D01*
X56541160Y-39872403D01*
X56541161Y-39872406D01*
X56596604Y-39937321D01*
X56704776Y-40063974D01*
X56853066Y-40190625D01*
X56896343Y-40227588D01*
X56896346Y-40227589D01*
X57105375Y-40355683D01*
X57111141Y-40359216D01*
X57162953Y-40380677D01*
X57217355Y-40424515D01*
X57239421Y-40490809D01*
X57239500Y-40495237D01*
X57239500Y-56412261D01*
X57219815Y-56479300D01*
X57167011Y-56525055D01*
X57162953Y-56526822D01*
X57111140Y-56548283D01*
X56896346Y-56679910D01*
X56896343Y-56679911D01*
X56704776Y-56843526D01*
X56541161Y-57035093D01*
X56541160Y-57035096D01*
X56409533Y-57249890D01*
X56313126Y-57482639D01*
X56254317Y-57727598D01*
X56234551Y-57978750D01*
X56254317Y-58229901D01*
X56313126Y-58474860D01*
X56409533Y-58707609D01*
X56541160Y-58922403D01*
X56541161Y-58922406D01*
X56596604Y-58987321D01*
X56704776Y-59113974D01*
X56853066Y-59240625D01*
X56896343Y-59277588D01*
X56896346Y-59277589D01*
X57105375Y-59405683D01*
X57111141Y-59409216D01*
X57162953Y-59430677D01*
X57217355Y-59474515D01*
X57239421Y-59540809D01*
X57239500Y-59545237D01*
X57239500Y-75462261D01*
X57219815Y-75529300D01*
X57167011Y-75575055D01*
X57162953Y-75576822D01*
X57111140Y-75598283D01*
X56896346Y-75729910D01*
X56896343Y-75729911D01*
X56704776Y-75893526D01*
X56541161Y-76085093D01*
X56541160Y-76085096D01*
X56409533Y-76299890D01*
X56313126Y-76532639D01*
X56254317Y-76777598D01*
X56234551Y-77028750D01*
X56254317Y-77279901D01*
X56313126Y-77524860D01*
X56409533Y-77757609D01*
X56541160Y-77972403D01*
X56541161Y-77972406D01*
X56541164Y-77972409D01*
X56704776Y-78163974D01*
X56806045Y-78250466D01*
X56896343Y-78327588D01*
X56896346Y-78327589D01*
X57056036Y-78425448D01*
X57111141Y-78459216D01*
X57162953Y-78480677D01*
X57217355Y-78524515D01*
X57239421Y-78590809D01*
X57239500Y-78595237D01*
X57239500Y-105070827D01*
X57221227Y-105135617D01*
X57094828Y-105341879D01*
X56998421Y-105574628D01*
X56939612Y-105819587D01*
X56919846Y-106070739D01*
X56939612Y-106321890D01*
X56998421Y-106566849D01*
X57094828Y-106799598D01*
X57226455Y-107014392D01*
X57226456Y-107014395D01*
X57226459Y-107014398D01*
X57390071Y-107205963D01*
X57473546Y-107277257D01*
X57581638Y-107369577D01*
X57581641Y-107369578D01*
X57796435Y-107501205D01*
X57974181Y-107574829D01*
X58029184Y-107597612D01*
X58274147Y-107656422D01*
X58525295Y-107676188D01*
X58776443Y-107656422D01*
X59021406Y-107597612D01*
X59254154Y-107501205D01*
X59468954Y-107369575D01*
X59660519Y-107205963D01*
X59824131Y-107014398D01*
X59955761Y-106799598D01*
X59977222Y-106747787D01*
X60021062Y-106693383D01*
X60087356Y-106671318D01*
X60091783Y-106671239D01*
X71695790Y-106671239D01*
X71762829Y-106690924D01*
X71783471Y-106707558D01*
X73398151Y-108322238D01*
X73431636Y-108383561D01*
X73426652Y-108453253D01*
X73425032Y-108457369D01*
X73403571Y-108509182D01*
X73403571Y-108509183D01*
X73344761Y-108754144D01*
X73324995Y-109005296D01*
X73344761Y-109256447D01*
X73403570Y-109501406D01*
X73499977Y-109734155D01*
X73631604Y-109948949D01*
X73631605Y-109948952D01*
X73631608Y-109948955D01*
X73795220Y-110140520D01*
X73943510Y-110267171D01*
X73986787Y-110304134D01*
X73986790Y-110304135D01*
X74201584Y-110435762D01*
X74339275Y-110492795D01*
X74434333Y-110532169D01*
X74679296Y-110590979D01*
X74930444Y-110610745D01*
X75181592Y-110590979D01*
X75426555Y-110532169D01*
X75659303Y-110435762D01*
X75874103Y-110304132D01*
X76065668Y-110140520D01*
X76229280Y-109948955D01*
X76360910Y-109734155D01*
X76457317Y-109501407D01*
X76516127Y-109256444D01*
X76524309Y-109152486D01*
X77249500Y-109152486D01*
X77249500Y-109447513D01*
X77275210Y-109642794D01*
X77288007Y-109739993D01*
X77343997Y-109948952D01*
X77364361Y-110024951D01*
X77364364Y-110024961D01*
X77477254Y-110297500D01*
X77477258Y-110297510D01*
X77624761Y-110552993D01*
X77804352Y-110787040D01*
X77804358Y-110787047D01*
X78012952Y-110995641D01*
X78012959Y-110995647D01*
X78247006Y-111175238D01*
X78502489Y-111322741D01*
X78502490Y-111322741D01*
X78502493Y-111322743D01*
X78713296Y-111410060D01*
X78774043Y-111435223D01*
X78775048Y-111435639D01*
X79060007Y-111511993D01*
X79352494Y-111550500D01*
X79352501Y-111550500D01*
X79647499Y-111550500D01*
X79647506Y-111550500D01*
X79939993Y-111511993D01*
X80224952Y-111435639D01*
X80497507Y-111322743D01*
X80752994Y-111175238D01*
X80987042Y-110995646D01*
X81195646Y-110787042D01*
X81375238Y-110552994D01*
X81522743Y-110297507D01*
X81635639Y-110024952D01*
X81711993Y-109739993D01*
X81750500Y-109447506D01*
X81750500Y-109152494D01*
X81711993Y-108860007D01*
X81635639Y-108575048D01*
X81522743Y-108302493D01*
X81375238Y-108047006D01*
X81195646Y-107812958D01*
X81195641Y-107812952D01*
X80987047Y-107604358D01*
X80987040Y-107604352D01*
X80752993Y-107424761D01*
X80497510Y-107277258D01*
X80497500Y-107277254D01*
X80224961Y-107164364D01*
X80224954Y-107164362D01*
X80224952Y-107164361D01*
X79939993Y-107088007D01*
X79891113Y-107081571D01*
X79647513Y-107049500D01*
X79647506Y-107049500D01*
X79352494Y-107049500D01*
X79352486Y-107049500D01*
X79074085Y-107086153D01*
X79060007Y-107088007D01*
X78775048Y-107164361D01*
X78775038Y-107164364D01*
X78502499Y-107277254D01*
X78502489Y-107277258D01*
X78247006Y-107424761D01*
X78012959Y-107604352D01*
X78012952Y-107604358D01*
X77804358Y-107812952D01*
X77804352Y-107812959D01*
X77624761Y-108047006D01*
X77477258Y-108302489D01*
X77477254Y-108302499D01*
X77364364Y-108575038D01*
X77364361Y-108575048D01*
X77332341Y-108694551D01*
X77288008Y-108860004D01*
X77288006Y-108860015D01*
X77249500Y-109152486D01*
X76524309Y-109152486D01*
X76535893Y-109005296D01*
X76516127Y-108754148D01*
X76457317Y-108509185D01*
X76404149Y-108380825D01*
X76360910Y-108276436D01*
X76229283Y-108061642D01*
X76229282Y-108061639D01*
X76089639Y-107898139D01*
X76065668Y-107870072D01*
X75939015Y-107761900D01*
X75874100Y-107706457D01*
X75874097Y-107706456D01*
X75659303Y-107574829D01*
X75426554Y-107478422D01*
X75181595Y-107419613D01*
X74930444Y-107399847D01*
X74679292Y-107419613D01*
X74434331Y-107478423D01*
X74434330Y-107478423D01*
X74382517Y-107499884D01*
X74313048Y-107507351D01*
X74250569Y-107476075D01*
X74247386Y-107473003D01*
X72483477Y-105709094D01*
X72483475Y-105709091D01*
X72364604Y-105590220D01*
X72364599Y-105590216D01*
X72237591Y-105516889D01*
X72237589Y-105516888D01*
X72227672Y-105511162D01*
X72074944Y-105470238D01*
X71916830Y-105470238D01*
X71909234Y-105470238D01*
X71909218Y-105470239D01*
X60091783Y-105470239D01*
X60024744Y-105450554D01*
X59978989Y-105397750D01*
X59977222Y-105393691D01*
X59955762Y-105341882D01*
X59955761Y-105341880D01*
X59824134Y-105127085D01*
X59824133Y-105127082D01*
X59781270Y-105076896D01*
X59660519Y-104935515D01*
X59533866Y-104827343D01*
X59468951Y-104771900D01*
X59468948Y-104771899D01*
X59254154Y-104640272D01*
X59021405Y-104543865D01*
X58776446Y-104485056D01*
X58645052Y-104474715D01*
X58554770Y-104467609D01*
X58489482Y-104442726D01*
X58448012Y-104386495D01*
X58440500Y-104343992D01*
X58440500Y-103630591D01*
X77554256Y-103630591D01*
X77574022Y-103881742D01*
X77632831Y-104126701D01*
X77729238Y-104359450D01*
X77860865Y-104574244D01*
X77860866Y-104574247D01*
X77860869Y-104574250D01*
X78024481Y-104765815D01*
X78097231Y-104827949D01*
X78216048Y-104929429D01*
X78216051Y-104929430D01*
X78430845Y-105061057D01*
X78553375Y-105111810D01*
X78663594Y-105157464D01*
X78908557Y-105216274D01*
X79159705Y-105236040D01*
X79410853Y-105216274D01*
X79655816Y-105157464D01*
X79888564Y-105061057D01*
X80103364Y-104929427D01*
X80294929Y-104765815D01*
X80458541Y-104574250D01*
X80590171Y-104359450D01*
X80686578Y-104126702D01*
X80745388Y-103881739D01*
X80765154Y-103630591D01*
X80745388Y-103379443D01*
X80686578Y-103134480D01*
X80640295Y-103022743D01*
X80590171Y-102901731D01*
X80458544Y-102686937D01*
X80458543Y-102686934D01*
X80384171Y-102599856D01*
X80294929Y-102495367D01*
X80164229Y-102383739D01*
X80103361Y-102331752D01*
X80103358Y-102331751D01*
X79888564Y-102200124D01*
X79655815Y-102103717D01*
X79410856Y-102044908D01*
X79159705Y-102025142D01*
X78908553Y-102044908D01*
X78663594Y-102103717D01*
X78430845Y-102200124D01*
X78216051Y-102331751D01*
X78216048Y-102331752D01*
X78024481Y-102495367D01*
X77860866Y-102686934D01*
X77860865Y-102686937D01*
X77729238Y-102901731D01*
X77632831Y-103134480D01*
X77574022Y-103379439D01*
X77554256Y-103630591D01*
X58440500Y-103630591D01*
X58440500Y-100852486D01*
X116549500Y-100852486D01*
X116549500Y-101147513D01*
X116562416Y-101245614D01*
X116588007Y-101439993D01*
X116662254Y-101717088D01*
X116664361Y-101724951D01*
X116664364Y-101724961D01*
X116777254Y-101997500D01*
X116777258Y-101997510D01*
X116924761Y-102252993D01*
X117104352Y-102487040D01*
X117104358Y-102487047D01*
X117312952Y-102695641D01*
X117312959Y-102695647D01*
X117547006Y-102875238D01*
X117802489Y-103022741D01*
X117802490Y-103022741D01*
X117802493Y-103022743D01*
X118075048Y-103135639D01*
X118360007Y-103211993D01*
X118652494Y-103250500D01*
X118652501Y-103250500D01*
X118947499Y-103250500D01*
X118947506Y-103250500D01*
X119074840Y-103233736D01*
X135599500Y-103233736D01*
X135599500Y-103528763D01*
X135622443Y-103703024D01*
X135638007Y-103821243D01*
X135703818Y-104066854D01*
X135714361Y-104106201D01*
X135714364Y-104106211D01*
X135827254Y-104378750D01*
X135827258Y-104378760D01*
X135974761Y-104634243D01*
X136154352Y-104868290D01*
X136154358Y-104868297D01*
X136362952Y-105076891D01*
X136362959Y-105076897D01*
X136597006Y-105256488D01*
X136852489Y-105403991D01*
X136852490Y-105403991D01*
X136852493Y-105403993D01*
X137125048Y-105516889D01*
X137410007Y-105593243D01*
X137702494Y-105631750D01*
X137702501Y-105631750D01*
X137997499Y-105631750D01*
X137997506Y-105631750D01*
X138124840Y-105614986D01*
X154649500Y-105614986D01*
X154649500Y-105910013D01*
X154670661Y-106070739D01*
X154688007Y-106202493D01*
X154719999Y-106321890D01*
X154764361Y-106487451D01*
X154764364Y-106487461D01*
X154877254Y-106760000D01*
X154877258Y-106760010D01*
X155024761Y-107015493D01*
X155204352Y-107249540D01*
X155204358Y-107249547D01*
X155412952Y-107458141D01*
X155412959Y-107458147D01*
X155647006Y-107637738D01*
X155902489Y-107785241D01*
X155902490Y-107785241D01*
X155902493Y-107785243D01*
X156175048Y-107898139D01*
X156460007Y-107974493D01*
X156752494Y-108013000D01*
X156752501Y-108013000D01*
X157047499Y-108013000D01*
X157047506Y-108013000D01*
X157339993Y-107974493D01*
X157624952Y-107898139D01*
X157897507Y-107785243D01*
X158152994Y-107637738D01*
X158387042Y-107458146D01*
X158595646Y-107249542D01*
X158775238Y-107015494D01*
X158922743Y-106760007D01*
X159035639Y-106487452D01*
X159111993Y-106202493D01*
X159150500Y-105910006D01*
X159150500Y-105614994D01*
X159150499Y-105614986D01*
X173699500Y-105614986D01*
X173699500Y-105910013D01*
X173720661Y-106070739D01*
X173738007Y-106202493D01*
X173769999Y-106321890D01*
X173814361Y-106487451D01*
X173814364Y-106487461D01*
X173927254Y-106760000D01*
X173927258Y-106760010D01*
X174074761Y-107015493D01*
X174254352Y-107249540D01*
X174254358Y-107249547D01*
X174462952Y-107458141D01*
X174462959Y-107458147D01*
X174697006Y-107637738D01*
X174952489Y-107785241D01*
X174952490Y-107785241D01*
X174952493Y-107785243D01*
X175225048Y-107898139D01*
X175510007Y-107974493D01*
X175802494Y-108013000D01*
X175802501Y-108013000D01*
X176097499Y-108013000D01*
X176097506Y-108013000D01*
X176389993Y-107974493D01*
X176674952Y-107898139D01*
X176947507Y-107785243D01*
X177202994Y-107637738D01*
X177437042Y-107458146D01*
X177645646Y-107249542D01*
X177825238Y-107015494D01*
X177972743Y-106760007D01*
X178085639Y-106487452D01*
X178161993Y-106202493D01*
X178200500Y-105910006D01*
X178200500Y-105614994D01*
X178161993Y-105322507D01*
X178085639Y-105037548D01*
X177972743Y-104764993D01*
X177908064Y-104652966D01*
X177825238Y-104509506D01*
X177645647Y-104275459D01*
X177645641Y-104275452D01*
X177437047Y-104066858D01*
X177437040Y-104066852D01*
X177202993Y-103887261D01*
X176947510Y-103739758D01*
X176947500Y-103739754D01*
X176674961Y-103626864D01*
X176674954Y-103626862D01*
X176674952Y-103626861D01*
X176389993Y-103550507D01*
X176341113Y-103544071D01*
X176097513Y-103512000D01*
X176097506Y-103512000D01*
X175802494Y-103512000D01*
X175802486Y-103512000D01*
X175524085Y-103548653D01*
X175510007Y-103550507D01*
X175225048Y-103626861D01*
X175225038Y-103626864D01*
X174952499Y-103739754D01*
X174952489Y-103739758D01*
X174697006Y-103887261D01*
X174462959Y-104066852D01*
X174462952Y-104066858D01*
X174254358Y-104275452D01*
X174254352Y-104275459D01*
X174074761Y-104509506D01*
X173927258Y-104764989D01*
X173927254Y-104764999D01*
X173814364Y-105037538D01*
X173814361Y-105037548D01*
X173738008Y-105322504D01*
X173738006Y-105322515D01*
X173699500Y-105614986D01*
X159150499Y-105614986D01*
X159111993Y-105322507D01*
X159035639Y-105037548D01*
X158922743Y-104764993D01*
X158858064Y-104652966D01*
X158775238Y-104509506D01*
X158595647Y-104275459D01*
X158595641Y-104275452D01*
X158387047Y-104066858D01*
X158387040Y-104066852D01*
X158152993Y-103887261D01*
X157897510Y-103739758D01*
X157897500Y-103739754D01*
X157624961Y-103626864D01*
X157624954Y-103626862D01*
X157624952Y-103626861D01*
X157339993Y-103550507D01*
X157291113Y-103544071D01*
X157047513Y-103512000D01*
X157047506Y-103512000D01*
X156752494Y-103512000D01*
X156752486Y-103512000D01*
X156474085Y-103548653D01*
X156460007Y-103550507D01*
X156175048Y-103626861D01*
X156175038Y-103626864D01*
X155902499Y-103739754D01*
X155902489Y-103739758D01*
X155647006Y-103887261D01*
X155412959Y-104066852D01*
X155412952Y-104066858D01*
X155204358Y-104275452D01*
X155204352Y-104275459D01*
X155024761Y-104509506D01*
X154877258Y-104764989D01*
X154877254Y-104764999D01*
X154764364Y-105037538D01*
X154764361Y-105037548D01*
X154688008Y-105322504D01*
X154688006Y-105322515D01*
X154649500Y-105614986D01*
X138124840Y-105614986D01*
X138289993Y-105593243D01*
X138574952Y-105516889D01*
X138847507Y-105403993D01*
X139102994Y-105256488D01*
X139337042Y-105076896D01*
X139545646Y-104868292D01*
X139725238Y-104634244D01*
X139872743Y-104378757D01*
X139985639Y-104106202D01*
X140061993Y-103821243D01*
X140100500Y-103528756D01*
X140100500Y-103233744D01*
X140061993Y-102941257D01*
X139985639Y-102656298D01*
X139872743Y-102383743D01*
X139817436Y-102287949D01*
X139725238Y-102128256D01*
X139545647Y-101894209D01*
X139545641Y-101894202D01*
X139337047Y-101685608D01*
X139337040Y-101685602D01*
X139102993Y-101506011D01*
X138847510Y-101358508D01*
X138847500Y-101358504D01*
X138574961Y-101245614D01*
X138574954Y-101245612D01*
X138574952Y-101245611D01*
X138289993Y-101169257D01*
X138241113Y-101162821D01*
X137997513Y-101130750D01*
X137997506Y-101130750D01*
X137702494Y-101130750D01*
X137702486Y-101130750D01*
X137424085Y-101167403D01*
X137410007Y-101169257D01*
X137125048Y-101245611D01*
X137125038Y-101245614D01*
X136852499Y-101358504D01*
X136852489Y-101358508D01*
X136597006Y-101506011D01*
X136362959Y-101685602D01*
X136362952Y-101685608D01*
X136154358Y-101894202D01*
X136154352Y-101894209D01*
X135974761Y-102128256D01*
X135827258Y-102383739D01*
X135827254Y-102383749D01*
X135714364Y-102656288D01*
X135714361Y-102656298D01*
X135638008Y-102941254D01*
X135638006Y-102941265D01*
X135599500Y-103233736D01*
X119074840Y-103233736D01*
X119239993Y-103211993D01*
X119524952Y-103135639D01*
X119797507Y-103022743D01*
X120052994Y-102875238D01*
X120287042Y-102695646D01*
X120495646Y-102487042D01*
X120675238Y-102252994D01*
X120822743Y-101997507D01*
X120935639Y-101724952D01*
X121011993Y-101439993D01*
X121050500Y-101147506D01*
X121050500Y-100852494D01*
X121011993Y-100560007D01*
X120935639Y-100275048D01*
X120822743Y-100002493D01*
X120794538Y-99953641D01*
X120675238Y-99747006D01*
X120495647Y-99512959D01*
X120495641Y-99512952D01*
X120287047Y-99304358D01*
X120287040Y-99304352D01*
X120052993Y-99124761D01*
X119797510Y-98977258D01*
X119797500Y-98977254D01*
X119524961Y-98864364D01*
X119524954Y-98864362D01*
X119524952Y-98864361D01*
X119239993Y-98788007D01*
X119191113Y-98781571D01*
X118947513Y-98749500D01*
X118947506Y-98749500D01*
X118652494Y-98749500D01*
X118652486Y-98749500D01*
X118374085Y-98786153D01*
X118360007Y-98788007D01*
X118075048Y-98864361D01*
X118075038Y-98864364D01*
X117802499Y-98977254D01*
X117802489Y-98977258D01*
X117547006Y-99124761D01*
X117312959Y-99304352D01*
X117312952Y-99304358D01*
X117104358Y-99512952D01*
X117104352Y-99512959D01*
X116924761Y-99747006D01*
X116777258Y-100002489D01*
X116777254Y-100002499D01*
X116664364Y-100275038D01*
X116664361Y-100275048D01*
X116588008Y-100560004D01*
X116588006Y-100560015D01*
X116549500Y-100852486D01*
X58440500Y-100852486D01*
X58440500Y-79421236D01*
X59399500Y-79421236D01*
X59399500Y-79716263D01*
X59422697Y-79892452D01*
X59438007Y-80008743D01*
X59512662Y-80287361D01*
X59514361Y-80293701D01*
X59514364Y-80293711D01*
X59627254Y-80566250D01*
X59627258Y-80566260D01*
X59774761Y-80821743D01*
X59954352Y-81055790D01*
X59954358Y-81055797D01*
X60162952Y-81264391D01*
X60162959Y-81264397D01*
X60397006Y-81443988D01*
X60652489Y-81591491D01*
X60652490Y-81591491D01*
X60652493Y-81591493D01*
X60852989Y-81674541D01*
X60899476Y-81693797D01*
X60925048Y-81704389D01*
X61210007Y-81780743D01*
X61502494Y-81819250D01*
X61502501Y-81819250D01*
X61797499Y-81819250D01*
X61797506Y-81819250D01*
X62089993Y-81780743D01*
X62374952Y-81704389D01*
X62647507Y-81591493D01*
X62902994Y-81443988D01*
X63137042Y-81264396D01*
X63345646Y-81055792D01*
X63525238Y-80821744D01*
X63672743Y-80566257D01*
X63785639Y-80293702D01*
X63861993Y-80008743D01*
X63900500Y-79716256D01*
X63900500Y-79421244D01*
X63861993Y-79128757D01*
X63785639Y-78843798D01*
X63767672Y-78800423D01*
X63735971Y-78723889D01*
X63672743Y-78571243D01*
X63638760Y-78512383D01*
X63525238Y-78315756D01*
X63345647Y-78081709D01*
X63345641Y-78081702D01*
X63137047Y-77873108D01*
X63137040Y-77873102D01*
X62902993Y-77693511D01*
X62647510Y-77546008D01*
X62647500Y-77546004D01*
X62374961Y-77433114D01*
X62374954Y-77433112D01*
X62374952Y-77433111D01*
X62089993Y-77356757D01*
X62041113Y-77350321D01*
X61797513Y-77318250D01*
X61797506Y-77318250D01*
X61502494Y-77318250D01*
X61502486Y-77318250D01*
X61224085Y-77354903D01*
X61210007Y-77356757D01*
X60925048Y-77433111D01*
X60925038Y-77433114D01*
X60652499Y-77546004D01*
X60652489Y-77546008D01*
X60397006Y-77693511D01*
X60162959Y-77873102D01*
X60162952Y-77873108D01*
X59954358Y-78081702D01*
X59954352Y-78081709D01*
X59774761Y-78315756D01*
X59627258Y-78571239D01*
X59627254Y-78571249D01*
X59514364Y-78843788D01*
X59514361Y-78843798D01*
X59443341Y-79108852D01*
X59438008Y-79128754D01*
X59438006Y-79128765D01*
X59399500Y-79421236D01*
X58440500Y-79421236D01*
X58440500Y-78595237D01*
X58460185Y-78528198D01*
X58512989Y-78482443D01*
X58517002Y-78480695D01*
X58568859Y-78459216D01*
X58783659Y-78327586D01*
X58975224Y-78163974D01*
X59138836Y-77972409D01*
X59270466Y-77757609D01*
X59366873Y-77524861D01*
X59425683Y-77279898D01*
X59445449Y-77028750D01*
X59425683Y-76777602D01*
X59366873Y-76532639D01*
X59317039Y-76412328D01*
X59270466Y-76299890D01*
X59138839Y-76085096D01*
X59138838Y-76085093D01*
X58997165Y-75919216D01*
X58975224Y-75893526D01*
X58848571Y-75785354D01*
X58783656Y-75729911D01*
X58783653Y-75729910D01*
X58568858Y-75598283D01*
X58568859Y-75598283D01*
X58517047Y-75576822D01*
X58462643Y-75532980D01*
X58440579Y-75466686D01*
X58440500Y-75462261D01*
X58440500Y-74488750D01*
X62584551Y-74488750D01*
X62604317Y-74739901D01*
X62663126Y-74984860D01*
X62759533Y-75217609D01*
X62891160Y-75432403D01*
X62891161Y-75432406D01*
X62891164Y-75432409D01*
X63054776Y-75623974D01*
X63178811Y-75729910D01*
X63246343Y-75787588D01*
X63246346Y-75787589D01*
X63461140Y-75919216D01*
X63693889Y-76015623D01*
X63938852Y-76074433D01*
X64190000Y-76094199D01*
X64441148Y-76074433D01*
X64686111Y-76015623D01*
X64918859Y-75919216D01*
X65133659Y-75787586D01*
X65325224Y-75623974D01*
X65488836Y-75432409D01*
X65620466Y-75217609D01*
X65716873Y-74984861D01*
X65775683Y-74739898D01*
X65795449Y-74488750D01*
X65775683Y-74237602D01*
X65716873Y-73992639D01*
X65714615Y-73987187D01*
X65620466Y-73759890D01*
X65488839Y-73545096D01*
X65488838Y-73545093D01*
X65451875Y-73501816D01*
X65325224Y-73353526D01*
X65198571Y-73245354D01*
X65133656Y-73189911D01*
X65133653Y-73189910D01*
X64918859Y-73058283D01*
X64686110Y-72961876D01*
X64441151Y-72903067D01*
X64190000Y-72883301D01*
X63938848Y-72903067D01*
X63693889Y-72961876D01*
X63461140Y-73058283D01*
X63246346Y-73189910D01*
X63246343Y-73189911D01*
X63054776Y-73353526D01*
X62891161Y-73545093D01*
X62891160Y-73545096D01*
X62759533Y-73759890D01*
X62663126Y-73992639D01*
X62604317Y-74237598D01*
X62584551Y-74488750D01*
X58440500Y-74488750D01*
X58440500Y-60371236D01*
X59399500Y-60371236D01*
X59399500Y-60666263D01*
X59412416Y-60764364D01*
X59438007Y-60958743D01*
X59514361Y-61243701D01*
X59514364Y-61243711D01*
X59627254Y-61516250D01*
X59627258Y-61516260D01*
X59774761Y-61771743D01*
X59954352Y-62005790D01*
X59954358Y-62005797D01*
X60162952Y-62214391D01*
X60162959Y-62214397D01*
X60397006Y-62393988D01*
X60652489Y-62541491D01*
X60652490Y-62541491D01*
X60652493Y-62541493D01*
X60925048Y-62654389D01*
X61210007Y-62730743D01*
X61502494Y-62769250D01*
X61502501Y-62769250D01*
X61797499Y-62769250D01*
X61797506Y-62769250D01*
X62089993Y-62730743D01*
X62374952Y-62654389D01*
X62647507Y-62541493D01*
X62902994Y-62393988D01*
X63137042Y-62214396D01*
X63345646Y-62005792D01*
X63525238Y-61771744D01*
X63672743Y-61516257D01*
X63785639Y-61243702D01*
X63861993Y-60958743D01*
X63900500Y-60666256D01*
X63900500Y-60371244D01*
X63861993Y-60078757D01*
X63785639Y-59793798D01*
X63672743Y-59521243D01*
X63644538Y-59472391D01*
X63525238Y-59265756D01*
X63345647Y-59031709D01*
X63345641Y-59031702D01*
X63137047Y-58823108D01*
X63137040Y-58823102D01*
X62902993Y-58643511D01*
X62647510Y-58496008D01*
X62647500Y-58496004D01*
X62374961Y-58383114D01*
X62374954Y-58383112D01*
X62374952Y-58383111D01*
X62089993Y-58306757D01*
X62041113Y-58300321D01*
X61797513Y-58268250D01*
X61797506Y-58268250D01*
X61502494Y-58268250D01*
X61502486Y-58268250D01*
X61224085Y-58304903D01*
X61210007Y-58306757D01*
X60925048Y-58383111D01*
X60925038Y-58383114D01*
X60652499Y-58496004D01*
X60652489Y-58496008D01*
X60397006Y-58643511D01*
X60162959Y-58823102D01*
X60162952Y-58823108D01*
X59954358Y-59031702D01*
X59954352Y-59031709D01*
X59774761Y-59265756D01*
X59627258Y-59521239D01*
X59627254Y-59521249D01*
X59514364Y-59793788D01*
X59514361Y-59793798D01*
X59438008Y-60078754D01*
X59438006Y-60078765D01*
X59399500Y-60371236D01*
X58440500Y-60371236D01*
X58440500Y-59545237D01*
X58460185Y-59478198D01*
X58512989Y-59432443D01*
X58517002Y-59430695D01*
X58568859Y-59409216D01*
X58783659Y-59277586D01*
X58975224Y-59113974D01*
X59138836Y-58922409D01*
X59270466Y-58707609D01*
X59366873Y-58474861D01*
X59425683Y-58229898D01*
X59445449Y-57978750D01*
X59425683Y-57727602D01*
X59366873Y-57482639D01*
X59270466Y-57249891D01*
X59270466Y-57249890D01*
X59138839Y-57035096D01*
X59138838Y-57035093D01*
X59028210Y-56905565D01*
X58975224Y-56843526D01*
X58789352Y-56684776D01*
X58783656Y-56679911D01*
X58783653Y-56679910D01*
X58568858Y-56548283D01*
X58568859Y-56548283D01*
X58517047Y-56526822D01*
X58462643Y-56482980D01*
X58440579Y-56416686D01*
X58440500Y-56412261D01*
X58440500Y-55438750D01*
X62584551Y-55438750D01*
X62604317Y-55689901D01*
X62663126Y-55934860D01*
X62759533Y-56167609D01*
X62891160Y-56382403D01*
X62891161Y-56382406D01*
X62891164Y-56382409D01*
X63054776Y-56573974D01*
X63203066Y-56700625D01*
X63246343Y-56737588D01*
X63246346Y-56737589D01*
X63461140Y-56869216D01*
X63693889Y-56965623D01*
X63938852Y-57024433D01*
X64190000Y-57044199D01*
X64441148Y-57024433D01*
X64686111Y-56965623D01*
X64918859Y-56869216D01*
X65133659Y-56737586D01*
X65325224Y-56573974D01*
X65488836Y-56382409D01*
X65620466Y-56167609D01*
X65716873Y-55934861D01*
X65775683Y-55689898D01*
X65795449Y-55438750D01*
X65775683Y-55187602D01*
X65716873Y-54942639D01*
X65620466Y-54709891D01*
X65620466Y-54709890D01*
X65488839Y-54495096D01*
X65488838Y-54495093D01*
X65451875Y-54451816D01*
X65325224Y-54303526D01*
X65198571Y-54195354D01*
X65133656Y-54139911D01*
X65133653Y-54139910D01*
X64918859Y-54008283D01*
X64686110Y-53911876D01*
X64441151Y-53853067D01*
X64190000Y-53833301D01*
X63938848Y-53853067D01*
X63693889Y-53911876D01*
X63461140Y-54008283D01*
X63246346Y-54139910D01*
X63246343Y-54139911D01*
X63054776Y-54303526D01*
X62891161Y-54495093D01*
X62891160Y-54495096D01*
X62759533Y-54709890D01*
X62663126Y-54942639D01*
X62604317Y-55187598D01*
X62584551Y-55438750D01*
X58440500Y-55438750D01*
X58440500Y-41321236D01*
X59399500Y-41321236D01*
X59399500Y-41616263D01*
X59412416Y-41714364D01*
X59438007Y-41908743D01*
X59514361Y-42193701D01*
X59514364Y-42193711D01*
X59627254Y-42466250D01*
X59627258Y-42466260D01*
X59774761Y-42721743D01*
X59954352Y-42955790D01*
X59954358Y-42955797D01*
X60162952Y-43164391D01*
X60162959Y-43164397D01*
X60397006Y-43343988D01*
X60652489Y-43491491D01*
X60652490Y-43491491D01*
X60652493Y-43491493D01*
X60925048Y-43604389D01*
X61210007Y-43680743D01*
X61502494Y-43719250D01*
X61502501Y-43719250D01*
X61797499Y-43719250D01*
X61797506Y-43719250D01*
X62089993Y-43680743D01*
X62374952Y-43604389D01*
X62647507Y-43491493D01*
X62902994Y-43343988D01*
X63137042Y-43164396D01*
X63345646Y-42955792D01*
X63525238Y-42721744D01*
X63672743Y-42466257D01*
X63785639Y-42193702D01*
X63861993Y-41908743D01*
X63900500Y-41616256D01*
X63900500Y-41321244D01*
X63861993Y-41028757D01*
X63785639Y-40743798D01*
X63672743Y-40471243D01*
X63644538Y-40422391D01*
X63525238Y-40215756D01*
X63345647Y-39981709D01*
X63345641Y-39981702D01*
X63137047Y-39773108D01*
X63137040Y-39773102D01*
X62902993Y-39593511D01*
X62647510Y-39446008D01*
X62647500Y-39446004D01*
X62374961Y-39333114D01*
X62374954Y-39333112D01*
X62374952Y-39333111D01*
X62089993Y-39256757D01*
X62041113Y-39250321D01*
X61797513Y-39218250D01*
X61797506Y-39218250D01*
X61502494Y-39218250D01*
X61502486Y-39218250D01*
X61224085Y-39254903D01*
X61210007Y-39256757D01*
X60937349Y-39329815D01*
X60925048Y-39333111D01*
X60925038Y-39333114D01*
X60652499Y-39446004D01*
X60652489Y-39446008D01*
X60397006Y-39593511D01*
X60162959Y-39773102D01*
X60162952Y-39773108D01*
X59954358Y-39981702D01*
X59954352Y-39981709D01*
X59774761Y-40215756D01*
X59627258Y-40471239D01*
X59627254Y-40471249D01*
X59514364Y-40743788D01*
X59514361Y-40743798D01*
X59438008Y-41028754D01*
X59438006Y-41028765D01*
X59399500Y-41321236D01*
X58440500Y-41321236D01*
X58440500Y-40495237D01*
X58460185Y-40428198D01*
X58512989Y-40382443D01*
X58517002Y-40380695D01*
X58568859Y-40359216D01*
X58783659Y-40227586D01*
X58975224Y-40063974D01*
X59138836Y-39872409D01*
X59270466Y-39657609D01*
X59366873Y-39424861D01*
X59425683Y-39179898D01*
X59445449Y-38928750D01*
X59425683Y-38677602D01*
X59366873Y-38432639D01*
X59332841Y-38350478D01*
X59270466Y-38199890D01*
X59138839Y-37985096D01*
X59138838Y-37985093D01*
X59053664Y-37885368D01*
X58975224Y-37793526D01*
X58789352Y-37634776D01*
X58783656Y-37629911D01*
X58783653Y-37629910D01*
X58568859Y-37498283D01*
X58336110Y-37401876D01*
X58091151Y-37343067D01*
X57840000Y-37323301D01*
X57588848Y-37343067D01*
X57343887Y-37401877D01*
X57343886Y-37401877D01*
X57292073Y-37423338D01*
X57222604Y-37430805D01*
X57160125Y-37399529D01*
X57156942Y-37396457D01*
X56149235Y-36388750D01*
X62584551Y-36388750D01*
X62604317Y-36639901D01*
X62663126Y-36884860D01*
X62759533Y-37117609D01*
X62891160Y-37332403D01*
X62891161Y-37332406D01*
X62910820Y-37355423D01*
X63054776Y-37523974D01*
X63203066Y-37650625D01*
X63246343Y-37687588D01*
X63246346Y-37687589D01*
X63461140Y-37819216D01*
X63620849Y-37885369D01*
X63693889Y-37915623D01*
X63938852Y-37974433D01*
X64190000Y-37994199D01*
X64441148Y-37974433D01*
X64686111Y-37915623D01*
X64918859Y-37819216D01*
X65133659Y-37687586D01*
X65325224Y-37523974D01*
X65488836Y-37332409D01*
X65620466Y-37117609D01*
X65716873Y-36884861D01*
X65775683Y-36639898D01*
X65795449Y-36388750D01*
X65775683Y-36137602D01*
X65716873Y-35892639D01*
X65713861Y-35885368D01*
X65620466Y-35659890D01*
X65488839Y-35445096D01*
X65488838Y-35445093D01*
X65451875Y-35401816D01*
X65325224Y-35253526D01*
X65198571Y-35145354D01*
X65133656Y-35089911D01*
X65133653Y-35089910D01*
X64918859Y-34958283D01*
X64686110Y-34861876D01*
X64441151Y-34803067D01*
X64190000Y-34783301D01*
X63938848Y-34803067D01*
X63693889Y-34861876D01*
X63461140Y-34958283D01*
X63246346Y-35089910D01*
X63246343Y-35089911D01*
X63054776Y-35253526D01*
X62891161Y-35445093D01*
X62891160Y-35445096D01*
X62759533Y-35659890D01*
X62663126Y-35892639D01*
X62604317Y-36137598D01*
X62584551Y-36388750D01*
X56149235Y-36388750D01*
X54452400Y-34691915D01*
X54452398Y-34691912D01*
X54333527Y-34573041D01*
X54333519Y-34573035D01*
X54242949Y-34520745D01*
X54242948Y-34520745D01*
X54196595Y-34493983D01*
X54043867Y-34453059D01*
X53885753Y-34453059D01*
X53878157Y-34453059D01*
X53878141Y-34453060D01*
X30447008Y-34453060D01*
X30379969Y-34433375D01*
X30334214Y-34380571D01*
X30324270Y-34311413D01*
X30353295Y-34247857D01*
X30359327Y-34241379D01*
X36941387Y-27659319D01*
X37002710Y-27625834D01*
X37029068Y-27623000D01*
X75323512Y-27623000D01*
X75390551Y-27642685D01*
X75436306Y-27695489D01*
X75438073Y-27699548D01*
X75459532Y-27751356D01*
X75459533Y-27751358D01*
X75591160Y-27966153D01*
X75591161Y-27966156D01*
X75591164Y-27966159D01*
X75754776Y-28157724D01*
X75903066Y-28284375D01*
X75946343Y-28321338D01*
X75946346Y-28321339D01*
X76130589Y-28434244D01*
X76161141Y-28452966D01*
X76212953Y-28474427D01*
X76267355Y-28518265D01*
X76289421Y-28584559D01*
X76289500Y-28588987D01*
X76289500Y-44506011D01*
X76269815Y-44573050D01*
X76217011Y-44618805D01*
X76212953Y-44620572D01*
X76161140Y-44642033D01*
X75946346Y-44773660D01*
X75946343Y-44773661D01*
X75754776Y-44937276D01*
X75591161Y-45128843D01*
X75591160Y-45128846D01*
X75459533Y-45343640D01*
X75363126Y-45576389D01*
X75304317Y-45821348D01*
X75284551Y-46072500D01*
X75304317Y-46323651D01*
X75363126Y-46568610D01*
X75459533Y-46801359D01*
X75591160Y-47016153D01*
X75591161Y-47016156D01*
X75591164Y-47016159D01*
X75754776Y-47207724D01*
X75903066Y-47334375D01*
X75946343Y-47371338D01*
X75946346Y-47371339D01*
X76130589Y-47484244D01*
X76161141Y-47502966D01*
X76212953Y-47524427D01*
X76267355Y-47568265D01*
X76289421Y-47634559D01*
X76289500Y-47638987D01*
X76289500Y-63556011D01*
X76269815Y-63623050D01*
X76217011Y-63668805D01*
X76212953Y-63670572D01*
X76161140Y-63692033D01*
X75946346Y-63823660D01*
X75946343Y-63823661D01*
X75754776Y-63987276D01*
X75591161Y-64178843D01*
X75591160Y-64178846D01*
X75459533Y-64393640D01*
X75363126Y-64626389D01*
X75304317Y-64871348D01*
X75284551Y-65122500D01*
X75304317Y-65373651D01*
X75363126Y-65618610D01*
X75459533Y-65851359D01*
X75591160Y-66066153D01*
X75591161Y-66066156D01*
X75591164Y-66066159D01*
X75754776Y-66257724D01*
X75883359Y-66367544D01*
X75946343Y-66421338D01*
X75946346Y-66421339D01*
X76130589Y-66534244D01*
X76161141Y-66552966D01*
X76212953Y-66574427D01*
X76267355Y-66618265D01*
X76289421Y-66684559D01*
X76289500Y-66688987D01*
X76289500Y-82593512D01*
X76269815Y-82660551D01*
X76217011Y-82706306D01*
X76212953Y-82708073D01*
X76161140Y-82729534D01*
X75946346Y-82861161D01*
X75946343Y-82861162D01*
X75754776Y-83024777D01*
X75591161Y-83216344D01*
X75591160Y-83216347D01*
X75459533Y-83431141D01*
X75363126Y-83663890D01*
X75304317Y-83908849D01*
X75284551Y-84160001D01*
X75304317Y-84411152D01*
X75363126Y-84656111D01*
X75459533Y-84888860D01*
X75591160Y-85103654D01*
X75591161Y-85103657D01*
X75591163Y-85103659D01*
X75591164Y-85103660D01*
X75754776Y-85295225D01*
X75818350Y-85349522D01*
X75946343Y-85458839D01*
X75946346Y-85458840D01*
X76161140Y-85590467D01*
X76256138Y-85629816D01*
X76393889Y-85686874D01*
X76638852Y-85745684D01*
X76890000Y-85765450D01*
X77141148Y-85745684D01*
X77386111Y-85686874D01*
X77618859Y-85590467D01*
X77833659Y-85458837D01*
X78025224Y-85295225D01*
X78188836Y-85103660D01*
X78320466Y-84888860D01*
X78341927Y-84837049D01*
X78385767Y-84782645D01*
X78452061Y-84760580D01*
X78456488Y-84760501D01*
X79165461Y-84760501D01*
X79232500Y-84780186D01*
X79278255Y-84832990D01*
X79288199Y-84902148D01*
X79259174Y-84965704D01*
X79240947Y-84982877D01*
X79212959Y-85004352D01*
X79212952Y-85004358D01*
X79004358Y-85212952D01*
X79004352Y-85212959D01*
X78824761Y-85447006D01*
X78677258Y-85702489D01*
X78677254Y-85702499D01*
X78564364Y-85975038D01*
X78564361Y-85975048D01*
X78488008Y-86260004D01*
X78488006Y-86260015D01*
X78449500Y-86552486D01*
X78449500Y-86847513D01*
X78481571Y-87091113D01*
X78488007Y-87139993D01*
X78488008Y-87139995D01*
X78564361Y-87424951D01*
X78564364Y-87424961D01*
X78677254Y-87697500D01*
X78677258Y-87697510D01*
X78824761Y-87952993D01*
X79004352Y-88187040D01*
X79004358Y-88187047D01*
X79212952Y-88395641D01*
X79212959Y-88395647D01*
X79447006Y-88575238D01*
X79702489Y-88722741D01*
X79702490Y-88722741D01*
X79702493Y-88722743D01*
X79975048Y-88835639D01*
X80260007Y-88911993D01*
X80552494Y-88950500D01*
X80552501Y-88950500D01*
X80847499Y-88950500D01*
X80847506Y-88950500D01*
X81139993Y-88911993D01*
X81424952Y-88835639D01*
X81697507Y-88722743D01*
X81952994Y-88575238D01*
X82187042Y-88395646D01*
X82395646Y-88187042D01*
X82575238Y-87952994D01*
X82722743Y-87697507D01*
X82835639Y-87424952D01*
X82911993Y-87139993D01*
X82950500Y-86847506D01*
X82950500Y-86775696D01*
X82970185Y-86708657D01*
X83022989Y-86662902D01*
X83092147Y-86652958D01*
X83155703Y-86681983D01*
X83162181Y-86688015D01*
X95414686Y-98940520D01*
X95414688Y-98940521D01*
X95414692Y-98940524D01*
X95551611Y-99019573D01*
X95551618Y-99019577D01*
X95704345Y-99060501D01*
X95704347Y-99060501D01*
X95870056Y-99060501D01*
X95870072Y-99060500D01*
X113423512Y-99060500D01*
X113490551Y-99080185D01*
X113536306Y-99132989D01*
X113538073Y-99137048D01*
X113559532Y-99188856D01*
X113559533Y-99188858D01*
X113691160Y-99403653D01*
X113691161Y-99403656D01*
X113746604Y-99468571D01*
X113854776Y-99595224D01*
X114003066Y-99721875D01*
X114046343Y-99758838D01*
X114046346Y-99758839D01*
X114261140Y-99890466D01*
X114493889Y-99986873D01*
X114738852Y-100045683D01*
X114990000Y-100065449D01*
X115241148Y-100045683D01*
X115486111Y-99986873D01*
X115718859Y-99890466D01*
X115933659Y-99758836D01*
X116125224Y-99595224D01*
X116288836Y-99403659D01*
X116420466Y-99188859D01*
X116516873Y-98956111D01*
X116575683Y-98711148D01*
X116595449Y-98460000D01*
X116575683Y-98208852D01*
X116516873Y-97963889D01*
X116420466Y-97731141D01*
X116420466Y-97731140D01*
X116288839Y-97516346D01*
X116288838Y-97516343D01*
X116229505Y-97446873D01*
X116125224Y-97324776D01*
X115939352Y-97166026D01*
X115933656Y-97161161D01*
X115933653Y-97161160D01*
X115718859Y-97029533D01*
X115486110Y-96933126D01*
X115241151Y-96874317D01*
X114990000Y-96854551D01*
X114738848Y-96874317D01*
X114493889Y-96933126D01*
X114261140Y-97029533D01*
X114046346Y-97161160D01*
X114046343Y-97161161D01*
X113854776Y-97324776D01*
X113691161Y-97516343D01*
X113691160Y-97516346D01*
X113559533Y-97731141D01*
X113559532Y-97731143D01*
X113538073Y-97782952D01*
X113494233Y-97837356D01*
X113427939Y-97859421D01*
X113423512Y-97859500D01*
X96083500Y-97859500D01*
X96016461Y-97839815D01*
X95995819Y-97823181D01*
X94092638Y-95920000D01*
X119734551Y-95920000D01*
X119754317Y-96171151D01*
X119813126Y-96416110D01*
X119909533Y-96648859D01*
X120041160Y-96863653D01*
X120041161Y-96863656D01*
X120096604Y-96928571D01*
X120204776Y-97055224D01*
X120353066Y-97181875D01*
X120396343Y-97218838D01*
X120396346Y-97218839D01*
X120611140Y-97350466D01*
X120843889Y-97446873D01*
X121088852Y-97505683D01*
X121340000Y-97525449D01*
X121591148Y-97505683D01*
X121836111Y-97446873D01*
X122068859Y-97350466D01*
X122283659Y-97218836D01*
X122475224Y-97055224D01*
X122638836Y-96863659D01*
X122770466Y-96648859D01*
X122866873Y-96416111D01*
X122925683Y-96171148D01*
X122945449Y-95920000D01*
X122925683Y-95668852D01*
X122866873Y-95423889D01*
X122770466Y-95191141D01*
X122770466Y-95191140D01*
X122638839Y-94976346D01*
X122638838Y-94976343D01*
X122601875Y-94933066D01*
X122475224Y-94784776D01*
X122348571Y-94676604D01*
X122283656Y-94621161D01*
X122283653Y-94621160D01*
X122068859Y-94489533D01*
X121836110Y-94393126D01*
X121591151Y-94334317D01*
X121340000Y-94314551D01*
X121088848Y-94334317D01*
X120843889Y-94393126D01*
X120611140Y-94489533D01*
X120396346Y-94621160D01*
X120396343Y-94621161D01*
X120204776Y-94784776D01*
X120041161Y-94976343D01*
X120041160Y-94976346D01*
X119909533Y-95191140D01*
X119813126Y-95423889D01*
X119754317Y-95668848D01*
X119734551Y-95920000D01*
X94092638Y-95920000D01*
X81970993Y-83798356D01*
X81970991Y-83798353D01*
X81852120Y-83679482D01*
X81852119Y-83679481D01*
X81765307Y-83629361D01*
X81765307Y-83629360D01*
X81765303Y-83629359D01*
X81715188Y-83600424D01*
X81562460Y-83559500D01*
X81404346Y-83559500D01*
X81396750Y-83559500D01*
X81396734Y-83559501D01*
X78456488Y-83559501D01*
X78389449Y-83539816D01*
X78343694Y-83487012D01*
X78341927Y-83482953D01*
X78320467Y-83431144D01*
X78320466Y-83431142D01*
X78270683Y-83349903D01*
X78188838Y-83216346D01*
X78188838Y-83216344D01*
X78129504Y-83146873D01*
X78025224Y-83024777D01*
X77873536Y-82895223D01*
X77833656Y-82861162D01*
X77833653Y-82861161D01*
X77618858Y-82729534D01*
X77618859Y-82729534D01*
X77567047Y-82708073D01*
X77512643Y-82664231D01*
X77490579Y-82597937D01*
X77490500Y-82593512D01*
X77490500Y-81620000D01*
X81634551Y-81620000D01*
X81654317Y-81871151D01*
X81713126Y-82116110D01*
X81809533Y-82348859D01*
X81941160Y-82563653D01*
X81941161Y-82563656D01*
X81948971Y-82572800D01*
X82104776Y-82755224D01*
X82228816Y-82861164D01*
X82296343Y-82918838D01*
X82296346Y-82918839D01*
X82511140Y-83050466D01*
X82743889Y-83146873D01*
X82988852Y-83205683D01*
X83240000Y-83225449D01*
X83491148Y-83205683D01*
X83736111Y-83146873D01*
X83968859Y-83050466D01*
X84183659Y-82918836D01*
X84375224Y-82755224D01*
X84538836Y-82563659D01*
X84670466Y-82348859D01*
X84766873Y-82116111D01*
X84825683Y-81871148D01*
X84845449Y-81620000D01*
X84825683Y-81368852D01*
X84766873Y-81123889D01*
X84749237Y-81081312D01*
X84670466Y-80891140D01*
X84538839Y-80676346D01*
X84538838Y-80676343D01*
X84494795Y-80624776D01*
X84375224Y-80484776D01*
X84223537Y-80355223D01*
X84183656Y-80321161D01*
X84183653Y-80321160D01*
X83968859Y-80189533D01*
X83736110Y-80093126D01*
X83491151Y-80034317D01*
X83240000Y-80014551D01*
X82988848Y-80034317D01*
X82743889Y-80093126D01*
X82511140Y-80189533D01*
X82296346Y-80321160D01*
X82296343Y-80321161D01*
X82104776Y-80484776D01*
X81941161Y-80676343D01*
X81941160Y-80676346D01*
X81809533Y-80891140D01*
X81713126Y-81123889D01*
X81654317Y-81368848D01*
X81634551Y-81620000D01*
X77490500Y-81620000D01*
X77490500Y-67514986D01*
X78449500Y-67514986D01*
X78449500Y-67810013D01*
X78481571Y-68053613D01*
X78488007Y-68102493D01*
X78564361Y-68387451D01*
X78564364Y-68387461D01*
X78677254Y-68660000D01*
X78677258Y-68660010D01*
X78824761Y-68915493D01*
X79004352Y-69149540D01*
X79004358Y-69149547D01*
X79212952Y-69358141D01*
X79212959Y-69358147D01*
X79447006Y-69537738D01*
X79702489Y-69685241D01*
X79702490Y-69685241D01*
X79702493Y-69685243D01*
X79975048Y-69798139D01*
X80260007Y-69874493D01*
X80552494Y-69913000D01*
X80552501Y-69913000D01*
X80847499Y-69913000D01*
X80847506Y-69913000D01*
X81139993Y-69874493D01*
X81424952Y-69798139D01*
X81697507Y-69685243D01*
X81952994Y-69537738D01*
X82187042Y-69358146D01*
X82395646Y-69149542D01*
X82575238Y-68915494D01*
X82722743Y-68660007D01*
X82835639Y-68387452D01*
X82911993Y-68102493D01*
X82950500Y-67810006D01*
X82950500Y-67514994D01*
X82911993Y-67222507D01*
X82835639Y-66937548D01*
X82722743Y-66664993D01*
X82688760Y-66606133D01*
X82575238Y-66409506D01*
X82395647Y-66175459D01*
X82395641Y-66175452D01*
X82187047Y-65966858D01*
X82187040Y-65966852D01*
X81952993Y-65787261D01*
X81697510Y-65639758D01*
X81697500Y-65639754D01*
X81424961Y-65526864D01*
X81424954Y-65526862D01*
X81424952Y-65526861D01*
X81139993Y-65450507D01*
X81091113Y-65444071D01*
X80847513Y-65412000D01*
X80847506Y-65412000D01*
X80552494Y-65412000D01*
X80552486Y-65412000D01*
X80274085Y-65448653D01*
X80260007Y-65450507D01*
X79975048Y-65526861D01*
X79975038Y-65526864D01*
X79702499Y-65639754D01*
X79702489Y-65639758D01*
X79447006Y-65787261D01*
X79212959Y-65966852D01*
X79212952Y-65966858D01*
X79004358Y-66175452D01*
X79004352Y-66175459D01*
X78824761Y-66409506D01*
X78677258Y-66664989D01*
X78677254Y-66664999D01*
X78564364Y-66937538D01*
X78564361Y-66937548D01*
X78495965Y-67192809D01*
X78488008Y-67222504D01*
X78488006Y-67222515D01*
X78449500Y-67514986D01*
X77490500Y-67514986D01*
X77490500Y-66688987D01*
X77510185Y-66621948D01*
X77562989Y-66576193D01*
X77567002Y-66574445D01*
X77618859Y-66552966D01*
X77833659Y-66421336D01*
X78025224Y-66257724D01*
X78188836Y-66066159D01*
X78320466Y-65851359D01*
X78416873Y-65618611D01*
X78475683Y-65373648D01*
X78495449Y-65122500D01*
X78475683Y-64871352D01*
X78416873Y-64626389D01*
X78404137Y-64595641D01*
X78320466Y-64393640D01*
X78188839Y-64178846D01*
X78188838Y-64178843D01*
X78079790Y-64051165D01*
X78025224Y-63987276D01*
X77895490Y-63876473D01*
X77833656Y-63823661D01*
X77833653Y-63823660D01*
X77618858Y-63692033D01*
X77618859Y-63692033D01*
X77567047Y-63670572D01*
X77512643Y-63626730D01*
X77490579Y-63560436D01*
X77490500Y-63556011D01*
X77490500Y-62582500D01*
X81634551Y-62582500D01*
X81654317Y-62833651D01*
X81713126Y-63078610D01*
X81809533Y-63311359D01*
X81941160Y-63526153D01*
X81941161Y-63526156D01*
X81941164Y-63526159D01*
X82104776Y-63717724D01*
X82228811Y-63823660D01*
X82296343Y-63881338D01*
X82296346Y-63881339D01*
X82511140Y-64012966D01*
X82726721Y-64102262D01*
X82743889Y-64109373D01*
X82988852Y-64168183D01*
X83240000Y-64187949D01*
X83491148Y-64168183D01*
X83736111Y-64109373D01*
X83968859Y-64012966D01*
X84183659Y-63881336D01*
X84375224Y-63717724D01*
X84538836Y-63526159D01*
X84670466Y-63311359D01*
X84766873Y-63078611D01*
X84825683Y-62833648D01*
X84845449Y-62582500D01*
X84825683Y-62331352D01*
X84766873Y-62086389D01*
X84745477Y-62034735D01*
X84670466Y-61853640D01*
X84551089Y-61658836D01*
X84538838Y-61638845D01*
X84538838Y-61638843D01*
X84501875Y-61595566D01*
X84375224Y-61447276D01*
X84245490Y-61336473D01*
X84183656Y-61283661D01*
X84183653Y-61283660D01*
X83968859Y-61152033D01*
X83736110Y-61055626D01*
X83491151Y-60996817D01*
X83240000Y-60977051D01*
X82988848Y-60996817D01*
X82743889Y-61055626D01*
X82511140Y-61152033D01*
X82296346Y-61283660D01*
X82296343Y-61283661D01*
X82104776Y-61447276D01*
X81941161Y-61638843D01*
X81941160Y-61638846D01*
X81809533Y-61853640D01*
X81713126Y-62086389D01*
X81654317Y-62331348D01*
X81634551Y-62582500D01*
X77490500Y-62582500D01*
X77490500Y-48464986D01*
X78449500Y-48464986D01*
X78449500Y-48760013D01*
X78481571Y-49003613D01*
X78488007Y-49052493D01*
X78488008Y-49052495D01*
X78564361Y-49337451D01*
X78564364Y-49337461D01*
X78677254Y-49610000D01*
X78677258Y-49610010D01*
X78824761Y-49865493D01*
X79004352Y-50099540D01*
X79004358Y-50099547D01*
X79212952Y-50308141D01*
X79212959Y-50308147D01*
X79447006Y-50487738D01*
X79702489Y-50635241D01*
X79702490Y-50635241D01*
X79702493Y-50635243D01*
X79975048Y-50748139D01*
X80260007Y-50824493D01*
X80552494Y-50863000D01*
X80552501Y-50863000D01*
X80847499Y-50863000D01*
X80847506Y-50863000D01*
X81139993Y-50824493D01*
X81424952Y-50748139D01*
X81697507Y-50635243D01*
X81952994Y-50487738D01*
X82187042Y-50308146D01*
X82395646Y-50099542D01*
X82575238Y-49865494D01*
X82722743Y-49610007D01*
X82835639Y-49337452D01*
X82911993Y-49052493D01*
X82950500Y-48760006D01*
X82950500Y-48464994D01*
X82911993Y-48172507D01*
X82835639Y-47887548D01*
X82722743Y-47614993D01*
X82721793Y-47613348D01*
X82575238Y-47359506D01*
X82395647Y-47125459D01*
X82395641Y-47125452D01*
X82187047Y-46916858D01*
X82187040Y-46916852D01*
X81952993Y-46737261D01*
X81697510Y-46589758D01*
X81697500Y-46589754D01*
X81424961Y-46476864D01*
X81424954Y-46476862D01*
X81424952Y-46476861D01*
X81139993Y-46400507D01*
X81091113Y-46394071D01*
X80847513Y-46362000D01*
X80847506Y-46362000D01*
X80552494Y-46362000D01*
X80552486Y-46362000D01*
X80274085Y-46398653D01*
X80260007Y-46400507D01*
X79975048Y-46476861D01*
X79975038Y-46476864D01*
X79702499Y-46589754D01*
X79702489Y-46589758D01*
X79447006Y-46737261D01*
X79212959Y-46916852D01*
X79212952Y-46916858D01*
X79004358Y-47125452D01*
X79004352Y-47125459D01*
X78824761Y-47359506D01*
X78677258Y-47614989D01*
X78677254Y-47614999D01*
X78564364Y-47887538D01*
X78564361Y-47887548D01*
X78488008Y-48172504D01*
X78488006Y-48172515D01*
X78449500Y-48464986D01*
X77490500Y-48464986D01*
X77490500Y-47638987D01*
X77510185Y-47571948D01*
X77562989Y-47526193D01*
X77567002Y-47524445D01*
X77618859Y-47502966D01*
X77833659Y-47371336D01*
X78025224Y-47207724D01*
X78188836Y-47016159D01*
X78320466Y-46801359D01*
X78416873Y-46568611D01*
X78475683Y-46323648D01*
X78495449Y-46072500D01*
X78475683Y-45821352D01*
X78416873Y-45576389D01*
X78404137Y-45545641D01*
X78320466Y-45343640D01*
X78188839Y-45128846D01*
X78188838Y-45128843D01*
X78129505Y-45059373D01*
X78025224Y-44937276D01*
X77895490Y-44826473D01*
X77833656Y-44773661D01*
X77833653Y-44773660D01*
X77618858Y-44642033D01*
X77618859Y-44642033D01*
X77567047Y-44620572D01*
X77512643Y-44576730D01*
X77490579Y-44510436D01*
X77490500Y-44506011D01*
X77490500Y-43532500D01*
X81634551Y-43532500D01*
X81654317Y-43783651D01*
X81713126Y-44028610D01*
X81809533Y-44261359D01*
X81941160Y-44476153D01*
X81941161Y-44476156D01*
X81941164Y-44476159D01*
X82104776Y-44667724D01*
X82228811Y-44773660D01*
X82296343Y-44831338D01*
X82296346Y-44831339D01*
X82511140Y-44962966D01*
X82743889Y-45059373D01*
X82988852Y-45118183D01*
X83240000Y-45137949D01*
X83491148Y-45118183D01*
X83736111Y-45059373D01*
X83968859Y-44962966D01*
X84183659Y-44831336D01*
X84375224Y-44667724D01*
X84538836Y-44476159D01*
X84670466Y-44261359D01*
X84766873Y-44028611D01*
X84825683Y-43783648D01*
X84845449Y-43532500D01*
X84825683Y-43281352D01*
X84766873Y-43036389D01*
X84690701Y-42852493D01*
X84670466Y-42803640D01*
X84551089Y-42608836D01*
X84538838Y-42588845D01*
X84538838Y-42588843D01*
X84501875Y-42545566D01*
X84375224Y-42397276D01*
X84245490Y-42286473D01*
X84183656Y-42233661D01*
X84183653Y-42233660D01*
X83968859Y-42102033D01*
X83736110Y-42005626D01*
X83491151Y-41946817D01*
X83240000Y-41927051D01*
X82988848Y-41946817D01*
X82743889Y-42005626D01*
X82511140Y-42102033D01*
X82296346Y-42233660D01*
X82296343Y-42233661D01*
X82104776Y-42397276D01*
X81941161Y-42588843D01*
X81941160Y-42588846D01*
X81809533Y-42803640D01*
X81713126Y-43036389D01*
X81654317Y-43281348D01*
X81634551Y-43532500D01*
X77490500Y-43532500D01*
X77490500Y-29414986D01*
X78449500Y-29414986D01*
X78449500Y-29710013D01*
X78470588Y-29870184D01*
X78488007Y-30002493D01*
X78550810Y-30236879D01*
X78564361Y-30287451D01*
X78564364Y-30287461D01*
X78677254Y-30560000D01*
X78677258Y-30560010D01*
X78824761Y-30815493D01*
X79004352Y-31049540D01*
X79004358Y-31049547D01*
X79212952Y-31258141D01*
X79212959Y-31258147D01*
X79447006Y-31437738D01*
X79702489Y-31585241D01*
X79702490Y-31585241D01*
X79702493Y-31585243D01*
X79975048Y-31698139D01*
X80260007Y-31774493D01*
X80552494Y-31813000D01*
X80552501Y-31813000D01*
X80847499Y-31813000D01*
X80847506Y-31813000D01*
X81139993Y-31774493D01*
X81424952Y-31698139D01*
X81697507Y-31585243D01*
X81952994Y-31437738D01*
X82187042Y-31258146D01*
X82395646Y-31049542D01*
X82575238Y-30815494D01*
X82722743Y-30560007D01*
X82835639Y-30287452D01*
X82911993Y-30002493D01*
X82950500Y-29710006D01*
X82950500Y-29414994D01*
X82911993Y-29122507D01*
X82835639Y-28837548D01*
X82722743Y-28564993D01*
X82688760Y-28506133D01*
X82575238Y-28309506D01*
X82395647Y-28075459D01*
X82395641Y-28075452D01*
X82187047Y-27866858D01*
X82187040Y-27866852D01*
X81952993Y-27687261D01*
X81697510Y-27539758D01*
X81697500Y-27539754D01*
X81424961Y-27426864D01*
X81424954Y-27426862D01*
X81424952Y-27426861D01*
X81139993Y-27350507D01*
X81091113Y-27344071D01*
X80847513Y-27312000D01*
X80847506Y-27312000D01*
X80552494Y-27312000D01*
X80552486Y-27312000D01*
X80274085Y-27348653D01*
X80260007Y-27350507D01*
X79975048Y-27426861D01*
X79975038Y-27426864D01*
X79702499Y-27539754D01*
X79702489Y-27539758D01*
X79447006Y-27687261D01*
X79212959Y-27866852D01*
X79212952Y-27866858D01*
X79004358Y-28075452D01*
X79004352Y-28075459D01*
X78824761Y-28309506D01*
X78677258Y-28564989D01*
X78677254Y-28564999D01*
X78564364Y-28837538D01*
X78564361Y-28837548D01*
X78488008Y-29122504D01*
X78488006Y-29122515D01*
X78449500Y-29414986D01*
X77490500Y-29414986D01*
X77490500Y-28588987D01*
X77510185Y-28521948D01*
X77562989Y-28476193D01*
X77567002Y-28474445D01*
X77618859Y-28452966D01*
X77833659Y-28321336D01*
X78025224Y-28157724D01*
X78188836Y-27966159D01*
X78320466Y-27751359D01*
X78416873Y-27518611D01*
X78475683Y-27273648D01*
X78495449Y-27022500D01*
X78475683Y-26771352D01*
X78416873Y-26526389D01*
X78393705Y-26470457D01*
X78320466Y-26293640D01*
X78188839Y-26078846D01*
X78188838Y-26078843D01*
X78129505Y-26009373D01*
X78025224Y-25887276D01*
X77895490Y-25776473D01*
X77833656Y-25723661D01*
X77833653Y-25723660D01*
X77618859Y-25592033D01*
X77386110Y-25495626D01*
X77141151Y-25436817D01*
X76890000Y-25417051D01*
X76638848Y-25436817D01*
X76393889Y-25495626D01*
X76161140Y-25592033D01*
X75946346Y-25723660D01*
X75946343Y-25723661D01*
X75754776Y-25887276D01*
X75591161Y-26078843D01*
X75591160Y-26078846D01*
X75459533Y-26293641D01*
X75459532Y-26293643D01*
X75438073Y-26345452D01*
X75394233Y-26399856D01*
X75327939Y-26421921D01*
X75323512Y-26422000D01*
X37595348Y-26422000D01*
X37528309Y-26402315D01*
X37482554Y-26349511D01*
X37472610Y-26280353D01*
X37501635Y-26216797D01*
X37507667Y-26210319D01*
X40181167Y-23536819D01*
X40242490Y-23503334D01*
X40268848Y-23500500D01*
X81743241Y-23500500D01*
X81810280Y-23520185D01*
X81856035Y-23572989D01*
X81865979Y-23642147D01*
X81848968Y-23689290D01*
X81809533Y-23753640D01*
X81713126Y-23986389D01*
X81654317Y-24231348D01*
X81634551Y-24482500D01*
X81654317Y-24733651D01*
X81713126Y-24978610D01*
X81809533Y-25211359D01*
X81941160Y-25426153D01*
X81941161Y-25426156D01*
X81991933Y-25485602D01*
X82104776Y-25617724D01*
X82228811Y-25723660D01*
X82296343Y-25781338D01*
X82296346Y-25781339D01*
X82511140Y-25912966D01*
X82743889Y-26009373D01*
X82988852Y-26068183D01*
X83240000Y-26087949D01*
X83491148Y-26068183D01*
X83736111Y-26009373D01*
X83968859Y-25912966D01*
X84183659Y-25781336D01*
X84375224Y-25617724D01*
X84538836Y-25426159D01*
X84670466Y-25211359D01*
X84766873Y-24978611D01*
X84825683Y-24733648D01*
X84845449Y-24482500D01*
X84825683Y-24231352D01*
X84766873Y-23986389D01*
X84757683Y-23964202D01*
X84670466Y-23753640D01*
X84631032Y-23689290D01*
X84612787Y-23621844D01*
X84633903Y-23555242D01*
X84687675Y-23510628D01*
X84736759Y-23500500D01*
X93898653Y-23500500D01*
X93965692Y-23520185D01*
X93986334Y-23536819D01*
X94407707Y-23958192D01*
X94441192Y-24019515D01*
X94436208Y-24089207D01*
X94434588Y-24093323D01*
X94413127Y-24145136D01*
X94413127Y-24145137D01*
X94354317Y-24390098D01*
X94334551Y-24641250D01*
X94354317Y-24892401D01*
X94413126Y-25137360D01*
X94509533Y-25370109D01*
X94641160Y-25584903D01*
X94641161Y-25584906D01*
X94696604Y-25649821D01*
X94804776Y-25776474D01*
X94953066Y-25903125D01*
X94996343Y-25940088D01*
X94996346Y-25940089D01*
X95205375Y-26068183D01*
X95211141Y-26071716D01*
X95262953Y-26093177D01*
X95317355Y-26137015D01*
X95339421Y-26203309D01*
X95339500Y-26207737D01*
X95339500Y-42124761D01*
X95319815Y-42191800D01*
X95267011Y-42237555D01*
X95262953Y-42239322D01*
X95211140Y-42260783D01*
X94996346Y-42392410D01*
X94996343Y-42392411D01*
X94804776Y-42556026D01*
X94641161Y-42747593D01*
X94641160Y-42747596D01*
X94509533Y-42962390D01*
X94413126Y-43195139D01*
X94354317Y-43440098D01*
X94334551Y-43691250D01*
X94354317Y-43942401D01*
X94413126Y-44187360D01*
X94509533Y-44420109D01*
X94641160Y-44634903D01*
X94641161Y-44634906D01*
X94690820Y-44693049D01*
X94804776Y-44826474D01*
X94953066Y-44953125D01*
X94996343Y-44990088D01*
X94996346Y-44990089D01*
X95205375Y-45118183D01*
X95211141Y-45121716D01*
X95262953Y-45143177D01*
X95317355Y-45187015D01*
X95339421Y-45253309D01*
X95339500Y-45257737D01*
X95339500Y-61174761D01*
X95319815Y-61241800D01*
X95267011Y-61287555D01*
X95262953Y-61289322D01*
X95211140Y-61310783D01*
X94996346Y-61442410D01*
X94996343Y-61442411D01*
X94804776Y-61606026D01*
X94641161Y-61797593D01*
X94641160Y-61797596D01*
X94509533Y-62012390D01*
X94413126Y-62245139D01*
X94354317Y-62490098D01*
X94334551Y-62741250D01*
X94354317Y-62992401D01*
X94413126Y-63237360D01*
X94509533Y-63470109D01*
X94641160Y-63684903D01*
X94641161Y-63684906D01*
X94696604Y-63749821D01*
X94804776Y-63876474D01*
X94943824Y-63995232D01*
X94996343Y-64040088D01*
X94996346Y-64040089D01*
X95205375Y-64168183D01*
X95211141Y-64171716D01*
X95262953Y-64193177D01*
X95317355Y-64237015D01*
X95339421Y-64303309D01*
X95339500Y-64307737D01*
X95339500Y-80172800D01*
X95319815Y-80239839D01*
X95267011Y-80285594D01*
X95262953Y-80287361D01*
X95161140Y-80329533D01*
X94946346Y-80461160D01*
X94946343Y-80461161D01*
X94754776Y-80624776D01*
X94591161Y-80816343D01*
X94591160Y-80816346D01*
X94459533Y-81031140D01*
X94363126Y-81263889D01*
X94304317Y-81508848D01*
X94284551Y-81760000D01*
X94304317Y-82011151D01*
X94363126Y-82256110D01*
X94459533Y-82488859D01*
X94591160Y-82703653D01*
X94591161Y-82703656D01*
X94612616Y-82728776D01*
X94754776Y-82895224D01*
X94875628Y-82998441D01*
X94946343Y-83058838D01*
X94946346Y-83058839D01*
X95161140Y-83190466D01*
X95393889Y-83286873D01*
X95638852Y-83345683D01*
X95890000Y-83365449D01*
X96141148Y-83345683D01*
X96386111Y-83286873D01*
X96618859Y-83190466D01*
X96833659Y-83058836D01*
X97025224Y-82895224D01*
X97188836Y-82703659D01*
X97320466Y-82488859D01*
X97341927Y-82437048D01*
X97385767Y-82382644D01*
X97452061Y-82360579D01*
X97456488Y-82360500D01*
X98165462Y-82360500D01*
X98232501Y-82380185D01*
X98278256Y-82432989D01*
X98288200Y-82502147D01*
X98259175Y-82565703D01*
X98240948Y-82582876D01*
X98212959Y-82604352D01*
X98212952Y-82604358D01*
X98004358Y-82812952D01*
X98004352Y-82812959D01*
X97824761Y-83047006D01*
X97677258Y-83302489D01*
X97677254Y-83302499D01*
X97564364Y-83575038D01*
X97564361Y-83575048D01*
X97503089Y-83803722D01*
X97488008Y-83860004D01*
X97488006Y-83860015D01*
X97449500Y-84152486D01*
X97449500Y-84447513D01*
X97476964Y-84656112D01*
X97488007Y-84739993D01*
X97558842Y-85004354D01*
X97564361Y-85024951D01*
X97564364Y-85024961D01*
X97677254Y-85297500D01*
X97677258Y-85297510D01*
X97824761Y-85552993D01*
X98004352Y-85787040D01*
X98004358Y-85787047D01*
X98212952Y-85995641D01*
X98212959Y-85995647D01*
X98447006Y-86175238D01*
X98702489Y-86322741D01*
X98702490Y-86322741D01*
X98702493Y-86322743D01*
X98975048Y-86435639D01*
X99260007Y-86511993D01*
X99552494Y-86550500D01*
X99552501Y-86550500D01*
X99847499Y-86550500D01*
X99847506Y-86550500D01*
X100139993Y-86511993D01*
X100424952Y-86435639D01*
X100697507Y-86322743D01*
X100952994Y-86175238D01*
X101187042Y-85995646D01*
X101395646Y-85787042D01*
X101575238Y-85552994D01*
X101722743Y-85297507D01*
X101835639Y-85024952D01*
X101911993Y-84739993D01*
X101950500Y-84447506D01*
X101950500Y-84152494D01*
X101950237Y-84150500D01*
X101945168Y-84111991D01*
X101911993Y-83860007D01*
X101835639Y-83575048D01*
X101722743Y-83302493D01*
X101673004Y-83216343D01*
X101575238Y-83047006D01*
X101395647Y-82812959D01*
X101395641Y-82812952D01*
X101187047Y-82604358D01*
X101187040Y-82604352D01*
X101159052Y-82582876D01*
X101117849Y-82526448D01*
X101113694Y-82456702D01*
X101147906Y-82395782D01*
X101209624Y-82363029D01*
X101234538Y-82360500D01*
X114658653Y-82360500D01*
X114725692Y-82380185D01*
X114746334Y-82396819D01*
X132507707Y-100158193D01*
X132541192Y-100219516D01*
X132536208Y-100289208D01*
X132534588Y-100293325D01*
X132513126Y-100345139D01*
X132454317Y-100590098D01*
X132434551Y-100841250D01*
X132454317Y-101092401D01*
X132513126Y-101337360D01*
X132609533Y-101570109D01*
X132741160Y-101784903D01*
X132741161Y-101784906D01*
X132796604Y-101849821D01*
X132904776Y-101976474D01*
X133053066Y-102103125D01*
X133096343Y-102140088D01*
X133096346Y-102140089D01*
X133311140Y-102271716D01*
X133543889Y-102368123D01*
X133788852Y-102426933D01*
X134040000Y-102446699D01*
X134291148Y-102426933D01*
X134536111Y-102368123D01*
X134768859Y-102271716D01*
X134983659Y-102140086D01*
X135175224Y-101976474D01*
X135338836Y-101784909D01*
X135470466Y-101570109D01*
X135566873Y-101337361D01*
X135625683Y-101092398D01*
X135645449Y-100841250D01*
X135625683Y-100590102D01*
X135566873Y-100345139D01*
X135543706Y-100289208D01*
X135470466Y-100112390D01*
X135338839Y-99897596D01*
X135338838Y-99897593D01*
X135279505Y-99828123D01*
X135175224Y-99706026D01*
X134989352Y-99547276D01*
X134983656Y-99542411D01*
X134983653Y-99542410D01*
X134768859Y-99410783D01*
X134536110Y-99314376D01*
X134291151Y-99255567D01*
X134040000Y-99235801D01*
X133788848Y-99255567D01*
X133543889Y-99314376D01*
X133492075Y-99335838D01*
X133422606Y-99343305D01*
X133360127Y-99312030D01*
X133356943Y-99308957D01*
X132349236Y-98301250D01*
X138784551Y-98301250D01*
X138804317Y-98552401D01*
X138863126Y-98797360D01*
X138959533Y-99030109D01*
X139091160Y-99244903D01*
X139091161Y-99244906D01*
X139141933Y-99304352D01*
X139254776Y-99436474D01*
X139403066Y-99563125D01*
X139446343Y-99600088D01*
X139446346Y-99600089D01*
X139661140Y-99731716D01*
X139893889Y-99828123D01*
X140138852Y-99886933D01*
X140390000Y-99906699D01*
X140641148Y-99886933D01*
X140886111Y-99828123D01*
X141118859Y-99731716D01*
X141333659Y-99600086D01*
X141525224Y-99436474D01*
X141688836Y-99244909D01*
X141820466Y-99030109D01*
X141916873Y-98797361D01*
X141975683Y-98552398D01*
X141995449Y-98301250D01*
X141975683Y-98050102D01*
X141916873Y-97805139D01*
X141820466Y-97572391D01*
X141820466Y-97572390D01*
X141688839Y-97357596D01*
X141688838Y-97357593D01*
X141651875Y-97314316D01*
X141525224Y-97166026D01*
X141395490Y-97055223D01*
X141333656Y-97002411D01*
X141333653Y-97002410D01*
X141118859Y-96870783D01*
X140886110Y-96774376D01*
X140641151Y-96715567D01*
X140390000Y-96695801D01*
X140138848Y-96715567D01*
X139893889Y-96774376D01*
X139661140Y-96870783D01*
X139446346Y-97002410D01*
X139446343Y-97002411D01*
X139254776Y-97166026D01*
X139091161Y-97357593D01*
X139091160Y-97357596D01*
X138959533Y-97572390D01*
X138863126Y-97805139D01*
X138804317Y-98050098D01*
X138784551Y-98301250D01*
X132349236Y-98301250D01*
X126047982Y-91999996D01*
X118387950Y-84339965D01*
X118354466Y-84278643D01*
X118359450Y-84208951D01*
X118401322Y-84153018D01*
X118466786Y-84128601D01*
X118491813Y-84129345D01*
X118652494Y-84150500D01*
X118652501Y-84150500D01*
X118947499Y-84150500D01*
X118947506Y-84150500D01*
X119239993Y-84111993D01*
X119524952Y-84035639D01*
X119797507Y-83922743D01*
X120052994Y-83775238D01*
X120287042Y-83595646D01*
X120495646Y-83387042D01*
X120675238Y-83152994D01*
X120822743Y-82897507D01*
X120935639Y-82624952D01*
X121011993Y-82339993D01*
X121050500Y-82047506D01*
X121050500Y-81752494D01*
X121050237Y-81750500D01*
X121040237Y-81674541D01*
X121011993Y-81460007D01*
X120935639Y-81175048D01*
X120822743Y-80902493D01*
X120816188Y-80891140D01*
X120675238Y-80647006D01*
X120495647Y-80412959D01*
X120495641Y-80412952D01*
X120287047Y-80204358D01*
X120287040Y-80204352D01*
X120259052Y-80182876D01*
X120217849Y-80126448D01*
X120213694Y-80056702D01*
X120247906Y-79995782D01*
X120309624Y-79963029D01*
X120334538Y-79960500D01*
X128927403Y-79960500D01*
X128994442Y-79980185D01*
X129015084Y-79996819D01*
X151557707Y-102539442D01*
X151591192Y-102600765D01*
X151586208Y-102670457D01*
X151584588Y-102674573D01*
X151563127Y-102726386D01*
X151563127Y-102726387D01*
X151504317Y-102971348D01*
X151484551Y-103222500D01*
X151504317Y-103473651D01*
X151563126Y-103718610D01*
X151659533Y-103951359D01*
X151791160Y-104166153D01*
X151791161Y-104166156D01*
X151791164Y-104166159D01*
X151954776Y-104357724D01*
X151988463Y-104386495D01*
X152146343Y-104521338D01*
X152146346Y-104521339D01*
X152361140Y-104652966D01*
X152593889Y-104749373D01*
X152838852Y-104808183D01*
X153090000Y-104827949D01*
X153341148Y-104808183D01*
X153586111Y-104749373D01*
X153818859Y-104652966D01*
X154033659Y-104521336D01*
X154225224Y-104357724D01*
X154388836Y-104166159D01*
X154520466Y-103951359D01*
X154616873Y-103718611D01*
X154675683Y-103473648D01*
X154695449Y-103222500D01*
X154675683Y-102971352D01*
X154616873Y-102726389D01*
X154600530Y-102686934D01*
X154520466Y-102493640D01*
X154388839Y-102278846D01*
X154388838Y-102278843D01*
X154321605Y-102200124D01*
X154225224Y-102087276D01*
X154095490Y-101976473D01*
X154033656Y-101923661D01*
X154033653Y-101923660D01*
X153818859Y-101792033D01*
X153586110Y-101695626D01*
X153341151Y-101636817D01*
X153090000Y-101617051D01*
X152838848Y-101636817D01*
X152593887Y-101695627D01*
X152593886Y-101695627D01*
X152542073Y-101717088D01*
X152472604Y-101724555D01*
X152410125Y-101693279D01*
X152406942Y-101690207D01*
X151399235Y-100682500D01*
X157834551Y-100682500D01*
X157854317Y-100933651D01*
X157913126Y-101178610D01*
X158009533Y-101411359D01*
X158141160Y-101626153D01*
X158141161Y-101626156D01*
X158191933Y-101685602D01*
X158304776Y-101817724D01*
X158428811Y-101923660D01*
X158496343Y-101981338D01*
X158496346Y-101981339D01*
X158711140Y-102112966D01*
X158921560Y-102200124D01*
X158943889Y-102209373D01*
X159188852Y-102268183D01*
X159440000Y-102287949D01*
X159691148Y-102268183D01*
X159936111Y-102209373D01*
X160168859Y-102112966D01*
X160383659Y-101981336D01*
X160575224Y-101817724D01*
X160738836Y-101626159D01*
X160870466Y-101411359D01*
X160966873Y-101178611D01*
X161025683Y-100933648D01*
X161045449Y-100682500D01*
X161025683Y-100431352D01*
X160966873Y-100186389D01*
X160908591Y-100045683D01*
X160870466Y-99953640D01*
X160751089Y-99758836D01*
X160738838Y-99738845D01*
X160738838Y-99738843D01*
X160701875Y-99695566D01*
X160575224Y-99547276D01*
X160445490Y-99436473D01*
X160383656Y-99383661D01*
X160383653Y-99383660D01*
X160168859Y-99252033D01*
X159936110Y-99155626D01*
X159691151Y-99096817D01*
X159440000Y-99077051D01*
X159188848Y-99096817D01*
X158943889Y-99155626D01*
X158711140Y-99252033D01*
X158496346Y-99383660D01*
X158496343Y-99383661D01*
X158304776Y-99547276D01*
X158141161Y-99738843D01*
X158141160Y-99738846D01*
X158009533Y-99953640D01*
X157913126Y-100186389D01*
X157854317Y-100431348D01*
X157834551Y-100682500D01*
X151399235Y-100682500D01*
X137467124Y-86750389D01*
X137433639Y-86689066D01*
X137438623Y-86619374D01*
X137480495Y-86563441D01*
X137545959Y-86539024D01*
X137570982Y-86539768D01*
X137652494Y-86550500D01*
X137652501Y-86550500D01*
X137947499Y-86550500D01*
X137947506Y-86550500D01*
X138239993Y-86511993D01*
X138524952Y-86435639D01*
X138797507Y-86322743D01*
X139052994Y-86175238D01*
X139287042Y-85995646D01*
X139495646Y-85787042D01*
X139675238Y-85552994D01*
X139822743Y-85297507D01*
X139935639Y-85024952D01*
X140011993Y-84739993D01*
X140050500Y-84447506D01*
X140050500Y-84152494D01*
X140050237Y-84150500D01*
X140045168Y-84111991D01*
X140011993Y-83860007D01*
X139935639Y-83575048D01*
X139822743Y-83302493D01*
X139773004Y-83216343D01*
X139675238Y-83047006D01*
X139495647Y-82812959D01*
X139495641Y-82812952D01*
X139287047Y-82604358D01*
X139287040Y-82604352D01*
X139259052Y-82582876D01*
X139217849Y-82526448D01*
X139213694Y-82456702D01*
X139247906Y-82395782D01*
X139309624Y-82363029D01*
X139334538Y-82360500D01*
X148336501Y-82360500D01*
X148403540Y-82380185D01*
X148424181Y-82396818D01*
X169730382Y-103703020D01*
X169730384Y-103703021D01*
X169730388Y-103703024D01*
X169867307Y-103782073D01*
X169867314Y-103782077D01*
X170020041Y-103823001D01*
X170020043Y-103823001D01*
X170185752Y-103823001D01*
X170185768Y-103823000D01*
X170573512Y-103823000D01*
X170640551Y-103842685D01*
X170686306Y-103895489D01*
X170688073Y-103899548D01*
X170709532Y-103951356D01*
X170709533Y-103951358D01*
X170841160Y-104166153D01*
X170841161Y-104166156D01*
X170841164Y-104166159D01*
X171004776Y-104357724D01*
X171038463Y-104386495D01*
X171196343Y-104521338D01*
X171196346Y-104521339D01*
X171411140Y-104652966D01*
X171643889Y-104749373D01*
X171888852Y-104808183D01*
X172140000Y-104827949D01*
X172391148Y-104808183D01*
X172636111Y-104749373D01*
X172868859Y-104652966D01*
X173083659Y-104521336D01*
X173275224Y-104357724D01*
X173438836Y-104166159D01*
X173570466Y-103951359D01*
X173666873Y-103718611D01*
X173725683Y-103473648D01*
X173745449Y-103222500D01*
X173725683Y-102971352D01*
X173666873Y-102726389D01*
X173650530Y-102686934D01*
X173570466Y-102493640D01*
X173438839Y-102278846D01*
X173438838Y-102278843D01*
X173371605Y-102200124D01*
X173275224Y-102087276D01*
X173145490Y-101976473D01*
X173083656Y-101923661D01*
X173083653Y-101923660D01*
X172868859Y-101792033D01*
X172636110Y-101695626D01*
X172391151Y-101636817D01*
X172140000Y-101617051D01*
X171888848Y-101636817D01*
X171643889Y-101695626D01*
X171411140Y-101792033D01*
X171196346Y-101923660D01*
X171196343Y-101923661D01*
X171004776Y-102087276D01*
X170841161Y-102278843D01*
X170841160Y-102278846D01*
X170709533Y-102493641D01*
X170709532Y-102493643D01*
X170688073Y-102545452D01*
X170644233Y-102599856D01*
X170577939Y-102621921D01*
X170573512Y-102622000D01*
X170399196Y-102622000D01*
X170332157Y-102602315D01*
X170311515Y-102585681D01*
X168408334Y-100682500D01*
X176884551Y-100682500D01*
X176904317Y-100933651D01*
X176963126Y-101178610D01*
X177059533Y-101411359D01*
X177191160Y-101626153D01*
X177191161Y-101626156D01*
X177241933Y-101685602D01*
X177354776Y-101817724D01*
X177478811Y-101923660D01*
X177546343Y-101981338D01*
X177546346Y-101981339D01*
X177761140Y-102112966D01*
X177971560Y-102200124D01*
X177993889Y-102209373D01*
X178238852Y-102268183D01*
X178490000Y-102287949D01*
X178741148Y-102268183D01*
X178986111Y-102209373D01*
X179218859Y-102112966D01*
X179433659Y-101981336D01*
X179625224Y-101817724D01*
X179788836Y-101626159D01*
X179920466Y-101411359D01*
X180016873Y-101178611D01*
X180075683Y-100933648D01*
X180095449Y-100682500D01*
X180075683Y-100431352D01*
X180016873Y-100186389D01*
X179958591Y-100045683D01*
X179920466Y-99953640D01*
X179801089Y-99758836D01*
X179788838Y-99738845D01*
X179788838Y-99738843D01*
X179751875Y-99695566D01*
X179625224Y-99547276D01*
X179495490Y-99436473D01*
X179433656Y-99383661D01*
X179433653Y-99383660D01*
X179218859Y-99252033D01*
X178986110Y-99155626D01*
X178741151Y-99096817D01*
X178490000Y-99077051D01*
X178238848Y-99096817D01*
X177993889Y-99155626D01*
X177761140Y-99252033D01*
X177546346Y-99383660D01*
X177546343Y-99383661D01*
X177354776Y-99547276D01*
X177191161Y-99738843D01*
X177191160Y-99738846D01*
X177059533Y-99953640D01*
X176963126Y-100186389D01*
X176904317Y-100431348D01*
X176884551Y-100682500D01*
X168408334Y-100682500D01*
X156888015Y-89162181D01*
X156854530Y-89100858D01*
X156859514Y-89031166D01*
X156901386Y-88975233D01*
X156966850Y-88950816D01*
X156975696Y-88950500D01*
X157047499Y-88950500D01*
X157047506Y-88950500D01*
X157339993Y-88911993D01*
X157624952Y-88835639D01*
X157897507Y-88722743D01*
X158152994Y-88575238D01*
X158387042Y-88395646D01*
X158595646Y-88187042D01*
X158775238Y-87952994D01*
X158922743Y-87697507D01*
X159035639Y-87424952D01*
X159111993Y-87139993D01*
X159150500Y-86847506D01*
X159150500Y-86552494D01*
X159150499Y-86552486D01*
X173749500Y-86552486D01*
X173749500Y-86847513D01*
X173781571Y-87091113D01*
X173788007Y-87139993D01*
X173788008Y-87139995D01*
X173864361Y-87424951D01*
X173864364Y-87424961D01*
X173977254Y-87697500D01*
X173977258Y-87697510D01*
X174124761Y-87952993D01*
X174304352Y-88187040D01*
X174304358Y-88187047D01*
X174512952Y-88395641D01*
X174512959Y-88395647D01*
X174747006Y-88575238D01*
X175002489Y-88722741D01*
X175002490Y-88722741D01*
X175002493Y-88722743D01*
X175275048Y-88835639D01*
X175560007Y-88911993D01*
X175852494Y-88950500D01*
X175852501Y-88950500D01*
X176147499Y-88950500D01*
X176147506Y-88950500D01*
X176439993Y-88911993D01*
X176724952Y-88835639D01*
X176997507Y-88722743D01*
X177252994Y-88575238D01*
X177487042Y-88395646D01*
X177695646Y-88187042D01*
X177875238Y-87952994D01*
X178022743Y-87697507D01*
X178135639Y-87424952D01*
X178211993Y-87139993D01*
X178250500Y-86847506D01*
X178250500Y-86552494D01*
X178250237Y-86550500D01*
X178235358Y-86437482D01*
X178211993Y-86260007D01*
X178135639Y-85975048D01*
X178022743Y-85702493D01*
X178013725Y-85686874D01*
X177875238Y-85447006D01*
X177695647Y-85212959D01*
X177695641Y-85212952D01*
X177487047Y-85004358D01*
X177487040Y-85004352D01*
X177252993Y-84824761D01*
X176997510Y-84677258D01*
X176997500Y-84677254D01*
X176724961Y-84564364D01*
X176724954Y-84564362D01*
X176724952Y-84564361D01*
X176439993Y-84488007D01*
X176391113Y-84481571D01*
X176147513Y-84449500D01*
X176147506Y-84449500D01*
X175852494Y-84449500D01*
X175852486Y-84449500D01*
X175585688Y-84484626D01*
X175560007Y-84488007D01*
X175275048Y-84564361D01*
X175275038Y-84564364D01*
X175002499Y-84677254D01*
X175002489Y-84677258D01*
X174747006Y-84824761D01*
X174512959Y-85004352D01*
X174512952Y-85004358D01*
X174304358Y-85212952D01*
X174304352Y-85212959D01*
X174124761Y-85447006D01*
X173977258Y-85702489D01*
X173977254Y-85702499D01*
X173864364Y-85975038D01*
X173864361Y-85975048D01*
X173788008Y-86260004D01*
X173788006Y-86260015D01*
X173749500Y-86552486D01*
X159150499Y-86552486D01*
X159150237Y-86550500D01*
X159135358Y-86437482D01*
X159111993Y-86260007D01*
X159035639Y-85975048D01*
X158922743Y-85702493D01*
X158913725Y-85686874D01*
X158775238Y-85447006D01*
X158595647Y-85212959D01*
X158595641Y-85212952D01*
X158387047Y-85004358D01*
X158387040Y-85004352D01*
X158152993Y-84824761D01*
X157897510Y-84677258D01*
X157897500Y-84677254D01*
X157624961Y-84564364D01*
X157624954Y-84564362D01*
X157624952Y-84564361D01*
X157339993Y-84488007D01*
X157291113Y-84481571D01*
X157047513Y-84449500D01*
X157047506Y-84449500D01*
X156752494Y-84449500D01*
X156752486Y-84449500D01*
X156485688Y-84484626D01*
X156460007Y-84488007D01*
X156175048Y-84564361D01*
X156175038Y-84564364D01*
X155902499Y-84677254D01*
X155902489Y-84677258D01*
X155647006Y-84824761D01*
X155412959Y-85004352D01*
X155412952Y-85004358D01*
X155204358Y-85212952D01*
X155204352Y-85212959D01*
X155024761Y-85447006D01*
X154877258Y-85702489D01*
X154877254Y-85702499D01*
X154764364Y-85975038D01*
X154764361Y-85975048D01*
X154688008Y-86260004D01*
X154688006Y-86260015D01*
X154649500Y-86552486D01*
X154649500Y-86624304D01*
X154629815Y-86691343D01*
X154577011Y-86737098D01*
X154507853Y-86747042D01*
X154444297Y-86718017D01*
X154437819Y-86711985D01*
X153594720Y-85868886D01*
X153561235Y-85807563D01*
X153566219Y-85737871D01*
X153608091Y-85681938D01*
X153634949Y-85666644D01*
X153818855Y-85590468D01*
X153818856Y-85590467D01*
X153818859Y-85590466D01*
X154033659Y-85458836D01*
X154225224Y-85295224D01*
X154388836Y-85103659D01*
X154520466Y-84888859D01*
X154616873Y-84656111D01*
X154675683Y-84411148D01*
X154695449Y-84160000D01*
X154675683Y-83908852D01*
X154616873Y-83663889D01*
X154565557Y-83540000D01*
X154520466Y-83431140D01*
X154388839Y-83216346D01*
X154388838Y-83216343D01*
X154351875Y-83173066D01*
X154225224Y-83024776D01*
X154073537Y-82895223D01*
X154033656Y-82861161D01*
X154033653Y-82861160D01*
X153818858Y-82729533D01*
X153818859Y-82729533D01*
X153767047Y-82708072D01*
X153712643Y-82664230D01*
X153690579Y-82597936D01*
X153690500Y-82593511D01*
X153690500Y-81620000D01*
X157834551Y-81620000D01*
X157854317Y-81871151D01*
X157913126Y-82116110D01*
X158009533Y-82348859D01*
X158141160Y-82563653D01*
X158141161Y-82563656D01*
X158148971Y-82572800D01*
X158304776Y-82755224D01*
X158428816Y-82861164D01*
X158496343Y-82918838D01*
X158496346Y-82918839D01*
X158711140Y-83050466D01*
X158943889Y-83146873D01*
X159188852Y-83205683D01*
X159440000Y-83225449D01*
X159691148Y-83205683D01*
X159936111Y-83146873D01*
X160168859Y-83050466D01*
X160383659Y-82918836D01*
X160575224Y-82755224D01*
X160738836Y-82563659D01*
X160870466Y-82348859D01*
X160966873Y-82116111D01*
X161025683Y-81871148D01*
X161045449Y-81620000D01*
X161025683Y-81368852D01*
X160966873Y-81123889D01*
X160949237Y-81081312D01*
X160870466Y-80891140D01*
X160738839Y-80676346D01*
X160738838Y-80676343D01*
X160694795Y-80624776D01*
X160575224Y-80484776D01*
X160423537Y-80355223D01*
X160383656Y-80321161D01*
X160383653Y-80321160D01*
X160168859Y-80189533D01*
X159936110Y-80093126D01*
X159691151Y-80034317D01*
X159440000Y-80014551D01*
X159188848Y-80034317D01*
X158943889Y-80093126D01*
X158711140Y-80189533D01*
X158496346Y-80321160D01*
X158496343Y-80321161D01*
X158304776Y-80484776D01*
X158141161Y-80676343D01*
X158141160Y-80676346D01*
X158009533Y-80891140D01*
X157913126Y-81123889D01*
X157854317Y-81368848D01*
X157834551Y-81620000D01*
X153690500Y-81620000D01*
X153690500Y-67514986D01*
X154649500Y-67514986D01*
X154649500Y-67810013D01*
X154681571Y-68053613D01*
X154688007Y-68102493D01*
X154764361Y-68387451D01*
X154764364Y-68387461D01*
X154877254Y-68660000D01*
X154877258Y-68660010D01*
X155024761Y-68915493D01*
X155204352Y-69149540D01*
X155204358Y-69149547D01*
X155412952Y-69358141D01*
X155412959Y-69358147D01*
X155647006Y-69537738D01*
X155902489Y-69685241D01*
X155902490Y-69685241D01*
X155902493Y-69685243D01*
X156175048Y-69798139D01*
X156460007Y-69874493D01*
X156752494Y-69913000D01*
X156752501Y-69913000D01*
X157047499Y-69913000D01*
X157047506Y-69913000D01*
X157339993Y-69874493D01*
X157624952Y-69798139D01*
X157897507Y-69685243D01*
X158152994Y-69537738D01*
X158387042Y-69358146D01*
X158595646Y-69149542D01*
X158775238Y-68915494D01*
X158922743Y-68660007D01*
X159035639Y-68387452D01*
X159111993Y-68102493D01*
X159150500Y-67810006D01*
X159150500Y-67514994D01*
X159111993Y-67222507D01*
X159035639Y-66937548D01*
X158922743Y-66664993D01*
X158888760Y-66606133D01*
X158775238Y-66409506D01*
X158595647Y-66175459D01*
X158595641Y-66175452D01*
X158387047Y-65966858D01*
X158387040Y-65966852D01*
X158152993Y-65787261D01*
X157897510Y-65639758D01*
X157897500Y-65639754D01*
X157624961Y-65526864D01*
X157624954Y-65526862D01*
X157624952Y-65526861D01*
X157339993Y-65450507D01*
X157291113Y-65444071D01*
X157047513Y-65412000D01*
X157047506Y-65412000D01*
X156752494Y-65412000D01*
X156752486Y-65412000D01*
X156474085Y-65448653D01*
X156460007Y-65450507D01*
X156175048Y-65526861D01*
X156175038Y-65526864D01*
X155902499Y-65639754D01*
X155902489Y-65639758D01*
X155647006Y-65787261D01*
X155412959Y-65966852D01*
X155412952Y-65966858D01*
X155204358Y-66175452D01*
X155204352Y-66175459D01*
X155024761Y-66409506D01*
X154877258Y-66664989D01*
X154877254Y-66664999D01*
X154764364Y-66937538D01*
X154764361Y-66937548D01*
X154695965Y-67192809D01*
X154688008Y-67222504D01*
X154688006Y-67222515D01*
X154649500Y-67514986D01*
X153690500Y-67514986D01*
X153690500Y-66688987D01*
X153710185Y-66621948D01*
X153762989Y-66576193D01*
X153767002Y-66574445D01*
X153818859Y-66552966D01*
X154033659Y-66421336D01*
X154225224Y-66257724D01*
X154388836Y-66066159D01*
X154520466Y-65851359D01*
X154616873Y-65618611D01*
X154675683Y-65373648D01*
X154695449Y-65122500D01*
X154675683Y-64871352D01*
X154616873Y-64626389D01*
X154604137Y-64595641D01*
X154520466Y-64393640D01*
X154388839Y-64178846D01*
X154388838Y-64178843D01*
X154279790Y-64051165D01*
X154225224Y-63987276D01*
X154095490Y-63876473D01*
X154033656Y-63823661D01*
X154033653Y-63823660D01*
X153818858Y-63692033D01*
X153818859Y-63692033D01*
X153767047Y-63670572D01*
X153712643Y-63626730D01*
X153690579Y-63560436D01*
X153690500Y-63556011D01*
X153690500Y-62582500D01*
X157834551Y-62582500D01*
X157854317Y-62833651D01*
X157913126Y-63078610D01*
X158009533Y-63311359D01*
X158141160Y-63526153D01*
X158141161Y-63526156D01*
X158141164Y-63526159D01*
X158304776Y-63717724D01*
X158428811Y-63823660D01*
X158496343Y-63881338D01*
X158496346Y-63881339D01*
X158711140Y-64012966D01*
X158926721Y-64102262D01*
X158943889Y-64109373D01*
X159188852Y-64168183D01*
X159440000Y-64187949D01*
X159691148Y-64168183D01*
X159936111Y-64109373D01*
X160168859Y-64012966D01*
X160383659Y-63881336D01*
X160575224Y-63717724D01*
X160738836Y-63526159D01*
X160870466Y-63311359D01*
X160966873Y-63078611D01*
X161025683Y-62833648D01*
X161045449Y-62582500D01*
X161025683Y-62331352D01*
X160966873Y-62086389D01*
X160945477Y-62034735D01*
X160870466Y-61853640D01*
X160751089Y-61658836D01*
X160738838Y-61638845D01*
X160738838Y-61638843D01*
X160701875Y-61595566D01*
X160575224Y-61447276D01*
X160445490Y-61336473D01*
X160383656Y-61283661D01*
X160383653Y-61283660D01*
X160168859Y-61152033D01*
X159936110Y-61055626D01*
X159691151Y-60996817D01*
X159440000Y-60977051D01*
X159188848Y-60996817D01*
X158943889Y-61055626D01*
X158711140Y-61152033D01*
X158496346Y-61283660D01*
X158496343Y-61283661D01*
X158304776Y-61447276D01*
X158141161Y-61638843D01*
X158141160Y-61638846D01*
X158009533Y-61853640D01*
X157913126Y-62086389D01*
X157854317Y-62331348D01*
X157834551Y-62582500D01*
X153690500Y-62582500D01*
X153690500Y-48464986D01*
X154801900Y-48464986D01*
X154801900Y-48760013D01*
X154833971Y-49003613D01*
X154840407Y-49052493D01*
X154840408Y-49052495D01*
X154916761Y-49337451D01*
X154916764Y-49337461D01*
X155029654Y-49610000D01*
X155029658Y-49610010D01*
X155177161Y-49865493D01*
X155356752Y-50099540D01*
X155356758Y-50099547D01*
X155565352Y-50308141D01*
X155565359Y-50308147D01*
X155799406Y-50487738D01*
X156054889Y-50635241D01*
X156054890Y-50635241D01*
X156054893Y-50635243D01*
X156327448Y-50748139D01*
X156612407Y-50824493D01*
X156904894Y-50863000D01*
X156904901Y-50863000D01*
X157199899Y-50863000D01*
X157199906Y-50863000D01*
X157492393Y-50824493D01*
X157777352Y-50748139D01*
X158049907Y-50635243D01*
X158305394Y-50487738D01*
X158539442Y-50308146D01*
X158748046Y-50099542D01*
X158927638Y-49865494D01*
X159075143Y-49610007D01*
X159188039Y-49337452D01*
X159264393Y-49052493D01*
X159302900Y-48760006D01*
X159302900Y-48464994D01*
X159264393Y-48172507D01*
X159188039Y-47887548D01*
X159075143Y-47614993D01*
X159074193Y-47613348D01*
X158927638Y-47359506D01*
X158748047Y-47125459D01*
X158748041Y-47125452D01*
X158539447Y-46916858D01*
X158539440Y-46916852D01*
X158305393Y-46737261D01*
X158049910Y-46589758D01*
X158049900Y-46589754D01*
X157777361Y-46476864D01*
X157777354Y-46476862D01*
X157777352Y-46476861D01*
X157492393Y-46400507D01*
X157443513Y-46394071D01*
X157199913Y-46362000D01*
X157199906Y-46362000D01*
X156904894Y-46362000D01*
X156904886Y-46362000D01*
X156626485Y-46398653D01*
X156612407Y-46400507D01*
X156327448Y-46476861D01*
X156327438Y-46476864D01*
X156054899Y-46589754D01*
X156054889Y-46589758D01*
X155799406Y-46737261D01*
X155565359Y-46916852D01*
X155565352Y-46916858D01*
X155356758Y-47125452D01*
X155356752Y-47125459D01*
X155177161Y-47359506D01*
X155029658Y-47614989D01*
X155029654Y-47614999D01*
X154916764Y-47887538D01*
X154916761Y-47887548D01*
X154840408Y-48172504D01*
X154840406Y-48172515D01*
X154801900Y-48464986D01*
X153690500Y-48464986D01*
X153690500Y-47702114D01*
X153710185Y-47635075D01*
X153762989Y-47589320D01*
X153767048Y-47587553D01*
X153971255Y-47502968D01*
X153971256Y-47502967D01*
X153971259Y-47502966D01*
X154186059Y-47371336D01*
X154377624Y-47207724D01*
X154541236Y-47016159D01*
X154672866Y-46801359D01*
X154769273Y-46568611D01*
X154828083Y-46323648D01*
X154847849Y-46072500D01*
X154828083Y-45821352D01*
X154769273Y-45576389D01*
X154756537Y-45545641D01*
X154672866Y-45343640D01*
X154541239Y-45128846D01*
X154541238Y-45128843D01*
X154481905Y-45059373D01*
X154377624Y-44937276D01*
X154247890Y-44826473D01*
X154186056Y-44773661D01*
X154186053Y-44773660D01*
X153971258Y-44642033D01*
X153971255Y-44642031D01*
X153767048Y-44557447D01*
X153712644Y-44513606D01*
X153690579Y-44447312D01*
X153690500Y-44442886D01*
X153690500Y-43532500D01*
X157986951Y-43532500D01*
X158006717Y-43783651D01*
X158065526Y-44028610D01*
X158161933Y-44261359D01*
X158293560Y-44476153D01*
X158293561Y-44476156D01*
X158293564Y-44476159D01*
X158457176Y-44667724D01*
X158581211Y-44773660D01*
X158648743Y-44831338D01*
X158648746Y-44831339D01*
X158863540Y-44962966D01*
X159096289Y-45059373D01*
X159341252Y-45118183D01*
X159592400Y-45137949D01*
X159843548Y-45118183D01*
X160088511Y-45059373D01*
X160321259Y-44962966D01*
X160536059Y-44831336D01*
X160727624Y-44667724D01*
X160891236Y-44476159D01*
X161022866Y-44261359D01*
X161119273Y-44028611D01*
X161178083Y-43783648D01*
X161197849Y-43532500D01*
X161178083Y-43281352D01*
X161119273Y-43036389D01*
X161043101Y-42852493D01*
X161022866Y-42803640D01*
X160903489Y-42608836D01*
X160891238Y-42588845D01*
X160891238Y-42588843D01*
X160854275Y-42545566D01*
X160727624Y-42397276D01*
X160597890Y-42286473D01*
X160536056Y-42233661D01*
X160536053Y-42233660D01*
X160321259Y-42102033D01*
X160088510Y-42005626D01*
X159843551Y-41946817D01*
X159592400Y-41927051D01*
X159341248Y-41946817D01*
X159096289Y-42005626D01*
X158863540Y-42102033D01*
X158648746Y-42233660D01*
X158648743Y-42233661D01*
X158457176Y-42397276D01*
X158293561Y-42588843D01*
X158293560Y-42588846D01*
X158161933Y-42803640D01*
X158065526Y-43036389D01*
X158006717Y-43281348D01*
X157986951Y-43532500D01*
X153690500Y-43532500D01*
X153690500Y-29414986D01*
X154649500Y-29414986D01*
X154649500Y-29710013D01*
X154670588Y-29870184D01*
X154688007Y-30002493D01*
X154750810Y-30236879D01*
X154764361Y-30287451D01*
X154764364Y-30287461D01*
X154877254Y-30560000D01*
X154877258Y-30560010D01*
X155024761Y-30815493D01*
X155204352Y-31049540D01*
X155204358Y-31049547D01*
X155412952Y-31258141D01*
X155412959Y-31258147D01*
X155647006Y-31437738D01*
X155902489Y-31585241D01*
X155902490Y-31585241D01*
X155902493Y-31585243D01*
X156175048Y-31698139D01*
X156460007Y-31774493D01*
X156752494Y-31813000D01*
X156752501Y-31813000D01*
X157047499Y-31813000D01*
X157047506Y-31813000D01*
X157339993Y-31774493D01*
X157624952Y-31698139D01*
X157897507Y-31585243D01*
X158152994Y-31437738D01*
X158387042Y-31258146D01*
X158595646Y-31049542D01*
X158775238Y-30815494D01*
X158922743Y-30560007D01*
X159035639Y-30287452D01*
X159111993Y-30002493D01*
X159150500Y-29710006D01*
X159150500Y-29414994D01*
X159111993Y-29122507D01*
X159035639Y-28837548D01*
X158922743Y-28564993D01*
X158888760Y-28506133D01*
X158775238Y-28309506D01*
X158595647Y-28075459D01*
X158595641Y-28075452D01*
X158387047Y-27866858D01*
X158387040Y-27866852D01*
X158152993Y-27687261D01*
X157897510Y-27539758D01*
X157897500Y-27539754D01*
X157624961Y-27426864D01*
X157624954Y-27426862D01*
X157624952Y-27426861D01*
X157339993Y-27350507D01*
X157291113Y-27344071D01*
X157047513Y-27312000D01*
X157047506Y-27312000D01*
X156752494Y-27312000D01*
X156752486Y-27312000D01*
X156474085Y-27348653D01*
X156460007Y-27350507D01*
X156175048Y-27426861D01*
X156175038Y-27426864D01*
X155902499Y-27539754D01*
X155902489Y-27539758D01*
X155647006Y-27687261D01*
X155412959Y-27866852D01*
X155412952Y-27866858D01*
X155204358Y-28075452D01*
X155204352Y-28075459D01*
X155024761Y-28309506D01*
X154877258Y-28564989D01*
X154877254Y-28564999D01*
X154764364Y-28837538D01*
X154764361Y-28837548D01*
X154688008Y-29122504D01*
X154688006Y-29122515D01*
X154649500Y-29414986D01*
X153690500Y-29414986D01*
X153690500Y-28588987D01*
X153710185Y-28521948D01*
X153762989Y-28476193D01*
X153767002Y-28474445D01*
X153818859Y-28452966D01*
X154033659Y-28321336D01*
X154225224Y-28157724D01*
X154388836Y-27966159D01*
X154520466Y-27751359D01*
X154616873Y-27518611D01*
X154675683Y-27273648D01*
X154695449Y-27022500D01*
X154675683Y-26771352D01*
X154616873Y-26526389D01*
X154593705Y-26470457D01*
X154520466Y-26293640D01*
X154388839Y-26078846D01*
X154388838Y-26078843D01*
X154329505Y-26009373D01*
X154225224Y-25887276D01*
X154095490Y-25776473D01*
X154033656Y-25723661D01*
X154033653Y-25723660D01*
X153818859Y-25592033D01*
X153586110Y-25495626D01*
X153341151Y-25436817D01*
X153090000Y-25417051D01*
X152838848Y-25436817D01*
X152593889Y-25495626D01*
X152542075Y-25517088D01*
X152472606Y-25524555D01*
X152410127Y-25493280D01*
X152406943Y-25490207D01*
X151399236Y-24482500D01*
X157834551Y-24482500D01*
X157854317Y-24733651D01*
X157913126Y-24978610D01*
X158009533Y-25211359D01*
X158141160Y-25426153D01*
X158141161Y-25426156D01*
X158191933Y-25485602D01*
X158304776Y-25617724D01*
X158428811Y-25723660D01*
X158496343Y-25781338D01*
X158496346Y-25781339D01*
X158711140Y-25912966D01*
X158943889Y-26009373D01*
X159188852Y-26068183D01*
X159440000Y-26087949D01*
X159691148Y-26068183D01*
X159936111Y-26009373D01*
X160168859Y-25912966D01*
X160383659Y-25781336D01*
X160575224Y-25617724D01*
X160738836Y-25426159D01*
X160870466Y-25211359D01*
X160966873Y-24978611D01*
X161025683Y-24733648D01*
X161045449Y-24482500D01*
X161025683Y-24231352D01*
X160966873Y-23986389D01*
X160957683Y-23964202D01*
X160870466Y-23753640D01*
X160748887Y-23555242D01*
X160738838Y-23538845D01*
X160738838Y-23538843D01*
X160701875Y-23495566D01*
X160575224Y-23347276D01*
X160445490Y-23236473D01*
X160383656Y-23183661D01*
X160383653Y-23183660D01*
X160168859Y-23052033D01*
X159936110Y-22955626D01*
X159691151Y-22896817D01*
X159440000Y-22877051D01*
X159188848Y-22896817D01*
X158943889Y-22955626D01*
X158711140Y-23052033D01*
X158496346Y-23183660D01*
X158496343Y-23183661D01*
X158304776Y-23347276D01*
X158141161Y-23538843D01*
X158141160Y-23538846D01*
X158009533Y-23753640D01*
X157913126Y-23986389D01*
X157854317Y-24231348D01*
X157834551Y-24482500D01*
X151399236Y-24482500D01*
X149017986Y-22101250D01*
X145628915Y-18712180D01*
X145595431Y-18650858D01*
X145600415Y-18581166D01*
X145642287Y-18525233D01*
X145707751Y-18500816D01*
X145716597Y-18500500D01*
X162717403Y-18500500D01*
X162784442Y-18520185D01*
X162805084Y-18536819D01*
X170607707Y-26339442D01*
X170641192Y-26400765D01*
X170636208Y-26470457D01*
X170634588Y-26474573D01*
X170613127Y-26526386D01*
X170613127Y-26526387D01*
X170554317Y-26771348D01*
X170534551Y-27022500D01*
X170554317Y-27273651D01*
X170613126Y-27518610D01*
X170709533Y-27751359D01*
X170841160Y-27966153D01*
X170841161Y-27966156D01*
X170841164Y-27966159D01*
X171004776Y-28157724D01*
X171153066Y-28284375D01*
X171196343Y-28321338D01*
X171196346Y-28321339D01*
X171380589Y-28434244D01*
X171411141Y-28452966D01*
X171462953Y-28474427D01*
X171517355Y-28518265D01*
X171539421Y-28584559D01*
X171539500Y-28588987D01*
X171539500Y-44506011D01*
X171519815Y-44573050D01*
X171467011Y-44618805D01*
X171462953Y-44620572D01*
X171411140Y-44642033D01*
X171196346Y-44773660D01*
X171196343Y-44773661D01*
X171004776Y-44937276D01*
X170841161Y-45128843D01*
X170841160Y-45128846D01*
X170709533Y-45343640D01*
X170613126Y-45576389D01*
X170554317Y-45821348D01*
X170534551Y-46072500D01*
X170554317Y-46323651D01*
X170613126Y-46568610D01*
X170709533Y-46801359D01*
X170841160Y-47016153D01*
X170841161Y-47016156D01*
X170841164Y-47016159D01*
X171004776Y-47207724D01*
X171153066Y-47334375D01*
X171196343Y-47371338D01*
X171196346Y-47371339D01*
X171380589Y-47484244D01*
X171411141Y-47502966D01*
X171462953Y-47524427D01*
X171517355Y-47568265D01*
X171539421Y-47634559D01*
X171539500Y-47638987D01*
X171539500Y-63556011D01*
X171519815Y-63623050D01*
X171467011Y-63668805D01*
X171462953Y-63670572D01*
X171411140Y-63692033D01*
X171196346Y-63823660D01*
X171196343Y-63823661D01*
X171004776Y-63987276D01*
X170841161Y-64178843D01*
X170841160Y-64178846D01*
X170709533Y-64393640D01*
X170613126Y-64626389D01*
X170554317Y-64871348D01*
X170534551Y-65122500D01*
X170554317Y-65373651D01*
X170613126Y-65618610D01*
X170709533Y-65851359D01*
X170841160Y-66066153D01*
X170841161Y-66066156D01*
X170841164Y-66066159D01*
X171004776Y-66257724D01*
X171133359Y-66367544D01*
X171196343Y-66421338D01*
X171196346Y-66421339D01*
X171380589Y-66534244D01*
X171411141Y-66552966D01*
X171462953Y-66574427D01*
X171517355Y-66618265D01*
X171539421Y-66684559D01*
X171539500Y-66688987D01*
X171539500Y-82614222D01*
X171519815Y-82681261D01*
X171467011Y-82727016D01*
X171462969Y-82728776D01*
X171461145Y-82729531D01*
X171461137Y-82729535D01*
X171246346Y-82861160D01*
X171246343Y-82861161D01*
X171054776Y-83024776D01*
X170891161Y-83216343D01*
X170891160Y-83216346D01*
X170759533Y-83431140D01*
X170663126Y-83663889D01*
X170604317Y-83908848D01*
X170584551Y-84160000D01*
X170604317Y-84411151D01*
X170663126Y-84656110D01*
X170759533Y-84888859D01*
X170891160Y-85103653D01*
X170891161Y-85103656D01*
X170946604Y-85168571D01*
X171054776Y-85295224D01*
X171203066Y-85421875D01*
X171246343Y-85458838D01*
X171246346Y-85458839D01*
X171461140Y-85590466D01*
X171681975Y-85681938D01*
X171693889Y-85686873D01*
X171938852Y-85745683D01*
X172190000Y-85765449D01*
X172441148Y-85745683D01*
X172686111Y-85686873D01*
X172918859Y-85590466D01*
X173133659Y-85458836D01*
X173325224Y-85295224D01*
X173488836Y-85103659D01*
X173620466Y-84888859D01*
X173716873Y-84656111D01*
X173775683Y-84411148D01*
X173795449Y-84160000D01*
X173775683Y-83908852D01*
X173716873Y-83663889D01*
X173665557Y-83540000D01*
X173620466Y-83431140D01*
X173488839Y-83216346D01*
X173488838Y-83216343D01*
X173451875Y-83173066D01*
X173325224Y-83024776D01*
X173173537Y-82895223D01*
X173133656Y-82861161D01*
X173133653Y-82861160D01*
X172918858Y-82729533D01*
X172918859Y-82729533D01*
X172817047Y-82687361D01*
X172762643Y-82643519D01*
X172740579Y-82577225D01*
X172740500Y-82572800D01*
X172740500Y-81620000D01*
X176934551Y-81620000D01*
X176954317Y-81871151D01*
X177013126Y-82116110D01*
X177109533Y-82348859D01*
X177241160Y-82563653D01*
X177241161Y-82563656D01*
X177248971Y-82572800D01*
X177404776Y-82755224D01*
X177528816Y-82861164D01*
X177596343Y-82918838D01*
X177596346Y-82918839D01*
X177811140Y-83050466D01*
X178043889Y-83146873D01*
X178288852Y-83205683D01*
X178540000Y-83225449D01*
X178791148Y-83205683D01*
X179036111Y-83146873D01*
X179268859Y-83050466D01*
X179483659Y-82918836D01*
X179675224Y-82755224D01*
X179838836Y-82563659D01*
X179970466Y-82348859D01*
X180066873Y-82116111D01*
X180125683Y-81871148D01*
X180145449Y-81620000D01*
X180125683Y-81368852D01*
X180066873Y-81123889D01*
X180049237Y-81081312D01*
X179970466Y-80891140D01*
X179838839Y-80676346D01*
X179838838Y-80676343D01*
X179794795Y-80624776D01*
X179675224Y-80484776D01*
X179523537Y-80355223D01*
X179483656Y-80321161D01*
X179483653Y-80321160D01*
X179268859Y-80189533D01*
X179036110Y-80093126D01*
X178791151Y-80034317D01*
X178540000Y-80014551D01*
X178288848Y-80034317D01*
X178043889Y-80093126D01*
X177811140Y-80189533D01*
X177596346Y-80321160D01*
X177596343Y-80321161D01*
X177404776Y-80484776D01*
X177241161Y-80676343D01*
X177241160Y-80676346D01*
X177109533Y-80891140D01*
X177013126Y-81123889D01*
X176954317Y-81368848D01*
X176934551Y-81620000D01*
X172740500Y-81620000D01*
X172740500Y-67514986D01*
X173699500Y-67514986D01*
X173699500Y-67810013D01*
X173731571Y-68053613D01*
X173738007Y-68102493D01*
X173814361Y-68387451D01*
X173814364Y-68387461D01*
X173927254Y-68660000D01*
X173927258Y-68660010D01*
X174074761Y-68915493D01*
X174254352Y-69149540D01*
X174254358Y-69149547D01*
X174462952Y-69358141D01*
X174462959Y-69358147D01*
X174697006Y-69537738D01*
X174952489Y-69685241D01*
X174952490Y-69685241D01*
X174952493Y-69685243D01*
X175225048Y-69798139D01*
X175510007Y-69874493D01*
X175802494Y-69913000D01*
X175802501Y-69913000D01*
X176097499Y-69913000D01*
X176097506Y-69913000D01*
X176389993Y-69874493D01*
X176674952Y-69798139D01*
X176947507Y-69685243D01*
X177202994Y-69537738D01*
X177437042Y-69358146D01*
X177645646Y-69149542D01*
X177825238Y-68915494D01*
X177972743Y-68660007D01*
X178085639Y-68387452D01*
X178161993Y-68102493D01*
X178200500Y-67810006D01*
X178200500Y-67514994D01*
X178161993Y-67222507D01*
X178085639Y-66937548D01*
X177972743Y-66664993D01*
X177938760Y-66606133D01*
X177825238Y-66409506D01*
X177645647Y-66175459D01*
X177645641Y-66175452D01*
X177437047Y-65966858D01*
X177437040Y-65966852D01*
X177202993Y-65787261D01*
X176947510Y-65639758D01*
X176947500Y-65639754D01*
X176674961Y-65526864D01*
X176674954Y-65526862D01*
X176674952Y-65526861D01*
X176389993Y-65450507D01*
X176341113Y-65444071D01*
X176097513Y-65412000D01*
X176097506Y-65412000D01*
X175802494Y-65412000D01*
X175802486Y-65412000D01*
X175524085Y-65448653D01*
X175510007Y-65450507D01*
X175225048Y-65526861D01*
X175225038Y-65526864D01*
X174952499Y-65639754D01*
X174952489Y-65639758D01*
X174697006Y-65787261D01*
X174462959Y-65966852D01*
X174462952Y-65966858D01*
X174254358Y-66175452D01*
X174254352Y-66175459D01*
X174074761Y-66409506D01*
X173927258Y-66664989D01*
X173927254Y-66664999D01*
X173814364Y-66937538D01*
X173814361Y-66937548D01*
X173745965Y-67192809D01*
X173738008Y-67222504D01*
X173738006Y-67222515D01*
X173699500Y-67514986D01*
X172740500Y-67514986D01*
X172740500Y-66688987D01*
X172760185Y-66621948D01*
X172812989Y-66576193D01*
X172817002Y-66574445D01*
X172868859Y-66552966D01*
X173083659Y-66421336D01*
X173275224Y-66257724D01*
X173438836Y-66066159D01*
X173570466Y-65851359D01*
X173666873Y-65618611D01*
X173725683Y-65373648D01*
X173745449Y-65122500D01*
X173725683Y-64871352D01*
X173666873Y-64626389D01*
X173654137Y-64595641D01*
X173570466Y-64393640D01*
X173438839Y-64178846D01*
X173438838Y-64178843D01*
X173329790Y-64051165D01*
X173275224Y-63987276D01*
X173145490Y-63876473D01*
X173083656Y-63823661D01*
X173083653Y-63823660D01*
X172868858Y-63692033D01*
X172868859Y-63692033D01*
X172817047Y-63670572D01*
X172762643Y-63626730D01*
X172740579Y-63560436D01*
X172740500Y-63556011D01*
X172740500Y-62582500D01*
X176884551Y-62582500D01*
X176904317Y-62833651D01*
X176963126Y-63078610D01*
X177059533Y-63311359D01*
X177191160Y-63526153D01*
X177191161Y-63526156D01*
X177191164Y-63526159D01*
X177354776Y-63717724D01*
X177478811Y-63823660D01*
X177546343Y-63881338D01*
X177546346Y-63881339D01*
X177761140Y-64012966D01*
X177976721Y-64102262D01*
X177993889Y-64109373D01*
X178238852Y-64168183D01*
X178490000Y-64187949D01*
X178741148Y-64168183D01*
X178986111Y-64109373D01*
X179218859Y-64012966D01*
X179433659Y-63881336D01*
X179625224Y-63717724D01*
X179788836Y-63526159D01*
X179920466Y-63311359D01*
X180016873Y-63078611D01*
X180075683Y-62833648D01*
X180095449Y-62582500D01*
X180075683Y-62331352D01*
X180016873Y-62086389D01*
X179995477Y-62034735D01*
X179920466Y-61853640D01*
X179801089Y-61658836D01*
X179788838Y-61638845D01*
X179788838Y-61638843D01*
X179751875Y-61595566D01*
X179625224Y-61447276D01*
X179495490Y-61336473D01*
X179433656Y-61283661D01*
X179433653Y-61283660D01*
X179218859Y-61152033D01*
X178986110Y-61055626D01*
X178741151Y-60996817D01*
X178490000Y-60977051D01*
X178238848Y-60996817D01*
X177993889Y-61055626D01*
X177761140Y-61152033D01*
X177546346Y-61283660D01*
X177546343Y-61283661D01*
X177354776Y-61447276D01*
X177191161Y-61638843D01*
X177191160Y-61638846D01*
X177059533Y-61853640D01*
X176963126Y-62086389D01*
X176904317Y-62331348D01*
X176884551Y-62582500D01*
X172740500Y-62582500D01*
X172740500Y-48464986D01*
X173699500Y-48464986D01*
X173699500Y-48760013D01*
X173731571Y-49003613D01*
X173738007Y-49052493D01*
X173738008Y-49052495D01*
X173814361Y-49337451D01*
X173814364Y-49337461D01*
X173927254Y-49610000D01*
X173927258Y-49610010D01*
X174074761Y-49865493D01*
X174254352Y-50099540D01*
X174254358Y-50099547D01*
X174462952Y-50308141D01*
X174462959Y-50308147D01*
X174697006Y-50487738D01*
X174952489Y-50635241D01*
X174952490Y-50635241D01*
X174952493Y-50635243D01*
X175225048Y-50748139D01*
X175510007Y-50824493D01*
X175802494Y-50863000D01*
X175802501Y-50863000D01*
X176097499Y-50863000D01*
X176097506Y-50863000D01*
X176389993Y-50824493D01*
X176674952Y-50748139D01*
X176947507Y-50635243D01*
X177202994Y-50487738D01*
X177437042Y-50308146D01*
X177645646Y-50099542D01*
X177825238Y-49865494D01*
X177972743Y-49610007D01*
X178085639Y-49337452D01*
X178161993Y-49052493D01*
X178200500Y-48760006D01*
X178200500Y-48464994D01*
X178161993Y-48172507D01*
X178085639Y-47887548D01*
X177972743Y-47614993D01*
X177971793Y-47613348D01*
X177825238Y-47359506D01*
X177645647Y-47125459D01*
X177645641Y-47125452D01*
X177437047Y-46916858D01*
X177437040Y-46916852D01*
X177202993Y-46737261D01*
X176947510Y-46589758D01*
X176947500Y-46589754D01*
X176674961Y-46476864D01*
X176674954Y-46476862D01*
X176674952Y-46476861D01*
X176389993Y-46400507D01*
X176341113Y-46394071D01*
X176097513Y-46362000D01*
X176097506Y-46362000D01*
X175802494Y-46362000D01*
X175802486Y-46362000D01*
X175524085Y-46398653D01*
X175510007Y-46400507D01*
X175225048Y-46476861D01*
X175225038Y-46476864D01*
X174952499Y-46589754D01*
X174952489Y-46589758D01*
X174697006Y-46737261D01*
X174462959Y-46916852D01*
X174462952Y-46916858D01*
X174254358Y-47125452D01*
X174254352Y-47125459D01*
X174074761Y-47359506D01*
X173927258Y-47614989D01*
X173927254Y-47614999D01*
X173814364Y-47887538D01*
X173814361Y-47887548D01*
X173738008Y-48172504D01*
X173738006Y-48172515D01*
X173699500Y-48464986D01*
X172740500Y-48464986D01*
X172740500Y-47638987D01*
X172760185Y-47571948D01*
X172812989Y-47526193D01*
X172817002Y-47524445D01*
X172868859Y-47502966D01*
X173083659Y-47371336D01*
X173275224Y-47207724D01*
X173438836Y-47016159D01*
X173570466Y-46801359D01*
X173666873Y-46568611D01*
X173725683Y-46323648D01*
X173745449Y-46072500D01*
X173725683Y-45821352D01*
X173666873Y-45576389D01*
X173654137Y-45545641D01*
X173570466Y-45343640D01*
X173438839Y-45128846D01*
X173438838Y-45128843D01*
X173379505Y-45059373D01*
X173275224Y-44937276D01*
X173145490Y-44826473D01*
X173083656Y-44773661D01*
X173083653Y-44773660D01*
X172868858Y-44642033D01*
X172868859Y-44642033D01*
X172817047Y-44620572D01*
X172762643Y-44576730D01*
X172740579Y-44510436D01*
X172740500Y-44506011D01*
X172740500Y-43532500D01*
X176884551Y-43532500D01*
X176904317Y-43783651D01*
X176963126Y-44028610D01*
X177059533Y-44261359D01*
X177191160Y-44476153D01*
X177191161Y-44476156D01*
X177191164Y-44476159D01*
X177354776Y-44667724D01*
X177478811Y-44773660D01*
X177546343Y-44831338D01*
X177546346Y-44831339D01*
X177761140Y-44962966D01*
X177993889Y-45059373D01*
X178238852Y-45118183D01*
X178490000Y-45137949D01*
X178741148Y-45118183D01*
X178986111Y-45059373D01*
X179218859Y-44962966D01*
X179433659Y-44831336D01*
X179625224Y-44667724D01*
X179788836Y-44476159D01*
X179920466Y-44261359D01*
X180016873Y-44028611D01*
X180075683Y-43783648D01*
X180095449Y-43532500D01*
X180075683Y-43281352D01*
X180016873Y-43036389D01*
X179940701Y-42852493D01*
X179920466Y-42803640D01*
X179801089Y-42608836D01*
X179788838Y-42588845D01*
X179788838Y-42588843D01*
X179751875Y-42545566D01*
X179625224Y-42397276D01*
X179495490Y-42286473D01*
X179433656Y-42233661D01*
X179433653Y-42233660D01*
X179218859Y-42102033D01*
X178986110Y-42005626D01*
X178741151Y-41946817D01*
X178490000Y-41927051D01*
X178238848Y-41946817D01*
X177993889Y-42005626D01*
X177761140Y-42102033D01*
X177546346Y-42233660D01*
X177546343Y-42233661D01*
X177354776Y-42397276D01*
X177191161Y-42588843D01*
X177191160Y-42588846D01*
X177059533Y-42803640D01*
X176963126Y-43036389D01*
X176904317Y-43281348D01*
X176884551Y-43532500D01*
X172740500Y-43532500D01*
X172740500Y-29414986D01*
X173699500Y-29414986D01*
X173699500Y-29710013D01*
X173720588Y-29870184D01*
X173738007Y-30002493D01*
X173800810Y-30236879D01*
X173814361Y-30287451D01*
X173814364Y-30287461D01*
X173927254Y-30560000D01*
X173927258Y-30560010D01*
X174074761Y-30815493D01*
X174254352Y-31049540D01*
X174254358Y-31049547D01*
X174462952Y-31258141D01*
X174462959Y-31258147D01*
X174697006Y-31437738D01*
X174952489Y-31585241D01*
X174952490Y-31585241D01*
X174952493Y-31585243D01*
X175225048Y-31698139D01*
X175510007Y-31774493D01*
X175802494Y-31813000D01*
X175802501Y-31813000D01*
X176097499Y-31813000D01*
X176097506Y-31813000D01*
X176389993Y-31774493D01*
X176674952Y-31698139D01*
X176947507Y-31585243D01*
X177202994Y-31437738D01*
X177437042Y-31258146D01*
X177645646Y-31049542D01*
X177825238Y-30815494D01*
X177972743Y-30560007D01*
X178085639Y-30287452D01*
X178161993Y-30002493D01*
X178200500Y-29710006D01*
X178200500Y-29414994D01*
X178161993Y-29122507D01*
X178085639Y-28837548D01*
X177972743Y-28564993D01*
X177938760Y-28506133D01*
X177825238Y-28309506D01*
X177645647Y-28075459D01*
X177645641Y-28075452D01*
X177437047Y-27866858D01*
X177437040Y-27866852D01*
X177202993Y-27687261D01*
X176947510Y-27539758D01*
X176947500Y-27539754D01*
X176674961Y-27426864D01*
X176674954Y-27426862D01*
X176674952Y-27426861D01*
X176389993Y-27350507D01*
X176341113Y-27344071D01*
X176097513Y-27312000D01*
X176097506Y-27312000D01*
X175802494Y-27312000D01*
X175802486Y-27312000D01*
X175524085Y-27348653D01*
X175510007Y-27350507D01*
X175225048Y-27426861D01*
X175225038Y-27426864D01*
X174952499Y-27539754D01*
X174952489Y-27539758D01*
X174697006Y-27687261D01*
X174462959Y-27866852D01*
X174462952Y-27866858D01*
X174254358Y-28075452D01*
X174254352Y-28075459D01*
X174074761Y-28309506D01*
X173927258Y-28564989D01*
X173927254Y-28564999D01*
X173814364Y-28837538D01*
X173814361Y-28837548D01*
X173738008Y-29122504D01*
X173738006Y-29122515D01*
X173699500Y-29414986D01*
X172740500Y-29414986D01*
X172740500Y-28588987D01*
X172760185Y-28521948D01*
X172812989Y-28476193D01*
X172817002Y-28474445D01*
X172868859Y-28452966D01*
X173083659Y-28321336D01*
X173275224Y-28157724D01*
X173438836Y-27966159D01*
X173570466Y-27751359D01*
X173666873Y-27518611D01*
X173725683Y-27273648D01*
X173745449Y-27022500D01*
X173725683Y-26771352D01*
X173666873Y-26526389D01*
X173643705Y-26470457D01*
X173570466Y-26293640D01*
X173438839Y-26078846D01*
X173438838Y-26078843D01*
X173379505Y-26009373D01*
X173275224Y-25887276D01*
X173145490Y-25776473D01*
X173083656Y-25723661D01*
X173083653Y-25723660D01*
X172868859Y-25592033D01*
X172636110Y-25495626D01*
X172391151Y-25436817D01*
X172140000Y-25417051D01*
X171888848Y-25436817D01*
X171643887Y-25495627D01*
X171643886Y-25495627D01*
X171592073Y-25517088D01*
X171522604Y-25524555D01*
X171460125Y-25493279D01*
X171456942Y-25490207D01*
X170449235Y-24482500D01*
X176884551Y-24482500D01*
X176904317Y-24733651D01*
X176963126Y-24978610D01*
X177059533Y-25211359D01*
X177191160Y-25426153D01*
X177191161Y-25426156D01*
X177241933Y-25485602D01*
X177354776Y-25617724D01*
X177478811Y-25723660D01*
X177546343Y-25781338D01*
X177546346Y-25781339D01*
X177761140Y-25912966D01*
X177993889Y-26009373D01*
X178238852Y-26068183D01*
X178490000Y-26087949D01*
X178741148Y-26068183D01*
X178986111Y-26009373D01*
X179218859Y-25912966D01*
X179433659Y-25781336D01*
X179625224Y-25617724D01*
X179788836Y-25426159D01*
X179920466Y-25211359D01*
X180016873Y-24978611D01*
X180075683Y-24733648D01*
X180095449Y-24482500D01*
X180075683Y-24231352D01*
X180016873Y-23986389D01*
X180007683Y-23964202D01*
X179920466Y-23753640D01*
X179798887Y-23555242D01*
X179788838Y-23538845D01*
X179788838Y-23538843D01*
X179751875Y-23495566D01*
X179625224Y-23347276D01*
X179495490Y-23236473D01*
X179433656Y-23183661D01*
X179433653Y-23183660D01*
X179218859Y-23052033D01*
X178986110Y-22955626D01*
X178741151Y-22896817D01*
X178490000Y-22877051D01*
X178238848Y-22896817D01*
X177993889Y-22955626D01*
X177761140Y-23052033D01*
X177546346Y-23183660D01*
X177546343Y-23183661D01*
X177354776Y-23347276D01*
X177191161Y-23538843D01*
X177191160Y-23538846D01*
X177059533Y-23753640D01*
X176963126Y-23986389D01*
X176904317Y-24231348D01*
X176884551Y-24482500D01*
X170449235Y-24482500D01*
X163505090Y-17538355D01*
X163505088Y-17538352D01*
X163386217Y-17419481D01*
X163386216Y-17419480D01*
X163299404Y-17369360D01*
X163299404Y-17369359D01*
X163299400Y-17369358D01*
X163249285Y-17340423D01*
X163096557Y-17299499D01*
X162938443Y-17299499D01*
X162930847Y-17299499D01*
X162930831Y-17299500D01*
X40272455Y-17299500D01*
X40272439Y-17299499D01*
X40264843Y-17299499D01*
X40106729Y-17299499D01*
X39999373Y-17328265D01*
X39953996Y-17340424D01*
X39953995Y-17340425D01*
X39903882Y-17369359D01*
X39903881Y-17369360D01*
X39860475Y-17394420D01*
X39817071Y-17419479D01*
X39817068Y-17419481D01*
X37787869Y-19448681D01*
X37726546Y-19482166D01*
X37700188Y-19485000D01*
X37016875Y-19485000D01*
X37016875Y-18985000D01*
X37716875Y-18985000D01*
X37716875Y-18586508D01*
X37716874Y-18586504D01*
X37678447Y-18393318D01*
X37678444Y-18393306D01*
X37603067Y-18211328D01*
X37603060Y-18211315D01*
X37493626Y-18047537D01*
X37493623Y-18047533D01*
X37354341Y-17908251D01*
X37354337Y-17908248D01*
X37190559Y-17798814D01*
X37190546Y-17798807D01*
X37008566Y-17723429D01*
X37008558Y-17723427D01*
X36966875Y-17715135D01*
X36966875Y-18518011D01*
X36956935Y-18500795D01*
X36901080Y-18444940D01*
X36832671Y-18405444D01*
X36756371Y-18385000D01*
X36677379Y-18385000D01*
X36601079Y-18405444D01*
X36532670Y-18444940D01*
X36476815Y-18500795D01*
X36466875Y-18518011D01*
X36466875Y-17715136D01*
X36466874Y-17715135D01*
X36425191Y-17723427D01*
X36425183Y-17723429D01*
X36243203Y-17798807D01*
X36243190Y-17798814D01*
X36079412Y-17908248D01*
X36079408Y-17908251D01*
X35940123Y-18047536D01*
X35827302Y-18216387D01*
X35825878Y-18215435D01*
X35782617Y-18259451D01*
X35714475Y-18274892D01*
X35648802Y-18251041D01*
X35646782Y-18249306D01*
X35646686Y-18249432D01*
X35640242Y-18244487D01*
X35640240Y-18244485D01*
X35567108Y-18202262D01*
X35509011Y-18168719D01*
X35435825Y-18149109D01*
X35362641Y-18129500D01*
X35211109Y-18129500D01*
X35064738Y-18168719D01*
X34933510Y-18244485D01*
X34933507Y-18244487D01*
X34826362Y-18351632D01*
X34826360Y-18351635D01*
X34750594Y-18482863D01*
X34711375Y-18629234D01*
X34711375Y-18780765D01*
X34750594Y-18927136D01*
X34787548Y-18991141D01*
X34826360Y-19058365D01*
X34933510Y-19165515D01*
X35064740Y-19241281D01*
X35211109Y-19280500D01*
X35211111Y-19280500D01*
X35362639Y-19280500D01*
X35362641Y-19280500D01*
X35509010Y-19241281D01*
X35640240Y-19165515D01*
X35747390Y-19058365D01*
X35753952Y-19047000D01*
X35804519Y-18998784D01*
X35861339Y-18985000D01*
X36416875Y-18985000D01*
X36416875Y-19485000D01*
X35716875Y-19485000D01*
X35716875Y-19883495D01*
X35755302Y-20076681D01*
X35755305Y-20076693D01*
X35830682Y-20258671D01*
X35830689Y-20258684D01*
X35940123Y-20422462D01*
X35940126Y-20422466D01*
X36079408Y-20561748D01*
X36079412Y-20561751D01*
X36243190Y-20671185D01*
X36243203Y-20671192D01*
X36299547Y-20694530D01*
X36353951Y-20738370D01*
X36376016Y-20804664D01*
X36358737Y-20872364D01*
X36339776Y-20896772D01*
X27028171Y-30208378D01*
X26966848Y-30241863D01*
X26897156Y-30236879D01*
X26841223Y-30195007D01*
X26823447Y-30161646D01*
X26819540Y-30150479D01*
X26726555Y-30002495D01*
X26723566Y-29997738D01*
X26596012Y-29870184D01*
X26443273Y-29774211D01*
X26273004Y-29714631D01*
X26272999Y-29714630D01*
X26093754Y-29694435D01*
X26093746Y-29694435D01*
X25914500Y-29714630D01*
X25914495Y-29714631D01*
X25744226Y-29774211D01*
X25591487Y-29870184D01*
X25463934Y-29997737D01*
X25367960Y-30150478D01*
X25308380Y-30320750D01*
X25298587Y-30407667D01*
X25271520Y-30472081D01*
X25263048Y-30481464D01*
X21523484Y-34221029D01*
X21462161Y-34254514D01*
X21392469Y-34249530D01*
X21336536Y-34207658D01*
X21330812Y-34199323D01*
X21329816Y-34197738D01*
X21202262Y-34070184D01*
X21049523Y-33974211D01*
X20879254Y-33914631D01*
X20879249Y-33914630D01*
X20700004Y-33894435D01*
X20699996Y-33894435D01*
X20520750Y-33914630D01*
X20520745Y-33914631D01*
X20350476Y-33974211D01*
X20197737Y-34070184D01*
X20070184Y-34197737D01*
X19974210Y-34350478D01*
X19914630Y-34520750D01*
X19904837Y-34607667D01*
X19877770Y-34672081D01*
X19869298Y-34681464D01*
X18731286Y-35819478D01*
X18619481Y-35931282D01*
X18619479Y-35931285D01*
X18586485Y-35988434D01*
X18586484Y-35988436D01*
X18540423Y-36068214D01*
X18527010Y-36118271D01*
X18499499Y-36220943D01*
X18499499Y-36220945D01*
X18499499Y-36389046D01*
X18499500Y-36389059D01*
X18499500Y-49651928D01*
X18479815Y-49718967D01*
X18427011Y-49764722D01*
X18357853Y-49774666D01*
X18334546Y-49768970D01*
X18179257Y-49714632D01*
X18179249Y-49714630D01*
X18000004Y-49694435D01*
X17999996Y-49694435D01*
X17820750Y-49714630D01*
X17820745Y-49714631D01*
X17650476Y-49774211D01*
X17497737Y-49870184D01*
X17370184Y-49997737D01*
X17274211Y-50150476D01*
X17214631Y-50320745D01*
X17214630Y-50320750D01*
X17194435Y-50499996D01*
X11500500Y-50499996D01*
X11500500Y-12624143D01*
X11520185Y-12557104D01*
X11572989Y-12511349D01*
X11624427Y-12500143D01*
X16090342Y-12497592D01*
X16157392Y-12517238D01*
X16203177Y-12570016D01*
X16213160Y-12639169D01*
X16201502Y-12676683D01*
X16195568Y-12688648D01*
X16152234Y-12862897D01*
X16149500Y-12903218D01*
X16149500Y-13696781D01*
X16152234Y-13737102D01*
X16166242Y-13793429D01*
X16195567Y-13911349D01*
X16275347Y-14072210D01*
X16355812Y-14172313D01*
X16382470Y-14236898D01*
X16369979Y-14305642D01*
X16355812Y-14327687D01*
X16275345Y-14427793D01*
X16195567Y-14588649D01*
X16152234Y-14762897D01*
X16149500Y-14803218D01*
X16149500Y-15596781D01*
X16152234Y-15637102D01*
X16195567Y-15811350D01*
X16275346Y-15972209D01*
X16275437Y-15972322D01*
X16275470Y-15972403D01*
X16278965Y-15977870D01*
X16277984Y-15978496D01*
X16302089Y-16036908D01*
X16289592Y-16105651D01*
X16275437Y-16127678D01*
X16275346Y-16127790D01*
X16195567Y-16288649D01*
X16152234Y-16462897D01*
X16149500Y-16503218D01*
X16149500Y-17296781D01*
X16152234Y-17337102D01*
X16195567Y-17511350D01*
X16275345Y-17672207D01*
X16275346Y-17672208D01*
X16275347Y-17672210D01*
X16275748Y-17672709D01*
X16275898Y-17673073D01*
X16278965Y-17677870D01*
X16278105Y-17678419D01*
X16302408Y-17737291D01*
X16289920Y-17806036D01*
X16276447Y-17827001D01*
X16275768Y-17828064D01*
X16196041Y-17988819D01*
X16152732Y-18162965D01*
X16150000Y-18203258D01*
X16150000Y-18350000D01*
X17350272Y-18350000D01*
X17258386Y-18388060D01*
X17188060Y-18458386D01*
X17150000Y-18550272D01*
X17150000Y-18649728D01*
X17188060Y-18741614D01*
X17258386Y-18811940D01*
X17350272Y-18850000D01*
X16150000Y-18850000D01*
X16150000Y-18996741D01*
X16152732Y-19037034D01*
X16196041Y-19211180D01*
X16275768Y-19371935D01*
X16275770Y-19371938D01*
X16388196Y-19511802D01*
X16388197Y-19511803D01*
X16528061Y-19624229D01*
X16528064Y-19624231D01*
X16688819Y-19703958D01*
X16862965Y-19747267D01*
X16903258Y-19750000D01*
X17650000Y-19750000D01*
X17650000Y-18850000D01*
X18150000Y-18850000D01*
X18150000Y-19750000D01*
X18896742Y-19750000D01*
X18937034Y-19747267D01*
X19111180Y-19703958D01*
X19271935Y-19624231D01*
X19271938Y-19624229D01*
X19411802Y-19511803D01*
X19411803Y-19511802D01*
X19524229Y-19371938D01*
X19524231Y-19371935D01*
X19603958Y-19211180D01*
X19647267Y-19037034D01*
X19650000Y-18996741D01*
X19650000Y-18850000D01*
X18449728Y-18850000D01*
X18541614Y-18811940D01*
X18611940Y-18741614D01*
X18650000Y-18649728D01*
X18650000Y-18550272D01*
X18611940Y-18458386D01*
X18541614Y-18388060D01*
X18449728Y-18350000D01*
X19650000Y-18350000D01*
X19650000Y-18203258D01*
X19647267Y-18162965D01*
X19603958Y-17988819D01*
X19524231Y-17828064D01*
X19520611Y-17822401D01*
X19521632Y-17821748D01*
X19497590Y-17763503D01*
X19510080Y-17694759D01*
X19524255Y-17672704D01*
X19524653Y-17672210D01*
X19538443Y-17644406D01*
X19585864Y-17593093D01*
X19649531Y-17575500D01*
X27528631Y-17575500D01*
X27595670Y-17595185D01*
X27641425Y-17647989D01*
X27651369Y-17717147D01*
X27622344Y-17780703D01*
X27597522Y-17802602D01*
X27439412Y-17908248D01*
X27439408Y-17908251D01*
X27300126Y-18047533D01*
X27300123Y-18047537D01*
X27190689Y-18211315D01*
X27190682Y-18211328D01*
X27115305Y-18393306D01*
X27115302Y-18393318D01*
X27076875Y-18586504D01*
X27076875Y-18985000D01*
X27776875Y-18985000D01*
X27776875Y-19485000D01*
X27076875Y-19485000D01*
X27076875Y-19883495D01*
X27115302Y-20076681D01*
X27115305Y-20076693D01*
X27190682Y-20258671D01*
X27190689Y-20258684D01*
X27300123Y-20422462D01*
X27300126Y-20422466D01*
X27439408Y-20561748D01*
X27439412Y-20561751D01*
X27603190Y-20671185D01*
X27603203Y-20671192D01*
X27785183Y-20746569D01*
X27826875Y-20754862D01*
X27826875Y-19951988D01*
X27836815Y-19969205D01*
X27892670Y-20025060D01*
X27961079Y-20064556D01*
X28037379Y-20085000D01*
X28116371Y-20085000D01*
X28192671Y-20064556D01*
X28261080Y-20025060D01*
X28316935Y-19969205D01*
X28326875Y-19951988D01*
X28326875Y-20754862D01*
X28368565Y-20746569D01*
X28368567Y-20746569D01*
X28550546Y-20671192D01*
X28550559Y-20671185D01*
X28714337Y-20561751D01*
X28714341Y-20561748D01*
X28853623Y-20422466D01*
X28853626Y-20422462D01*
X28963060Y-20258684D01*
X28963067Y-20258671D01*
X29038444Y-20076693D01*
X29038447Y-20076681D01*
X29076874Y-19883495D01*
X29076875Y-19883492D01*
X29076875Y-19485000D01*
X28376875Y-19485000D01*
X28376875Y-18985000D01*
X28932411Y-18985000D01*
X28999450Y-19004685D01*
X29039798Y-19047000D01*
X29046357Y-19058361D01*
X29046359Y-19058364D01*
X29046360Y-19058365D01*
X29153510Y-19165515D01*
X29284740Y-19241281D01*
X29431109Y-19280500D01*
X29431111Y-19280500D01*
X29582639Y-19280500D01*
X29582641Y-19280500D01*
X29729010Y-19241281D01*
X29860240Y-19165515D01*
X29967390Y-19058365D01*
X30043156Y-18927135D01*
X30082375Y-18780766D01*
X30082375Y-18629234D01*
X30043156Y-18482865D01*
X29967390Y-18351635D01*
X29860240Y-18244485D01*
X29787108Y-18202262D01*
X29729011Y-18168719D01*
X29655825Y-18149109D01*
X29582641Y-18129500D01*
X29431109Y-18129500D01*
X29284738Y-18168719D01*
X29153510Y-18244485D01*
X29147064Y-18249432D01*
X29144974Y-18246709D01*
X29097092Y-18272466D01*
X29027433Y-18267043D01*
X28971763Y-18224821D01*
X28966174Y-18215976D01*
X28853626Y-18047537D01*
X28853623Y-18047533D01*
X28714341Y-17908251D01*
X28714337Y-17908248D01*
X28556228Y-17802602D01*
X28511423Y-17748990D01*
X28502716Y-17679665D01*
X28532871Y-17616637D01*
X28592314Y-17579918D01*
X28625119Y-17575500D01*
X30441372Y-17575500D01*
X30508411Y-17595185D01*
X30529053Y-17611819D01*
X30762136Y-17844902D01*
X30791497Y-17891629D01*
X30846745Y-18049521D01*
X30942719Y-18202262D01*
X31070273Y-18329816D01*
X31223013Y-18425789D01*
X31316170Y-18458386D01*
X31393280Y-18485368D01*
X31393285Y-18485369D01*
X31572531Y-18505565D01*
X31572535Y-18505565D01*
X31572539Y-18505565D01*
X31751784Y-18485369D01*
X31751787Y-18485368D01*
X31751790Y-18485368D01*
X31922057Y-18425789D01*
X32074797Y-18329816D01*
X32202351Y-18202262D01*
X32298324Y-18049522D01*
X32357903Y-17879255D01*
X32364309Y-17822401D01*
X32378100Y-17700003D01*
X32378100Y-17699996D01*
X32357904Y-17520750D01*
X32357903Y-17520745D01*
X32304931Y-17369360D01*
X32298324Y-17350478D01*
X32202351Y-17197738D01*
X32074797Y-17070184D01*
X31922056Y-16974210D01*
X31764164Y-16918962D01*
X31717437Y-16889601D01*
X31203144Y-16375307D01*
X31203140Y-16375304D01*
X31092510Y-16301383D01*
X31092500Y-16301378D01*
X30969571Y-16250459D01*
X30969563Y-16250457D01*
X30839070Y-16224500D01*
X30839066Y-16224500D01*
X28920952Y-16224500D01*
X28853913Y-16204815D01*
X28808158Y-16152011D01*
X28798214Y-16082853D01*
X28827239Y-16019297D01*
X28833271Y-16012819D01*
X28853623Y-15992466D01*
X28853626Y-15992462D01*
X28963060Y-15828684D01*
X28963067Y-15828671D01*
X29038444Y-15646693D01*
X29038447Y-15646681D01*
X29076874Y-15453495D01*
X29076875Y-15453492D01*
X29076875Y-15305000D01*
X28376875Y-15305000D01*
X28376875Y-14805000D01*
X29076875Y-14805000D01*
X29076875Y-14656508D01*
X29076874Y-14656504D01*
X35716875Y-14656504D01*
X35716875Y-14805000D01*
X36416875Y-14805000D01*
X36416875Y-15305000D01*
X35716875Y-15305000D01*
X35716875Y-15453495D01*
X35755302Y-15646681D01*
X35755305Y-15646693D01*
X35830682Y-15828671D01*
X35830689Y-15828684D01*
X35940123Y-15992462D01*
X35940126Y-15992466D01*
X36079408Y-16131748D01*
X36079412Y-16131751D01*
X36243190Y-16241185D01*
X36243203Y-16241192D01*
X36425183Y-16316569D01*
X36466875Y-16324862D01*
X36466875Y-15521988D01*
X36476815Y-15539205D01*
X36532670Y-15595060D01*
X36601079Y-15634556D01*
X36677379Y-15655000D01*
X36756371Y-15655000D01*
X36832671Y-15634556D01*
X36901080Y-15595060D01*
X36956935Y-15539205D01*
X36966875Y-15521988D01*
X36966875Y-16324862D01*
X37008565Y-16316569D01*
X37008567Y-16316569D01*
X37190546Y-16241192D01*
X37190559Y-16241185D01*
X37354337Y-16131751D01*
X37354341Y-16131748D01*
X37493623Y-15992466D01*
X37493626Y-15992462D01*
X37603060Y-15828684D01*
X37603067Y-15828671D01*
X37678444Y-15646693D01*
X37678447Y-15646681D01*
X37716874Y-15453495D01*
X37716875Y-15453492D01*
X37716875Y-15305000D01*
X37016875Y-15305000D01*
X37016875Y-14805000D01*
X37716875Y-14805000D01*
X37716875Y-14656508D01*
X37716874Y-14656504D01*
X37678447Y-14463318D01*
X37678444Y-14463306D01*
X37603067Y-14281328D01*
X37603060Y-14281315D01*
X37493626Y-14117537D01*
X37493623Y-14117533D01*
X37354341Y-13978251D01*
X37354337Y-13978248D01*
X37190559Y-13868814D01*
X37190546Y-13868807D01*
X37008566Y-13793429D01*
X37008558Y-13793427D01*
X36966875Y-13785135D01*
X36966875Y-14588011D01*
X36956935Y-14570795D01*
X36901080Y-14514940D01*
X36832671Y-14475444D01*
X36756371Y-14455000D01*
X36677379Y-14455000D01*
X36601079Y-14475444D01*
X36532670Y-14514940D01*
X36476815Y-14570795D01*
X36466875Y-14588011D01*
X36466875Y-13785136D01*
X36466874Y-13785135D01*
X36425191Y-13793427D01*
X36425183Y-13793429D01*
X36243203Y-13868807D01*
X36243190Y-13868814D01*
X36079412Y-13978248D01*
X36079408Y-13978251D01*
X35940126Y-14117533D01*
X35940123Y-14117537D01*
X35830689Y-14281315D01*
X35830682Y-14281328D01*
X35755305Y-14463306D01*
X35755302Y-14463318D01*
X35716875Y-14656504D01*
X29076874Y-14656504D01*
X29038447Y-14463318D01*
X29038444Y-14463306D01*
X28963067Y-14281328D01*
X28963060Y-14281315D01*
X28853626Y-14117537D01*
X28853623Y-14117533D01*
X28714341Y-13978251D01*
X28714337Y-13978248D01*
X28550559Y-13868814D01*
X28550546Y-13868807D01*
X28368566Y-13793429D01*
X28368558Y-13793427D01*
X28326875Y-13785135D01*
X28326875Y-14588011D01*
X28316935Y-14570795D01*
X28261080Y-14514940D01*
X28192671Y-14475444D01*
X28116371Y-14455000D01*
X28037379Y-14455000D01*
X27961079Y-14475444D01*
X27892670Y-14514940D01*
X27836815Y-14570795D01*
X27826875Y-14588011D01*
X27826875Y-13785136D01*
X27826874Y-13785135D01*
X27785191Y-13793427D01*
X27785183Y-13793429D01*
X27603203Y-13868807D01*
X27603190Y-13868814D01*
X27439412Y-13978248D01*
X27439408Y-13978251D01*
X27300126Y-14117533D01*
X27300123Y-14117537D01*
X27190689Y-14281315D01*
X27190682Y-14281328D01*
X27115305Y-14463306D01*
X27115302Y-14463318D01*
X27076875Y-14656504D01*
X27076875Y-14805000D01*
X27776875Y-14805000D01*
X27776875Y-15305000D01*
X27076875Y-15305000D01*
X27076875Y-15453495D01*
X27115302Y-15646681D01*
X27115305Y-15646693D01*
X27190682Y-15828671D01*
X27190689Y-15828684D01*
X27300123Y-15992462D01*
X27300126Y-15992466D01*
X27320479Y-16012819D01*
X27353964Y-16074142D01*
X27348980Y-16143834D01*
X27307108Y-16199767D01*
X27241644Y-16224184D01*
X27232798Y-16224500D01*
X19649531Y-16224500D01*
X19582492Y-16204815D01*
X19538443Y-16155594D01*
X19524656Y-16127795D01*
X19524654Y-16127793D01*
X19524653Y-16127790D01*
X19524576Y-16127695D01*
X19524547Y-16127623D01*
X19521032Y-16122124D01*
X19522016Y-16121494D01*
X19497913Y-16063117D01*
X19510395Y-15994371D01*
X19524573Y-15972308D01*
X19524653Y-15972210D01*
X19604433Y-15811349D01*
X19647766Y-15637100D01*
X19650500Y-15596784D01*
X19650500Y-14803216D01*
X19647766Y-14762900D01*
X19604433Y-14588651D01*
X19524653Y-14427790D01*
X19444187Y-14327686D01*
X19417529Y-14263103D01*
X19430020Y-14194359D01*
X19444188Y-14172313D01*
X19488221Y-14117533D01*
X19524653Y-14072210D01*
X19604433Y-13911349D01*
X19647766Y-13737100D01*
X19650500Y-13696784D01*
X19650500Y-12903216D01*
X19647766Y-12862900D01*
X19604433Y-12688651D01*
X19597474Y-12674620D01*
X19585322Y-12605819D01*
X19612296Y-12541366D01*
X19669835Y-12501729D01*
X19708489Y-12495526D01*
X106088829Y-12446193D01*
X106090067Y-12446201D01*
G37*
G04 #@! TD.AperFunction*
M02*
