%TF.GenerationSoftware,KiCad,Pcbnew,8.0.7*%
%TF.CreationDate,2025-01-02T16:06:44-06:00*%
%TF.ProjectId,right,72696768-742e-46b6-9963-61645f706362,rev?*%
%TF.SameCoordinates,Original*%
%TF.FileFunction,Drillmap*%
%TF.FilePolarity,Positive*%
%FSLAX45Y45*%
G04 Gerber Fmt 4.5, Leading zero omitted, Abs format (unit mm)*
G04 Created by KiCad (PCBNEW 8.0.7) date 2025-01-02 16:06:44*
%MOMM*%
%LPD*%
G01*
G04 APERTURE LIST*
%ADD10C,0.200000*%
%ADD11C,0.100000*%
%ADD12C,0.400000*%
G04 APERTURE END LIST*
D10*
X18610000Y-1190000D02*
X1100000Y-1200000D01*
X18600000Y-11600000D02*
X18610000Y-1190000D01*
X5960000Y-13190000D02*
X18600000Y-11600000D01*
X1100000Y-9400000D02*
X5960000Y-13190000D01*
X1100000Y-1200000D02*
X1100000Y-9400000D01*
D11*
X2918187Y-1838000D02*
X2983187Y-1903000D01*
X2983187Y-1838000D02*
X2918187Y-1903000D01*
X3496187Y-1838000D02*
X3561187Y-1903000D01*
X3561187Y-1838000D02*
X3496187Y-1903000D01*
D12*
X6023059Y-11064030D02*
G75*
G02*
X5623059Y-11064030I-200000J0D01*
G01*
X5623059Y-11064030D02*
G75*
G02*
X6023059Y-11064030I200000J0D01*
G01*
X6365000Y-4146875D02*
G75*
G02*
X5965000Y-4146875I-200000J0D01*
G01*
X5965000Y-4146875D02*
G75*
G02*
X6365000Y-4146875I200000J0D01*
G01*
X6365000Y-6051875D02*
G75*
G02*
X5965000Y-6051875I-200000J0D01*
G01*
X5965000Y-6051875D02*
G75*
G02*
X6365000Y-6051875I200000J0D01*
G01*
X6365000Y-7956875D02*
G75*
G02*
X5965000Y-7956875I-200000J0D01*
G01*
X5965000Y-7956875D02*
G75*
G02*
X6365000Y-7956875I200000J0D01*
G01*
X8150000Y-10930000D02*
G75*
G02*
X7750000Y-10930000I-200000J0D01*
G01*
X7750000Y-10930000D02*
G75*
G02*
X8150000Y-10930000I200000J0D01*
G01*
X8270000Y-2956250D02*
G75*
G02*
X7870000Y-2956250I-200000J0D01*
G01*
X7870000Y-2956250D02*
G75*
G02*
X8270000Y-2956250I200000J0D01*
G01*
X8270000Y-4861250D02*
G75*
G02*
X7870000Y-4861250I-200000J0D01*
G01*
X7870000Y-4861250D02*
G75*
G02*
X8270000Y-4861250I200000J0D01*
G01*
X8270000Y-6766250D02*
G75*
G02*
X7870000Y-6766250I-200000J0D01*
G01*
X7870000Y-6766250D02*
G75*
G02*
X8270000Y-6766250I200000J0D01*
G01*
X8270000Y-8670000D02*
G75*
G02*
X7870000Y-8670000I-200000J0D01*
G01*
X7870000Y-8670000D02*
G75*
G02*
X8270000Y-8670000I200000J0D01*
G01*
X10170000Y-8430000D02*
G75*
G02*
X9770000Y-8430000I-200000J0D01*
G01*
X9770000Y-8430000D02*
G75*
G02*
X10170000Y-8430000I200000J0D01*
G01*
X10175000Y-2718125D02*
G75*
G02*
X9775000Y-2718125I-200000J0D01*
G01*
X9775000Y-2718125D02*
G75*
G02*
X10175000Y-2718125I200000J0D01*
G01*
X10175000Y-4623125D02*
G75*
G02*
X9775000Y-4623125I-200000J0D01*
G01*
X9775000Y-4623125D02*
G75*
G02*
X10175000Y-4623125I200000J0D01*
G01*
X10175000Y-6528125D02*
G75*
G02*
X9775000Y-6528125I-200000J0D01*
G01*
X9775000Y-6528125D02*
G75*
G02*
X10175000Y-6528125I200000J0D01*
G01*
X12080000Y-2480000D02*
G75*
G02*
X11680000Y-2480000I-200000J0D01*
G01*
X11680000Y-2480000D02*
G75*
G02*
X12080000Y-2480000I200000J0D01*
G01*
X12080000Y-4385000D02*
G75*
G02*
X11680000Y-4385000I-200000J0D01*
G01*
X11680000Y-4385000D02*
G75*
G02*
X12080000Y-4385000I200000J0D01*
G01*
X12080000Y-6290000D02*
G75*
G02*
X11680000Y-6290000I-200000J0D01*
G01*
X11680000Y-6290000D02*
G75*
G02*
X12080000Y-6290000I200000J0D01*
G01*
X12080000Y-8190000D02*
G75*
G02*
X11680000Y-8190000I-200000J0D01*
G01*
X11680000Y-8190000D02*
G75*
G02*
X12080000Y-8190000I200000J0D01*
G01*
X12080000Y-10100000D02*
G75*
G02*
X11680000Y-10100000I-200000J0D01*
G01*
X11680000Y-10100000D02*
G75*
G02*
X12080000Y-10100000I200000J0D01*
G01*
X13980000Y-8430000D02*
G75*
G02*
X13580000Y-8430000I-200000J0D01*
G01*
X13580000Y-8430000D02*
G75*
G02*
X13980000Y-8430000I200000J0D01*
G01*
X13985000Y-2718125D02*
G75*
G02*
X13585000Y-2718125I-200000J0D01*
G01*
X13585000Y-2718125D02*
G75*
G02*
X13985000Y-2718125I200000J0D01*
G01*
X13985000Y-4623125D02*
G75*
G02*
X13585000Y-4623125I-200000J0D01*
G01*
X13585000Y-4623125D02*
G75*
G02*
X13985000Y-4623125I200000J0D01*
G01*
X13985000Y-6528125D02*
G75*
G02*
X13585000Y-6528125I-200000J0D01*
G01*
X13585000Y-6528125D02*
G75*
G02*
X13985000Y-6528125I200000J0D01*
G01*
X13985000Y-10338125D02*
G75*
G02*
X13585000Y-10338125I-200000J0D01*
G01*
X13585000Y-10338125D02*
G75*
G02*
X13985000Y-10338125I200000J0D01*
G01*
X15890000Y-2956250D02*
G75*
G02*
X15490000Y-2956250I-200000J0D01*
G01*
X15490000Y-2956250D02*
G75*
G02*
X15890000Y-2956250I200000J0D01*
G01*
X15890000Y-6766250D02*
G75*
G02*
X15490000Y-6766250I-200000J0D01*
G01*
X15490000Y-6766250D02*
G75*
G02*
X15890000Y-6766250I200000J0D01*
G01*
X15890000Y-8670000D02*
G75*
G02*
X15490000Y-8670000I-200000J0D01*
G01*
X15490000Y-8670000D02*
G75*
G02*
X15890000Y-8670000I200000J0D01*
G01*
X15890000Y-10576250D02*
G75*
G02*
X15490000Y-10576250I-200000J0D01*
G01*
X15490000Y-10576250D02*
G75*
G02*
X15890000Y-10576250I200000J0D01*
G01*
X15905240Y-4861250D02*
G75*
G02*
X15505240Y-4861250I-200000J0D01*
G01*
X15505240Y-4861250D02*
G75*
G02*
X15905240Y-4861250I200000J0D01*
G01*
X17795000Y-2956250D02*
G75*
G02*
X17395000Y-2956250I-200000J0D01*
G01*
X17395000Y-2956250D02*
G75*
G02*
X17795000Y-2956250I200000J0D01*
G01*
X17795000Y-4861250D02*
G75*
G02*
X17395000Y-4861250I-200000J0D01*
G01*
X17395000Y-4861250D02*
G75*
G02*
X17795000Y-4861250I200000J0D01*
G01*
X17795000Y-6766250D02*
G75*
G02*
X17395000Y-6766250I-200000J0D01*
G01*
X17395000Y-6766250D02*
G75*
G02*
X17795000Y-6766250I200000J0D01*
G01*
X17795000Y-10576250D02*
G75*
G02*
X17395000Y-10576250I-200000J0D01*
G01*
X17395000Y-10576250D02*
G75*
G02*
X17795000Y-10576250I200000J0D01*
G01*
X17800000Y-8670000D02*
G75*
G02*
X17400000Y-8670000I-200000J0D01*
G01*
X17400000Y-8670000D02*
G75*
G02*
X17800000Y-8670000I200000J0D01*
G01*
D10*
X1350777Y-13511484D02*
X1350777Y-13311484D01*
X1350777Y-13311484D02*
X1398396Y-13311484D01*
X1398396Y-13311484D02*
X1426967Y-13321008D01*
X1426967Y-13321008D02*
X1446015Y-13340055D01*
X1446015Y-13340055D02*
X1455539Y-13359103D01*
X1455539Y-13359103D02*
X1465062Y-13397198D01*
X1465062Y-13397198D02*
X1465062Y-13425769D01*
X1465062Y-13425769D02*
X1455539Y-13463865D01*
X1455539Y-13463865D02*
X1446015Y-13482912D01*
X1446015Y-13482912D02*
X1426967Y-13501960D01*
X1426967Y-13501960D02*
X1398396Y-13511484D01*
X1398396Y-13511484D02*
X1350777Y-13511484D01*
X1550777Y-13511484D02*
X1550777Y-13378150D01*
X1550777Y-13416246D02*
X1560301Y-13397198D01*
X1560301Y-13397198D02*
X1569824Y-13387674D01*
X1569824Y-13387674D02*
X1588872Y-13378150D01*
X1588872Y-13378150D02*
X1607920Y-13378150D01*
X1674586Y-13511484D02*
X1674586Y-13378150D01*
X1674586Y-13311484D02*
X1665062Y-13321008D01*
X1665062Y-13321008D02*
X1674586Y-13330531D01*
X1674586Y-13330531D02*
X1684110Y-13321008D01*
X1684110Y-13321008D02*
X1674586Y-13311484D01*
X1674586Y-13311484D02*
X1674586Y-13330531D01*
X1798396Y-13511484D02*
X1779348Y-13501960D01*
X1779348Y-13501960D02*
X1769824Y-13482912D01*
X1769824Y-13482912D02*
X1769824Y-13311484D01*
X1903158Y-13511484D02*
X1884110Y-13501960D01*
X1884110Y-13501960D02*
X1874586Y-13482912D01*
X1874586Y-13482912D02*
X1874586Y-13311484D01*
X2131729Y-13511484D02*
X2131729Y-13311484D01*
X2131729Y-13311484D02*
X2198396Y-13454341D01*
X2198396Y-13454341D02*
X2265063Y-13311484D01*
X2265063Y-13311484D02*
X2265063Y-13511484D01*
X2446015Y-13511484D02*
X2446015Y-13406722D01*
X2446015Y-13406722D02*
X2436491Y-13387674D01*
X2436491Y-13387674D02*
X2417444Y-13378150D01*
X2417444Y-13378150D02*
X2379348Y-13378150D01*
X2379348Y-13378150D02*
X2360301Y-13387674D01*
X2446015Y-13501960D02*
X2426967Y-13511484D01*
X2426967Y-13511484D02*
X2379348Y-13511484D01*
X2379348Y-13511484D02*
X2360301Y-13501960D01*
X2360301Y-13501960D02*
X2350777Y-13482912D01*
X2350777Y-13482912D02*
X2350777Y-13463865D01*
X2350777Y-13463865D02*
X2360301Y-13444817D01*
X2360301Y-13444817D02*
X2379348Y-13435293D01*
X2379348Y-13435293D02*
X2426967Y-13435293D01*
X2426967Y-13435293D02*
X2446015Y-13425769D01*
X2541253Y-13378150D02*
X2541253Y-13578150D01*
X2541253Y-13387674D02*
X2560301Y-13378150D01*
X2560301Y-13378150D02*
X2598396Y-13378150D01*
X2598396Y-13378150D02*
X2617444Y-13387674D01*
X2617444Y-13387674D02*
X2626967Y-13397198D01*
X2626967Y-13397198D02*
X2636491Y-13416246D01*
X2636491Y-13416246D02*
X2636491Y-13473388D01*
X2636491Y-13473388D02*
X2626967Y-13492436D01*
X2626967Y-13492436D02*
X2617444Y-13501960D01*
X2617444Y-13501960D02*
X2598396Y-13511484D01*
X2598396Y-13511484D02*
X2560301Y-13511484D01*
X2560301Y-13511484D02*
X2541253Y-13501960D01*
X2722205Y-13492436D02*
X2731729Y-13501960D01*
X2731729Y-13501960D02*
X2722205Y-13511484D01*
X2722205Y-13511484D02*
X2712682Y-13501960D01*
X2712682Y-13501960D02*
X2722205Y-13492436D01*
X2722205Y-13492436D02*
X2722205Y-13511484D01*
X2722205Y-13387674D02*
X2731729Y-13397198D01*
X2731729Y-13397198D02*
X2722205Y-13406722D01*
X2722205Y-13406722D02*
X2712682Y-13397198D01*
X2712682Y-13397198D02*
X2722205Y-13387674D01*
X2722205Y-13387674D02*
X2722205Y-13406722D01*
D11*
X1025000Y-13807500D02*
X1090000Y-13872500D01*
X1090000Y-13807500D02*
X1025000Y-13872500D01*
D10*
X1388872Y-13731484D02*
X1407920Y-13731484D01*
X1407920Y-13731484D02*
X1426967Y-13741008D01*
X1426967Y-13741008D02*
X1436491Y-13750531D01*
X1436491Y-13750531D02*
X1446015Y-13769579D01*
X1446015Y-13769579D02*
X1455539Y-13807674D01*
X1455539Y-13807674D02*
X1455539Y-13855293D01*
X1455539Y-13855293D02*
X1446015Y-13893388D01*
X1446015Y-13893388D02*
X1436491Y-13912436D01*
X1436491Y-13912436D02*
X1426967Y-13921960D01*
X1426967Y-13921960D02*
X1407920Y-13931484D01*
X1407920Y-13931484D02*
X1388872Y-13931484D01*
X1388872Y-13931484D02*
X1369824Y-13921960D01*
X1369824Y-13921960D02*
X1360301Y-13912436D01*
X1360301Y-13912436D02*
X1350777Y-13893388D01*
X1350777Y-13893388D02*
X1341253Y-13855293D01*
X1341253Y-13855293D02*
X1341253Y-13807674D01*
X1341253Y-13807674D02*
X1350777Y-13769579D01*
X1350777Y-13769579D02*
X1360301Y-13750531D01*
X1360301Y-13750531D02*
X1369824Y-13741008D01*
X1369824Y-13741008D02*
X1388872Y-13731484D01*
X1541253Y-13912436D02*
X1550777Y-13921960D01*
X1550777Y-13921960D02*
X1541253Y-13931484D01*
X1541253Y-13931484D02*
X1531729Y-13921960D01*
X1531729Y-13921960D02*
X1541253Y-13912436D01*
X1541253Y-13912436D02*
X1541253Y-13931484D01*
X1722205Y-13731484D02*
X1684110Y-13731484D01*
X1684110Y-13731484D02*
X1665062Y-13741008D01*
X1665062Y-13741008D02*
X1655539Y-13750531D01*
X1655539Y-13750531D02*
X1636491Y-13779103D01*
X1636491Y-13779103D02*
X1626967Y-13817198D01*
X1626967Y-13817198D02*
X1626967Y-13893388D01*
X1626967Y-13893388D02*
X1636491Y-13912436D01*
X1636491Y-13912436D02*
X1646015Y-13921960D01*
X1646015Y-13921960D02*
X1665062Y-13931484D01*
X1665062Y-13931484D02*
X1703158Y-13931484D01*
X1703158Y-13931484D02*
X1722205Y-13921960D01*
X1722205Y-13921960D02*
X1731729Y-13912436D01*
X1731729Y-13912436D02*
X1741253Y-13893388D01*
X1741253Y-13893388D02*
X1741253Y-13845769D01*
X1741253Y-13845769D02*
X1731729Y-13826722D01*
X1731729Y-13826722D02*
X1722205Y-13817198D01*
X1722205Y-13817198D02*
X1703158Y-13807674D01*
X1703158Y-13807674D02*
X1665062Y-13807674D01*
X1665062Y-13807674D02*
X1646015Y-13817198D01*
X1646015Y-13817198D02*
X1636491Y-13826722D01*
X1636491Y-13826722D02*
X1626967Y-13845769D01*
X1922205Y-13731484D02*
X1826967Y-13731484D01*
X1826967Y-13731484D02*
X1817443Y-13826722D01*
X1817443Y-13826722D02*
X1826967Y-13817198D01*
X1826967Y-13817198D02*
X1846015Y-13807674D01*
X1846015Y-13807674D02*
X1893634Y-13807674D01*
X1893634Y-13807674D02*
X1912682Y-13817198D01*
X1912682Y-13817198D02*
X1922205Y-13826722D01*
X1922205Y-13826722D02*
X1931729Y-13845769D01*
X1931729Y-13845769D02*
X1931729Y-13893388D01*
X1931729Y-13893388D02*
X1922205Y-13912436D01*
X1922205Y-13912436D02*
X1912682Y-13921960D01*
X1912682Y-13921960D02*
X1893634Y-13931484D01*
X1893634Y-13931484D02*
X1846015Y-13931484D01*
X1846015Y-13931484D02*
X1826967Y-13921960D01*
X1826967Y-13921960D02*
X1817443Y-13912436D01*
X2055539Y-13731484D02*
X2074586Y-13731484D01*
X2074586Y-13731484D02*
X2093634Y-13741008D01*
X2093634Y-13741008D02*
X2103158Y-13750531D01*
X2103158Y-13750531D02*
X2112682Y-13769579D01*
X2112682Y-13769579D02*
X2122205Y-13807674D01*
X2122205Y-13807674D02*
X2122205Y-13855293D01*
X2122205Y-13855293D02*
X2112682Y-13893388D01*
X2112682Y-13893388D02*
X2103158Y-13912436D01*
X2103158Y-13912436D02*
X2093634Y-13921960D01*
X2093634Y-13921960D02*
X2074586Y-13931484D01*
X2074586Y-13931484D02*
X2055539Y-13931484D01*
X2055539Y-13931484D02*
X2036491Y-13921960D01*
X2036491Y-13921960D02*
X2026967Y-13912436D01*
X2026967Y-13912436D02*
X2017443Y-13893388D01*
X2017443Y-13893388D02*
X2007920Y-13855293D01*
X2007920Y-13855293D02*
X2007920Y-13807674D01*
X2007920Y-13807674D02*
X2017443Y-13769579D01*
X2017443Y-13769579D02*
X2026967Y-13750531D01*
X2026967Y-13750531D02*
X2036491Y-13741008D01*
X2036491Y-13741008D02*
X2055539Y-13731484D01*
X2207920Y-13931484D02*
X2207920Y-13798150D01*
X2207920Y-13817198D02*
X2217444Y-13807674D01*
X2217444Y-13807674D02*
X2236491Y-13798150D01*
X2236491Y-13798150D02*
X2265063Y-13798150D01*
X2265063Y-13798150D02*
X2284110Y-13807674D01*
X2284110Y-13807674D02*
X2293634Y-13826722D01*
X2293634Y-13826722D02*
X2293634Y-13931484D01*
X2293634Y-13826722D02*
X2303158Y-13807674D01*
X2303158Y-13807674D02*
X2322205Y-13798150D01*
X2322205Y-13798150D02*
X2350777Y-13798150D01*
X2350777Y-13798150D02*
X2369825Y-13807674D01*
X2369825Y-13807674D02*
X2379348Y-13826722D01*
X2379348Y-13826722D02*
X2379348Y-13931484D01*
X2474586Y-13931484D02*
X2474586Y-13798150D01*
X2474586Y-13817198D02*
X2484110Y-13807674D01*
X2484110Y-13807674D02*
X2503158Y-13798150D01*
X2503158Y-13798150D02*
X2531729Y-13798150D01*
X2531729Y-13798150D02*
X2550777Y-13807674D01*
X2550777Y-13807674D02*
X2560301Y-13826722D01*
X2560301Y-13826722D02*
X2560301Y-13931484D01*
X2560301Y-13826722D02*
X2569825Y-13807674D01*
X2569825Y-13807674D02*
X2588872Y-13798150D01*
X2588872Y-13798150D02*
X2617444Y-13798150D01*
X2617444Y-13798150D02*
X2636491Y-13807674D01*
X2636491Y-13807674D02*
X2646015Y-13826722D01*
X2646015Y-13826722D02*
X2646015Y-13931484D01*
X3036491Y-13721960D02*
X2865063Y-13979103D01*
X3293634Y-13731484D02*
X3312682Y-13731484D01*
X3312682Y-13731484D02*
X3331729Y-13741008D01*
X3331729Y-13741008D02*
X3341253Y-13750531D01*
X3341253Y-13750531D02*
X3350777Y-13769579D01*
X3350777Y-13769579D02*
X3360301Y-13807674D01*
X3360301Y-13807674D02*
X3360301Y-13855293D01*
X3360301Y-13855293D02*
X3350777Y-13893388D01*
X3350777Y-13893388D02*
X3341253Y-13912436D01*
X3341253Y-13912436D02*
X3331729Y-13921960D01*
X3331729Y-13921960D02*
X3312682Y-13931484D01*
X3312682Y-13931484D02*
X3293634Y-13931484D01*
X3293634Y-13931484D02*
X3274586Y-13921960D01*
X3274586Y-13921960D02*
X3265063Y-13912436D01*
X3265063Y-13912436D02*
X3255539Y-13893388D01*
X3255539Y-13893388D02*
X3246015Y-13855293D01*
X3246015Y-13855293D02*
X3246015Y-13807674D01*
X3246015Y-13807674D02*
X3255539Y-13769579D01*
X3255539Y-13769579D02*
X3265063Y-13750531D01*
X3265063Y-13750531D02*
X3274586Y-13741008D01*
X3274586Y-13741008D02*
X3293634Y-13731484D01*
X3446015Y-13912436D02*
X3455539Y-13921960D01*
X3455539Y-13921960D02*
X3446015Y-13931484D01*
X3446015Y-13931484D02*
X3436491Y-13921960D01*
X3436491Y-13921960D02*
X3446015Y-13912436D01*
X3446015Y-13912436D02*
X3446015Y-13931484D01*
X3579348Y-13731484D02*
X3598396Y-13731484D01*
X3598396Y-13731484D02*
X3617444Y-13741008D01*
X3617444Y-13741008D02*
X3626967Y-13750531D01*
X3626967Y-13750531D02*
X3636491Y-13769579D01*
X3636491Y-13769579D02*
X3646015Y-13807674D01*
X3646015Y-13807674D02*
X3646015Y-13855293D01*
X3646015Y-13855293D02*
X3636491Y-13893388D01*
X3636491Y-13893388D02*
X3626967Y-13912436D01*
X3626967Y-13912436D02*
X3617444Y-13921960D01*
X3617444Y-13921960D02*
X3598396Y-13931484D01*
X3598396Y-13931484D02*
X3579348Y-13931484D01*
X3579348Y-13931484D02*
X3560301Y-13921960D01*
X3560301Y-13921960D02*
X3550777Y-13912436D01*
X3550777Y-13912436D02*
X3541253Y-13893388D01*
X3541253Y-13893388D02*
X3531729Y-13855293D01*
X3531729Y-13855293D02*
X3531729Y-13807674D01*
X3531729Y-13807674D02*
X3541253Y-13769579D01*
X3541253Y-13769579D02*
X3550777Y-13750531D01*
X3550777Y-13750531D02*
X3560301Y-13741008D01*
X3560301Y-13741008D02*
X3579348Y-13731484D01*
X3722206Y-13750531D02*
X3731729Y-13741008D01*
X3731729Y-13741008D02*
X3750777Y-13731484D01*
X3750777Y-13731484D02*
X3798396Y-13731484D01*
X3798396Y-13731484D02*
X3817444Y-13741008D01*
X3817444Y-13741008D02*
X3826967Y-13750531D01*
X3826967Y-13750531D02*
X3836491Y-13769579D01*
X3836491Y-13769579D02*
X3836491Y-13788627D01*
X3836491Y-13788627D02*
X3826967Y-13817198D01*
X3826967Y-13817198D02*
X3712682Y-13931484D01*
X3712682Y-13931484D02*
X3836491Y-13931484D01*
X4017444Y-13731484D02*
X3922206Y-13731484D01*
X3922206Y-13731484D02*
X3912682Y-13826722D01*
X3912682Y-13826722D02*
X3922206Y-13817198D01*
X3922206Y-13817198D02*
X3941253Y-13807674D01*
X3941253Y-13807674D02*
X3988872Y-13807674D01*
X3988872Y-13807674D02*
X4007920Y-13817198D01*
X4007920Y-13817198D02*
X4017444Y-13826722D01*
X4017444Y-13826722D02*
X4026967Y-13845769D01*
X4026967Y-13845769D02*
X4026967Y-13893388D01*
X4026967Y-13893388D02*
X4017444Y-13912436D01*
X4017444Y-13912436D02*
X4007920Y-13921960D01*
X4007920Y-13921960D02*
X3988872Y-13931484D01*
X3988872Y-13931484D02*
X3941253Y-13931484D01*
X3941253Y-13931484D02*
X3922206Y-13921960D01*
X3922206Y-13921960D02*
X3912682Y-13912436D01*
X4198396Y-13731484D02*
X4160301Y-13731484D01*
X4160301Y-13731484D02*
X4141253Y-13741008D01*
X4141253Y-13741008D02*
X4131729Y-13750531D01*
X4131729Y-13750531D02*
X4112682Y-13779103D01*
X4112682Y-13779103D02*
X4103158Y-13817198D01*
X4103158Y-13817198D02*
X4103158Y-13893388D01*
X4103158Y-13893388D02*
X4112682Y-13912436D01*
X4112682Y-13912436D02*
X4122206Y-13921960D01*
X4122206Y-13921960D02*
X4141253Y-13931484D01*
X4141253Y-13931484D02*
X4179348Y-13931484D01*
X4179348Y-13931484D02*
X4198396Y-13921960D01*
X4198396Y-13921960D02*
X4207920Y-13912436D01*
X4207920Y-13912436D02*
X4217444Y-13893388D01*
X4217444Y-13893388D02*
X4217444Y-13845769D01*
X4217444Y-13845769D02*
X4207920Y-13826722D01*
X4207920Y-13826722D02*
X4198396Y-13817198D01*
X4198396Y-13817198D02*
X4179348Y-13807674D01*
X4179348Y-13807674D02*
X4141253Y-13807674D01*
X4141253Y-13807674D02*
X4122206Y-13817198D01*
X4122206Y-13817198D02*
X4112682Y-13826722D01*
X4112682Y-13826722D02*
X4103158Y-13845769D01*
X4293634Y-13731484D02*
X4293634Y-13769579D01*
X4369825Y-13731484D02*
X4369825Y-13769579D01*
X4665063Y-14007674D02*
X4655539Y-13998150D01*
X4655539Y-13998150D02*
X4636491Y-13969579D01*
X4636491Y-13969579D02*
X4626968Y-13950531D01*
X4626968Y-13950531D02*
X4617444Y-13921960D01*
X4617444Y-13921960D02*
X4607920Y-13874341D01*
X4607920Y-13874341D02*
X4607920Y-13836246D01*
X4607920Y-13836246D02*
X4617444Y-13788627D01*
X4617444Y-13788627D02*
X4626968Y-13760055D01*
X4626968Y-13760055D02*
X4636491Y-13741008D01*
X4636491Y-13741008D02*
X4655539Y-13712436D01*
X4655539Y-13712436D02*
X4665063Y-13702912D01*
X4731730Y-13750531D02*
X4741253Y-13741008D01*
X4741253Y-13741008D02*
X4760301Y-13731484D01*
X4760301Y-13731484D02*
X4807920Y-13731484D01*
X4807920Y-13731484D02*
X4826968Y-13741008D01*
X4826968Y-13741008D02*
X4836491Y-13750531D01*
X4836491Y-13750531D02*
X4846015Y-13769579D01*
X4846015Y-13769579D02*
X4846015Y-13788627D01*
X4846015Y-13788627D02*
X4836491Y-13817198D01*
X4836491Y-13817198D02*
X4722206Y-13931484D01*
X4722206Y-13931484D02*
X4846015Y-13931484D01*
X5084111Y-13931484D02*
X5084111Y-13731484D01*
X5169825Y-13931484D02*
X5169825Y-13826722D01*
X5169825Y-13826722D02*
X5160301Y-13807674D01*
X5160301Y-13807674D02*
X5141253Y-13798150D01*
X5141253Y-13798150D02*
X5112682Y-13798150D01*
X5112682Y-13798150D02*
X5093634Y-13807674D01*
X5093634Y-13807674D02*
X5084111Y-13817198D01*
X5293634Y-13931484D02*
X5274587Y-13921960D01*
X5274587Y-13921960D02*
X5265063Y-13912436D01*
X5265063Y-13912436D02*
X5255539Y-13893388D01*
X5255539Y-13893388D02*
X5255539Y-13836246D01*
X5255539Y-13836246D02*
X5265063Y-13817198D01*
X5265063Y-13817198D02*
X5274587Y-13807674D01*
X5274587Y-13807674D02*
X5293634Y-13798150D01*
X5293634Y-13798150D02*
X5322206Y-13798150D01*
X5322206Y-13798150D02*
X5341253Y-13807674D01*
X5341253Y-13807674D02*
X5350777Y-13817198D01*
X5350777Y-13817198D02*
X5360301Y-13836246D01*
X5360301Y-13836246D02*
X5360301Y-13893388D01*
X5360301Y-13893388D02*
X5350777Y-13912436D01*
X5350777Y-13912436D02*
X5341253Y-13921960D01*
X5341253Y-13921960D02*
X5322206Y-13931484D01*
X5322206Y-13931484D02*
X5293634Y-13931484D01*
X5474587Y-13931484D02*
X5455539Y-13921960D01*
X5455539Y-13921960D02*
X5446015Y-13902912D01*
X5446015Y-13902912D02*
X5446015Y-13731484D01*
X5626968Y-13921960D02*
X5607920Y-13931484D01*
X5607920Y-13931484D02*
X5569825Y-13931484D01*
X5569825Y-13931484D02*
X5550777Y-13921960D01*
X5550777Y-13921960D02*
X5541253Y-13902912D01*
X5541253Y-13902912D02*
X5541253Y-13826722D01*
X5541253Y-13826722D02*
X5550777Y-13807674D01*
X5550777Y-13807674D02*
X5569825Y-13798150D01*
X5569825Y-13798150D02*
X5607920Y-13798150D01*
X5607920Y-13798150D02*
X5626968Y-13807674D01*
X5626968Y-13807674D02*
X5636491Y-13826722D01*
X5636491Y-13826722D02*
X5636491Y-13845769D01*
X5636491Y-13845769D02*
X5541253Y-13864817D01*
X5712682Y-13921960D02*
X5731730Y-13931484D01*
X5731730Y-13931484D02*
X5769825Y-13931484D01*
X5769825Y-13931484D02*
X5788872Y-13921960D01*
X5788872Y-13921960D02*
X5798396Y-13902912D01*
X5798396Y-13902912D02*
X5798396Y-13893388D01*
X5798396Y-13893388D02*
X5788872Y-13874341D01*
X5788872Y-13874341D02*
X5769825Y-13864817D01*
X5769825Y-13864817D02*
X5741253Y-13864817D01*
X5741253Y-13864817D02*
X5722206Y-13855293D01*
X5722206Y-13855293D02*
X5712682Y-13836246D01*
X5712682Y-13836246D02*
X5712682Y-13826722D01*
X5712682Y-13826722D02*
X5722206Y-13807674D01*
X5722206Y-13807674D02*
X5741253Y-13798150D01*
X5741253Y-13798150D02*
X5769825Y-13798150D01*
X5769825Y-13798150D02*
X5788872Y-13807674D01*
X5865063Y-14007674D02*
X5874587Y-13998150D01*
X5874587Y-13998150D02*
X5893634Y-13969579D01*
X5893634Y-13969579D02*
X5903158Y-13950531D01*
X5903158Y-13950531D02*
X5912682Y-13921960D01*
X5912682Y-13921960D02*
X5922206Y-13874341D01*
X5922206Y-13874341D02*
X5922206Y-13836246D01*
X5922206Y-13836246D02*
X5912682Y-13788627D01*
X5912682Y-13788627D02*
X5903158Y-13760055D01*
X5903158Y-13760055D02*
X5893634Y-13741008D01*
X5893634Y-13741008D02*
X5874587Y-13712436D01*
X5874587Y-13712436D02*
X5865063Y-13702912D01*
X6226968Y-14007674D02*
X6217444Y-13998150D01*
X6217444Y-13998150D02*
X6198396Y-13969579D01*
X6198396Y-13969579D02*
X6188872Y-13950531D01*
X6188872Y-13950531D02*
X6179349Y-13921960D01*
X6179349Y-13921960D02*
X6169825Y-13874341D01*
X6169825Y-13874341D02*
X6169825Y-13836246D01*
X6169825Y-13836246D02*
X6179349Y-13788627D01*
X6179349Y-13788627D02*
X6188872Y-13760055D01*
X6188872Y-13760055D02*
X6198396Y-13741008D01*
X6198396Y-13741008D02*
X6217444Y-13712436D01*
X6217444Y-13712436D02*
X6226968Y-13702912D01*
X6303158Y-13798150D02*
X6303158Y-13931484D01*
X6303158Y-13817198D02*
X6312682Y-13807674D01*
X6312682Y-13807674D02*
X6331730Y-13798150D01*
X6331730Y-13798150D02*
X6360301Y-13798150D01*
X6360301Y-13798150D02*
X6379349Y-13807674D01*
X6379349Y-13807674D02*
X6388872Y-13826722D01*
X6388872Y-13826722D02*
X6388872Y-13931484D01*
X6512682Y-13931484D02*
X6493634Y-13921960D01*
X6493634Y-13921960D02*
X6484111Y-13912436D01*
X6484111Y-13912436D02*
X6474587Y-13893388D01*
X6474587Y-13893388D02*
X6474587Y-13836246D01*
X6474587Y-13836246D02*
X6484111Y-13817198D01*
X6484111Y-13817198D02*
X6493634Y-13807674D01*
X6493634Y-13807674D02*
X6512682Y-13798150D01*
X6512682Y-13798150D02*
X6541253Y-13798150D01*
X6541253Y-13798150D02*
X6560301Y-13807674D01*
X6560301Y-13807674D02*
X6569825Y-13817198D01*
X6569825Y-13817198D02*
X6579349Y-13836246D01*
X6579349Y-13836246D02*
X6579349Y-13893388D01*
X6579349Y-13893388D02*
X6569825Y-13912436D01*
X6569825Y-13912436D02*
X6560301Y-13921960D01*
X6560301Y-13921960D02*
X6541253Y-13931484D01*
X6541253Y-13931484D02*
X6512682Y-13931484D01*
X6636492Y-13798150D02*
X6712682Y-13798150D01*
X6665063Y-13731484D02*
X6665063Y-13902912D01*
X6665063Y-13902912D02*
X6674587Y-13921960D01*
X6674587Y-13921960D02*
X6693634Y-13931484D01*
X6693634Y-13931484D02*
X6712682Y-13931484D01*
X6931730Y-13798150D02*
X6931730Y-13998150D01*
X6931730Y-13807674D02*
X6950777Y-13798150D01*
X6950777Y-13798150D02*
X6988873Y-13798150D01*
X6988873Y-13798150D02*
X7007920Y-13807674D01*
X7007920Y-13807674D02*
X7017444Y-13817198D01*
X7017444Y-13817198D02*
X7026968Y-13836246D01*
X7026968Y-13836246D02*
X7026968Y-13893388D01*
X7026968Y-13893388D02*
X7017444Y-13912436D01*
X7017444Y-13912436D02*
X7007920Y-13921960D01*
X7007920Y-13921960D02*
X6988873Y-13931484D01*
X6988873Y-13931484D02*
X6950777Y-13931484D01*
X6950777Y-13931484D02*
X6931730Y-13921960D01*
X7141253Y-13931484D02*
X7122206Y-13921960D01*
X7122206Y-13921960D02*
X7112682Y-13902912D01*
X7112682Y-13902912D02*
X7112682Y-13731484D01*
X7303158Y-13931484D02*
X7303158Y-13826722D01*
X7303158Y-13826722D02*
X7293634Y-13807674D01*
X7293634Y-13807674D02*
X7274587Y-13798150D01*
X7274587Y-13798150D02*
X7236492Y-13798150D01*
X7236492Y-13798150D02*
X7217444Y-13807674D01*
X7303158Y-13921960D02*
X7284111Y-13931484D01*
X7284111Y-13931484D02*
X7236492Y-13931484D01*
X7236492Y-13931484D02*
X7217444Y-13921960D01*
X7217444Y-13921960D02*
X7207920Y-13902912D01*
X7207920Y-13902912D02*
X7207920Y-13883865D01*
X7207920Y-13883865D02*
X7217444Y-13864817D01*
X7217444Y-13864817D02*
X7236492Y-13855293D01*
X7236492Y-13855293D02*
X7284111Y-13855293D01*
X7284111Y-13855293D02*
X7303158Y-13845769D01*
X7369825Y-13798150D02*
X7446015Y-13798150D01*
X7398396Y-13731484D02*
X7398396Y-13902912D01*
X7398396Y-13902912D02*
X7407920Y-13921960D01*
X7407920Y-13921960D02*
X7426968Y-13931484D01*
X7426968Y-13931484D02*
X7446015Y-13931484D01*
X7588873Y-13921960D02*
X7569825Y-13931484D01*
X7569825Y-13931484D02*
X7531730Y-13931484D01*
X7531730Y-13931484D02*
X7512682Y-13921960D01*
X7512682Y-13921960D02*
X7503158Y-13902912D01*
X7503158Y-13902912D02*
X7503158Y-13826722D01*
X7503158Y-13826722D02*
X7512682Y-13807674D01*
X7512682Y-13807674D02*
X7531730Y-13798150D01*
X7531730Y-13798150D02*
X7569825Y-13798150D01*
X7569825Y-13798150D02*
X7588873Y-13807674D01*
X7588873Y-13807674D02*
X7598396Y-13826722D01*
X7598396Y-13826722D02*
X7598396Y-13845769D01*
X7598396Y-13845769D02*
X7503158Y-13864817D01*
X7769825Y-13931484D02*
X7769825Y-13731484D01*
X7769825Y-13921960D02*
X7750777Y-13931484D01*
X7750777Y-13931484D02*
X7712682Y-13931484D01*
X7712682Y-13931484D02*
X7693634Y-13921960D01*
X7693634Y-13921960D02*
X7684111Y-13912436D01*
X7684111Y-13912436D02*
X7674587Y-13893388D01*
X7674587Y-13893388D02*
X7674587Y-13836246D01*
X7674587Y-13836246D02*
X7684111Y-13817198D01*
X7684111Y-13817198D02*
X7693634Y-13807674D01*
X7693634Y-13807674D02*
X7712682Y-13798150D01*
X7712682Y-13798150D02*
X7750777Y-13798150D01*
X7750777Y-13798150D02*
X7769825Y-13807674D01*
X7846015Y-14007674D02*
X7855539Y-13998150D01*
X7855539Y-13998150D02*
X7874587Y-13969579D01*
X7874587Y-13969579D02*
X7884111Y-13950531D01*
X7884111Y-13950531D02*
X7893634Y-13921960D01*
X7893634Y-13921960D02*
X7903158Y-13874341D01*
X7903158Y-13874341D02*
X7903158Y-13836246D01*
X7903158Y-13836246D02*
X7893634Y-13788627D01*
X7893634Y-13788627D02*
X7884111Y-13760055D01*
X7884111Y-13760055D02*
X7874587Y-13741008D01*
X7874587Y-13741008D02*
X7855539Y-13712436D01*
X7855539Y-13712436D02*
X7846015Y-13702912D01*
X1090000Y-14104000D02*
G75*
G02*
X890000Y-14104000I-100000J0D01*
G01*
X890000Y-14104000D02*
G75*
G02*
X1090000Y-14104000I100000J0D01*
G01*
X1436491Y-14062150D02*
X1436491Y-14195484D01*
X1388872Y-13985960D02*
X1341253Y-14128817D01*
X1341253Y-14128817D02*
X1465062Y-14128817D01*
X1541253Y-14176436D02*
X1550777Y-14185960D01*
X1550777Y-14185960D02*
X1541253Y-14195484D01*
X1541253Y-14195484D02*
X1531729Y-14185960D01*
X1531729Y-14185960D02*
X1541253Y-14176436D01*
X1541253Y-14176436D02*
X1541253Y-14195484D01*
X1674586Y-13995484D02*
X1693634Y-13995484D01*
X1693634Y-13995484D02*
X1712682Y-14005008D01*
X1712682Y-14005008D02*
X1722205Y-14014531D01*
X1722205Y-14014531D02*
X1731729Y-14033579D01*
X1731729Y-14033579D02*
X1741253Y-14071674D01*
X1741253Y-14071674D02*
X1741253Y-14119293D01*
X1741253Y-14119293D02*
X1731729Y-14157388D01*
X1731729Y-14157388D02*
X1722205Y-14176436D01*
X1722205Y-14176436D02*
X1712682Y-14185960D01*
X1712682Y-14185960D02*
X1693634Y-14195484D01*
X1693634Y-14195484D02*
X1674586Y-14195484D01*
X1674586Y-14195484D02*
X1655539Y-14185960D01*
X1655539Y-14185960D02*
X1646015Y-14176436D01*
X1646015Y-14176436D02*
X1636491Y-14157388D01*
X1636491Y-14157388D02*
X1626967Y-14119293D01*
X1626967Y-14119293D02*
X1626967Y-14071674D01*
X1626967Y-14071674D02*
X1636491Y-14033579D01*
X1636491Y-14033579D02*
X1646015Y-14014531D01*
X1646015Y-14014531D02*
X1655539Y-14005008D01*
X1655539Y-14005008D02*
X1674586Y-13995484D01*
X1865062Y-13995484D02*
X1884110Y-13995484D01*
X1884110Y-13995484D02*
X1903158Y-14005008D01*
X1903158Y-14005008D02*
X1912682Y-14014531D01*
X1912682Y-14014531D02*
X1922205Y-14033579D01*
X1922205Y-14033579D02*
X1931729Y-14071674D01*
X1931729Y-14071674D02*
X1931729Y-14119293D01*
X1931729Y-14119293D02*
X1922205Y-14157388D01*
X1922205Y-14157388D02*
X1912682Y-14176436D01*
X1912682Y-14176436D02*
X1903158Y-14185960D01*
X1903158Y-14185960D02*
X1884110Y-14195484D01*
X1884110Y-14195484D02*
X1865062Y-14195484D01*
X1865062Y-14195484D02*
X1846015Y-14185960D01*
X1846015Y-14185960D02*
X1836491Y-14176436D01*
X1836491Y-14176436D02*
X1826967Y-14157388D01*
X1826967Y-14157388D02*
X1817443Y-14119293D01*
X1817443Y-14119293D02*
X1817443Y-14071674D01*
X1817443Y-14071674D02*
X1826967Y-14033579D01*
X1826967Y-14033579D02*
X1836491Y-14014531D01*
X1836491Y-14014531D02*
X1846015Y-14005008D01*
X1846015Y-14005008D02*
X1865062Y-13995484D01*
X2055539Y-13995484D02*
X2074586Y-13995484D01*
X2074586Y-13995484D02*
X2093634Y-14005008D01*
X2093634Y-14005008D02*
X2103158Y-14014531D01*
X2103158Y-14014531D02*
X2112682Y-14033579D01*
X2112682Y-14033579D02*
X2122205Y-14071674D01*
X2122205Y-14071674D02*
X2122205Y-14119293D01*
X2122205Y-14119293D02*
X2112682Y-14157388D01*
X2112682Y-14157388D02*
X2103158Y-14176436D01*
X2103158Y-14176436D02*
X2093634Y-14185960D01*
X2093634Y-14185960D02*
X2074586Y-14195484D01*
X2074586Y-14195484D02*
X2055539Y-14195484D01*
X2055539Y-14195484D02*
X2036491Y-14185960D01*
X2036491Y-14185960D02*
X2026967Y-14176436D01*
X2026967Y-14176436D02*
X2017443Y-14157388D01*
X2017443Y-14157388D02*
X2007920Y-14119293D01*
X2007920Y-14119293D02*
X2007920Y-14071674D01*
X2007920Y-14071674D02*
X2017443Y-14033579D01*
X2017443Y-14033579D02*
X2026967Y-14014531D01*
X2026967Y-14014531D02*
X2036491Y-14005008D01*
X2036491Y-14005008D02*
X2055539Y-13995484D01*
X2207920Y-14195484D02*
X2207920Y-14062150D01*
X2207920Y-14081198D02*
X2217444Y-14071674D01*
X2217444Y-14071674D02*
X2236491Y-14062150D01*
X2236491Y-14062150D02*
X2265063Y-14062150D01*
X2265063Y-14062150D02*
X2284110Y-14071674D01*
X2284110Y-14071674D02*
X2293634Y-14090722D01*
X2293634Y-14090722D02*
X2293634Y-14195484D01*
X2293634Y-14090722D02*
X2303158Y-14071674D01*
X2303158Y-14071674D02*
X2322205Y-14062150D01*
X2322205Y-14062150D02*
X2350777Y-14062150D01*
X2350777Y-14062150D02*
X2369825Y-14071674D01*
X2369825Y-14071674D02*
X2379348Y-14090722D01*
X2379348Y-14090722D02*
X2379348Y-14195484D01*
X2474586Y-14195484D02*
X2474586Y-14062150D01*
X2474586Y-14081198D02*
X2484110Y-14071674D01*
X2484110Y-14071674D02*
X2503158Y-14062150D01*
X2503158Y-14062150D02*
X2531729Y-14062150D01*
X2531729Y-14062150D02*
X2550777Y-14071674D01*
X2550777Y-14071674D02*
X2560301Y-14090722D01*
X2560301Y-14090722D02*
X2560301Y-14195484D01*
X2560301Y-14090722D02*
X2569825Y-14071674D01*
X2569825Y-14071674D02*
X2588872Y-14062150D01*
X2588872Y-14062150D02*
X2617444Y-14062150D01*
X2617444Y-14062150D02*
X2636491Y-14071674D01*
X2636491Y-14071674D02*
X2646015Y-14090722D01*
X2646015Y-14090722D02*
X2646015Y-14195484D01*
X3036491Y-13985960D02*
X2865063Y-14243103D01*
X3293634Y-13995484D02*
X3312682Y-13995484D01*
X3312682Y-13995484D02*
X3331729Y-14005008D01*
X3331729Y-14005008D02*
X3341253Y-14014531D01*
X3341253Y-14014531D02*
X3350777Y-14033579D01*
X3350777Y-14033579D02*
X3360301Y-14071674D01*
X3360301Y-14071674D02*
X3360301Y-14119293D01*
X3360301Y-14119293D02*
X3350777Y-14157388D01*
X3350777Y-14157388D02*
X3341253Y-14176436D01*
X3341253Y-14176436D02*
X3331729Y-14185960D01*
X3331729Y-14185960D02*
X3312682Y-14195484D01*
X3312682Y-14195484D02*
X3293634Y-14195484D01*
X3293634Y-14195484D02*
X3274586Y-14185960D01*
X3274586Y-14185960D02*
X3265063Y-14176436D01*
X3265063Y-14176436D02*
X3255539Y-14157388D01*
X3255539Y-14157388D02*
X3246015Y-14119293D01*
X3246015Y-14119293D02*
X3246015Y-14071674D01*
X3246015Y-14071674D02*
X3255539Y-14033579D01*
X3255539Y-14033579D02*
X3265063Y-14014531D01*
X3265063Y-14014531D02*
X3274586Y-14005008D01*
X3274586Y-14005008D02*
X3293634Y-13995484D01*
X3446015Y-14176436D02*
X3455539Y-14185960D01*
X3455539Y-14185960D02*
X3446015Y-14195484D01*
X3446015Y-14195484D02*
X3436491Y-14185960D01*
X3436491Y-14185960D02*
X3446015Y-14176436D01*
X3446015Y-14176436D02*
X3446015Y-14195484D01*
X3646015Y-14195484D02*
X3531729Y-14195484D01*
X3588872Y-14195484D02*
X3588872Y-13995484D01*
X3588872Y-13995484D02*
X3569825Y-14024055D01*
X3569825Y-14024055D02*
X3550777Y-14043103D01*
X3550777Y-14043103D02*
X3531729Y-14052627D01*
X3826967Y-13995484D02*
X3731729Y-13995484D01*
X3731729Y-13995484D02*
X3722206Y-14090722D01*
X3722206Y-14090722D02*
X3731729Y-14081198D01*
X3731729Y-14081198D02*
X3750777Y-14071674D01*
X3750777Y-14071674D02*
X3798396Y-14071674D01*
X3798396Y-14071674D02*
X3817444Y-14081198D01*
X3817444Y-14081198D02*
X3826967Y-14090722D01*
X3826967Y-14090722D02*
X3836491Y-14109769D01*
X3836491Y-14109769D02*
X3836491Y-14157388D01*
X3836491Y-14157388D02*
X3826967Y-14176436D01*
X3826967Y-14176436D02*
X3817444Y-14185960D01*
X3817444Y-14185960D02*
X3798396Y-14195484D01*
X3798396Y-14195484D02*
X3750777Y-14195484D01*
X3750777Y-14195484D02*
X3731729Y-14185960D01*
X3731729Y-14185960D02*
X3722206Y-14176436D01*
X3903158Y-13995484D02*
X4036491Y-13995484D01*
X4036491Y-13995484D02*
X3950777Y-14195484D01*
X4207920Y-13995484D02*
X4112682Y-13995484D01*
X4112682Y-13995484D02*
X4103158Y-14090722D01*
X4103158Y-14090722D02*
X4112682Y-14081198D01*
X4112682Y-14081198D02*
X4131729Y-14071674D01*
X4131729Y-14071674D02*
X4179348Y-14071674D01*
X4179348Y-14071674D02*
X4198396Y-14081198D01*
X4198396Y-14081198D02*
X4207920Y-14090722D01*
X4207920Y-14090722D02*
X4217444Y-14109769D01*
X4217444Y-14109769D02*
X4217444Y-14157388D01*
X4217444Y-14157388D02*
X4207920Y-14176436D01*
X4207920Y-14176436D02*
X4198396Y-14185960D01*
X4198396Y-14185960D02*
X4179348Y-14195484D01*
X4179348Y-14195484D02*
X4131729Y-14195484D01*
X4131729Y-14195484D02*
X4112682Y-14185960D01*
X4112682Y-14185960D02*
X4103158Y-14176436D01*
X4293634Y-13995484D02*
X4293634Y-14033579D01*
X4369825Y-13995484D02*
X4369825Y-14033579D01*
X4665063Y-14271674D02*
X4655539Y-14262150D01*
X4655539Y-14262150D02*
X4636491Y-14233579D01*
X4636491Y-14233579D02*
X4626968Y-14214531D01*
X4626968Y-14214531D02*
X4617444Y-14185960D01*
X4617444Y-14185960D02*
X4607920Y-14138341D01*
X4607920Y-14138341D02*
X4607920Y-14100246D01*
X4607920Y-14100246D02*
X4617444Y-14052627D01*
X4617444Y-14052627D02*
X4626968Y-14024055D01*
X4626968Y-14024055D02*
X4636491Y-14005008D01*
X4636491Y-14005008D02*
X4655539Y-13976436D01*
X4655539Y-13976436D02*
X4665063Y-13966912D01*
X4722206Y-13995484D02*
X4846015Y-13995484D01*
X4846015Y-13995484D02*
X4779349Y-14071674D01*
X4779349Y-14071674D02*
X4807920Y-14071674D01*
X4807920Y-14071674D02*
X4826968Y-14081198D01*
X4826968Y-14081198D02*
X4836491Y-14090722D01*
X4836491Y-14090722D02*
X4846015Y-14109769D01*
X4846015Y-14109769D02*
X4846015Y-14157388D01*
X4846015Y-14157388D02*
X4836491Y-14176436D01*
X4836491Y-14176436D02*
X4826968Y-14185960D01*
X4826968Y-14185960D02*
X4807920Y-14195484D01*
X4807920Y-14195484D02*
X4750777Y-14195484D01*
X4750777Y-14195484D02*
X4731730Y-14185960D01*
X4731730Y-14185960D02*
X4722206Y-14176436D01*
X4912682Y-13995484D02*
X5036491Y-13995484D01*
X5036491Y-13995484D02*
X4969825Y-14071674D01*
X4969825Y-14071674D02*
X4998396Y-14071674D01*
X4998396Y-14071674D02*
X5017444Y-14081198D01*
X5017444Y-14081198D02*
X5026968Y-14090722D01*
X5026968Y-14090722D02*
X5036491Y-14109769D01*
X5036491Y-14109769D02*
X5036491Y-14157388D01*
X5036491Y-14157388D02*
X5026968Y-14176436D01*
X5026968Y-14176436D02*
X5017444Y-14185960D01*
X5017444Y-14185960D02*
X4998396Y-14195484D01*
X4998396Y-14195484D02*
X4941253Y-14195484D01*
X4941253Y-14195484D02*
X4922206Y-14185960D01*
X4922206Y-14185960D02*
X4912682Y-14176436D01*
X5274587Y-14195484D02*
X5274587Y-13995484D01*
X5360301Y-14195484D02*
X5360301Y-14090722D01*
X5360301Y-14090722D02*
X5350777Y-14071674D01*
X5350777Y-14071674D02*
X5331730Y-14062150D01*
X5331730Y-14062150D02*
X5303158Y-14062150D01*
X5303158Y-14062150D02*
X5284111Y-14071674D01*
X5284111Y-14071674D02*
X5274587Y-14081198D01*
X5484111Y-14195484D02*
X5465063Y-14185960D01*
X5465063Y-14185960D02*
X5455539Y-14176436D01*
X5455539Y-14176436D02*
X5446015Y-14157388D01*
X5446015Y-14157388D02*
X5446015Y-14100246D01*
X5446015Y-14100246D02*
X5455539Y-14081198D01*
X5455539Y-14081198D02*
X5465063Y-14071674D01*
X5465063Y-14071674D02*
X5484111Y-14062150D01*
X5484111Y-14062150D02*
X5512682Y-14062150D01*
X5512682Y-14062150D02*
X5531730Y-14071674D01*
X5531730Y-14071674D02*
X5541253Y-14081198D01*
X5541253Y-14081198D02*
X5550777Y-14100246D01*
X5550777Y-14100246D02*
X5550777Y-14157388D01*
X5550777Y-14157388D02*
X5541253Y-14176436D01*
X5541253Y-14176436D02*
X5531730Y-14185960D01*
X5531730Y-14185960D02*
X5512682Y-14195484D01*
X5512682Y-14195484D02*
X5484111Y-14195484D01*
X5665063Y-14195484D02*
X5646015Y-14185960D01*
X5646015Y-14185960D02*
X5636491Y-14166912D01*
X5636491Y-14166912D02*
X5636491Y-13995484D01*
X5817444Y-14185960D02*
X5798396Y-14195484D01*
X5798396Y-14195484D02*
X5760301Y-14195484D01*
X5760301Y-14195484D02*
X5741253Y-14185960D01*
X5741253Y-14185960D02*
X5731730Y-14166912D01*
X5731730Y-14166912D02*
X5731730Y-14090722D01*
X5731730Y-14090722D02*
X5741253Y-14071674D01*
X5741253Y-14071674D02*
X5760301Y-14062150D01*
X5760301Y-14062150D02*
X5798396Y-14062150D01*
X5798396Y-14062150D02*
X5817444Y-14071674D01*
X5817444Y-14071674D02*
X5826968Y-14090722D01*
X5826968Y-14090722D02*
X5826968Y-14109769D01*
X5826968Y-14109769D02*
X5731730Y-14128817D01*
X5903158Y-14185960D02*
X5922206Y-14195484D01*
X5922206Y-14195484D02*
X5960301Y-14195484D01*
X5960301Y-14195484D02*
X5979349Y-14185960D01*
X5979349Y-14185960D02*
X5988872Y-14166912D01*
X5988872Y-14166912D02*
X5988872Y-14157388D01*
X5988872Y-14157388D02*
X5979349Y-14138341D01*
X5979349Y-14138341D02*
X5960301Y-14128817D01*
X5960301Y-14128817D02*
X5931730Y-14128817D01*
X5931730Y-14128817D02*
X5912682Y-14119293D01*
X5912682Y-14119293D02*
X5903158Y-14100246D01*
X5903158Y-14100246D02*
X5903158Y-14090722D01*
X5903158Y-14090722D02*
X5912682Y-14071674D01*
X5912682Y-14071674D02*
X5931730Y-14062150D01*
X5931730Y-14062150D02*
X5960301Y-14062150D01*
X5960301Y-14062150D02*
X5979349Y-14071674D01*
X6055539Y-14271674D02*
X6065063Y-14262150D01*
X6065063Y-14262150D02*
X6084111Y-14233579D01*
X6084111Y-14233579D02*
X6093634Y-14214531D01*
X6093634Y-14214531D02*
X6103158Y-14185960D01*
X6103158Y-14185960D02*
X6112682Y-14138341D01*
X6112682Y-14138341D02*
X6112682Y-14100246D01*
X6112682Y-14100246D02*
X6103158Y-14052627D01*
X6103158Y-14052627D02*
X6093634Y-14024055D01*
X6093634Y-14024055D02*
X6084111Y-14005008D01*
X6084111Y-14005008D02*
X6065063Y-13976436D01*
X6065063Y-13976436D02*
X6055539Y-13966912D01*
X6417444Y-14271674D02*
X6407920Y-14262150D01*
X6407920Y-14262150D02*
X6388872Y-14233579D01*
X6388872Y-14233579D02*
X6379349Y-14214531D01*
X6379349Y-14214531D02*
X6369825Y-14185960D01*
X6369825Y-14185960D02*
X6360301Y-14138341D01*
X6360301Y-14138341D02*
X6360301Y-14100246D01*
X6360301Y-14100246D02*
X6369825Y-14052627D01*
X6369825Y-14052627D02*
X6379349Y-14024055D01*
X6379349Y-14024055D02*
X6388872Y-14005008D01*
X6388872Y-14005008D02*
X6407920Y-13976436D01*
X6407920Y-13976436D02*
X6417444Y-13966912D01*
X6493634Y-14062150D02*
X6493634Y-14195484D01*
X6493634Y-14081198D02*
X6503158Y-14071674D01*
X6503158Y-14071674D02*
X6522206Y-14062150D01*
X6522206Y-14062150D02*
X6550777Y-14062150D01*
X6550777Y-14062150D02*
X6569825Y-14071674D01*
X6569825Y-14071674D02*
X6579349Y-14090722D01*
X6579349Y-14090722D02*
X6579349Y-14195484D01*
X6703158Y-14195484D02*
X6684111Y-14185960D01*
X6684111Y-14185960D02*
X6674587Y-14176436D01*
X6674587Y-14176436D02*
X6665063Y-14157388D01*
X6665063Y-14157388D02*
X6665063Y-14100246D01*
X6665063Y-14100246D02*
X6674587Y-14081198D01*
X6674587Y-14081198D02*
X6684111Y-14071674D01*
X6684111Y-14071674D02*
X6703158Y-14062150D01*
X6703158Y-14062150D02*
X6731730Y-14062150D01*
X6731730Y-14062150D02*
X6750777Y-14071674D01*
X6750777Y-14071674D02*
X6760301Y-14081198D01*
X6760301Y-14081198D02*
X6769825Y-14100246D01*
X6769825Y-14100246D02*
X6769825Y-14157388D01*
X6769825Y-14157388D02*
X6760301Y-14176436D01*
X6760301Y-14176436D02*
X6750777Y-14185960D01*
X6750777Y-14185960D02*
X6731730Y-14195484D01*
X6731730Y-14195484D02*
X6703158Y-14195484D01*
X6826968Y-14062150D02*
X6903158Y-14062150D01*
X6855539Y-13995484D02*
X6855539Y-14166912D01*
X6855539Y-14166912D02*
X6865063Y-14185960D01*
X6865063Y-14185960D02*
X6884111Y-14195484D01*
X6884111Y-14195484D02*
X6903158Y-14195484D01*
X7122206Y-14062150D02*
X7122206Y-14262150D01*
X7122206Y-14071674D02*
X7141253Y-14062150D01*
X7141253Y-14062150D02*
X7179349Y-14062150D01*
X7179349Y-14062150D02*
X7198396Y-14071674D01*
X7198396Y-14071674D02*
X7207920Y-14081198D01*
X7207920Y-14081198D02*
X7217444Y-14100246D01*
X7217444Y-14100246D02*
X7217444Y-14157388D01*
X7217444Y-14157388D02*
X7207920Y-14176436D01*
X7207920Y-14176436D02*
X7198396Y-14185960D01*
X7198396Y-14185960D02*
X7179349Y-14195484D01*
X7179349Y-14195484D02*
X7141253Y-14195484D01*
X7141253Y-14195484D02*
X7122206Y-14185960D01*
X7331730Y-14195484D02*
X7312682Y-14185960D01*
X7312682Y-14185960D02*
X7303158Y-14166912D01*
X7303158Y-14166912D02*
X7303158Y-13995484D01*
X7493634Y-14195484D02*
X7493634Y-14090722D01*
X7493634Y-14090722D02*
X7484111Y-14071674D01*
X7484111Y-14071674D02*
X7465063Y-14062150D01*
X7465063Y-14062150D02*
X7426968Y-14062150D01*
X7426968Y-14062150D02*
X7407920Y-14071674D01*
X7493634Y-14185960D02*
X7474587Y-14195484D01*
X7474587Y-14195484D02*
X7426968Y-14195484D01*
X7426968Y-14195484D02*
X7407920Y-14185960D01*
X7407920Y-14185960D02*
X7398396Y-14166912D01*
X7398396Y-14166912D02*
X7398396Y-14147865D01*
X7398396Y-14147865D02*
X7407920Y-14128817D01*
X7407920Y-14128817D02*
X7426968Y-14119293D01*
X7426968Y-14119293D02*
X7474587Y-14119293D01*
X7474587Y-14119293D02*
X7493634Y-14109769D01*
X7560301Y-14062150D02*
X7636492Y-14062150D01*
X7588873Y-13995484D02*
X7588873Y-14166912D01*
X7588873Y-14166912D02*
X7598396Y-14185960D01*
X7598396Y-14185960D02*
X7617444Y-14195484D01*
X7617444Y-14195484D02*
X7636492Y-14195484D01*
X7779349Y-14185960D02*
X7760301Y-14195484D01*
X7760301Y-14195484D02*
X7722206Y-14195484D01*
X7722206Y-14195484D02*
X7703158Y-14185960D01*
X7703158Y-14185960D02*
X7693634Y-14166912D01*
X7693634Y-14166912D02*
X7693634Y-14090722D01*
X7693634Y-14090722D02*
X7703158Y-14071674D01*
X7703158Y-14071674D02*
X7722206Y-14062150D01*
X7722206Y-14062150D02*
X7760301Y-14062150D01*
X7760301Y-14062150D02*
X7779349Y-14071674D01*
X7779349Y-14071674D02*
X7788873Y-14090722D01*
X7788873Y-14090722D02*
X7788873Y-14109769D01*
X7788873Y-14109769D02*
X7693634Y-14128817D01*
X7960301Y-14195484D02*
X7960301Y-13995484D01*
X7960301Y-14185960D02*
X7941254Y-14195484D01*
X7941254Y-14195484D02*
X7903158Y-14195484D01*
X7903158Y-14195484D02*
X7884111Y-14185960D01*
X7884111Y-14185960D02*
X7874587Y-14176436D01*
X7874587Y-14176436D02*
X7865063Y-14157388D01*
X7865063Y-14157388D02*
X7865063Y-14100246D01*
X7865063Y-14100246D02*
X7874587Y-14081198D01*
X7874587Y-14081198D02*
X7884111Y-14071674D01*
X7884111Y-14071674D02*
X7903158Y-14062150D01*
X7903158Y-14062150D02*
X7941254Y-14062150D01*
X7941254Y-14062150D02*
X7960301Y-14071674D01*
X8036492Y-14271674D02*
X8046015Y-14262150D01*
X8046015Y-14262150D02*
X8065063Y-14233579D01*
X8065063Y-14233579D02*
X8074587Y-14214531D01*
X8074587Y-14214531D02*
X8084111Y-14185960D01*
X8084111Y-14185960D02*
X8093634Y-14138341D01*
X8093634Y-14138341D02*
X8093634Y-14100246D01*
X8093634Y-14100246D02*
X8084111Y-14052627D01*
X8084111Y-14052627D02*
X8074587Y-14024055D01*
X8074587Y-14024055D02*
X8065063Y-14005008D01*
X8065063Y-14005008D02*
X8046015Y-13976436D01*
X8046015Y-13976436D02*
X8036492Y-13966912D01*
M02*
