M48
; DRILL file {KiCad 8.0.7} date 2025-01-02T16:06:43-0600
; FORMAT={-:-/ absolute / metric / decimal}
; #@! TF.CreationDate,2025-01-02T16:06:43-06:00
; #@! TF.GenerationSoftware,Kicad,Pcbnew,8.0.7
; #@! TF.FileFunction,Plated,1,2,PTH
FMAT,2
METRIC
; #@! TA.AperFunction,Plated,PTH,ViaDrill
T1C0.300
; #@! TA.AperFunction,Plated,PTH,ComponentDrill
T2C0.500
; #@! TA.AperFunction,Plated,PTH,ComponentDrill
T3C0.600
; #@! TA.AperFunction,Plated,PTH,ComponentDrill
T4C1.500
%
G90
G05
T1
X17.4Y-39.7
X18.0Y-50.5
X20.1Y-38.7
X20.7Y-34.7
X21.3Y-37.7
X22.4Y-37.1
X23.8Y-47.9
X24.0Y-55.1
X24.026Y-69.274
X25.7Y-38.2
X25.8Y-36.769
X26.094Y-30.5
X26.6Y-36.269
X28.0Y-35.769
X29.1Y-27.5
X29.2Y-38.2
X29.5Y-35.1
X29.7Y-37.569
X29.8Y-47.8
X30.4Y-37.069
X30.9Y-36.444
X31.023Y-35.654
X31.573Y-17.7
X32.8Y-28.0
X33.7Y-48.3
X34.1Y-56.1
X34.8Y-63.6
X35.4Y-70.8
X35.669Y-21.569
X36.0Y-79.0
X36.6Y-85.0
X37.3Y-92.0
X38.9Y-38.3
X39.1Y-48.7
T4
X57.84Y-38.929
X57.84Y-57.979
X57.84Y-77.029
X58.525Y-106.071
X63.9Y-110.3
X64.19Y-36.389
X64.19Y-55.439
X64.19Y-74.489
X74.93Y-109.005
X76.89Y-27.022
X76.89Y-46.072
X76.89Y-65.123
X76.89Y-84.16
X79.16Y-103.631
X83.24Y-24.482
X83.24Y-43.532
X83.24Y-62.582
X83.24Y-81.62
X95.89Y-81.76
X95.94Y-24.641
X95.94Y-43.691
X95.94Y-62.741
X102.24Y-79.22
X102.29Y-22.101
X102.29Y-41.151
X102.29Y-60.201
X114.99Y-22.26
X114.99Y-41.31
X114.99Y-60.36
X114.99Y-79.36
X114.99Y-98.46
X121.34Y-19.72
X121.34Y-38.77
X121.34Y-57.82
X121.34Y-76.82
X121.34Y-95.92
X133.99Y-81.76
X134.04Y-24.641
X134.04Y-43.691
X134.04Y-62.741
X134.04Y-100.841
X140.34Y-79.22
X140.39Y-22.101
X140.39Y-41.151
X140.39Y-60.201
X140.39Y-98.301
X153.09Y-27.022
X153.09Y-65.123
X153.09Y-84.16
X153.09Y-103.222
X153.242Y-46.072
X159.44Y-24.482
X159.44Y-62.582
X159.44Y-81.62
X159.44Y-100.682
X159.592Y-43.532
X172.14Y-27.022
X172.14Y-46.072
X172.14Y-65.123
X172.14Y-103.222
X172.19Y-84.16
X178.49Y-24.482
X178.49Y-43.532
X178.49Y-62.582
X178.49Y-100.682
X178.54Y-81.62
T2
X17.4Y-13.3G85X18.4Y-13.3
G05
X17.4Y-15.2G85X18.4Y-15.2
G05
X17.4Y-16.9G85X18.4Y-16.9
G05
X17.4Y-18.6G85X18.4Y-18.6
G05
T3
X28.077Y-15.355G85X28.077Y-14.755
G05
X28.077Y-19.785G85X28.077Y-18.685
G05
X36.717Y-15.355G85X36.717Y-14.755
G05
X36.717Y-19.785G85X36.717Y-18.685
G05
M30
