G04 #@! TF.GenerationSoftware,KiCad,Pcbnew,8.0.7*
G04 #@! TF.CreationDate,2025-01-02T16:06:30-06:00*
G04 #@! TF.ProjectId,right,72696768-742e-46b6-9963-61645f706362,rev?*
G04 #@! TF.SameCoordinates,Original*
G04 #@! TF.FileFunction,Legend,Top*
G04 #@! TF.FilePolarity,Positive*
%FSLAX46Y46*%
G04 Gerber Fmt 4.6, Leading zero omitted, Abs format (unit mm)*
G04 Created by KiCad (PCBNEW 8.0.7) date 2025-01-02 16:06:30*
%MOMM*%
%LPD*%
G01*
G04 APERTURE LIST*
G04 Aperture macros list*
%AMRoundRect*
0 Rectangle with rounded corners*
0 $1 Rounding radius*
0 $2 $3 $4 $5 $6 $7 $8 $9 X,Y pos of 4 corners*
0 Add a 4 corners polygon primitive as box body*
4,1,4,$2,$3,$4,$5,$6,$7,$8,$9,$2,$3,0*
0 Add four circle primitives for the rounded corners*
1,1,$1+$1,$2,$3*
1,1,$1+$1,$4,$5*
1,1,$1+$1,$6,$7*
1,1,$1+$1,$8,$9*
0 Add four rect primitives between the rounded corners*
20,1,$1+$1,$2,$3,$4,$5,0*
20,1,$1+$1,$4,$5,$6,$7,0*
20,1,$1+$1,$6,$7,$8,$9,0*
20,1,$1+$1,$8,$9,$2,$3,0*%
G04 Aperture macros list end*
%ADD10C,0.150000*%
%ADD11C,0.120000*%
%ADD12RoundRect,0.250000X-0.250000X0.250000X-0.250000X-0.250000X0.250000X-0.250000X0.250000X0.250000X0*%
%ADD13RoundRect,0.250000X-0.337500X-0.475000X0.337500X-0.475000X0.337500X0.475000X-0.337500X0.475000X0*%
%ADD14R,1.500000X1.500000*%
%ADD15RoundRect,0.150000X0.587500X0.150000X-0.587500X0.150000X-0.587500X-0.150000X0.587500X-0.150000X0*%
%ADD16RoundRect,0.250000X0.450000X-0.350000X0.450000X0.350000X-0.450000X0.350000X-0.450000X-0.350000X0*%
%ADD17RoundRect,0.250000X0.475000X-0.337500X0.475000X0.337500X-0.475000X0.337500X-0.475000X-0.337500X0*%
%ADD18RoundRect,0.250000X0.337500X0.475000X-0.337500X0.475000X-0.337500X-0.475000X0.337500X-0.475000X0*%
%ADD19RoundRect,0.325000X-0.925000X-0.325000X0.925000X-0.325000X0.925000X0.325000X-0.925000X0.325000X0*%
%ADD20RoundRect,0.250000X-0.475000X0.337500X-0.475000X-0.337500X0.475000X-0.337500X0.475000X0.337500X0*%
%ADD21O,1.000000X1.600000*%
%ADD22O,1.000000X2.100000*%
%ADD23R,0.600000X1.450000*%
%ADD24R,0.300000X1.450000*%
%ADD25C,0.650000*%
%ADD26RoundRect,0.250000X-0.450000X0.350000X-0.450000X-0.350000X0.450000X-0.350000X0.450000X0.350000X0*%
%ADD27RoundRect,0.075000X0.662500X-0.075000X0.662500X0.075000X-0.662500X0.075000X-0.662500X-0.075000X0*%
%ADD28RoundRect,0.075000X0.075000X-0.662500X0.075000X0.662500X-0.075000X0.662500X-0.075000X-0.662500X0*%
%ADD29R,1.050000X1.100000*%
%ADD30C,4.000000*%
%ADD31C,2.200000*%
G04 APERTURE END LIST*
D10*
X12930180Y-67436779D02*
X13930180Y-67436779D01*
X13930180Y-67436779D02*
X13930180Y-67674874D01*
X13930180Y-67674874D02*
X13882561Y-67817731D01*
X13882561Y-67817731D02*
X13787323Y-67912969D01*
X13787323Y-67912969D02*
X13692085Y-67960588D01*
X13692085Y-67960588D02*
X13501609Y-68008207D01*
X13501609Y-68008207D02*
X13358752Y-68008207D01*
X13358752Y-68008207D02*
X13168276Y-67960588D01*
X13168276Y-67960588D02*
X13073038Y-67912969D01*
X13073038Y-67912969D02*
X12977800Y-67817731D01*
X12977800Y-67817731D02*
X12930180Y-67674874D01*
X12930180Y-67674874D02*
X12930180Y-67436779D01*
X12977800Y-68817731D02*
X12930180Y-68722493D01*
X12930180Y-68722493D02*
X12930180Y-68532017D01*
X12930180Y-68532017D02*
X12977800Y-68436779D01*
X12977800Y-68436779D02*
X13073038Y-68389160D01*
X13073038Y-68389160D02*
X13453990Y-68389160D01*
X13453990Y-68389160D02*
X13549228Y-68436779D01*
X13549228Y-68436779D02*
X13596847Y-68532017D01*
X13596847Y-68532017D02*
X13596847Y-68722493D01*
X13596847Y-68722493D02*
X13549228Y-68817731D01*
X13549228Y-68817731D02*
X13453990Y-68865350D01*
X13453990Y-68865350D02*
X13358752Y-68865350D01*
X13358752Y-68865350D02*
X13263514Y-68389160D01*
X12977800Y-69246303D02*
X12930180Y-69341541D01*
X12930180Y-69341541D02*
X12930180Y-69532017D01*
X12930180Y-69532017D02*
X12977800Y-69627255D01*
X12977800Y-69627255D02*
X13073038Y-69674874D01*
X13073038Y-69674874D02*
X13120657Y-69674874D01*
X13120657Y-69674874D02*
X13215895Y-69627255D01*
X13215895Y-69627255D02*
X13263514Y-69532017D01*
X13263514Y-69532017D02*
X13263514Y-69389160D01*
X13263514Y-69389160D02*
X13311133Y-69293922D01*
X13311133Y-69293922D02*
X13406371Y-69246303D01*
X13406371Y-69246303D02*
X13453990Y-69246303D01*
X13453990Y-69246303D02*
X13549228Y-69293922D01*
X13549228Y-69293922D02*
X13596847Y-69389160D01*
X13596847Y-69389160D02*
X13596847Y-69532017D01*
X13596847Y-69532017D02*
X13549228Y-69627255D01*
X12930180Y-70103446D02*
X13596847Y-70103446D01*
X13930180Y-70103446D02*
X13882561Y-70055827D01*
X13882561Y-70055827D02*
X13834942Y-70103446D01*
X13834942Y-70103446D02*
X13882561Y-70151065D01*
X13882561Y-70151065D02*
X13930180Y-70103446D01*
X13930180Y-70103446D02*
X13834942Y-70103446D01*
X13596847Y-71008207D02*
X12787323Y-71008207D01*
X12787323Y-71008207D02*
X12692085Y-70960588D01*
X12692085Y-70960588D02*
X12644466Y-70912969D01*
X12644466Y-70912969D02*
X12596847Y-70817731D01*
X12596847Y-70817731D02*
X12596847Y-70674874D01*
X12596847Y-70674874D02*
X12644466Y-70579636D01*
X12977800Y-71008207D02*
X12930180Y-70912969D01*
X12930180Y-70912969D02*
X12930180Y-70722493D01*
X12930180Y-70722493D02*
X12977800Y-70627255D01*
X12977800Y-70627255D02*
X13025419Y-70579636D01*
X13025419Y-70579636D02*
X13120657Y-70532017D01*
X13120657Y-70532017D02*
X13406371Y-70532017D01*
X13406371Y-70532017D02*
X13501609Y-70579636D01*
X13501609Y-70579636D02*
X13549228Y-70627255D01*
X13549228Y-70627255D02*
X13596847Y-70722493D01*
X13596847Y-70722493D02*
X13596847Y-70912969D01*
X13596847Y-70912969D02*
X13549228Y-71008207D01*
X13596847Y-71484398D02*
X12930180Y-71484398D01*
X13501609Y-71484398D02*
X13549228Y-71532017D01*
X13549228Y-71532017D02*
X13596847Y-71627255D01*
X13596847Y-71627255D02*
X13596847Y-71770112D01*
X13596847Y-71770112D02*
X13549228Y-71865350D01*
X13549228Y-71865350D02*
X13453990Y-71912969D01*
X13453990Y-71912969D02*
X12930180Y-71912969D01*
X12977800Y-72770112D02*
X12930180Y-72674874D01*
X12930180Y-72674874D02*
X12930180Y-72484398D01*
X12930180Y-72484398D02*
X12977800Y-72389160D01*
X12977800Y-72389160D02*
X13073038Y-72341541D01*
X13073038Y-72341541D02*
X13453990Y-72341541D01*
X13453990Y-72341541D02*
X13549228Y-72389160D01*
X13549228Y-72389160D02*
X13596847Y-72484398D01*
X13596847Y-72484398D02*
X13596847Y-72674874D01*
X13596847Y-72674874D02*
X13549228Y-72770112D01*
X13549228Y-72770112D02*
X13453990Y-72817731D01*
X13453990Y-72817731D02*
X13358752Y-72817731D01*
X13358752Y-72817731D02*
X13263514Y-72341541D01*
X12930180Y-73674874D02*
X13930180Y-73674874D01*
X12977800Y-73674874D02*
X12930180Y-73579636D01*
X12930180Y-73579636D02*
X12930180Y-73389160D01*
X12930180Y-73389160D02*
X12977800Y-73293922D01*
X12977800Y-73293922D02*
X13025419Y-73246303D01*
X13025419Y-73246303D02*
X13120657Y-73198684D01*
X13120657Y-73198684D02*
X13406371Y-73198684D01*
X13406371Y-73198684D02*
X13501609Y-73246303D01*
X13501609Y-73246303D02*
X13549228Y-73293922D01*
X13549228Y-73293922D02*
X13596847Y-73389160D01*
X13596847Y-73389160D02*
X13596847Y-73579636D01*
X13596847Y-73579636D02*
X13549228Y-73674874D01*
X12930180Y-74912970D02*
X13596847Y-74912970D01*
X13930180Y-74912970D02*
X13882561Y-74865351D01*
X13882561Y-74865351D02*
X13834942Y-74912970D01*
X13834942Y-74912970D02*
X13882561Y-74960589D01*
X13882561Y-74960589D02*
X13930180Y-74912970D01*
X13930180Y-74912970D02*
X13834942Y-74912970D01*
X13596847Y-75389160D02*
X12930180Y-75389160D01*
X13501609Y-75389160D02*
X13549228Y-75436779D01*
X13549228Y-75436779D02*
X13596847Y-75532017D01*
X13596847Y-75532017D02*
X13596847Y-75674874D01*
X13596847Y-75674874D02*
X13549228Y-75770112D01*
X13549228Y-75770112D02*
X13453990Y-75817731D01*
X13453990Y-75817731D02*
X12930180Y-75817731D01*
X13025419Y-77627255D02*
X12977800Y-77579636D01*
X12977800Y-77579636D02*
X12930180Y-77436779D01*
X12930180Y-77436779D02*
X12930180Y-77341541D01*
X12930180Y-77341541D02*
X12977800Y-77198684D01*
X12977800Y-77198684D02*
X13073038Y-77103446D01*
X13073038Y-77103446D02*
X13168276Y-77055827D01*
X13168276Y-77055827D02*
X13358752Y-77008208D01*
X13358752Y-77008208D02*
X13501609Y-77008208D01*
X13501609Y-77008208D02*
X13692085Y-77055827D01*
X13692085Y-77055827D02*
X13787323Y-77103446D01*
X13787323Y-77103446D02*
X13882561Y-77198684D01*
X13882561Y-77198684D02*
X13930180Y-77341541D01*
X13930180Y-77341541D02*
X13930180Y-77436779D01*
X13930180Y-77436779D02*
X13882561Y-77579636D01*
X13882561Y-77579636D02*
X13834942Y-77627255D01*
X12930180Y-78055827D02*
X13930180Y-78055827D01*
X12930180Y-78484398D02*
X13453990Y-78484398D01*
X13453990Y-78484398D02*
X13549228Y-78436779D01*
X13549228Y-78436779D02*
X13596847Y-78341541D01*
X13596847Y-78341541D02*
X13596847Y-78198684D01*
X13596847Y-78198684D02*
X13549228Y-78103446D01*
X13549228Y-78103446D02*
X13501609Y-78055827D01*
X12930180Y-78960589D02*
X13596847Y-78960589D01*
X13930180Y-78960589D02*
X13882561Y-78912970D01*
X13882561Y-78912970D02*
X13834942Y-78960589D01*
X13834942Y-78960589D02*
X13882561Y-79008208D01*
X13882561Y-79008208D02*
X13930180Y-78960589D01*
X13930180Y-78960589D02*
X13834942Y-78960589D01*
X12977800Y-79865350D02*
X12930180Y-79770112D01*
X12930180Y-79770112D02*
X12930180Y-79579636D01*
X12930180Y-79579636D02*
X12977800Y-79484398D01*
X12977800Y-79484398D02*
X13025419Y-79436779D01*
X13025419Y-79436779D02*
X13120657Y-79389160D01*
X13120657Y-79389160D02*
X13406371Y-79389160D01*
X13406371Y-79389160D02*
X13501609Y-79436779D01*
X13501609Y-79436779D02*
X13549228Y-79484398D01*
X13549228Y-79484398D02*
X13596847Y-79579636D01*
X13596847Y-79579636D02*
X13596847Y-79770112D01*
X13596847Y-79770112D02*
X13549228Y-79865350D01*
X12930180Y-80722493D02*
X13453990Y-80722493D01*
X13453990Y-80722493D02*
X13549228Y-80674874D01*
X13549228Y-80674874D02*
X13596847Y-80579636D01*
X13596847Y-80579636D02*
X13596847Y-80389160D01*
X13596847Y-80389160D02*
X13549228Y-80293922D01*
X12977800Y-80722493D02*
X12930180Y-80627255D01*
X12930180Y-80627255D02*
X12930180Y-80389160D01*
X12930180Y-80389160D02*
X12977800Y-80293922D01*
X12977800Y-80293922D02*
X13073038Y-80246303D01*
X13073038Y-80246303D02*
X13168276Y-80246303D01*
X13168276Y-80246303D02*
X13263514Y-80293922D01*
X13263514Y-80293922D02*
X13311133Y-80389160D01*
X13311133Y-80389160D02*
X13311133Y-80627255D01*
X13311133Y-80627255D02*
X13358752Y-80722493D01*
X13596847Y-81627255D02*
X12787323Y-81627255D01*
X12787323Y-81627255D02*
X12692085Y-81579636D01*
X12692085Y-81579636D02*
X12644466Y-81532017D01*
X12644466Y-81532017D02*
X12596847Y-81436779D01*
X12596847Y-81436779D02*
X12596847Y-81293922D01*
X12596847Y-81293922D02*
X12644466Y-81198684D01*
X12977800Y-81627255D02*
X12930180Y-81532017D01*
X12930180Y-81532017D02*
X12930180Y-81341541D01*
X12930180Y-81341541D02*
X12977800Y-81246303D01*
X12977800Y-81246303D02*
X13025419Y-81198684D01*
X13025419Y-81198684D02*
X13120657Y-81151065D01*
X13120657Y-81151065D02*
X13406371Y-81151065D01*
X13406371Y-81151065D02*
X13501609Y-81198684D01*
X13501609Y-81198684D02*
X13549228Y-81246303D01*
X13549228Y-81246303D02*
X13596847Y-81341541D01*
X13596847Y-81341541D02*
X13596847Y-81532017D01*
X13596847Y-81532017D02*
X13549228Y-81627255D01*
X12930180Y-82246303D02*
X12977800Y-82151065D01*
X12977800Y-82151065D02*
X13025419Y-82103446D01*
X13025419Y-82103446D02*
X13120657Y-82055827D01*
X13120657Y-82055827D02*
X13406371Y-82055827D01*
X13406371Y-82055827D02*
X13501609Y-82103446D01*
X13501609Y-82103446D02*
X13549228Y-82151065D01*
X13549228Y-82151065D02*
X13596847Y-82246303D01*
X13596847Y-82246303D02*
X13596847Y-82389160D01*
X13596847Y-82389160D02*
X13549228Y-82484398D01*
X13549228Y-82484398D02*
X13501609Y-82532017D01*
X13501609Y-82532017D02*
X13406371Y-82579636D01*
X13406371Y-82579636D02*
X13120657Y-82579636D01*
X13120657Y-82579636D02*
X13025419Y-82532017D01*
X13025419Y-82532017D02*
X12977800Y-82484398D01*
X12977800Y-82484398D02*
X12930180Y-82389160D01*
X12930180Y-82389160D02*
X12930180Y-82246303D01*
X16530180Y-69693922D02*
X16530180Y-70265350D01*
X15530180Y-69979636D02*
X16530180Y-69979636D01*
X15530180Y-71027255D02*
X16053990Y-71027255D01*
X16053990Y-71027255D02*
X16149228Y-70979636D01*
X16149228Y-70979636D02*
X16196847Y-70884398D01*
X16196847Y-70884398D02*
X16196847Y-70693922D01*
X16196847Y-70693922D02*
X16149228Y-70598684D01*
X15577800Y-71027255D02*
X15530180Y-70932017D01*
X15530180Y-70932017D02*
X15530180Y-70693922D01*
X15530180Y-70693922D02*
X15577800Y-70598684D01*
X15577800Y-70598684D02*
X15673038Y-70551065D01*
X15673038Y-70551065D02*
X15768276Y-70551065D01*
X15768276Y-70551065D02*
X15863514Y-70598684D01*
X15863514Y-70598684D02*
X15911133Y-70693922D01*
X15911133Y-70693922D02*
X15911133Y-70932017D01*
X15911133Y-70932017D02*
X15958752Y-71027255D01*
X15577800Y-71455827D02*
X15530180Y-71551065D01*
X15530180Y-71551065D02*
X15530180Y-71741541D01*
X15530180Y-71741541D02*
X15577800Y-71836779D01*
X15577800Y-71836779D02*
X15673038Y-71884398D01*
X15673038Y-71884398D02*
X15720657Y-71884398D01*
X15720657Y-71884398D02*
X15815895Y-71836779D01*
X15815895Y-71836779D02*
X15863514Y-71741541D01*
X15863514Y-71741541D02*
X15863514Y-71598684D01*
X15863514Y-71598684D02*
X15911133Y-71503446D01*
X15911133Y-71503446D02*
X16006371Y-71455827D01*
X16006371Y-71455827D02*
X16053990Y-71455827D01*
X16053990Y-71455827D02*
X16149228Y-71503446D01*
X16149228Y-71503446D02*
X16196847Y-71598684D01*
X16196847Y-71598684D02*
X16196847Y-71741541D01*
X16196847Y-71741541D02*
X16149228Y-71836779D01*
X16196847Y-72170113D02*
X16196847Y-72551065D01*
X16530180Y-72312970D02*
X15673038Y-72312970D01*
X15673038Y-72312970D02*
X15577800Y-72360589D01*
X15577800Y-72360589D02*
X15530180Y-72455827D01*
X15530180Y-72455827D02*
X15530180Y-72551065D01*
X15530180Y-72884399D02*
X16196847Y-72884399D01*
X16530180Y-72884399D02*
X16482561Y-72836780D01*
X16482561Y-72836780D02*
X16434942Y-72884399D01*
X16434942Y-72884399D02*
X16482561Y-72932018D01*
X16482561Y-72932018D02*
X16530180Y-72884399D01*
X16530180Y-72884399D02*
X16434942Y-72884399D01*
X15577800Y-73741541D02*
X15530180Y-73646303D01*
X15530180Y-73646303D02*
X15530180Y-73455827D01*
X15530180Y-73455827D02*
X15577800Y-73360589D01*
X15577800Y-73360589D02*
X15673038Y-73312970D01*
X15673038Y-73312970D02*
X16053990Y-73312970D01*
X16053990Y-73312970D02*
X16149228Y-73360589D01*
X16149228Y-73360589D02*
X16196847Y-73455827D01*
X16196847Y-73455827D02*
X16196847Y-73646303D01*
X16196847Y-73646303D02*
X16149228Y-73741541D01*
X16149228Y-73741541D02*
X16053990Y-73789160D01*
X16053990Y-73789160D02*
X15958752Y-73789160D01*
X15958752Y-73789160D02*
X15863514Y-73312970D01*
X15530180Y-74217732D02*
X16196847Y-74217732D01*
X16006371Y-74217732D02*
X16101609Y-74265351D01*
X16101609Y-74265351D02*
X16149228Y-74312970D01*
X16149228Y-74312970D02*
X16196847Y-74408208D01*
X16196847Y-74408208D02*
X16196847Y-74503446D01*
X15530180Y-75265351D02*
X16053990Y-75265351D01*
X16053990Y-75265351D02*
X16149228Y-75217732D01*
X16149228Y-75217732D02*
X16196847Y-75122494D01*
X16196847Y-75122494D02*
X16196847Y-74932018D01*
X16196847Y-74932018D02*
X16149228Y-74836780D01*
X15577800Y-75265351D02*
X15530180Y-75170113D01*
X15530180Y-75170113D02*
X15530180Y-74932018D01*
X15530180Y-74932018D02*
X15577800Y-74836780D01*
X15577800Y-74836780D02*
X15673038Y-74789161D01*
X15673038Y-74789161D02*
X15768276Y-74789161D01*
X15768276Y-74789161D02*
X15863514Y-74836780D01*
X15863514Y-74836780D02*
X15911133Y-74932018D01*
X15911133Y-74932018D02*
X15911133Y-75170113D01*
X15911133Y-75170113D02*
X15958752Y-75265351D01*
X16196847Y-76408209D02*
X15530180Y-76646304D01*
X15530180Y-76646304D02*
X16196847Y-76884399D01*
X16530180Y-77455828D02*
X16530180Y-77551066D01*
X16530180Y-77551066D02*
X16482561Y-77646304D01*
X16482561Y-77646304D02*
X16434942Y-77693923D01*
X16434942Y-77693923D02*
X16339704Y-77741542D01*
X16339704Y-77741542D02*
X16149228Y-77789161D01*
X16149228Y-77789161D02*
X15911133Y-77789161D01*
X15911133Y-77789161D02*
X15720657Y-77741542D01*
X15720657Y-77741542D02*
X15625419Y-77693923D01*
X15625419Y-77693923D02*
X15577800Y-77646304D01*
X15577800Y-77646304D02*
X15530180Y-77551066D01*
X15530180Y-77551066D02*
X15530180Y-77455828D01*
X15530180Y-77455828D02*
X15577800Y-77360590D01*
X15577800Y-77360590D02*
X15625419Y-77312971D01*
X15625419Y-77312971D02*
X15720657Y-77265352D01*
X15720657Y-77265352D02*
X15911133Y-77217733D01*
X15911133Y-77217733D02*
X16149228Y-77217733D01*
X16149228Y-77217733D02*
X16339704Y-77265352D01*
X16339704Y-77265352D02*
X16434942Y-77312971D01*
X16434942Y-77312971D02*
X16482561Y-77360590D01*
X16482561Y-77360590D02*
X16530180Y-77455828D01*
X15625419Y-78217733D02*
X15577800Y-78265352D01*
X15577800Y-78265352D02*
X15530180Y-78217733D01*
X15530180Y-78217733D02*
X15577800Y-78170114D01*
X15577800Y-78170114D02*
X15625419Y-78217733D01*
X15625419Y-78217733D02*
X15530180Y-78217733D01*
X15530180Y-79217732D02*
X15530180Y-78646304D01*
X15530180Y-78932018D02*
X16530180Y-78932018D01*
X16530180Y-78932018D02*
X16387323Y-78836780D01*
X16387323Y-78836780D02*
X16292085Y-78741542D01*
X16292085Y-78741542D02*
X16244466Y-78646304D01*
D11*
X21250000Y-84490000D02*
X19550000Y-84490000D01*
X21250000Y-84490000D02*
X21250000Y-87750000D01*
X19550000Y-84490000D02*
X19550000Y-87750000D01*
X15438748Y-43265000D02*
X15961252Y-43265000D01*
X15438748Y-44735000D02*
X15961252Y-44735000D01*
X37750000Y-52940000D02*
X41450000Y-52940000D01*
X37750000Y-59060000D02*
X37750000Y-52940000D01*
X41450000Y-52940000D02*
X41450000Y-59060000D01*
X41450000Y-59060000D02*
X37750000Y-59060000D01*
X31431250Y-78183750D02*
X31431250Y-81443750D01*
X33131250Y-78183750D02*
X31431250Y-78183750D01*
X33131250Y-78183750D02*
X33131250Y-81443750D01*
X29050000Y-91340000D02*
X29050000Y-94600000D01*
X30750000Y-91340000D02*
X29050000Y-91340000D01*
X30750000Y-91340000D02*
X30750000Y-94600000D01*
X24287500Y-63896250D02*
X24287500Y-67156250D01*
X25987500Y-63896250D02*
X24287500Y-63896250D01*
X25987500Y-63896250D02*
X25987500Y-67156250D01*
X36281250Y-26924375D02*
X35631250Y-26924375D01*
X36281250Y-26924375D02*
X36931250Y-26924375D01*
X36281250Y-30044375D02*
X35631250Y-30044375D01*
X36281250Y-30044375D02*
X36931250Y-30044375D01*
X37683750Y-30324375D02*
X37203750Y-30324375D01*
X37443750Y-29994375D01*
X37683750Y-30324375D01*
G36*
X37683750Y-30324375D02*
G01*
X37203750Y-30324375D01*
X37443750Y-29994375D01*
X37683750Y-30324375D01*
G37*
X31431250Y-63896250D02*
X31431250Y-67156250D01*
X33131250Y-63896250D02*
X31431250Y-63896250D01*
X33131250Y-63896250D02*
X33131250Y-67156250D01*
X34665000Y-59127064D02*
X34665000Y-58672936D01*
X36135000Y-59127064D02*
X36135000Y-58672936D01*
X31431250Y-84515000D02*
X31431250Y-87775000D01*
X33131250Y-84515000D02*
X31431250Y-84515000D01*
X33131250Y-84515000D02*
X33131250Y-87775000D01*
X16055000Y-29461252D02*
X16055000Y-28938748D01*
X17525000Y-29461252D02*
X17525000Y-28938748D01*
X31065000Y-49161252D02*
X31065000Y-48638748D01*
X32535000Y-49161252D02*
X32535000Y-48638748D01*
X33812500Y-78183750D02*
X33812500Y-81443750D01*
X35512500Y-78183750D02*
X33812500Y-78183750D01*
X35512500Y-78183750D02*
X35512500Y-81443750D01*
X36442502Y-32791250D02*
X35919998Y-32791250D01*
X36442502Y-31321250D02*
X35919998Y-31321250D01*
X33812500Y-84490000D02*
X33812500Y-87750000D01*
X35512500Y-84490000D02*
X33812500Y-84490000D01*
X35512500Y-84490000D02*
X35512500Y-87750000D01*
X15300000Y-12650000D02*
X16400000Y-12650000D01*
X15300000Y-16050000D02*
X15300000Y-12650000D01*
X15800000Y-19550000D02*
X15800000Y-16641608D01*
X18900000Y-20650000D02*
X16900000Y-20650000D01*
X19400000Y-12650000D02*
X20500000Y-12650000D01*
X20000000Y-16641608D02*
X20000000Y-19550000D01*
X20500000Y-12650000D02*
X20500000Y-16050000D01*
X15800000Y-16641608D02*
G75*
G02*
X15300000Y-16050000I100000J591608D01*
G01*
X16900000Y-20650000D02*
G75*
G02*
X15800000Y-19550000I2J1100002D01*
G01*
X20000000Y-19550000D02*
G75*
G02*
X18900000Y-20650000I-1100000J0D01*
G01*
X20500000Y-16050000D02*
G75*
G02*
X20000000Y-16641608I-600000J0D01*
G01*
X40135000Y-45538748D02*
X40135000Y-46061252D01*
X38665000Y-45538748D02*
X38665000Y-46061252D01*
X37096875Y-18005000D02*
X37096875Y-16005000D01*
X37096875Y-14105000D02*
X37096875Y-12205000D01*
X37096875Y-12205000D02*
X27696875Y-12205000D01*
X27696875Y-18005000D02*
X27696875Y-16005000D01*
X27696875Y-14105000D02*
X27696875Y-12205000D01*
X29050000Y-63785000D02*
X29050000Y-67045000D01*
X30750000Y-63785000D02*
X29050000Y-63785000D01*
X30750000Y-63785000D02*
X30750000Y-67045000D01*
X35766873Y-24177500D02*
X36289377Y-24177500D01*
X35766873Y-25647500D02*
X36289377Y-25647500D01*
X21906250Y-84515000D02*
X21906250Y-87775000D01*
X23606250Y-84515000D02*
X21906250Y-84515000D01*
X23606250Y-84515000D02*
X23606250Y-87775000D01*
X28365000Y-24572936D02*
X28365000Y-25027064D01*
X29835000Y-24572936D02*
X29835000Y-25027064D01*
X24287500Y-71040000D02*
X24287500Y-74300000D01*
X25987500Y-71040000D02*
X24287500Y-71040000D01*
X25987500Y-71040000D02*
X25987500Y-74300000D01*
X26668750Y-78183750D02*
X26668750Y-81443750D01*
X28368750Y-78183750D02*
X26668750Y-78183750D01*
X28368750Y-78183750D02*
X28368750Y-81443750D01*
X19525000Y-63896250D02*
X19525000Y-67156250D01*
X21225000Y-63896250D02*
X19525000Y-63896250D01*
X21225000Y-63896250D02*
X21225000Y-67156250D01*
X21365000Y-49161252D02*
X21365000Y-48638748D01*
X22835000Y-49161252D02*
X22835000Y-48638748D01*
X26668750Y-84515000D02*
X26668750Y-87775000D01*
X28368750Y-84515000D02*
X26668750Y-84515000D01*
X28368750Y-84515000D02*
X28368750Y-87775000D01*
X21906250Y-63896250D02*
X21906250Y-67156250D01*
X23606250Y-63896250D02*
X21906250Y-63896250D01*
X23606250Y-63896250D02*
X23606250Y-67156250D01*
X29050000Y-78183750D02*
X29050000Y-81443750D01*
X30750000Y-78183750D02*
X29050000Y-78183750D01*
X30750000Y-78183750D02*
X30750000Y-81443750D01*
X26668750Y-63896250D02*
X26668750Y-67156250D01*
X28368750Y-63896250D02*
X26668750Y-63896250D01*
X28368750Y-63896250D02*
X28368750Y-67156250D01*
X32065000Y-24572936D02*
X32065000Y-25027064D01*
X33535000Y-24572936D02*
X33535000Y-25027064D01*
X21906250Y-91340000D02*
X21906250Y-94600000D01*
X23606250Y-91340000D02*
X21906250Y-91340000D01*
X23606250Y-91340000D02*
X23606250Y-94600000D01*
X21065000Y-53361252D02*
X21065000Y-52838748D01*
X22535000Y-53361252D02*
X22535000Y-52838748D01*
X24287500Y-84515000D02*
X24287500Y-87775000D01*
X25987500Y-84515000D02*
X24287500Y-84515000D01*
X25987500Y-84515000D02*
X25987500Y-87775000D01*
X26668750Y-71040000D02*
X26668750Y-74300000D01*
X28368750Y-71040000D02*
X26668750Y-71040000D01*
X28368750Y-71040000D02*
X28368750Y-74300000D01*
X24783750Y-41618750D02*
X24313750Y-41958750D01*
X24313750Y-41278750D01*
X24783750Y-41618750D01*
G36*
X24783750Y-41618750D02*
G01*
X24313750Y-41958750D01*
X24313750Y-41278750D01*
X24783750Y-41618750D01*
G37*
X31553750Y-41028750D02*
X31103750Y-41028750D01*
X31553750Y-40578750D02*
X31553750Y-41028750D01*
X31553750Y-34258750D02*
X31553750Y-33808750D01*
X31553750Y-33808750D02*
X31103750Y-33808750D01*
X24333750Y-41028750D02*
X24783750Y-41028750D01*
X24333750Y-40578750D02*
X24333750Y-41028750D01*
X24333750Y-34258750D02*
X24333750Y-33808750D01*
X24333750Y-33808750D02*
X24783750Y-33808750D01*
X21906250Y-78183750D02*
X21906250Y-81443750D01*
X23606250Y-78183750D02*
X21906250Y-78183750D01*
X23606250Y-78183750D02*
X23606250Y-81443750D01*
X16150000Y-52940000D02*
X19850000Y-52940000D01*
X16150000Y-59060000D02*
X16150000Y-52940000D01*
X19850000Y-52940000D02*
X19850000Y-59060000D01*
X19850000Y-59060000D02*
X16150000Y-59060000D01*
X24287500Y-91340000D02*
X24287500Y-94600000D01*
X25987500Y-91340000D02*
X24287500Y-91340000D01*
X25987500Y-91340000D02*
X25987500Y-94600000D01*
X19525000Y-91340000D02*
X19525000Y-94600000D01*
X21225000Y-91340000D02*
X19525000Y-91340000D01*
X21225000Y-91340000D02*
X21225000Y-94600000D01*
X25150000Y-49100000D02*
X25150000Y-50700000D01*
X25150000Y-50700000D02*
X28000000Y-50700000D01*
X28000000Y-49100000D02*
X25150000Y-49100000D01*
X15438748Y-48465000D02*
X15961252Y-48465000D01*
X15438748Y-49935000D02*
X15961252Y-49935000D01*
X39635000Y-35538748D02*
X39635000Y-36061252D01*
X38165000Y-35538748D02*
X38165000Y-36061252D01*
X40865000Y-35538748D02*
X40865000Y-36061252D01*
X42335000Y-35538748D02*
X42335000Y-36061252D01*
X31431250Y-71040000D02*
X31431250Y-74300000D01*
X33131250Y-71040000D02*
X31431250Y-71040000D01*
X33131250Y-71040000D02*
X33131250Y-74300000D01*
X29050000Y-84515000D02*
X29050000Y-87775000D01*
X30750000Y-84515000D02*
X29050000Y-84515000D01*
X30750000Y-84515000D02*
X30750000Y-87775000D01*
X37135000Y-45538748D02*
X37135000Y-46061252D01*
X35665000Y-45538748D02*
X35665000Y-46061252D01*
X15438748Y-45765000D02*
X15961252Y-45765000D01*
X15438748Y-47235000D02*
X15961252Y-47235000D01*
X33812500Y-63896250D02*
X33812500Y-67156250D01*
X35512500Y-63896250D02*
X33812500Y-63896250D01*
X35512500Y-63896250D02*
X35512500Y-67156250D01*
X21906250Y-71040000D02*
X21906250Y-74300000D01*
X23606250Y-71040000D02*
X21906250Y-71040000D01*
X23606250Y-71040000D02*
X23606250Y-74300000D01*
X29050000Y-71040000D02*
X29050000Y-74300000D01*
X30750000Y-71040000D02*
X29050000Y-71040000D01*
X30750000Y-71040000D02*
X30750000Y-74300000D01*
X19065000Y-29461252D02*
X19065000Y-28938748D01*
X20535000Y-29461252D02*
X20535000Y-28938748D01*
X28435000Y-45872936D02*
X28435000Y-46327064D01*
X26965000Y-45872936D02*
X26965000Y-46327064D01*
X24287500Y-78183750D02*
X24287500Y-81443750D01*
X25987500Y-78183750D02*
X24287500Y-78183750D01*
X25987500Y-78183750D02*
X25987500Y-81443750D01*
X26668750Y-91340000D02*
X26668750Y-94600000D01*
X28368750Y-91340000D02*
X26668750Y-91340000D01*
X28368750Y-91340000D02*
X28368750Y-94600000D01*
X19525000Y-71040000D02*
X19525000Y-74300000D01*
X21225000Y-71040000D02*
X19525000Y-71040000D01*
X21225000Y-71040000D02*
X21225000Y-74300000D01*
X33812500Y-71040000D02*
X33812500Y-74300000D01*
X35512500Y-71040000D02*
X33812500Y-71040000D01*
X35512500Y-71040000D02*
X35512500Y-74300000D01*
X19525000Y-78183750D02*
X19525000Y-81443750D01*
X21225000Y-78183750D02*
X19525000Y-78183750D01*
X21225000Y-78183750D02*
X21225000Y-81443750D01*
X168965000Y-60677500D02*
X182935000Y-60677500D01*
X168965000Y-74647500D02*
X168965000Y-60677500D01*
X182935000Y-60677500D02*
X182935000Y-74647500D01*
X182935000Y-74647500D02*
X168965000Y-74647500D01*
X111815000Y-36865000D02*
X125785000Y-36865000D01*
X111815000Y-50835000D02*
X111815000Y-36865000D01*
X125785000Y-36865000D02*
X125785000Y-50835000D01*
X125785000Y-50835000D02*
X111815000Y-50835000D01*
X168965000Y-22577500D02*
X182935000Y-22577500D01*
X168965000Y-36547500D02*
X168965000Y-22577500D01*
X182935000Y-22577500D02*
X182935000Y-36547500D01*
X182935000Y-36547500D02*
X168965000Y-36547500D01*
X73715000Y-41627500D02*
X87685000Y-41627500D01*
X73715000Y-55597500D02*
X73715000Y-41627500D01*
X87685000Y-41627500D02*
X87685000Y-55597500D01*
X87685000Y-55597500D02*
X73715000Y-55597500D01*
X92765000Y-20196250D02*
X106735000Y-20196250D01*
X92765000Y-34166250D02*
X92765000Y-20196250D01*
X106735000Y-20196250D02*
X106735000Y-34166250D01*
X106735000Y-34166250D02*
X92765000Y-34166250D01*
X92765000Y-58296250D02*
X106735000Y-58296250D01*
X92765000Y-72266250D02*
X92765000Y-58296250D01*
X106735000Y-58296250D02*
X106735000Y-72266250D01*
X106735000Y-72266250D02*
X92765000Y-72266250D01*
X149915000Y-79715000D02*
X163885000Y-79715000D01*
X149915000Y-93685000D02*
X149915000Y-79715000D01*
X163885000Y-79715000D02*
X163885000Y-93685000D01*
X163885000Y-93685000D02*
X149915000Y-93685000D01*
X168965000Y-98777500D02*
X182935000Y-98777500D01*
X168965000Y-112747500D02*
X168965000Y-98777500D01*
X182935000Y-98777500D02*
X182935000Y-112747500D01*
X182935000Y-112747500D02*
X168965000Y-112747500D01*
X130865000Y-39246250D02*
X144835000Y-39246250D01*
X130865000Y-53216250D02*
X130865000Y-39246250D01*
X144835000Y-39246250D02*
X144835000Y-53216250D01*
X144835000Y-53216250D02*
X130865000Y-53216250D01*
X149915000Y-22577500D02*
X163885000Y-22577500D01*
X149915000Y-36547500D02*
X149915000Y-22577500D01*
X163885000Y-22577500D02*
X163885000Y-36547500D01*
X163885000Y-36547500D02*
X149915000Y-36547500D01*
X150067400Y-41627500D02*
X164037400Y-41627500D01*
X150067400Y-55597500D02*
X150067400Y-41627500D01*
X164037400Y-41627500D02*
X164037400Y-55597500D01*
X164037400Y-55597500D02*
X150067400Y-55597500D01*
X92765000Y-39246250D02*
X106735000Y-39246250D01*
X92765000Y-53216250D02*
X92765000Y-39246250D01*
X106735000Y-39246250D02*
X106735000Y-53216250D01*
X106735000Y-53216250D02*
X92765000Y-53216250D01*
X168965000Y-41627500D02*
X182935000Y-41627500D01*
X168965000Y-55597500D02*
X168965000Y-41627500D01*
X182935000Y-41627500D02*
X182935000Y-55597500D01*
X182935000Y-55597500D02*
X168965000Y-55597500D01*
X73715000Y-60677500D02*
X87685000Y-60677500D01*
X73715000Y-74647500D02*
X73715000Y-60677500D01*
X87685000Y-60677500D02*
X87685000Y-74647500D01*
X87685000Y-74647500D02*
X73715000Y-74647500D01*
X169015000Y-79715000D02*
X182985000Y-79715000D01*
X169015000Y-93685000D02*
X169015000Y-79715000D01*
X182985000Y-79715000D02*
X182985000Y-93685000D01*
X182985000Y-93685000D02*
X169015000Y-93685000D01*
X130815000Y-77315000D02*
X144785000Y-77315000D01*
X130815000Y-91285000D02*
X130815000Y-77315000D01*
X144785000Y-77315000D02*
X144785000Y-91285000D01*
X144785000Y-91285000D02*
X130815000Y-91285000D01*
X111815000Y-17815000D02*
X125785000Y-17815000D01*
X111815000Y-31785000D02*
X111815000Y-17815000D01*
X125785000Y-17815000D02*
X125785000Y-31785000D01*
X125785000Y-31785000D02*
X111815000Y-31785000D01*
X54665000Y-72583750D02*
X68635000Y-72583750D01*
X54665000Y-86553750D02*
X54665000Y-72583750D01*
X68635000Y-72583750D02*
X68635000Y-86553750D01*
X68635000Y-86553750D02*
X54665000Y-86553750D01*
X130865000Y-96396250D02*
X144835000Y-96396250D01*
X130865000Y-110366250D02*
X130865000Y-96396250D01*
X144835000Y-96396250D02*
X144835000Y-110366250D01*
X144835000Y-110366250D02*
X130865000Y-110366250D01*
X111815000Y-74915000D02*
X125785000Y-74915000D01*
X111815000Y-88885000D02*
X111815000Y-74915000D01*
X125785000Y-74915000D02*
X125785000Y-88885000D01*
X125785000Y-88885000D02*
X111815000Y-88885000D01*
X149915000Y-98777500D02*
X163885000Y-98777500D01*
X149915000Y-112747500D02*
X149915000Y-98777500D01*
X163885000Y-98777500D02*
X163885000Y-112747500D01*
X163885000Y-112747500D02*
X149915000Y-112747500D01*
X69958313Y-106743313D02*
X82056688Y-99758313D01*
X76943313Y-118841687D02*
X69958313Y-106743313D01*
X82056688Y-99758313D02*
X89041688Y-111856687D01*
X89041688Y-111856687D02*
X76943313Y-118841687D01*
X130865000Y-20196250D02*
X144835000Y-20196250D01*
X130865000Y-34166250D02*
X130865000Y-20196250D01*
X144835000Y-20196250D02*
X144835000Y-34166250D01*
X144835000Y-34166250D02*
X130865000Y-34166250D01*
X130865000Y-58296250D02*
X144835000Y-58296250D01*
X130865000Y-72266250D02*
X130865000Y-58296250D01*
X144835000Y-58296250D02*
X144835000Y-72266250D01*
X144835000Y-72266250D02*
X130865000Y-72266250D01*
X73715000Y-22577500D02*
X87685000Y-22577500D01*
X73715000Y-36547500D02*
X73715000Y-22577500D01*
X87685000Y-22577500D02*
X87685000Y-36547500D01*
X87685000Y-36547500D02*
X73715000Y-36547500D01*
X92715000Y-77315000D02*
X106685000Y-77315000D01*
X92715000Y-91285000D02*
X92715000Y-77315000D01*
X106685000Y-77315000D02*
X106685000Y-91285000D01*
X106685000Y-91285000D02*
X92715000Y-91285000D01*
X54665000Y-53533750D02*
X68635000Y-53533750D01*
X54665000Y-67503750D02*
X54665000Y-53533750D01*
X68635000Y-53533750D02*
X68635000Y-67503750D01*
X68635000Y-67503750D02*
X54665000Y-67503750D01*
X149915000Y-60677500D02*
X163885000Y-60677500D01*
X149915000Y-74647500D02*
X149915000Y-60677500D01*
X163885000Y-60677500D02*
X163885000Y-74647500D01*
X163885000Y-74647500D02*
X149915000Y-74647500D01*
X111815000Y-55915000D02*
X125785000Y-55915000D01*
X111815000Y-69885000D02*
X111815000Y-55915000D01*
X125785000Y-55915000D02*
X125785000Y-69885000D01*
X125785000Y-69885000D02*
X111815000Y-69885000D01*
X111815000Y-94015000D02*
X125785000Y-94015000D01*
X111815000Y-107985000D02*
X111815000Y-94015000D01*
X125785000Y-94015000D02*
X125785000Y-107985000D01*
X125785000Y-107985000D02*
X111815000Y-107985000D01*
X54665000Y-34483750D02*
X68635000Y-34483750D01*
X54665000Y-48453750D02*
X54665000Y-34483750D01*
X68635000Y-34483750D02*
X68635000Y-48453750D01*
X68635000Y-48453750D02*
X54665000Y-48453750D01*
X73715000Y-79715000D02*
X87685000Y-79715000D01*
X73715000Y-93685000D02*
X73715000Y-79715000D01*
X87685000Y-79715000D02*
X87685000Y-93685000D01*
X87685000Y-93685000D02*
X73715000Y-93685000D01*
X60787278Y-101098608D02*
X67772278Y-113196983D01*
X48688904Y-108083608D02*
X60787278Y-101098608D01*
X67772278Y-113196983D02*
X55673904Y-120181983D01*
X55673904Y-120181983D02*
X48688904Y-108083608D01*
%LPC*%
D12*
X20400000Y-85250000D03*
X20400000Y-87750000D03*
D13*
X14662500Y-44000000D03*
X16737500Y-44000000D03*
D14*
X39600000Y-59900000D03*
X39600000Y-52100000D03*
D12*
X32281250Y-78943750D03*
X32281250Y-81443750D03*
X29900000Y-92100000D03*
X29900000Y-94600000D03*
X25137500Y-64656250D03*
X25137500Y-67156250D03*
D15*
X37218750Y-29434375D03*
X37218750Y-27534375D03*
X35343750Y-28484375D03*
D12*
X32281250Y-64656250D03*
X32281250Y-67156250D03*
D16*
X35400000Y-59900000D03*
X35400000Y-57900000D03*
D12*
X32281250Y-85275000D03*
X32281250Y-87775000D03*
D17*
X16790000Y-30237500D03*
X16790000Y-28162500D03*
X31800000Y-49937500D03*
X31800000Y-47862500D03*
D12*
X34662500Y-78943750D03*
X34662500Y-81443750D03*
D18*
X37218750Y-32056250D03*
X35143750Y-32056250D03*
D12*
X34662500Y-85250000D03*
X34662500Y-87750000D03*
D19*
X17900000Y-16900000D03*
X17900000Y-15200000D03*
X17900000Y-13300000D03*
X17900000Y-18600000D03*
D20*
X39400000Y-44762500D03*
X39400000Y-46837500D03*
D21*
X28076875Y-15055000D03*
D22*
X28076875Y-19235000D03*
D21*
X36716875Y-15055000D03*
D22*
X36716875Y-19235000D03*
D23*
X35646875Y-20150000D03*
X34846875Y-20150000D03*
D24*
X34146875Y-20150000D03*
X33146875Y-20150000D03*
X31646875Y-20150000D03*
X30646875Y-20150000D03*
D23*
X29946875Y-20150000D03*
X29146875Y-20150000D03*
X29146875Y-20150000D03*
X29946875Y-20150000D03*
D24*
X31146875Y-20150000D03*
X32146875Y-20150000D03*
X32646875Y-20150000D03*
X33646875Y-20150000D03*
D23*
X34846875Y-20150000D03*
X35646875Y-20150000D03*
D25*
X29506875Y-18705000D03*
X35286875Y-18705000D03*
D12*
X29900000Y-64545000D03*
X29900000Y-67045000D03*
D13*
X34990625Y-24912500D03*
X37065625Y-24912500D03*
D12*
X22756250Y-85275000D03*
X22756250Y-87775000D03*
D26*
X29100000Y-23800000D03*
X29100000Y-25800000D03*
D12*
X25137500Y-71800000D03*
X25137500Y-74300000D03*
X27518750Y-78943750D03*
X27518750Y-81443750D03*
X20375000Y-64656250D03*
X20375000Y-67156250D03*
D17*
X22100000Y-49937500D03*
X22100000Y-47862500D03*
D12*
X27518750Y-85275000D03*
X27518750Y-87775000D03*
X22756250Y-64656250D03*
X22756250Y-67156250D03*
X29900000Y-78943750D03*
X29900000Y-81443750D03*
X27518750Y-64656250D03*
X27518750Y-67156250D03*
D26*
X32800000Y-23800000D03*
X32800000Y-25800000D03*
D12*
X22756250Y-92100000D03*
X22756250Y-94600000D03*
D17*
X21800000Y-54137500D03*
X21800000Y-52062500D03*
D12*
X25137500Y-85275000D03*
X25137500Y-87775000D03*
X27518750Y-71800000D03*
X27518750Y-74300000D03*
D27*
X23781250Y-40168750D03*
X23781250Y-39668750D03*
X23781250Y-39168750D03*
X23781250Y-38668750D03*
X23781250Y-38168750D03*
X23781250Y-37668750D03*
X23781250Y-37168750D03*
X23781250Y-36668750D03*
X23781250Y-36168750D03*
X23781250Y-35668750D03*
X23781250Y-35168750D03*
X23781250Y-34668750D03*
D28*
X25193750Y-33256250D03*
X25693750Y-33256250D03*
X26193750Y-33256250D03*
X26693750Y-33256250D03*
X27193750Y-33256250D03*
X27693750Y-33256250D03*
X28193750Y-33256250D03*
X28693750Y-33256250D03*
X29193750Y-33256250D03*
X29693750Y-33256250D03*
X30193750Y-33256250D03*
X30693750Y-33256250D03*
D27*
X32106250Y-34668750D03*
X32106250Y-35168750D03*
X32106250Y-35668750D03*
X32106250Y-36168750D03*
X32106250Y-36668750D03*
X32106250Y-37168750D03*
X32106250Y-37668750D03*
X32106250Y-38168750D03*
X32106250Y-38668750D03*
X32106250Y-39168750D03*
X32106250Y-39668750D03*
X32106250Y-40168750D03*
D28*
X30693750Y-41581250D03*
X30193750Y-41581250D03*
X29693750Y-41581250D03*
X29193750Y-41581250D03*
X28693750Y-41581250D03*
X28193750Y-41581250D03*
X27693750Y-41581250D03*
X27193750Y-41581250D03*
X26693750Y-41581250D03*
X26193750Y-41581250D03*
X25693750Y-41581250D03*
X25193750Y-41581250D03*
D12*
X22756250Y-78943750D03*
X22756250Y-81443750D03*
D14*
X18000000Y-52100000D03*
X18000000Y-59900000D03*
D12*
X25137500Y-92100000D03*
X25137500Y-94600000D03*
X20375000Y-92100000D03*
X20375000Y-94600000D03*
D29*
X25875000Y-49900000D03*
X27725000Y-49900000D03*
D13*
X14662500Y-49200000D03*
X16737500Y-49200000D03*
D20*
X38900000Y-34762500D03*
X38900000Y-36837500D03*
X41600000Y-36837500D03*
X41600000Y-34762500D03*
D12*
X32281250Y-71800000D03*
X32281250Y-74300000D03*
X29900000Y-85275000D03*
X29900000Y-87775000D03*
D20*
X36400000Y-44762500D03*
X36400000Y-46837500D03*
D13*
X14662500Y-46500000D03*
X16737500Y-46500000D03*
D12*
X34662500Y-64656250D03*
X34662500Y-67156250D03*
X22756250Y-71800000D03*
X22756250Y-74300000D03*
X29900000Y-71800000D03*
X29900000Y-74300000D03*
D17*
X19800000Y-30237500D03*
X19800000Y-28162500D03*
D26*
X27700000Y-45100000D03*
X27700000Y-47100000D03*
D12*
X25137500Y-78943750D03*
X25137500Y-81443750D03*
X27518750Y-92100000D03*
X27518750Y-94600000D03*
X20375000Y-71800000D03*
X20375000Y-74300000D03*
X34662500Y-71800000D03*
X34662500Y-74300000D03*
X20375000Y-78943750D03*
X20375000Y-81443750D03*
D30*
X175950000Y-67662500D03*
D31*
X178490000Y-62582500D03*
X172140000Y-65122500D03*
D30*
X118800000Y-43850000D03*
D31*
X121340000Y-38770000D03*
X114990000Y-41310000D03*
D30*
X175950000Y-29562500D03*
D31*
X178490000Y-24482500D03*
X172140000Y-27022500D03*
D30*
X80700000Y-48612500D03*
D31*
X83240000Y-43532500D03*
X76890000Y-46072500D03*
D30*
X99750000Y-27181250D03*
D31*
X102290000Y-22101250D03*
X95940000Y-24641250D03*
D30*
X99750000Y-65281250D03*
D31*
X102290000Y-60201250D03*
X95940000Y-62741250D03*
D30*
X156900000Y-86700000D03*
D31*
X159440000Y-81620000D03*
X153090000Y-84160000D03*
D30*
X175950000Y-105762500D03*
D31*
X178490000Y-100682500D03*
X172140000Y-103222500D03*
D30*
X137850000Y-46231250D03*
D31*
X140390000Y-41151250D03*
X134040000Y-43691250D03*
D30*
X156900000Y-29562500D03*
D31*
X159440000Y-24482500D03*
X153090000Y-27022500D03*
D30*
X157052400Y-48612500D03*
D31*
X159592400Y-43532500D03*
X153242400Y-46072500D03*
D30*
X99750000Y-46231250D03*
D31*
X102290000Y-41151250D03*
X95940000Y-43691250D03*
D30*
X175950000Y-48612500D03*
D31*
X178490000Y-43532500D03*
X172140000Y-46072500D03*
D30*
X80700000Y-67662500D03*
D31*
X83240000Y-62582500D03*
X76890000Y-65122500D03*
D30*
X176000000Y-86700000D03*
D31*
X178540000Y-81620000D03*
X172190000Y-84160000D03*
D30*
X137800000Y-84300000D03*
D31*
X140340000Y-79220000D03*
X133990000Y-81760000D03*
D30*
X118800000Y-24800000D03*
D31*
X121340000Y-19720000D03*
X114990000Y-22260000D03*
D30*
X61650000Y-79568750D03*
D31*
X64190000Y-74488750D03*
X57840000Y-77028750D03*
D30*
X137850000Y-103381250D03*
D31*
X140390000Y-98301250D03*
X134040000Y-100841250D03*
D30*
X118800000Y-81900000D03*
D31*
X121340000Y-76820000D03*
X114990000Y-79360000D03*
D30*
X156900000Y-105762500D03*
D31*
X159440000Y-100682500D03*
X153090000Y-103222500D03*
D30*
X79500000Y-109300000D03*
D31*
X79159705Y-103630591D03*
X74930444Y-109005296D03*
D30*
X137850000Y-27181250D03*
D31*
X140390000Y-22101250D03*
X134040000Y-24641250D03*
D30*
X137850000Y-65281250D03*
D31*
X140390000Y-60201250D03*
X134040000Y-62741250D03*
D30*
X80700000Y-29562500D03*
D31*
X83240000Y-24482500D03*
X76890000Y-27022500D03*
D30*
X99700000Y-84300000D03*
D31*
X102240000Y-79220000D03*
X95890000Y-81760000D03*
D30*
X61650000Y-60518750D03*
D31*
X64190000Y-55438750D03*
X57840000Y-57978750D03*
D30*
X156900000Y-67662500D03*
D31*
X159440000Y-62582500D03*
X153090000Y-65122500D03*
D30*
X118800000Y-62900000D03*
D31*
X121340000Y-57820000D03*
X114990000Y-60360000D03*
D30*
X118800000Y-101000000D03*
D31*
X121340000Y-95920000D03*
X114990000Y-98460000D03*
D30*
X61650000Y-41468750D03*
D31*
X64190000Y-36388750D03*
X57840000Y-38928750D03*
D30*
X80700000Y-86700000D03*
D31*
X83240000Y-81620000D03*
X76890000Y-84160001D03*
D30*
X58230591Y-110640295D03*
D31*
X63900000Y-110300000D03*
X58525295Y-106070739D03*
%LPD*%
M02*
