M48
; DRILL file {KiCad 8.0.7} date 2025-01-02T16:06:43-0600
; FORMAT={-:-/ absolute / metric / decimal}
; #@! TF.CreationDate,2025-01-02T16:06:43-06:00
; #@! TF.GenerationSoftware,Kicad,Pcbnew,8.0.7
; #@! TF.FileFunction,NonPlated,1,2,NPTH
FMAT,2
METRIC
; #@! TA.AperFunction,NonPlated,NPTH,ComponentDrill
T1C0.650
; #@! TA.AperFunction,NonPlated,NPTH,ComponentDrill
T2C4.000
%
G90
G05
T1
X29.507Y-18.705
X35.287Y-18.705
T2
X58.231Y-110.64
X61.65Y-41.469
X61.65Y-60.519
X61.65Y-79.569
X79.5Y-109.3
X80.7Y-29.562
X80.7Y-48.612
X80.7Y-67.662
X80.7Y-86.7
X99.7Y-84.3
X99.75Y-27.181
X99.75Y-46.231
X99.75Y-65.281
X118.8Y-24.8
X118.8Y-43.85
X118.8Y-62.9
X118.8Y-81.9
X118.8Y-101.0
X137.8Y-84.3
X137.85Y-27.181
X137.85Y-46.231
X137.85Y-65.281
X137.85Y-103.381
X156.9Y-29.562
X156.9Y-67.662
X156.9Y-86.7
X156.9Y-105.762
X157.052Y-48.612
X175.95Y-29.562
X175.95Y-48.612
X175.95Y-67.662
X175.95Y-105.762
X176.0Y-86.7
M30
