G04 #@! TF.GenerationSoftware,KiCad,Pcbnew,8.0.7*
G04 #@! TF.CreationDate,2025-01-02T16:06:30-06:00*
G04 #@! TF.ProjectId,right,72696768-742e-46b6-9963-61645f706362,rev?*
G04 #@! TF.SameCoordinates,Original*
G04 #@! TF.FileFunction,Soldermask,Bot*
G04 #@! TF.FilePolarity,Negative*
%FSLAX46Y46*%
G04 Gerber Fmt 4.6, Leading zero omitted, Abs format (unit mm)*
G04 Created by KiCad (PCBNEW 8.0.7) date 2025-01-02 16:06:30*
%MOMM*%
%LPD*%
G01*
G04 APERTURE LIST*
G04 Aperture macros list*
%AMRoundRect*
0 Rectangle with rounded corners*
0 $1 Rounding radius*
0 $2 $3 $4 $5 $6 $7 $8 $9 X,Y pos of 4 corners*
0 Add a 4 corners polygon primitive as box body*
4,1,4,$2,$3,$4,$5,$6,$7,$8,$9,$2,$3,0*
0 Add four circle primitives for the rounded corners*
1,1,$1+$1,$2,$3*
1,1,$1+$1,$4,$5*
1,1,$1+$1,$6,$7*
1,1,$1+$1,$8,$9*
0 Add four rect primitives between the rounded corners*
20,1,$1+$1,$2,$3,$4,$5,0*
20,1,$1+$1,$4,$5,$6,$7,0*
20,1,$1+$1,$6,$7,$8,$9,0*
20,1,$1+$1,$8,$9,$2,$3,0*%
G04 Aperture macros list end*
%ADD10R,2.500000X1.000000*%
%ADD11RoundRect,0.325000X-0.925000X-0.325000X0.925000X-0.325000X0.925000X0.325000X-0.925000X0.325000X0*%
%ADD12O,1.000000X1.600000*%
%ADD13O,1.000000X2.100000*%
%ADD14C,0.650000*%
%ADD15C,4.000000*%
%ADD16C,2.200000*%
G04 APERTURE END LIST*
D10*
X24025000Y-85830000D03*
X24025000Y-83290000D03*
X24025000Y-80750000D03*
X24025000Y-78210000D03*
X24025000Y-75670000D03*
X24025000Y-73130000D03*
X24025000Y-70590000D03*
X24025000Y-68050000D03*
X24025000Y-65510000D03*
X24025000Y-62970000D03*
D11*
X17900000Y-16900000D03*
X17900000Y-15200000D03*
X17900000Y-13300000D03*
X17900000Y-18600000D03*
D12*
X28076875Y-15055000D03*
D13*
X28076875Y-19235000D03*
D12*
X36716875Y-15055000D03*
D13*
X36716875Y-19235000D03*
D14*
X29506875Y-18705000D03*
X35286875Y-18705000D03*
D15*
X175950000Y-67662500D03*
D16*
X178490000Y-62582500D03*
X172140000Y-65122500D03*
D15*
X118800000Y-43850000D03*
D16*
X121340000Y-38770000D03*
X114990000Y-41310000D03*
D15*
X175950000Y-29562500D03*
D16*
X178490000Y-24482500D03*
X172140000Y-27022500D03*
D15*
X80700000Y-48612500D03*
D16*
X83240000Y-43532500D03*
X76890000Y-46072500D03*
D15*
X99750000Y-27181250D03*
D16*
X102290000Y-22101250D03*
X95940000Y-24641250D03*
D15*
X99750000Y-65281250D03*
D16*
X102290000Y-60201250D03*
X95940000Y-62741250D03*
D15*
X156900000Y-86700000D03*
D16*
X159440000Y-81620000D03*
X153090000Y-84160000D03*
D15*
X175950000Y-105762500D03*
D16*
X178490000Y-100682500D03*
X172140000Y-103222500D03*
D15*
X137850000Y-46231250D03*
D16*
X140390000Y-41151250D03*
X134040000Y-43691250D03*
D15*
X156900000Y-29562500D03*
D16*
X159440000Y-24482500D03*
X153090000Y-27022500D03*
D15*
X157052400Y-48612500D03*
D16*
X159592400Y-43532500D03*
X153242400Y-46072500D03*
D15*
X99750000Y-46231250D03*
D16*
X102290000Y-41151250D03*
X95940000Y-43691250D03*
D15*
X175950000Y-48612500D03*
D16*
X178490000Y-43532500D03*
X172140000Y-46072500D03*
D15*
X80700000Y-67662500D03*
D16*
X83240000Y-62582500D03*
X76890000Y-65122500D03*
D15*
X176000000Y-86700000D03*
D16*
X178540000Y-81620000D03*
X172190000Y-84160000D03*
D15*
X137800000Y-84300000D03*
D16*
X140340000Y-79220000D03*
X133990000Y-81760000D03*
D15*
X118800000Y-24800000D03*
D16*
X121340000Y-19720000D03*
X114990000Y-22260000D03*
D15*
X61650000Y-79568750D03*
D16*
X64190000Y-74488750D03*
X57840000Y-77028750D03*
D15*
X137850000Y-103381250D03*
D16*
X140390000Y-98301250D03*
X134040000Y-100841250D03*
D15*
X118800000Y-81900000D03*
D16*
X121340000Y-76820000D03*
X114990000Y-79360000D03*
D15*
X156900000Y-105762500D03*
D16*
X159440000Y-100682500D03*
X153090000Y-103222500D03*
D15*
X79500000Y-109300000D03*
D16*
X79159705Y-103630591D03*
X74930444Y-109005296D03*
D15*
X137850000Y-27181250D03*
D16*
X140390000Y-22101250D03*
X134040000Y-24641250D03*
D15*
X137850000Y-65281250D03*
D16*
X140390000Y-60201250D03*
X134040000Y-62741250D03*
D15*
X80700000Y-29562500D03*
D16*
X83240000Y-24482500D03*
X76890000Y-27022500D03*
D15*
X99700000Y-84300000D03*
D16*
X102240000Y-79220000D03*
X95890000Y-81760000D03*
D15*
X61650000Y-60518750D03*
D16*
X64190000Y-55438750D03*
X57840000Y-57978750D03*
D15*
X156900000Y-67662500D03*
D16*
X159440000Y-62582500D03*
X153090000Y-65122500D03*
D15*
X118800000Y-62900000D03*
D16*
X121340000Y-57820000D03*
X114990000Y-60360000D03*
D15*
X118800000Y-101000000D03*
D16*
X121340000Y-95920000D03*
X114990000Y-98460000D03*
D15*
X61650000Y-41468750D03*
D16*
X64190000Y-36388750D03*
X57840000Y-38928750D03*
D15*
X80700000Y-86700000D03*
D16*
X83240000Y-81620000D03*
X76890000Y-84160001D03*
D15*
X58230591Y-110640295D03*
D16*
X63900000Y-110300000D03*
X58525295Y-106070739D03*
M02*
