M48
; DRILL file {KiCad 8.0.6} date 2024-12-23T22:53:28-0600
; FORMAT={-:-/ absolute / metric / decimal}
; #@! TF.CreationDate,2024-12-23T22:53:28-06:00
; #@! TF.GenerationSoftware,Kicad,Pcbnew,8.0.6
; #@! TF.FileFunction,NonPlated,1,2,NPTH
FMAT,2
METRIC
; #@! TA.AperFunction,NonPlated,NPTH,ComponentDrill
T1C0.650
; #@! TA.AperFunction,NonPlated,NPTH,ComponentDrill
T2C4.000
%
G90
G05
T1
X211.324Y-59.299
X217.104Y-59.299
T2
X73.986Y-67.617
X74.086Y-86.667
X74.086Y-105.718
X74.086Y-124.767
X74.086Y-143.817
X93.136Y-67.617
X93.136Y-86.667
X93.136Y-105.718
X93.136Y-124.767
X93.136Y-143.817
X112.186Y-62.867
X112.186Y-81.905
X112.186Y-100.955
X112.186Y-120.005
X112.186Y-139.055
X131.236Y-60.474
X131.236Y-79.524
X131.236Y-98.574
X131.236Y-117.624
X140.761Y-139.042
X150.286Y-62.842
X150.286Y-81.892
X150.286Y-100.93
X150.286Y-119.992
X163.383Y-144.996
X169.336Y-65.224
X169.336Y-84.261
X169.336Y-103.311
X169.336Y-122.361
X180.052Y-154.521
X188.386Y-77.142
X188.386Y-96.18
X188.386Y-115.23
X189.577Y-137.852
M30
