G04 #@! TF.GenerationSoftware,KiCad,Pcbnew,8.0.6*
G04 #@! TF.CreationDate,2024-12-23T22:51:37-06:00*
G04 #@! TF.ProjectId,mk0,6d6b302e-6b69-4636-9164-5f7063625858,rev?*
G04 #@! TF.SameCoordinates,Original*
G04 #@! TF.FileFunction,Soldermask,Bot*
G04 #@! TF.FilePolarity,Negative*
%FSLAX46Y46*%
G04 Gerber Fmt 4.6, Leading zero omitted, Abs format (unit mm)*
G04 Created by KiCad (PCBNEW 8.0.6) date 2024-12-23 22:51:37*
%MOMM*%
%LPD*%
G01*
G04 APERTURE LIST*
G04 Aperture macros list*
%AMRoundRect*
0 Rectangle with rounded corners*
0 $1 Rounding radius*
0 $2 $3 $4 $5 $6 $7 $8 $9 X,Y pos of 4 corners*
0 Add a 4 corners polygon primitive as box body*
4,1,4,$2,$3,$4,$5,$6,$7,$8,$9,$2,$3,0*
0 Add four circle primitives for the rounded corners*
1,1,$1+$1,$2,$3*
1,1,$1+$1,$4,$5*
1,1,$1+$1,$6,$7*
1,1,$1+$1,$8,$9*
0 Add four rect primitives between the rounded corners*
20,1,$1+$1,$2,$3,$4,$5,0*
20,1,$1+$1,$4,$5,$6,$7,0*
20,1,$1+$1,$6,$7,$8,$9,0*
20,1,$1+$1,$8,$9,$2,$3,0*%
G04 Aperture macros list end*
%ADD10C,4.000000*%
%ADD11C,2.200000*%
%ADD12R,2.500000X1.000000*%
%ADD13RoundRect,0.325000X-0.925000X-0.325000X0.925000X-0.325000X0.925000X0.325000X-0.925000X0.325000X0*%
%ADD14C,0.650000*%
%ADD15O,1.000000X2.100000*%
%ADD16O,1.000000X1.600000*%
G04 APERTURE END LIST*
D10*
X180051775Y-154520625D03*
D11*
X184791480Y-151391216D03*
X178022219Y-150415921D03*
D10*
X163383025Y-144995625D03*
D11*
X168122730Y-141866216D03*
X161353469Y-140890921D03*
D10*
X140761150Y-139042500D03*
D11*
X143301150Y-133962500D03*
X136951150Y-136502500D03*
D10*
X112186150Y-139055000D03*
D11*
X114726150Y-133975000D03*
X108376150Y-136515000D03*
D10*
X93136150Y-143817500D03*
D11*
X95676150Y-138737500D03*
X89326150Y-141277500D03*
D10*
X74086150Y-143817500D03*
D11*
X76626150Y-138737500D03*
X70276150Y-141277500D03*
D10*
X189576775Y-137851875D03*
D11*
X194316480Y-134722466D03*
X187547219Y-133747171D03*
D10*
X169336150Y-122361250D03*
D11*
X171876150Y-117281250D03*
X165526150Y-119821250D03*
D10*
X150286150Y-119992500D03*
D11*
X152826150Y-114912500D03*
X146476150Y-117452500D03*
D10*
X131236150Y-117623750D03*
D11*
X133776150Y-112543750D03*
X127426150Y-115083750D03*
D10*
X112186150Y-120005000D03*
D11*
X114726150Y-114925000D03*
X108376150Y-117465000D03*
D10*
X93136150Y-124767500D03*
D11*
X95676150Y-119687500D03*
X89326150Y-122227500D03*
D10*
X74086150Y-124767500D03*
D11*
X76626150Y-119687500D03*
X70276150Y-122227500D03*
D10*
X169336150Y-103311250D03*
D11*
X171876150Y-98231250D03*
X165526150Y-100771250D03*
D10*
X150286150Y-100930000D03*
D11*
X152826150Y-95850000D03*
X146476150Y-98390000D03*
D10*
X131236150Y-98573750D03*
D11*
X133776150Y-93493750D03*
X127426150Y-96033750D03*
D10*
X112186150Y-100955000D03*
D11*
X114726150Y-95875000D03*
X108376150Y-98415000D03*
D10*
X93136150Y-105717500D03*
D11*
X95676150Y-100637500D03*
X89326150Y-103177500D03*
D10*
X74086150Y-105717500D03*
D11*
X76626150Y-100637500D03*
X70276150Y-103177500D03*
D10*
X188386150Y-96180000D03*
D11*
X190926150Y-91100000D03*
X184576150Y-93640000D03*
D10*
X169336150Y-84261250D03*
D11*
X171876150Y-79181250D03*
X165526150Y-81721250D03*
D10*
X150286150Y-81892500D03*
D11*
X152826150Y-76812500D03*
X146476150Y-79352500D03*
D10*
X131236150Y-79523750D03*
D11*
X133776150Y-74443750D03*
X127426150Y-76983750D03*
D10*
X112186150Y-81905000D03*
D11*
X114726150Y-76825000D03*
X108376150Y-79365000D03*
D10*
X93136150Y-86667500D03*
D11*
X95676150Y-81587500D03*
X89326150Y-84127500D03*
D10*
X74086150Y-86667500D03*
D11*
X76626150Y-81587500D03*
X70276150Y-84127500D03*
D10*
X188386150Y-77142500D03*
D11*
X190926150Y-72062500D03*
X184576150Y-74602500D03*
D10*
X169336150Y-65223750D03*
D11*
X171876150Y-60143750D03*
X165526150Y-62683750D03*
D10*
X150286150Y-62842500D03*
D11*
X152826150Y-57762500D03*
X146476150Y-60302500D03*
D10*
X131236150Y-60473750D03*
D11*
X133776150Y-55393750D03*
X127426150Y-57933750D03*
D10*
X112186150Y-62867500D03*
D11*
X114726150Y-57787500D03*
X108376150Y-60327500D03*
D10*
X93136150Y-67617500D03*
D11*
X95676150Y-62537500D03*
X89326150Y-65077500D03*
D10*
X73986150Y-67617500D03*
D11*
X76526150Y-62537500D03*
X70176150Y-65077500D03*
D12*
X223170950Y-115738200D03*
X223170950Y-113198200D03*
X223170950Y-110658200D03*
X223170950Y-108118200D03*
X223170950Y-105578200D03*
X223170950Y-103038200D03*
X223170950Y-100498200D03*
X223170950Y-97958200D03*
X223170950Y-95418200D03*
X223170950Y-92878200D03*
D13*
X227819650Y-62568625D03*
X227819650Y-57268625D03*
X227819650Y-59168625D03*
X227819650Y-60868625D03*
D14*
X217104025Y-59298625D03*
X211324025Y-59298625D03*
D15*
X218534025Y-59828625D03*
D16*
X218534025Y-55648625D03*
D15*
X209894025Y-59828625D03*
D16*
X209894025Y-55648625D03*
D10*
X188386150Y-115230000D03*
D11*
X190926150Y-110150000D03*
X184576150Y-112690000D03*
M02*
