%TF.GenerationSoftware,KiCad,Pcbnew,8.0.6*%
%TF.CreationDate,2024-12-23T22:53:40-06:00*%
%TF.ProjectId,mk0,6d6b302e-6b69-4636-9164-5f7063625858,rev?*%
%TF.SameCoordinates,Original*%
%TF.FileFunction,Drillmap*%
%TF.FilePolarity,Positive*%
%FSLAX45Y45*%
G04 Gerber Fmt 4.5, Leading zero omitted, Abs format (unit mm)*
G04 Created by KiCad (PCBNEW 8.0.6) date 2024-12-23 22:53:40*
%MOMM*%
%LPD*%
G01*
G04 APERTURE LIST*
%ADD10C,0.050000*%
%ADD11C,0.200000*%
%ADD12C,0.100000*%
%ADD13C,0.150000*%
G04 APERTURE END LIST*
D10*
X23622000Y-5080000D02*
X14086840Y-5080000D01*
X23596600Y-11750040D02*
X23622000Y-5080000D01*
X18354040Y-16758920D02*
X23596600Y-11750040D01*
X6451600Y-15341600D02*
X18354040Y-16758920D01*
X6451600Y-5806440D02*
X6451600Y-15341600D01*
X6451600Y-5806440D02*
X8620760Y-5064760D01*
X14086840Y-5080000D02*
X8620760Y-5064760D01*
D11*
D12*
X20652415Y-7802160D02*
X20682415Y-7832160D01*
X20682415Y-7802160D02*
X20652415Y-7832160D01*
X20693055Y-7294160D02*
X20723055Y-7324160D01*
X20723055Y-7294160D02*
X20693055Y-7324160D01*
X21262015Y-7615450D02*
X21292015Y-7645450D01*
X21292015Y-7615450D02*
X21262015Y-7645450D01*
X21281194Y-7719481D02*
X21311194Y-7749481D01*
X21311194Y-7719481D02*
X21281194Y-7749481D01*
X21287415Y-7539250D02*
X21317415Y-7569250D01*
X21317415Y-7539250D02*
X21287415Y-7569250D01*
X21532145Y-7519581D02*
X21562145Y-7549581D01*
X21562145Y-7519581D02*
X21532145Y-7549581D01*
X21561735Y-8399060D02*
X21591735Y-8429060D01*
X21591735Y-8399060D02*
X21561735Y-8429060D01*
X21565545Y-10895130D02*
X21595545Y-10925130D01*
X21595545Y-10895130D02*
X21565545Y-10925130D01*
X21569355Y-10255050D02*
X21599355Y-10285050D01*
X21599355Y-10255050D02*
X21569355Y-10285050D01*
X21579515Y-9609890D02*
X21609515Y-9639890D01*
X21609515Y-9609890D02*
X21579515Y-9639890D01*
X21600153Y-5813300D02*
X21630153Y-5843300D01*
X21630153Y-5813300D02*
X21600153Y-5843300D01*
X21600190Y-7477511D02*
X21630190Y-7507511D01*
X21630190Y-7477511D02*
X21600190Y-7507511D01*
X21643353Y-6798860D02*
X21673353Y-6828860D01*
X21673353Y-6798860D02*
X21643353Y-6828860D01*
X21665425Y-7431203D02*
X21695425Y-7461203D01*
X21695425Y-7431203D02*
X21665425Y-7461203D01*
X21713446Y-7367219D02*
X21743446Y-7397219D01*
X21743446Y-7367219D02*
X21713446Y-7397219D01*
X21767475Y-6389920D02*
X21797475Y-6419920D01*
X21797475Y-6389920D02*
X21767475Y-6419920D01*
X21770015Y-7310650D02*
X21800015Y-7340650D01*
X21800015Y-7310650D02*
X21770015Y-7340650D01*
X21810020Y-11544100D02*
X21840020Y-11574100D01*
X21840020Y-11544100D02*
X21810020Y-11574100D01*
X21836395Y-7623070D02*
X21866395Y-7653070D01*
X21866395Y-7623070D02*
X21836395Y-7653070D01*
X21896395Y-7562287D02*
X21926395Y-7592287D01*
X21926395Y-7562287D02*
X21896395Y-7592287D01*
X21955435Y-7252230D02*
X21985435Y-7282230D01*
X21985435Y-7252230D02*
X21955435Y-7282230D01*
X21956395Y-7503690D02*
X21986395Y-7533690D01*
X21986395Y-7503690D02*
X21956395Y-7533690D01*
X22016395Y-7450350D02*
X22046395Y-7480350D01*
X22046395Y-7450350D02*
X22016395Y-7480350D01*
X22065290Y-12019682D02*
X22095290Y-12049682D01*
X22095290Y-12019682D02*
X22065290Y-12049682D01*
X22095135Y-7348750D02*
X22125135Y-7378750D01*
X22125135Y-7348750D02*
X22095135Y-7378750D01*
X22430415Y-9036600D02*
X22460415Y-9066600D01*
X22460415Y-9036600D02*
X22430415Y-9066600D01*
X22476135Y-7370360D02*
X22506135Y-7400360D01*
X22506135Y-7370360D02*
X22476135Y-7400360D01*
X22562495Y-9534750D02*
X22592495Y-9564750D01*
X22592495Y-9534750D02*
X22562495Y-9564750D01*
X22841895Y-8787680D02*
X22871895Y-8817680D01*
X22871895Y-8787680D02*
X22841895Y-8817680D01*
X23118755Y-9727480D02*
X23148755Y-9757480D01*
X23148755Y-9727480D02*
X23118755Y-9757480D01*
X23139075Y-8500660D02*
X23169075Y-8530660D01*
X23169075Y-8500660D02*
X23139075Y-8530660D01*
X23222895Y-7911380D02*
X23252895Y-7941380D01*
X23252895Y-7911380D02*
X23222895Y-7941380D01*
X22806965Y-5726862D02*
G75*
G02*
X22756965Y-5726862I-25000J0D01*
G01*
X22756965Y-5726862D02*
G75*
G02*
X22806965Y-5726862I25000J0D01*
G01*
X22731965Y-5751862D02*
X22831965Y-5751862D01*
X22831965Y-5701862D02*
G75*
G02*
X22831965Y-5751862I0J-25000D01*
G01*
X22831965Y-5701862D02*
X22731965Y-5701862D01*
X22731965Y-5701862D02*
G75*
G03*
X22731965Y-5751862I0J-25000D01*
G01*
X22806965Y-5916862D02*
G75*
G02*
X22756965Y-5916862I-25000J0D01*
G01*
X22756965Y-5916862D02*
G75*
G02*
X22806965Y-5916862I25000J0D01*
G01*
X22731965Y-5941862D02*
X22831965Y-5941862D01*
X22831965Y-5891862D02*
G75*
G02*
X22831965Y-5941862I0J-25000D01*
G01*
X22831965Y-5891862D02*
X22731965Y-5891862D01*
X22731965Y-5891862D02*
G75*
G03*
X22731965Y-5941862I0J-25000D01*
G01*
X22806965Y-6086862D02*
G75*
G02*
X22756965Y-6086862I-25000J0D01*
G01*
X22756965Y-6086862D02*
G75*
G02*
X22806965Y-6086862I25000J0D01*
G01*
X22731965Y-6111862D02*
X22831965Y-6111862D01*
X22831965Y-6061862D02*
G75*
G02*
X22831965Y-6111862I0J-25000D01*
G01*
X22831965Y-6061862D02*
X22731965Y-6061862D01*
X22731965Y-6061862D02*
G75*
G03*
X22731965Y-6111862I0J-25000D01*
G01*
X22806965Y-6256862D02*
G75*
G02*
X22756965Y-6256862I-25000J0D01*
G01*
X22756965Y-6256862D02*
G75*
G02*
X22806965Y-6256862I25000J0D01*
G01*
X22731965Y-6281862D02*
X22831965Y-6281862D01*
X22831965Y-6231862D02*
G75*
G02*
X22831965Y-6281862I0J-25000D01*
G01*
X22831965Y-6231862D02*
X22731965Y-6231862D01*
X22731965Y-6231862D02*
G75*
G03*
X22731965Y-6281862I0J-25000D01*
G01*
X20989403Y-5534863D02*
X20989403Y-5594862D01*
X20959403Y-5564863D02*
X21019403Y-5564863D01*
X21019403Y-5594862D02*
X21019403Y-5534863D01*
X20959403Y-5534863D02*
G75*
G02*
X21019403Y-5534863I30000J0D01*
G01*
X20959403Y-5534863D02*
X20959403Y-5594862D01*
X20959403Y-5594862D02*
G75*
G03*
X21019403Y-5594862I30000J0D01*
G01*
X20989403Y-5952862D02*
X20989403Y-6012862D01*
X20959403Y-5982862D02*
X21019403Y-5982862D01*
X21019403Y-6037862D02*
X21019403Y-5927862D01*
X20959403Y-5927862D02*
G75*
G02*
X21019403Y-5927862I30000J0D01*
G01*
X20959403Y-5927862D02*
X20959403Y-6037862D01*
X20959403Y-6037862D02*
G75*
G03*
X21019403Y-6037862I30000J0D01*
G01*
X21853403Y-5534863D02*
X21853403Y-5594862D01*
X21823403Y-5564863D02*
X21883403Y-5564863D01*
X21883403Y-5594862D02*
X21883403Y-5534863D01*
X21823403Y-5534863D02*
G75*
G02*
X21883403Y-5534863I30000J0D01*
G01*
X21823403Y-5534863D02*
X21823403Y-5594862D01*
X21823403Y-5594862D02*
G75*
G03*
X21883403Y-5594862I30000J0D01*
G01*
X21853403Y-5952862D02*
X21853403Y-6012862D01*
X21823403Y-5982862D02*
X21883403Y-5982862D01*
X21883403Y-6037862D02*
X21883403Y-5927862D01*
X21823403Y-5927862D02*
G75*
G02*
X21883403Y-5927862I30000J0D01*
G01*
X21823403Y-5927862D02*
X21823403Y-6037862D01*
X21823403Y-6037862D02*
G75*
G03*
X21883403Y-6037862I30000J0D01*
G01*
D13*
X7070648Y-6560783D02*
X7070648Y-6454716D01*
X6964581Y-6454716D01*
X6964581Y-6560783D01*
X7070648Y-6560783D01*
X7080648Y-8465784D02*
X7080648Y-8359716D01*
X6974581Y-8359716D01*
X6974581Y-8465784D01*
X7080648Y-8465784D01*
X7080648Y-10370784D02*
X7080648Y-10264717D01*
X6974581Y-10264717D01*
X6974581Y-10370784D01*
X7080648Y-10370784D01*
X7080648Y-12275783D02*
X7080648Y-12169716D01*
X6974581Y-12169716D01*
X6974581Y-12275783D01*
X7080648Y-12275783D01*
X7080648Y-14180783D02*
X7080648Y-14074716D01*
X6974581Y-14074716D01*
X6974581Y-14180783D01*
X7080648Y-14180783D01*
X7705648Y-6306783D02*
X7705648Y-6200716D01*
X7599581Y-6200716D01*
X7599581Y-6306783D01*
X7705648Y-6306783D01*
X7715648Y-8211783D02*
X7715648Y-8105716D01*
X7609581Y-8105716D01*
X7609581Y-8211783D01*
X7715648Y-8211783D01*
X7715648Y-10116784D02*
X7715648Y-10010717D01*
X7609581Y-10010717D01*
X7609581Y-10116784D01*
X7715648Y-10116784D01*
X7715648Y-12021783D02*
X7715648Y-11915716D01*
X7609581Y-11915716D01*
X7609581Y-12021783D01*
X7715648Y-12021783D01*
X7715648Y-13926783D02*
X7715648Y-13820716D01*
X7609581Y-13820716D01*
X7609581Y-13926783D01*
X7715648Y-13926783D01*
X8985649Y-6560783D02*
X8985649Y-6454716D01*
X8879582Y-6454716D01*
X8879582Y-6560783D01*
X8985649Y-6560783D01*
X8985649Y-8465784D02*
X8985649Y-8359716D01*
X8879582Y-8359716D01*
X8879582Y-8465784D01*
X8985649Y-8465784D01*
X8985649Y-10370784D02*
X8985649Y-10264717D01*
X8879582Y-10264717D01*
X8879582Y-10370784D01*
X8985649Y-10370784D01*
X8985649Y-12275783D02*
X8985649Y-12169716D01*
X8879582Y-12169716D01*
X8879582Y-12275783D01*
X8985649Y-12275783D01*
X8985649Y-14180783D02*
X8985649Y-14074716D01*
X8879582Y-14074716D01*
X8879582Y-14180783D01*
X8985649Y-14180783D01*
X9620649Y-6306783D02*
X9620649Y-6200716D01*
X9514582Y-6200716D01*
X9514582Y-6306783D01*
X9620649Y-6306783D01*
X9620649Y-8211783D02*
X9620649Y-8105716D01*
X9514582Y-8105716D01*
X9514582Y-8211783D01*
X9620649Y-8211783D01*
X9620649Y-10116784D02*
X9620649Y-10010717D01*
X9514582Y-10010717D01*
X9514582Y-10116784D01*
X9620649Y-10116784D01*
X9620649Y-12021783D02*
X9620649Y-11915716D01*
X9514582Y-11915716D01*
X9514582Y-12021783D01*
X9620649Y-12021783D01*
X9620649Y-13926783D02*
X9620649Y-13820716D01*
X9514582Y-13820716D01*
X9514582Y-13926783D01*
X9620649Y-13926783D01*
X10890649Y-6085783D02*
X10890649Y-5979716D01*
X10784582Y-5979716D01*
X10784582Y-6085783D01*
X10890649Y-6085783D01*
X10890649Y-7989533D02*
X10890649Y-7883466D01*
X10784582Y-7883466D01*
X10784582Y-7989533D01*
X10890649Y-7989533D01*
X10890649Y-9894534D02*
X10890649Y-9788467D01*
X10784582Y-9788467D01*
X10784582Y-9894534D01*
X10890649Y-9894534D01*
X10890649Y-11799533D02*
X10890649Y-11693466D01*
X10784582Y-11693466D01*
X10784582Y-11799533D01*
X10890649Y-11799533D01*
X10890649Y-13704533D02*
X10890649Y-13598466D01*
X10784582Y-13598466D01*
X10784582Y-13704533D01*
X10890649Y-13704533D01*
X11525648Y-5831783D02*
X11525648Y-5725716D01*
X11419581Y-5725716D01*
X11419581Y-5831783D01*
X11525648Y-5831783D01*
X11525648Y-7735533D02*
X11525648Y-7629466D01*
X11419581Y-7629466D01*
X11419581Y-7735533D01*
X11525648Y-7735533D01*
X11525648Y-9640534D02*
X11525648Y-9534467D01*
X11419581Y-9534467D01*
X11419581Y-9640534D01*
X11525648Y-9640534D01*
X11525648Y-11545533D02*
X11525648Y-11439466D01*
X11419581Y-11439466D01*
X11419581Y-11545533D01*
X11525648Y-11545533D01*
X11525648Y-13450533D02*
X11525648Y-13344466D01*
X11419581Y-13344466D01*
X11419581Y-13450533D01*
X11525648Y-13450533D01*
X12795648Y-5846408D02*
X12795648Y-5740341D01*
X12689581Y-5740341D01*
X12689581Y-5846408D01*
X12795648Y-5846408D01*
X12795648Y-7751408D02*
X12795648Y-7645341D01*
X12689581Y-7645341D01*
X12689581Y-7751408D01*
X12795648Y-7751408D01*
X12795648Y-9656409D02*
X12795648Y-9550342D01*
X12689581Y-9550342D01*
X12689581Y-9656409D01*
X12795648Y-9656409D01*
X12795648Y-11561408D02*
X12795648Y-11455341D01*
X12689581Y-11455341D01*
X12689581Y-11561408D01*
X12795648Y-11561408D01*
X13430648Y-5592408D02*
X13430648Y-5486342D01*
X13324581Y-5486342D01*
X13324581Y-5592408D01*
X13430648Y-5592408D01*
X13430648Y-7497408D02*
X13430648Y-7391341D01*
X13324581Y-7391341D01*
X13324581Y-7497408D01*
X13430648Y-7497408D01*
X13430648Y-9402409D02*
X13430648Y-9296342D01*
X13324581Y-9296342D01*
X13324581Y-9402409D01*
X13430648Y-9402409D01*
X13430648Y-11307408D02*
X13430648Y-11201341D01*
X13324581Y-11201341D01*
X13324581Y-11307408D01*
X13430648Y-11307408D01*
X13748148Y-13703283D02*
X13748148Y-13597216D01*
X13642081Y-13597216D01*
X13642081Y-13703283D01*
X13748148Y-13703283D01*
X14383148Y-13449283D02*
X14383148Y-13343216D01*
X14277081Y-13343216D01*
X14277081Y-13449283D01*
X14383148Y-13449283D01*
X14700648Y-6083283D02*
X14700648Y-5977216D01*
X14594581Y-5977216D01*
X14594581Y-6083283D01*
X14700648Y-6083283D01*
X14700648Y-7988283D02*
X14700648Y-7882216D01*
X14594581Y-7882216D01*
X14594581Y-7988283D01*
X14700648Y-7988283D01*
X14700648Y-9892034D02*
X14700648Y-9785967D01*
X14594581Y-9785967D01*
X14594581Y-9892034D01*
X14700648Y-9892034D01*
X14700648Y-11798283D02*
X14700648Y-11692216D01*
X14594581Y-11692216D01*
X14594581Y-11798283D01*
X14700648Y-11798283D01*
X15335648Y-5829283D02*
X15335648Y-5723216D01*
X15229581Y-5723216D01*
X15229581Y-5829283D01*
X15335648Y-5829283D01*
X15335648Y-7734283D02*
X15335648Y-7628216D01*
X15229581Y-7628216D01*
X15229581Y-7734283D01*
X15335648Y-7734283D01*
X15335648Y-9638034D02*
X15335648Y-9531967D01*
X15229581Y-9531967D01*
X15229581Y-9638034D01*
X15335648Y-9638034D01*
X15335648Y-11544283D02*
X15335648Y-11438216D01*
X15229581Y-11438216D01*
X15229581Y-11544283D01*
X15335648Y-11544283D01*
X16188380Y-14142126D02*
X16188380Y-14036059D01*
X16082313Y-14036059D01*
X16082313Y-14142126D01*
X16188380Y-14142126D01*
X16605648Y-6321408D02*
X16605648Y-6215341D01*
X16499581Y-6215341D01*
X16499581Y-6321408D01*
X16605648Y-6321408D01*
X16605648Y-8225158D02*
X16605648Y-8119091D01*
X16499581Y-8119091D01*
X16499581Y-8225158D01*
X16605648Y-8225158D01*
X16605648Y-10130159D02*
X16605648Y-10024092D01*
X16499581Y-10024092D01*
X16499581Y-10130159D01*
X16605648Y-10130159D01*
X16605648Y-12035158D02*
X16605648Y-11929091D01*
X16499581Y-11929091D01*
X16499581Y-12035158D01*
X16605648Y-12035158D01*
X16865307Y-14239655D02*
X16865307Y-14133588D01*
X16759239Y-14133588D01*
X16759239Y-14239655D01*
X16865307Y-14239655D01*
X17240649Y-6067408D02*
X17240649Y-5961341D01*
X17134582Y-5961341D01*
X17134582Y-6067408D01*
X17240649Y-6067408D01*
X17240649Y-7971158D02*
X17240649Y-7865091D01*
X17134582Y-7865091D01*
X17134582Y-7971158D01*
X17240649Y-7971158D01*
X17240649Y-9876159D02*
X17240649Y-9770092D01*
X17134582Y-9770092D01*
X17134582Y-9876159D01*
X17240649Y-9876159D01*
X17240649Y-11781158D02*
X17240649Y-11675091D01*
X17134582Y-11675091D01*
X17134582Y-11781158D01*
X17240649Y-11781158D01*
X17855255Y-15094626D02*
X17855255Y-14988559D01*
X17749188Y-14988559D01*
X17749188Y-15094626D01*
X17855255Y-15094626D01*
X18510649Y-7513283D02*
X18510649Y-7407216D01*
X18404582Y-7407216D01*
X18404582Y-7513283D01*
X18510649Y-7513283D01*
X18510649Y-9417034D02*
X18510649Y-9310967D01*
X18404582Y-9310967D01*
X18404582Y-9417034D01*
X18510649Y-9417034D01*
X18510649Y-11322033D02*
X18510649Y-11215966D01*
X18404582Y-11215966D01*
X18404582Y-11322033D01*
X18510649Y-11322033D01*
X18532182Y-15192155D02*
X18532182Y-15086088D01*
X18426115Y-15086088D01*
X18426115Y-15192155D01*
X18532182Y-15192155D01*
X18807755Y-13427751D02*
X18807755Y-13321684D01*
X18701688Y-13321684D01*
X18701688Y-13427751D01*
X18807755Y-13427751D01*
X19145649Y-7259283D02*
X19145649Y-7153216D01*
X19039582Y-7153216D01*
X19039582Y-7259283D01*
X19145649Y-7259283D01*
X19145649Y-9163034D02*
X19145649Y-9056967D01*
X19039582Y-9056967D01*
X19039582Y-9163034D01*
X19145649Y-9163034D01*
X19145649Y-11068034D02*
X19145649Y-10961967D01*
X19039582Y-10961967D01*
X19039582Y-11068034D01*
X19145649Y-11068034D01*
X19484682Y-13525280D02*
X19484682Y-13419213D01*
X19378615Y-13419213D01*
X19378615Y-13525280D01*
X19484682Y-13525280D01*
D11*
X6709877Y-17072904D02*
X6709877Y-16872904D01*
X6709877Y-16872904D02*
X6757496Y-16872904D01*
X6757496Y-16872904D02*
X6786067Y-16882428D01*
X6786067Y-16882428D02*
X6805115Y-16901475D01*
X6805115Y-16901475D02*
X6814639Y-16920523D01*
X6814639Y-16920523D02*
X6824162Y-16958618D01*
X6824162Y-16958618D02*
X6824162Y-16987190D01*
X6824162Y-16987190D02*
X6814639Y-17025285D01*
X6814639Y-17025285D02*
X6805115Y-17044332D01*
X6805115Y-17044332D02*
X6786067Y-17063380D01*
X6786067Y-17063380D02*
X6757496Y-17072904D01*
X6757496Y-17072904D02*
X6709877Y-17072904D01*
X6909877Y-17072904D02*
X6909877Y-16939570D01*
X6909877Y-16977666D02*
X6919401Y-16958618D01*
X6919401Y-16958618D02*
X6928924Y-16949094D01*
X6928924Y-16949094D02*
X6947972Y-16939570D01*
X6947972Y-16939570D02*
X6967020Y-16939570D01*
X7033686Y-17072904D02*
X7033686Y-16939570D01*
X7033686Y-16872904D02*
X7024162Y-16882428D01*
X7024162Y-16882428D02*
X7033686Y-16891951D01*
X7033686Y-16891951D02*
X7043210Y-16882428D01*
X7043210Y-16882428D02*
X7033686Y-16872904D01*
X7033686Y-16872904D02*
X7033686Y-16891951D01*
X7157496Y-17072904D02*
X7138448Y-17063380D01*
X7138448Y-17063380D02*
X7128924Y-17044332D01*
X7128924Y-17044332D02*
X7128924Y-16872904D01*
X7262258Y-17072904D02*
X7243210Y-17063380D01*
X7243210Y-17063380D02*
X7233686Y-17044332D01*
X7233686Y-17044332D02*
X7233686Y-16872904D01*
X7490829Y-17072904D02*
X7490829Y-16872904D01*
X7490829Y-16872904D02*
X7557496Y-17015761D01*
X7557496Y-17015761D02*
X7624162Y-16872904D01*
X7624162Y-16872904D02*
X7624162Y-17072904D01*
X7805115Y-17072904D02*
X7805115Y-16968142D01*
X7805115Y-16968142D02*
X7795591Y-16949094D01*
X7795591Y-16949094D02*
X7776543Y-16939570D01*
X7776543Y-16939570D02*
X7738448Y-16939570D01*
X7738448Y-16939570D02*
X7719401Y-16949094D01*
X7805115Y-17063380D02*
X7786067Y-17072904D01*
X7786067Y-17072904D02*
X7738448Y-17072904D01*
X7738448Y-17072904D02*
X7719401Y-17063380D01*
X7719401Y-17063380D02*
X7709877Y-17044332D01*
X7709877Y-17044332D02*
X7709877Y-17025285D01*
X7709877Y-17025285D02*
X7719401Y-17006237D01*
X7719401Y-17006237D02*
X7738448Y-16996713D01*
X7738448Y-16996713D02*
X7786067Y-16996713D01*
X7786067Y-16996713D02*
X7805115Y-16987190D01*
X7900353Y-16939570D02*
X7900353Y-17139570D01*
X7900353Y-16949094D02*
X7919401Y-16939570D01*
X7919401Y-16939570D02*
X7957496Y-16939570D01*
X7957496Y-16939570D02*
X7976543Y-16949094D01*
X7976543Y-16949094D02*
X7986067Y-16958618D01*
X7986067Y-16958618D02*
X7995591Y-16977666D01*
X7995591Y-16977666D02*
X7995591Y-17034809D01*
X7995591Y-17034809D02*
X7986067Y-17053856D01*
X7986067Y-17053856D02*
X7976543Y-17063380D01*
X7976543Y-17063380D02*
X7957496Y-17072904D01*
X7957496Y-17072904D02*
X7919401Y-17072904D01*
X7919401Y-17072904D02*
X7900353Y-17063380D01*
X8081305Y-17053856D02*
X8090829Y-17063380D01*
X8090829Y-17063380D02*
X8081305Y-17072904D01*
X8081305Y-17072904D02*
X8071782Y-17063380D01*
X8071782Y-17063380D02*
X8081305Y-17053856D01*
X8081305Y-17053856D02*
X8081305Y-17072904D01*
X8081305Y-16949094D02*
X8090829Y-16958618D01*
X8090829Y-16958618D02*
X8081305Y-16968142D01*
X8081305Y-16968142D02*
X8071782Y-16958618D01*
X8071782Y-16958618D02*
X8081305Y-16949094D01*
X8081305Y-16949094D02*
X8081305Y-16968142D01*
D12*
X6419100Y-17386420D02*
X6449100Y-17416420D01*
X6449100Y-17386420D02*
X6419100Y-17416420D01*
D11*
X6747972Y-17292904D02*
X6767020Y-17292904D01*
X6767020Y-17292904D02*
X6786067Y-17302428D01*
X6786067Y-17302428D02*
X6795591Y-17311951D01*
X6795591Y-17311951D02*
X6805115Y-17330999D01*
X6805115Y-17330999D02*
X6814639Y-17369094D01*
X6814639Y-17369094D02*
X6814639Y-17416713D01*
X6814639Y-17416713D02*
X6805115Y-17454809D01*
X6805115Y-17454809D02*
X6795591Y-17473856D01*
X6795591Y-17473856D02*
X6786067Y-17483380D01*
X6786067Y-17483380D02*
X6767020Y-17492904D01*
X6767020Y-17492904D02*
X6747972Y-17492904D01*
X6747972Y-17492904D02*
X6728924Y-17483380D01*
X6728924Y-17483380D02*
X6719401Y-17473856D01*
X6719401Y-17473856D02*
X6709877Y-17454809D01*
X6709877Y-17454809D02*
X6700353Y-17416713D01*
X6700353Y-17416713D02*
X6700353Y-17369094D01*
X6700353Y-17369094D02*
X6709877Y-17330999D01*
X6709877Y-17330999D02*
X6719401Y-17311951D01*
X6719401Y-17311951D02*
X6728924Y-17302428D01*
X6728924Y-17302428D02*
X6747972Y-17292904D01*
X6900353Y-17473856D02*
X6909877Y-17483380D01*
X6909877Y-17483380D02*
X6900353Y-17492904D01*
X6900353Y-17492904D02*
X6890829Y-17483380D01*
X6890829Y-17483380D02*
X6900353Y-17473856D01*
X6900353Y-17473856D02*
X6900353Y-17492904D01*
X6976543Y-17292904D02*
X7100353Y-17292904D01*
X7100353Y-17292904D02*
X7033686Y-17369094D01*
X7033686Y-17369094D02*
X7062258Y-17369094D01*
X7062258Y-17369094D02*
X7081305Y-17378618D01*
X7081305Y-17378618D02*
X7090829Y-17388142D01*
X7090829Y-17388142D02*
X7100353Y-17407190D01*
X7100353Y-17407190D02*
X7100353Y-17454809D01*
X7100353Y-17454809D02*
X7090829Y-17473856D01*
X7090829Y-17473856D02*
X7081305Y-17483380D01*
X7081305Y-17483380D02*
X7062258Y-17492904D01*
X7062258Y-17492904D02*
X7005115Y-17492904D01*
X7005115Y-17492904D02*
X6986067Y-17483380D01*
X6986067Y-17483380D02*
X6976543Y-17473856D01*
X7224162Y-17292904D02*
X7243210Y-17292904D01*
X7243210Y-17292904D02*
X7262258Y-17302428D01*
X7262258Y-17302428D02*
X7271782Y-17311951D01*
X7271782Y-17311951D02*
X7281305Y-17330999D01*
X7281305Y-17330999D02*
X7290829Y-17369094D01*
X7290829Y-17369094D02*
X7290829Y-17416713D01*
X7290829Y-17416713D02*
X7281305Y-17454809D01*
X7281305Y-17454809D02*
X7271782Y-17473856D01*
X7271782Y-17473856D02*
X7262258Y-17483380D01*
X7262258Y-17483380D02*
X7243210Y-17492904D01*
X7243210Y-17492904D02*
X7224162Y-17492904D01*
X7224162Y-17492904D02*
X7205115Y-17483380D01*
X7205115Y-17483380D02*
X7195591Y-17473856D01*
X7195591Y-17473856D02*
X7186067Y-17454809D01*
X7186067Y-17454809D02*
X7176543Y-17416713D01*
X7176543Y-17416713D02*
X7176543Y-17369094D01*
X7176543Y-17369094D02*
X7186067Y-17330999D01*
X7186067Y-17330999D02*
X7195591Y-17311951D01*
X7195591Y-17311951D02*
X7205115Y-17302428D01*
X7205115Y-17302428D02*
X7224162Y-17292904D01*
X7414639Y-17292904D02*
X7433686Y-17292904D01*
X7433686Y-17292904D02*
X7452734Y-17302428D01*
X7452734Y-17302428D02*
X7462258Y-17311951D01*
X7462258Y-17311951D02*
X7471782Y-17330999D01*
X7471782Y-17330999D02*
X7481305Y-17369094D01*
X7481305Y-17369094D02*
X7481305Y-17416713D01*
X7481305Y-17416713D02*
X7471782Y-17454809D01*
X7471782Y-17454809D02*
X7462258Y-17473856D01*
X7462258Y-17473856D02*
X7452734Y-17483380D01*
X7452734Y-17483380D02*
X7433686Y-17492904D01*
X7433686Y-17492904D02*
X7414639Y-17492904D01*
X7414639Y-17492904D02*
X7395591Y-17483380D01*
X7395591Y-17483380D02*
X7386067Y-17473856D01*
X7386067Y-17473856D02*
X7376543Y-17454809D01*
X7376543Y-17454809D02*
X7367020Y-17416713D01*
X7367020Y-17416713D02*
X7367020Y-17369094D01*
X7367020Y-17369094D02*
X7376543Y-17330999D01*
X7376543Y-17330999D02*
X7386067Y-17311951D01*
X7386067Y-17311951D02*
X7395591Y-17302428D01*
X7395591Y-17302428D02*
X7414639Y-17292904D01*
X7567020Y-17492904D02*
X7567020Y-17359570D01*
X7567020Y-17378618D02*
X7576543Y-17369094D01*
X7576543Y-17369094D02*
X7595591Y-17359570D01*
X7595591Y-17359570D02*
X7624163Y-17359570D01*
X7624163Y-17359570D02*
X7643210Y-17369094D01*
X7643210Y-17369094D02*
X7652734Y-17388142D01*
X7652734Y-17388142D02*
X7652734Y-17492904D01*
X7652734Y-17388142D02*
X7662258Y-17369094D01*
X7662258Y-17369094D02*
X7681305Y-17359570D01*
X7681305Y-17359570D02*
X7709877Y-17359570D01*
X7709877Y-17359570D02*
X7728924Y-17369094D01*
X7728924Y-17369094D02*
X7738448Y-17388142D01*
X7738448Y-17388142D02*
X7738448Y-17492904D01*
X7833686Y-17492904D02*
X7833686Y-17359570D01*
X7833686Y-17378618D02*
X7843210Y-17369094D01*
X7843210Y-17369094D02*
X7862258Y-17359570D01*
X7862258Y-17359570D02*
X7890829Y-17359570D01*
X7890829Y-17359570D02*
X7909877Y-17369094D01*
X7909877Y-17369094D02*
X7919401Y-17388142D01*
X7919401Y-17388142D02*
X7919401Y-17492904D01*
X7919401Y-17388142D02*
X7928924Y-17369094D01*
X7928924Y-17369094D02*
X7947972Y-17359570D01*
X7947972Y-17359570D02*
X7976543Y-17359570D01*
X7976543Y-17359570D02*
X7995591Y-17369094D01*
X7995591Y-17369094D02*
X8005115Y-17388142D01*
X8005115Y-17388142D02*
X8005115Y-17492904D01*
X8395591Y-17283380D02*
X8224163Y-17540523D01*
X8652734Y-17292904D02*
X8671782Y-17292904D01*
X8671782Y-17292904D02*
X8690829Y-17302428D01*
X8690829Y-17302428D02*
X8700353Y-17311951D01*
X8700353Y-17311951D02*
X8709877Y-17330999D01*
X8709877Y-17330999D02*
X8719401Y-17369094D01*
X8719401Y-17369094D02*
X8719401Y-17416713D01*
X8719401Y-17416713D02*
X8709877Y-17454809D01*
X8709877Y-17454809D02*
X8700353Y-17473856D01*
X8700353Y-17473856D02*
X8690829Y-17483380D01*
X8690829Y-17483380D02*
X8671782Y-17492904D01*
X8671782Y-17492904D02*
X8652734Y-17492904D01*
X8652734Y-17492904D02*
X8633687Y-17483380D01*
X8633687Y-17483380D02*
X8624163Y-17473856D01*
X8624163Y-17473856D02*
X8614639Y-17454809D01*
X8614639Y-17454809D02*
X8605115Y-17416713D01*
X8605115Y-17416713D02*
X8605115Y-17369094D01*
X8605115Y-17369094D02*
X8614639Y-17330999D01*
X8614639Y-17330999D02*
X8624163Y-17311951D01*
X8624163Y-17311951D02*
X8633687Y-17302428D01*
X8633687Y-17302428D02*
X8652734Y-17292904D01*
X8805115Y-17473856D02*
X8814639Y-17483380D01*
X8814639Y-17483380D02*
X8805115Y-17492904D01*
X8805115Y-17492904D02*
X8795591Y-17483380D01*
X8795591Y-17483380D02*
X8805115Y-17473856D01*
X8805115Y-17473856D02*
X8805115Y-17492904D01*
X8938448Y-17292904D02*
X8957496Y-17292904D01*
X8957496Y-17292904D02*
X8976544Y-17302428D01*
X8976544Y-17302428D02*
X8986068Y-17311951D01*
X8986068Y-17311951D02*
X8995591Y-17330999D01*
X8995591Y-17330999D02*
X9005115Y-17369094D01*
X9005115Y-17369094D02*
X9005115Y-17416713D01*
X9005115Y-17416713D02*
X8995591Y-17454809D01*
X8995591Y-17454809D02*
X8986068Y-17473856D01*
X8986068Y-17473856D02*
X8976544Y-17483380D01*
X8976544Y-17483380D02*
X8957496Y-17492904D01*
X8957496Y-17492904D02*
X8938448Y-17492904D01*
X8938448Y-17492904D02*
X8919401Y-17483380D01*
X8919401Y-17483380D02*
X8909877Y-17473856D01*
X8909877Y-17473856D02*
X8900353Y-17454809D01*
X8900353Y-17454809D02*
X8890829Y-17416713D01*
X8890829Y-17416713D02*
X8890829Y-17369094D01*
X8890829Y-17369094D02*
X8900353Y-17330999D01*
X8900353Y-17330999D02*
X8909877Y-17311951D01*
X8909877Y-17311951D02*
X8919401Y-17302428D01*
X8919401Y-17302428D02*
X8938448Y-17292904D01*
X9195591Y-17492904D02*
X9081306Y-17492904D01*
X9138448Y-17492904D02*
X9138448Y-17292904D01*
X9138448Y-17292904D02*
X9119401Y-17321475D01*
X9119401Y-17321475D02*
X9100353Y-17340523D01*
X9100353Y-17340523D02*
X9081306Y-17350047D01*
X9386068Y-17492904D02*
X9271782Y-17492904D01*
X9328925Y-17492904D02*
X9328925Y-17292904D01*
X9328925Y-17292904D02*
X9309877Y-17321475D01*
X9309877Y-17321475D02*
X9290829Y-17340523D01*
X9290829Y-17340523D02*
X9271782Y-17350047D01*
X9500353Y-17378618D02*
X9481306Y-17369094D01*
X9481306Y-17369094D02*
X9471782Y-17359570D01*
X9471782Y-17359570D02*
X9462258Y-17340523D01*
X9462258Y-17340523D02*
X9462258Y-17330999D01*
X9462258Y-17330999D02*
X9471782Y-17311951D01*
X9471782Y-17311951D02*
X9481306Y-17302428D01*
X9481306Y-17302428D02*
X9500353Y-17292904D01*
X9500353Y-17292904D02*
X9538449Y-17292904D01*
X9538449Y-17292904D02*
X9557496Y-17302428D01*
X9557496Y-17302428D02*
X9567020Y-17311951D01*
X9567020Y-17311951D02*
X9576544Y-17330999D01*
X9576544Y-17330999D02*
X9576544Y-17340523D01*
X9576544Y-17340523D02*
X9567020Y-17359570D01*
X9567020Y-17359570D02*
X9557496Y-17369094D01*
X9557496Y-17369094D02*
X9538449Y-17378618D01*
X9538449Y-17378618D02*
X9500353Y-17378618D01*
X9500353Y-17378618D02*
X9481306Y-17388142D01*
X9481306Y-17388142D02*
X9471782Y-17397666D01*
X9471782Y-17397666D02*
X9462258Y-17416713D01*
X9462258Y-17416713D02*
X9462258Y-17454809D01*
X9462258Y-17454809D02*
X9471782Y-17473856D01*
X9471782Y-17473856D02*
X9481306Y-17483380D01*
X9481306Y-17483380D02*
X9500353Y-17492904D01*
X9500353Y-17492904D02*
X9538449Y-17492904D01*
X9538449Y-17492904D02*
X9557496Y-17483380D01*
X9557496Y-17483380D02*
X9567020Y-17473856D01*
X9567020Y-17473856D02*
X9576544Y-17454809D01*
X9576544Y-17454809D02*
X9576544Y-17416713D01*
X9576544Y-17416713D02*
X9567020Y-17397666D01*
X9567020Y-17397666D02*
X9557496Y-17388142D01*
X9557496Y-17388142D02*
X9538449Y-17378618D01*
X9652734Y-17292904D02*
X9652734Y-17330999D01*
X9728925Y-17292904D02*
X9728925Y-17330999D01*
X10024163Y-17569094D02*
X10014639Y-17559570D01*
X10014639Y-17559570D02*
X9995591Y-17530999D01*
X9995591Y-17530999D02*
X9986068Y-17511951D01*
X9986068Y-17511951D02*
X9976544Y-17483380D01*
X9976544Y-17483380D02*
X9967020Y-17435761D01*
X9967020Y-17435761D02*
X9967020Y-17397666D01*
X9967020Y-17397666D02*
X9976544Y-17350047D01*
X9976544Y-17350047D02*
X9986068Y-17321475D01*
X9986068Y-17321475D02*
X9995591Y-17302428D01*
X9995591Y-17302428D02*
X10014639Y-17273856D01*
X10014639Y-17273856D02*
X10024163Y-17264332D01*
X10081306Y-17292904D02*
X10205115Y-17292904D01*
X10205115Y-17292904D02*
X10138449Y-17369094D01*
X10138449Y-17369094D02*
X10167020Y-17369094D01*
X10167020Y-17369094D02*
X10186068Y-17378618D01*
X10186068Y-17378618D02*
X10195591Y-17388142D01*
X10195591Y-17388142D02*
X10205115Y-17407190D01*
X10205115Y-17407190D02*
X10205115Y-17454809D01*
X10205115Y-17454809D02*
X10195591Y-17473856D01*
X10195591Y-17473856D02*
X10186068Y-17483380D01*
X10186068Y-17483380D02*
X10167020Y-17492904D01*
X10167020Y-17492904D02*
X10109877Y-17492904D01*
X10109877Y-17492904D02*
X10090830Y-17483380D01*
X10090830Y-17483380D02*
X10081306Y-17473856D01*
X10281306Y-17311951D02*
X10290830Y-17302428D01*
X10290830Y-17302428D02*
X10309877Y-17292904D01*
X10309877Y-17292904D02*
X10357496Y-17292904D01*
X10357496Y-17292904D02*
X10376544Y-17302428D01*
X10376544Y-17302428D02*
X10386068Y-17311951D01*
X10386068Y-17311951D02*
X10395591Y-17330999D01*
X10395591Y-17330999D02*
X10395591Y-17350047D01*
X10395591Y-17350047D02*
X10386068Y-17378618D01*
X10386068Y-17378618D02*
X10271782Y-17492904D01*
X10271782Y-17492904D02*
X10395591Y-17492904D01*
X10633687Y-17492904D02*
X10633687Y-17292904D01*
X10719401Y-17492904D02*
X10719401Y-17388142D01*
X10719401Y-17388142D02*
X10709877Y-17369094D01*
X10709877Y-17369094D02*
X10690830Y-17359570D01*
X10690830Y-17359570D02*
X10662258Y-17359570D01*
X10662258Y-17359570D02*
X10643211Y-17369094D01*
X10643211Y-17369094D02*
X10633687Y-17378618D01*
X10843211Y-17492904D02*
X10824163Y-17483380D01*
X10824163Y-17483380D02*
X10814639Y-17473856D01*
X10814639Y-17473856D02*
X10805115Y-17454809D01*
X10805115Y-17454809D02*
X10805115Y-17397666D01*
X10805115Y-17397666D02*
X10814639Y-17378618D01*
X10814639Y-17378618D02*
X10824163Y-17369094D01*
X10824163Y-17369094D02*
X10843211Y-17359570D01*
X10843211Y-17359570D02*
X10871782Y-17359570D01*
X10871782Y-17359570D02*
X10890830Y-17369094D01*
X10890830Y-17369094D02*
X10900353Y-17378618D01*
X10900353Y-17378618D02*
X10909877Y-17397666D01*
X10909877Y-17397666D02*
X10909877Y-17454809D01*
X10909877Y-17454809D02*
X10900353Y-17473856D01*
X10900353Y-17473856D02*
X10890830Y-17483380D01*
X10890830Y-17483380D02*
X10871782Y-17492904D01*
X10871782Y-17492904D02*
X10843211Y-17492904D01*
X11024163Y-17492904D02*
X11005115Y-17483380D01*
X11005115Y-17483380D02*
X10995592Y-17464332D01*
X10995592Y-17464332D02*
X10995592Y-17292904D01*
X11176544Y-17483380D02*
X11157496Y-17492904D01*
X11157496Y-17492904D02*
X11119401Y-17492904D01*
X11119401Y-17492904D02*
X11100353Y-17483380D01*
X11100353Y-17483380D02*
X11090830Y-17464332D01*
X11090830Y-17464332D02*
X11090830Y-17388142D01*
X11090830Y-17388142D02*
X11100353Y-17369094D01*
X11100353Y-17369094D02*
X11119401Y-17359570D01*
X11119401Y-17359570D02*
X11157496Y-17359570D01*
X11157496Y-17359570D02*
X11176544Y-17369094D01*
X11176544Y-17369094D02*
X11186068Y-17388142D01*
X11186068Y-17388142D02*
X11186068Y-17407190D01*
X11186068Y-17407190D02*
X11090830Y-17426237D01*
X11262258Y-17483380D02*
X11281306Y-17492904D01*
X11281306Y-17492904D02*
X11319401Y-17492904D01*
X11319401Y-17492904D02*
X11338449Y-17483380D01*
X11338449Y-17483380D02*
X11347972Y-17464332D01*
X11347972Y-17464332D02*
X11347972Y-17454809D01*
X11347972Y-17454809D02*
X11338449Y-17435761D01*
X11338449Y-17435761D02*
X11319401Y-17426237D01*
X11319401Y-17426237D02*
X11290830Y-17426237D01*
X11290830Y-17426237D02*
X11271782Y-17416713D01*
X11271782Y-17416713D02*
X11262258Y-17397666D01*
X11262258Y-17397666D02*
X11262258Y-17388142D01*
X11262258Y-17388142D02*
X11271782Y-17369094D01*
X11271782Y-17369094D02*
X11290830Y-17359570D01*
X11290830Y-17359570D02*
X11319401Y-17359570D01*
X11319401Y-17359570D02*
X11338449Y-17369094D01*
X11414639Y-17569094D02*
X11424163Y-17559570D01*
X11424163Y-17559570D02*
X11443211Y-17530999D01*
X11443211Y-17530999D02*
X11452734Y-17511951D01*
X11452734Y-17511951D02*
X11462258Y-17483380D01*
X11462258Y-17483380D02*
X11471782Y-17435761D01*
X11471782Y-17435761D02*
X11471782Y-17397666D01*
X11471782Y-17397666D02*
X11462258Y-17350047D01*
X11462258Y-17350047D02*
X11452734Y-17321475D01*
X11452734Y-17321475D02*
X11443211Y-17302428D01*
X11443211Y-17302428D02*
X11424163Y-17273856D01*
X11424163Y-17273856D02*
X11414639Y-17264332D01*
D12*
X6449100Y-17665420D02*
G75*
G02*
X6399100Y-17665420I-25000J0D01*
G01*
X6399100Y-17665420D02*
G75*
G02*
X6449100Y-17665420I25000J0D01*
G01*
D11*
X6747972Y-17556904D02*
X6767020Y-17556904D01*
X6767020Y-17556904D02*
X6786067Y-17566428D01*
X6786067Y-17566428D02*
X6795591Y-17575951D01*
X6795591Y-17575951D02*
X6805115Y-17594999D01*
X6805115Y-17594999D02*
X6814639Y-17633094D01*
X6814639Y-17633094D02*
X6814639Y-17680713D01*
X6814639Y-17680713D02*
X6805115Y-17718809D01*
X6805115Y-17718809D02*
X6795591Y-17737856D01*
X6795591Y-17737856D02*
X6786067Y-17747380D01*
X6786067Y-17747380D02*
X6767020Y-17756904D01*
X6767020Y-17756904D02*
X6747972Y-17756904D01*
X6747972Y-17756904D02*
X6728924Y-17747380D01*
X6728924Y-17747380D02*
X6719401Y-17737856D01*
X6719401Y-17737856D02*
X6709877Y-17718809D01*
X6709877Y-17718809D02*
X6700353Y-17680713D01*
X6700353Y-17680713D02*
X6700353Y-17633094D01*
X6700353Y-17633094D02*
X6709877Y-17594999D01*
X6709877Y-17594999D02*
X6719401Y-17575951D01*
X6719401Y-17575951D02*
X6728924Y-17566428D01*
X6728924Y-17566428D02*
X6747972Y-17556904D01*
X6900353Y-17737856D02*
X6909877Y-17747380D01*
X6909877Y-17747380D02*
X6900353Y-17756904D01*
X6900353Y-17756904D02*
X6890829Y-17747380D01*
X6890829Y-17747380D02*
X6900353Y-17737856D01*
X6900353Y-17737856D02*
X6900353Y-17756904D01*
X7090829Y-17556904D02*
X6995591Y-17556904D01*
X6995591Y-17556904D02*
X6986067Y-17652142D01*
X6986067Y-17652142D02*
X6995591Y-17642618D01*
X6995591Y-17642618D02*
X7014639Y-17633094D01*
X7014639Y-17633094D02*
X7062258Y-17633094D01*
X7062258Y-17633094D02*
X7081305Y-17642618D01*
X7081305Y-17642618D02*
X7090829Y-17652142D01*
X7090829Y-17652142D02*
X7100353Y-17671190D01*
X7100353Y-17671190D02*
X7100353Y-17718809D01*
X7100353Y-17718809D02*
X7090829Y-17737856D01*
X7090829Y-17737856D02*
X7081305Y-17747380D01*
X7081305Y-17747380D02*
X7062258Y-17756904D01*
X7062258Y-17756904D02*
X7014639Y-17756904D01*
X7014639Y-17756904D02*
X6995591Y-17747380D01*
X6995591Y-17747380D02*
X6986067Y-17737856D01*
X7224162Y-17556904D02*
X7243210Y-17556904D01*
X7243210Y-17556904D02*
X7262258Y-17566428D01*
X7262258Y-17566428D02*
X7271782Y-17575951D01*
X7271782Y-17575951D02*
X7281305Y-17594999D01*
X7281305Y-17594999D02*
X7290829Y-17633094D01*
X7290829Y-17633094D02*
X7290829Y-17680713D01*
X7290829Y-17680713D02*
X7281305Y-17718809D01*
X7281305Y-17718809D02*
X7271782Y-17737856D01*
X7271782Y-17737856D02*
X7262258Y-17747380D01*
X7262258Y-17747380D02*
X7243210Y-17756904D01*
X7243210Y-17756904D02*
X7224162Y-17756904D01*
X7224162Y-17756904D02*
X7205115Y-17747380D01*
X7205115Y-17747380D02*
X7195591Y-17737856D01*
X7195591Y-17737856D02*
X7186067Y-17718809D01*
X7186067Y-17718809D02*
X7176543Y-17680713D01*
X7176543Y-17680713D02*
X7176543Y-17633094D01*
X7176543Y-17633094D02*
X7186067Y-17594999D01*
X7186067Y-17594999D02*
X7195591Y-17575951D01*
X7195591Y-17575951D02*
X7205115Y-17566428D01*
X7205115Y-17566428D02*
X7224162Y-17556904D01*
X7414639Y-17556904D02*
X7433686Y-17556904D01*
X7433686Y-17556904D02*
X7452734Y-17566428D01*
X7452734Y-17566428D02*
X7462258Y-17575951D01*
X7462258Y-17575951D02*
X7471782Y-17594999D01*
X7471782Y-17594999D02*
X7481305Y-17633094D01*
X7481305Y-17633094D02*
X7481305Y-17680713D01*
X7481305Y-17680713D02*
X7471782Y-17718809D01*
X7471782Y-17718809D02*
X7462258Y-17737856D01*
X7462258Y-17737856D02*
X7452734Y-17747380D01*
X7452734Y-17747380D02*
X7433686Y-17756904D01*
X7433686Y-17756904D02*
X7414639Y-17756904D01*
X7414639Y-17756904D02*
X7395591Y-17747380D01*
X7395591Y-17747380D02*
X7386067Y-17737856D01*
X7386067Y-17737856D02*
X7376543Y-17718809D01*
X7376543Y-17718809D02*
X7367020Y-17680713D01*
X7367020Y-17680713D02*
X7367020Y-17633094D01*
X7367020Y-17633094D02*
X7376543Y-17594999D01*
X7376543Y-17594999D02*
X7386067Y-17575951D01*
X7386067Y-17575951D02*
X7395591Y-17566428D01*
X7395591Y-17566428D02*
X7414639Y-17556904D01*
X7567020Y-17756904D02*
X7567020Y-17623570D01*
X7567020Y-17642618D02*
X7576543Y-17633094D01*
X7576543Y-17633094D02*
X7595591Y-17623570D01*
X7595591Y-17623570D02*
X7624163Y-17623570D01*
X7624163Y-17623570D02*
X7643210Y-17633094D01*
X7643210Y-17633094D02*
X7652734Y-17652142D01*
X7652734Y-17652142D02*
X7652734Y-17756904D01*
X7652734Y-17652142D02*
X7662258Y-17633094D01*
X7662258Y-17633094D02*
X7681305Y-17623570D01*
X7681305Y-17623570D02*
X7709877Y-17623570D01*
X7709877Y-17623570D02*
X7728924Y-17633094D01*
X7728924Y-17633094D02*
X7738448Y-17652142D01*
X7738448Y-17652142D02*
X7738448Y-17756904D01*
X7833686Y-17756904D02*
X7833686Y-17623570D01*
X7833686Y-17642618D02*
X7843210Y-17633094D01*
X7843210Y-17633094D02*
X7862258Y-17623570D01*
X7862258Y-17623570D02*
X7890829Y-17623570D01*
X7890829Y-17623570D02*
X7909877Y-17633094D01*
X7909877Y-17633094D02*
X7919401Y-17652142D01*
X7919401Y-17652142D02*
X7919401Y-17756904D01*
X7919401Y-17652142D02*
X7928924Y-17633094D01*
X7928924Y-17633094D02*
X7947972Y-17623570D01*
X7947972Y-17623570D02*
X7976543Y-17623570D01*
X7976543Y-17623570D02*
X7995591Y-17633094D01*
X7995591Y-17633094D02*
X8005115Y-17652142D01*
X8005115Y-17652142D02*
X8005115Y-17756904D01*
X8395591Y-17547380D02*
X8224163Y-17804523D01*
X8652734Y-17556904D02*
X8671782Y-17556904D01*
X8671782Y-17556904D02*
X8690829Y-17566428D01*
X8690829Y-17566428D02*
X8700353Y-17575951D01*
X8700353Y-17575951D02*
X8709877Y-17594999D01*
X8709877Y-17594999D02*
X8719401Y-17633094D01*
X8719401Y-17633094D02*
X8719401Y-17680713D01*
X8719401Y-17680713D02*
X8709877Y-17718809D01*
X8709877Y-17718809D02*
X8700353Y-17737856D01*
X8700353Y-17737856D02*
X8690829Y-17747380D01*
X8690829Y-17747380D02*
X8671782Y-17756904D01*
X8671782Y-17756904D02*
X8652734Y-17756904D01*
X8652734Y-17756904D02*
X8633687Y-17747380D01*
X8633687Y-17747380D02*
X8624163Y-17737856D01*
X8624163Y-17737856D02*
X8614639Y-17718809D01*
X8614639Y-17718809D02*
X8605115Y-17680713D01*
X8605115Y-17680713D02*
X8605115Y-17633094D01*
X8605115Y-17633094D02*
X8614639Y-17594999D01*
X8614639Y-17594999D02*
X8624163Y-17575951D01*
X8624163Y-17575951D02*
X8633687Y-17566428D01*
X8633687Y-17566428D02*
X8652734Y-17556904D01*
X8805115Y-17737856D02*
X8814639Y-17747380D01*
X8814639Y-17747380D02*
X8805115Y-17756904D01*
X8805115Y-17756904D02*
X8795591Y-17747380D01*
X8795591Y-17747380D02*
X8805115Y-17737856D01*
X8805115Y-17737856D02*
X8805115Y-17756904D01*
X8938448Y-17556904D02*
X8957496Y-17556904D01*
X8957496Y-17556904D02*
X8976544Y-17566428D01*
X8976544Y-17566428D02*
X8986068Y-17575951D01*
X8986068Y-17575951D02*
X8995591Y-17594999D01*
X8995591Y-17594999D02*
X9005115Y-17633094D01*
X9005115Y-17633094D02*
X9005115Y-17680713D01*
X9005115Y-17680713D02*
X8995591Y-17718809D01*
X8995591Y-17718809D02*
X8986068Y-17737856D01*
X8986068Y-17737856D02*
X8976544Y-17747380D01*
X8976544Y-17747380D02*
X8957496Y-17756904D01*
X8957496Y-17756904D02*
X8938448Y-17756904D01*
X8938448Y-17756904D02*
X8919401Y-17747380D01*
X8919401Y-17747380D02*
X8909877Y-17737856D01*
X8909877Y-17737856D02*
X8900353Y-17718809D01*
X8900353Y-17718809D02*
X8890829Y-17680713D01*
X8890829Y-17680713D02*
X8890829Y-17633094D01*
X8890829Y-17633094D02*
X8900353Y-17594999D01*
X8900353Y-17594999D02*
X8909877Y-17575951D01*
X8909877Y-17575951D02*
X8919401Y-17566428D01*
X8919401Y-17566428D02*
X8938448Y-17556904D01*
X9195591Y-17756904D02*
X9081306Y-17756904D01*
X9138448Y-17756904D02*
X9138448Y-17556904D01*
X9138448Y-17556904D02*
X9119401Y-17585475D01*
X9119401Y-17585475D02*
X9100353Y-17604523D01*
X9100353Y-17604523D02*
X9081306Y-17614047D01*
X9290829Y-17756904D02*
X9328925Y-17756904D01*
X9328925Y-17756904D02*
X9347972Y-17747380D01*
X9347972Y-17747380D02*
X9357496Y-17737856D01*
X9357496Y-17737856D02*
X9376544Y-17709285D01*
X9376544Y-17709285D02*
X9386068Y-17671190D01*
X9386068Y-17671190D02*
X9386068Y-17594999D01*
X9386068Y-17594999D02*
X9376544Y-17575951D01*
X9376544Y-17575951D02*
X9367020Y-17566428D01*
X9367020Y-17566428D02*
X9347972Y-17556904D01*
X9347972Y-17556904D02*
X9309877Y-17556904D01*
X9309877Y-17556904D02*
X9290829Y-17566428D01*
X9290829Y-17566428D02*
X9281306Y-17575951D01*
X9281306Y-17575951D02*
X9271782Y-17594999D01*
X9271782Y-17594999D02*
X9271782Y-17642618D01*
X9271782Y-17642618D02*
X9281306Y-17661666D01*
X9281306Y-17661666D02*
X9290829Y-17671190D01*
X9290829Y-17671190D02*
X9309877Y-17680713D01*
X9309877Y-17680713D02*
X9347972Y-17680713D01*
X9347972Y-17680713D02*
X9367020Y-17671190D01*
X9367020Y-17671190D02*
X9376544Y-17661666D01*
X9376544Y-17661666D02*
X9386068Y-17642618D01*
X9452734Y-17556904D02*
X9586068Y-17556904D01*
X9586068Y-17556904D02*
X9500353Y-17756904D01*
X9652734Y-17556904D02*
X9652734Y-17594999D01*
X9728925Y-17556904D02*
X9728925Y-17594999D01*
X10024163Y-17833094D02*
X10014639Y-17823570D01*
X10014639Y-17823570D02*
X9995591Y-17794999D01*
X9995591Y-17794999D02*
X9986068Y-17775951D01*
X9986068Y-17775951D02*
X9976544Y-17747380D01*
X9976544Y-17747380D02*
X9967020Y-17699761D01*
X9967020Y-17699761D02*
X9967020Y-17661666D01*
X9967020Y-17661666D02*
X9976544Y-17614047D01*
X9976544Y-17614047D02*
X9986068Y-17585475D01*
X9986068Y-17585475D02*
X9995591Y-17566428D01*
X9995591Y-17566428D02*
X10014639Y-17537856D01*
X10014639Y-17537856D02*
X10024163Y-17528332D01*
X10138449Y-17556904D02*
X10157496Y-17556904D01*
X10157496Y-17556904D02*
X10176544Y-17566428D01*
X10176544Y-17566428D02*
X10186068Y-17575951D01*
X10186068Y-17575951D02*
X10195591Y-17594999D01*
X10195591Y-17594999D02*
X10205115Y-17633094D01*
X10205115Y-17633094D02*
X10205115Y-17680713D01*
X10205115Y-17680713D02*
X10195591Y-17718809D01*
X10195591Y-17718809D02*
X10186068Y-17737856D01*
X10186068Y-17737856D02*
X10176544Y-17747380D01*
X10176544Y-17747380D02*
X10157496Y-17756904D01*
X10157496Y-17756904D02*
X10138449Y-17756904D01*
X10138449Y-17756904D02*
X10119401Y-17747380D01*
X10119401Y-17747380D02*
X10109877Y-17737856D01*
X10109877Y-17737856D02*
X10100353Y-17718809D01*
X10100353Y-17718809D02*
X10090830Y-17680713D01*
X10090830Y-17680713D02*
X10090830Y-17633094D01*
X10090830Y-17633094D02*
X10100353Y-17594999D01*
X10100353Y-17594999D02*
X10109877Y-17575951D01*
X10109877Y-17575951D02*
X10119401Y-17566428D01*
X10119401Y-17566428D02*
X10138449Y-17556904D01*
X10443211Y-17756904D02*
X10443211Y-17556904D01*
X10528925Y-17756904D02*
X10528925Y-17652142D01*
X10528925Y-17652142D02*
X10519401Y-17633094D01*
X10519401Y-17633094D02*
X10500353Y-17623570D01*
X10500353Y-17623570D02*
X10471782Y-17623570D01*
X10471782Y-17623570D02*
X10452734Y-17633094D01*
X10452734Y-17633094D02*
X10443211Y-17642618D01*
X10652734Y-17756904D02*
X10633687Y-17747380D01*
X10633687Y-17747380D02*
X10624163Y-17737856D01*
X10624163Y-17737856D02*
X10614639Y-17718809D01*
X10614639Y-17718809D02*
X10614639Y-17661666D01*
X10614639Y-17661666D02*
X10624163Y-17642618D01*
X10624163Y-17642618D02*
X10633687Y-17633094D01*
X10633687Y-17633094D02*
X10652734Y-17623570D01*
X10652734Y-17623570D02*
X10681306Y-17623570D01*
X10681306Y-17623570D02*
X10700353Y-17633094D01*
X10700353Y-17633094D02*
X10709877Y-17642618D01*
X10709877Y-17642618D02*
X10719401Y-17661666D01*
X10719401Y-17661666D02*
X10719401Y-17718809D01*
X10719401Y-17718809D02*
X10709877Y-17737856D01*
X10709877Y-17737856D02*
X10700353Y-17747380D01*
X10700353Y-17747380D02*
X10681306Y-17756904D01*
X10681306Y-17756904D02*
X10652734Y-17756904D01*
X10833687Y-17756904D02*
X10814639Y-17747380D01*
X10814639Y-17747380D02*
X10805115Y-17728332D01*
X10805115Y-17728332D02*
X10805115Y-17556904D01*
X10986068Y-17747380D02*
X10967020Y-17756904D01*
X10967020Y-17756904D02*
X10928925Y-17756904D01*
X10928925Y-17756904D02*
X10909877Y-17747380D01*
X10909877Y-17747380D02*
X10900353Y-17728332D01*
X10900353Y-17728332D02*
X10900353Y-17652142D01*
X10900353Y-17652142D02*
X10909877Y-17633094D01*
X10909877Y-17633094D02*
X10928925Y-17623570D01*
X10928925Y-17623570D02*
X10967020Y-17623570D01*
X10967020Y-17623570D02*
X10986068Y-17633094D01*
X10986068Y-17633094D02*
X10995592Y-17652142D01*
X10995592Y-17652142D02*
X10995592Y-17671190D01*
X10995592Y-17671190D02*
X10900353Y-17690237D01*
X11071782Y-17747380D02*
X11090830Y-17756904D01*
X11090830Y-17756904D02*
X11128925Y-17756904D01*
X11128925Y-17756904D02*
X11147973Y-17747380D01*
X11147973Y-17747380D02*
X11157496Y-17728332D01*
X11157496Y-17728332D02*
X11157496Y-17718809D01*
X11157496Y-17718809D02*
X11147973Y-17699761D01*
X11147973Y-17699761D02*
X11128925Y-17690237D01*
X11128925Y-17690237D02*
X11100353Y-17690237D01*
X11100353Y-17690237D02*
X11081306Y-17680713D01*
X11081306Y-17680713D02*
X11071782Y-17661666D01*
X11071782Y-17661666D02*
X11071782Y-17652142D01*
X11071782Y-17652142D02*
X11081306Y-17633094D01*
X11081306Y-17633094D02*
X11100353Y-17623570D01*
X11100353Y-17623570D02*
X11128925Y-17623570D01*
X11128925Y-17623570D02*
X11147973Y-17633094D01*
X11395592Y-17680713D02*
X11547973Y-17680713D01*
X11471782Y-17756904D02*
X11471782Y-17604523D01*
X11881306Y-17623570D02*
X11881306Y-17756904D01*
X11833687Y-17547380D02*
X11786068Y-17690237D01*
X11786068Y-17690237D02*
X11909877Y-17690237D01*
X12128925Y-17747380D02*
X12147973Y-17756904D01*
X12147973Y-17756904D02*
X12186068Y-17756904D01*
X12186068Y-17756904D02*
X12205115Y-17747380D01*
X12205115Y-17747380D02*
X12214639Y-17728332D01*
X12214639Y-17728332D02*
X12214639Y-17718809D01*
X12214639Y-17718809D02*
X12205115Y-17699761D01*
X12205115Y-17699761D02*
X12186068Y-17690237D01*
X12186068Y-17690237D02*
X12157496Y-17690237D01*
X12157496Y-17690237D02*
X12138449Y-17680713D01*
X12138449Y-17680713D02*
X12128925Y-17661666D01*
X12128925Y-17661666D02*
X12128925Y-17652142D01*
X12128925Y-17652142D02*
X12138449Y-17633094D01*
X12138449Y-17633094D02*
X12157496Y-17623570D01*
X12157496Y-17623570D02*
X12186068Y-17623570D01*
X12186068Y-17623570D02*
X12205115Y-17633094D01*
X12328925Y-17756904D02*
X12309877Y-17747380D01*
X12309877Y-17747380D02*
X12300354Y-17728332D01*
X12300354Y-17728332D02*
X12300354Y-17556904D01*
X12433687Y-17756904D02*
X12414639Y-17747380D01*
X12414639Y-17747380D02*
X12405115Y-17737856D01*
X12405115Y-17737856D02*
X12395592Y-17718809D01*
X12395592Y-17718809D02*
X12395592Y-17661666D01*
X12395592Y-17661666D02*
X12405115Y-17642618D01*
X12405115Y-17642618D02*
X12414639Y-17633094D01*
X12414639Y-17633094D02*
X12433687Y-17623570D01*
X12433687Y-17623570D02*
X12462258Y-17623570D01*
X12462258Y-17623570D02*
X12481306Y-17633094D01*
X12481306Y-17633094D02*
X12490830Y-17642618D01*
X12490830Y-17642618D02*
X12500354Y-17661666D01*
X12500354Y-17661666D02*
X12500354Y-17718809D01*
X12500354Y-17718809D02*
X12490830Y-17737856D01*
X12490830Y-17737856D02*
X12481306Y-17747380D01*
X12481306Y-17747380D02*
X12462258Y-17756904D01*
X12462258Y-17756904D02*
X12433687Y-17756904D01*
X12557496Y-17623570D02*
X12633687Y-17623570D01*
X12586068Y-17556904D02*
X12586068Y-17728332D01*
X12586068Y-17728332D02*
X12595592Y-17747380D01*
X12595592Y-17747380D02*
X12614639Y-17756904D01*
X12614639Y-17756904D02*
X12633687Y-17756904D01*
X12690830Y-17747380D02*
X12709877Y-17756904D01*
X12709877Y-17756904D02*
X12747973Y-17756904D01*
X12747973Y-17756904D02*
X12767020Y-17747380D01*
X12767020Y-17747380D02*
X12776544Y-17728332D01*
X12776544Y-17728332D02*
X12776544Y-17718809D01*
X12776544Y-17718809D02*
X12767020Y-17699761D01*
X12767020Y-17699761D02*
X12747973Y-17690237D01*
X12747973Y-17690237D02*
X12719401Y-17690237D01*
X12719401Y-17690237D02*
X12700354Y-17680713D01*
X12700354Y-17680713D02*
X12690830Y-17661666D01*
X12690830Y-17661666D02*
X12690830Y-17652142D01*
X12690830Y-17652142D02*
X12700354Y-17633094D01*
X12700354Y-17633094D02*
X12719401Y-17623570D01*
X12719401Y-17623570D02*
X12747973Y-17623570D01*
X12747973Y-17623570D02*
X12767020Y-17633094D01*
X12843211Y-17833094D02*
X12852735Y-17823570D01*
X12852735Y-17823570D02*
X12871782Y-17794999D01*
X12871782Y-17794999D02*
X12881306Y-17775951D01*
X12881306Y-17775951D02*
X12890830Y-17747380D01*
X12890830Y-17747380D02*
X12900354Y-17699761D01*
X12900354Y-17699761D02*
X12900354Y-17661666D01*
X12900354Y-17661666D02*
X12890830Y-17614047D01*
X12890830Y-17614047D02*
X12881306Y-17585475D01*
X12881306Y-17585475D02*
X12871782Y-17566428D01*
X12871782Y-17566428D02*
X12852735Y-17537856D01*
X12852735Y-17537856D02*
X12843211Y-17528332D01*
D12*
X6419100Y-17899420D02*
X6419100Y-17959420D01*
X6389100Y-17929420D02*
X6449100Y-17929420D01*
D11*
X6747972Y-17820904D02*
X6767020Y-17820904D01*
X6767020Y-17820904D02*
X6786067Y-17830428D01*
X6786067Y-17830428D02*
X6795591Y-17839951D01*
X6795591Y-17839951D02*
X6805115Y-17858999D01*
X6805115Y-17858999D02*
X6814639Y-17897094D01*
X6814639Y-17897094D02*
X6814639Y-17944713D01*
X6814639Y-17944713D02*
X6805115Y-17982809D01*
X6805115Y-17982809D02*
X6795591Y-18001856D01*
X6795591Y-18001856D02*
X6786067Y-18011380D01*
X6786067Y-18011380D02*
X6767020Y-18020904D01*
X6767020Y-18020904D02*
X6747972Y-18020904D01*
X6747972Y-18020904D02*
X6728924Y-18011380D01*
X6728924Y-18011380D02*
X6719401Y-18001856D01*
X6719401Y-18001856D02*
X6709877Y-17982809D01*
X6709877Y-17982809D02*
X6700353Y-17944713D01*
X6700353Y-17944713D02*
X6700353Y-17897094D01*
X6700353Y-17897094D02*
X6709877Y-17858999D01*
X6709877Y-17858999D02*
X6719401Y-17839951D01*
X6719401Y-17839951D02*
X6728924Y-17830428D01*
X6728924Y-17830428D02*
X6747972Y-17820904D01*
X6900353Y-18001856D02*
X6909877Y-18011380D01*
X6909877Y-18011380D02*
X6900353Y-18020904D01*
X6900353Y-18020904D02*
X6890829Y-18011380D01*
X6890829Y-18011380D02*
X6900353Y-18001856D01*
X6900353Y-18001856D02*
X6900353Y-18020904D01*
X7081305Y-17820904D02*
X7043210Y-17820904D01*
X7043210Y-17820904D02*
X7024162Y-17830428D01*
X7024162Y-17830428D02*
X7014639Y-17839951D01*
X7014639Y-17839951D02*
X6995591Y-17868523D01*
X6995591Y-17868523D02*
X6986067Y-17906618D01*
X6986067Y-17906618D02*
X6986067Y-17982809D01*
X6986067Y-17982809D02*
X6995591Y-18001856D01*
X6995591Y-18001856D02*
X7005115Y-18011380D01*
X7005115Y-18011380D02*
X7024162Y-18020904D01*
X7024162Y-18020904D02*
X7062258Y-18020904D01*
X7062258Y-18020904D02*
X7081305Y-18011380D01*
X7081305Y-18011380D02*
X7090829Y-18001856D01*
X7090829Y-18001856D02*
X7100353Y-17982809D01*
X7100353Y-17982809D02*
X7100353Y-17935190D01*
X7100353Y-17935190D02*
X7090829Y-17916142D01*
X7090829Y-17916142D02*
X7081305Y-17906618D01*
X7081305Y-17906618D02*
X7062258Y-17897094D01*
X7062258Y-17897094D02*
X7024162Y-17897094D01*
X7024162Y-17897094D02*
X7005115Y-17906618D01*
X7005115Y-17906618D02*
X6995591Y-17916142D01*
X6995591Y-17916142D02*
X6986067Y-17935190D01*
X7224162Y-17820904D02*
X7243210Y-17820904D01*
X7243210Y-17820904D02*
X7262258Y-17830428D01*
X7262258Y-17830428D02*
X7271782Y-17839951D01*
X7271782Y-17839951D02*
X7281305Y-17858999D01*
X7281305Y-17858999D02*
X7290829Y-17897094D01*
X7290829Y-17897094D02*
X7290829Y-17944713D01*
X7290829Y-17944713D02*
X7281305Y-17982809D01*
X7281305Y-17982809D02*
X7271782Y-18001856D01*
X7271782Y-18001856D02*
X7262258Y-18011380D01*
X7262258Y-18011380D02*
X7243210Y-18020904D01*
X7243210Y-18020904D02*
X7224162Y-18020904D01*
X7224162Y-18020904D02*
X7205115Y-18011380D01*
X7205115Y-18011380D02*
X7195591Y-18001856D01*
X7195591Y-18001856D02*
X7186067Y-17982809D01*
X7186067Y-17982809D02*
X7176543Y-17944713D01*
X7176543Y-17944713D02*
X7176543Y-17897094D01*
X7176543Y-17897094D02*
X7186067Y-17858999D01*
X7186067Y-17858999D02*
X7195591Y-17839951D01*
X7195591Y-17839951D02*
X7205115Y-17830428D01*
X7205115Y-17830428D02*
X7224162Y-17820904D01*
X7414639Y-17820904D02*
X7433686Y-17820904D01*
X7433686Y-17820904D02*
X7452734Y-17830428D01*
X7452734Y-17830428D02*
X7462258Y-17839951D01*
X7462258Y-17839951D02*
X7471782Y-17858999D01*
X7471782Y-17858999D02*
X7481305Y-17897094D01*
X7481305Y-17897094D02*
X7481305Y-17944713D01*
X7481305Y-17944713D02*
X7471782Y-17982809D01*
X7471782Y-17982809D02*
X7462258Y-18001856D01*
X7462258Y-18001856D02*
X7452734Y-18011380D01*
X7452734Y-18011380D02*
X7433686Y-18020904D01*
X7433686Y-18020904D02*
X7414639Y-18020904D01*
X7414639Y-18020904D02*
X7395591Y-18011380D01*
X7395591Y-18011380D02*
X7386067Y-18001856D01*
X7386067Y-18001856D02*
X7376543Y-17982809D01*
X7376543Y-17982809D02*
X7367020Y-17944713D01*
X7367020Y-17944713D02*
X7367020Y-17897094D01*
X7367020Y-17897094D02*
X7376543Y-17858999D01*
X7376543Y-17858999D02*
X7386067Y-17839951D01*
X7386067Y-17839951D02*
X7395591Y-17830428D01*
X7395591Y-17830428D02*
X7414639Y-17820904D01*
X7567020Y-18020904D02*
X7567020Y-17887570D01*
X7567020Y-17906618D02*
X7576543Y-17897094D01*
X7576543Y-17897094D02*
X7595591Y-17887570D01*
X7595591Y-17887570D02*
X7624163Y-17887570D01*
X7624163Y-17887570D02*
X7643210Y-17897094D01*
X7643210Y-17897094D02*
X7652734Y-17916142D01*
X7652734Y-17916142D02*
X7652734Y-18020904D01*
X7652734Y-17916142D02*
X7662258Y-17897094D01*
X7662258Y-17897094D02*
X7681305Y-17887570D01*
X7681305Y-17887570D02*
X7709877Y-17887570D01*
X7709877Y-17887570D02*
X7728924Y-17897094D01*
X7728924Y-17897094D02*
X7738448Y-17916142D01*
X7738448Y-17916142D02*
X7738448Y-18020904D01*
X7833686Y-18020904D02*
X7833686Y-17887570D01*
X7833686Y-17906618D02*
X7843210Y-17897094D01*
X7843210Y-17897094D02*
X7862258Y-17887570D01*
X7862258Y-17887570D02*
X7890829Y-17887570D01*
X7890829Y-17887570D02*
X7909877Y-17897094D01*
X7909877Y-17897094D02*
X7919401Y-17916142D01*
X7919401Y-17916142D02*
X7919401Y-18020904D01*
X7919401Y-17916142D02*
X7928924Y-17897094D01*
X7928924Y-17897094D02*
X7947972Y-17887570D01*
X7947972Y-17887570D02*
X7976543Y-17887570D01*
X7976543Y-17887570D02*
X7995591Y-17897094D01*
X7995591Y-17897094D02*
X8005115Y-17916142D01*
X8005115Y-17916142D02*
X8005115Y-18020904D01*
X8395591Y-17811380D02*
X8224163Y-18068523D01*
X8652734Y-17820904D02*
X8671782Y-17820904D01*
X8671782Y-17820904D02*
X8690829Y-17830428D01*
X8690829Y-17830428D02*
X8700353Y-17839951D01*
X8700353Y-17839951D02*
X8709877Y-17858999D01*
X8709877Y-17858999D02*
X8719401Y-17897094D01*
X8719401Y-17897094D02*
X8719401Y-17944713D01*
X8719401Y-17944713D02*
X8709877Y-17982809D01*
X8709877Y-17982809D02*
X8700353Y-18001856D01*
X8700353Y-18001856D02*
X8690829Y-18011380D01*
X8690829Y-18011380D02*
X8671782Y-18020904D01*
X8671782Y-18020904D02*
X8652734Y-18020904D01*
X8652734Y-18020904D02*
X8633687Y-18011380D01*
X8633687Y-18011380D02*
X8624163Y-18001856D01*
X8624163Y-18001856D02*
X8614639Y-17982809D01*
X8614639Y-17982809D02*
X8605115Y-17944713D01*
X8605115Y-17944713D02*
X8605115Y-17897094D01*
X8605115Y-17897094D02*
X8614639Y-17858999D01*
X8614639Y-17858999D02*
X8624163Y-17839951D01*
X8624163Y-17839951D02*
X8633687Y-17830428D01*
X8633687Y-17830428D02*
X8652734Y-17820904D01*
X8805115Y-18001856D02*
X8814639Y-18011380D01*
X8814639Y-18011380D02*
X8805115Y-18020904D01*
X8805115Y-18020904D02*
X8795591Y-18011380D01*
X8795591Y-18011380D02*
X8805115Y-18001856D01*
X8805115Y-18001856D02*
X8805115Y-18020904D01*
X8938448Y-17820904D02*
X8957496Y-17820904D01*
X8957496Y-17820904D02*
X8976544Y-17830428D01*
X8976544Y-17830428D02*
X8986068Y-17839951D01*
X8986068Y-17839951D02*
X8995591Y-17858999D01*
X8995591Y-17858999D02*
X9005115Y-17897094D01*
X9005115Y-17897094D02*
X9005115Y-17944713D01*
X9005115Y-17944713D02*
X8995591Y-17982809D01*
X8995591Y-17982809D02*
X8986068Y-18001856D01*
X8986068Y-18001856D02*
X8976544Y-18011380D01*
X8976544Y-18011380D02*
X8957496Y-18020904D01*
X8957496Y-18020904D02*
X8938448Y-18020904D01*
X8938448Y-18020904D02*
X8919401Y-18011380D01*
X8919401Y-18011380D02*
X8909877Y-18001856D01*
X8909877Y-18001856D02*
X8900353Y-17982809D01*
X8900353Y-17982809D02*
X8890829Y-17944713D01*
X8890829Y-17944713D02*
X8890829Y-17897094D01*
X8890829Y-17897094D02*
X8900353Y-17858999D01*
X8900353Y-17858999D02*
X8909877Y-17839951D01*
X8909877Y-17839951D02*
X8919401Y-17830428D01*
X8919401Y-17830428D02*
X8938448Y-17820904D01*
X9081306Y-17839951D02*
X9090829Y-17830428D01*
X9090829Y-17830428D02*
X9109877Y-17820904D01*
X9109877Y-17820904D02*
X9157496Y-17820904D01*
X9157496Y-17820904D02*
X9176544Y-17830428D01*
X9176544Y-17830428D02*
X9186068Y-17839951D01*
X9186068Y-17839951D02*
X9195591Y-17858999D01*
X9195591Y-17858999D02*
X9195591Y-17878047D01*
X9195591Y-17878047D02*
X9186068Y-17906618D01*
X9186068Y-17906618D02*
X9071782Y-18020904D01*
X9071782Y-18020904D02*
X9195591Y-18020904D01*
X9262258Y-17820904D02*
X9386068Y-17820904D01*
X9386068Y-17820904D02*
X9319401Y-17897094D01*
X9319401Y-17897094D02*
X9347972Y-17897094D01*
X9347972Y-17897094D02*
X9367020Y-17906618D01*
X9367020Y-17906618D02*
X9376544Y-17916142D01*
X9376544Y-17916142D02*
X9386068Y-17935190D01*
X9386068Y-17935190D02*
X9386068Y-17982809D01*
X9386068Y-17982809D02*
X9376544Y-18001856D01*
X9376544Y-18001856D02*
X9367020Y-18011380D01*
X9367020Y-18011380D02*
X9347972Y-18020904D01*
X9347972Y-18020904D02*
X9290829Y-18020904D01*
X9290829Y-18020904D02*
X9271782Y-18011380D01*
X9271782Y-18011380D02*
X9262258Y-18001856D01*
X9557496Y-17820904D02*
X9519401Y-17820904D01*
X9519401Y-17820904D02*
X9500353Y-17830428D01*
X9500353Y-17830428D02*
X9490829Y-17839951D01*
X9490829Y-17839951D02*
X9471782Y-17868523D01*
X9471782Y-17868523D02*
X9462258Y-17906618D01*
X9462258Y-17906618D02*
X9462258Y-17982809D01*
X9462258Y-17982809D02*
X9471782Y-18001856D01*
X9471782Y-18001856D02*
X9481306Y-18011380D01*
X9481306Y-18011380D02*
X9500353Y-18020904D01*
X9500353Y-18020904D02*
X9538449Y-18020904D01*
X9538449Y-18020904D02*
X9557496Y-18011380D01*
X9557496Y-18011380D02*
X9567020Y-18001856D01*
X9567020Y-18001856D02*
X9576544Y-17982809D01*
X9576544Y-17982809D02*
X9576544Y-17935190D01*
X9576544Y-17935190D02*
X9567020Y-17916142D01*
X9567020Y-17916142D02*
X9557496Y-17906618D01*
X9557496Y-17906618D02*
X9538449Y-17897094D01*
X9538449Y-17897094D02*
X9500353Y-17897094D01*
X9500353Y-17897094D02*
X9481306Y-17906618D01*
X9481306Y-17906618D02*
X9471782Y-17916142D01*
X9471782Y-17916142D02*
X9462258Y-17935190D01*
X9652734Y-17820904D02*
X9652734Y-17858999D01*
X9728925Y-17820904D02*
X9728925Y-17858999D01*
X10024163Y-18097094D02*
X10014639Y-18087570D01*
X10014639Y-18087570D02*
X9995591Y-18058999D01*
X9995591Y-18058999D02*
X9986068Y-18039951D01*
X9986068Y-18039951D02*
X9976544Y-18011380D01*
X9976544Y-18011380D02*
X9967020Y-17963761D01*
X9967020Y-17963761D02*
X9967020Y-17925666D01*
X9967020Y-17925666D02*
X9976544Y-17878047D01*
X9976544Y-17878047D02*
X9986068Y-17849475D01*
X9986068Y-17849475D02*
X9995591Y-17830428D01*
X9995591Y-17830428D02*
X10014639Y-17801856D01*
X10014639Y-17801856D02*
X10024163Y-17792332D01*
X10138449Y-17820904D02*
X10157496Y-17820904D01*
X10157496Y-17820904D02*
X10176544Y-17830428D01*
X10176544Y-17830428D02*
X10186068Y-17839951D01*
X10186068Y-17839951D02*
X10195591Y-17858999D01*
X10195591Y-17858999D02*
X10205115Y-17897094D01*
X10205115Y-17897094D02*
X10205115Y-17944713D01*
X10205115Y-17944713D02*
X10195591Y-17982809D01*
X10195591Y-17982809D02*
X10186068Y-18001856D01*
X10186068Y-18001856D02*
X10176544Y-18011380D01*
X10176544Y-18011380D02*
X10157496Y-18020904D01*
X10157496Y-18020904D02*
X10138449Y-18020904D01*
X10138449Y-18020904D02*
X10119401Y-18011380D01*
X10119401Y-18011380D02*
X10109877Y-18001856D01*
X10109877Y-18001856D02*
X10100353Y-17982809D01*
X10100353Y-17982809D02*
X10090830Y-17944713D01*
X10090830Y-17944713D02*
X10090830Y-17897094D01*
X10090830Y-17897094D02*
X10100353Y-17858999D01*
X10100353Y-17858999D02*
X10109877Y-17839951D01*
X10109877Y-17839951D02*
X10119401Y-17830428D01*
X10119401Y-17830428D02*
X10138449Y-17820904D01*
X10443211Y-18020904D02*
X10443211Y-17820904D01*
X10528925Y-18020904D02*
X10528925Y-17916142D01*
X10528925Y-17916142D02*
X10519401Y-17897094D01*
X10519401Y-17897094D02*
X10500353Y-17887570D01*
X10500353Y-17887570D02*
X10471782Y-17887570D01*
X10471782Y-17887570D02*
X10452734Y-17897094D01*
X10452734Y-17897094D02*
X10443211Y-17906618D01*
X10652734Y-18020904D02*
X10633687Y-18011380D01*
X10633687Y-18011380D02*
X10624163Y-18001856D01*
X10624163Y-18001856D02*
X10614639Y-17982809D01*
X10614639Y-17982809D02*
X10614639Y-17925666D01*
X10614639Y-17925666D02*
X10624163Y-17906618D01*
X10624163Y-17906618D02*
X10633687Y-17897094D01*
X10633687Y-17897094D02*
X10652734Y-17887570D01*
X10652734Y-17887570D02*
X10681306Y-17887570D01*
X10681306Y-17887570D02*
X10700353Y-17897094D01*
X10700353Y-17897094D02*
X10709877Y-17906618D01*
X10709877Y-17906618D02*
X10719401Y-17925666D01*
X10719401Y-17925666D02*
X10719401Y-17982809D01*
X10719401Y-17982809D02*
X10709877Y-18001856D01*
X10709877Y-18001856D02*
X10700353Y-18011380D01*
X10700353Y-18011380D02*
X10681306Y-18020904D01*
X10681306Y-18020904D02*
X10652734Y-18020904D01*
X10833687Y-18020904D02*
X10814639Y-18011380D01*
X10814639Y-18011380D02*
X10805115Y-17992332D01*
X10805115Y-17992332D02*
X10805115Y-17820904D01*
X10986068Y-18011380D02*
X10967020Y-18020904D01*
X10967020Y-18020904D02*
X10928925Y-18020904D01*
X10928925Y-18020904D02*
X10909877Y-18011380D01*
X10909877Y-18011380D02*
X10900353Y-17992332D01*
X10900353Y-17992332D02*
X10900353Y-17916142D01*
X10900353Y-17916142D02*
X10909877Y-17897094D01*
X10909877Y-17897094D02*
X10928925Y-17887570D01*
X10928925Y-17887570D02*
X10967020Y-17887570D01*
X10967020Y-17887570D02*
X10986068Y-17897094D01*
X10986068Y-17897094D02*
X10995592Y-17916142D01*
X10995592Y-17916142D02*
X10995592Y-17935190D01*
X10995592Y-17935190D02*
X10900353Y-17954237D01*
X11071782Y-18011380D02*
X11090830Y-18020904D01*
X11090830Y-18020904D02*
X11128925Y-18020904D01*
X11128925Y-18020904D02*
X11147973Y-18011380D01*
X11147973Y-18011380D02*
X11157496Y-17992332D01*
X11157496Y-17992332D02*
X11157496Y-17982809D01*
X11157496Y-17982809D02*
X11147973Y-17963761D01*
X11147973Y-17963761D02*
X11128925Y-17954237D01*
X11128925Y-17954237D02*
X11100353Y-17954237D01*
X11100353Y-17954237D02*
X11081306Y-17944713D01*
X11081306Y-17944713D02*
X11071782Y-17925666D01*
X11071782Y-17925666D02*
X11071782Y-17916142D01*
X11071782Y-17916142D02*
X11081306Y-17897094D01*
X11081306Y-17897094D02*
X11100353Y-17887570D01*
X11100353Y-17887570D02*
X11128925Y-17887570D01*
X11128925Y-17887570D02*
X11147973Y-17897094D01*
X11395592Y-17944713D02*
X11547973Y-17944713D01*
X11471782Y-18020904D02*
X11471782Y-17868523D01*
X11881306Y-17887570D02*
X11881306Y-18020904D01*
X11833687Y-17811380D02*
X11786068Y-17954237D01*
X11786068Y-17954237D02*
X11909877Y-17954237D01*
X12128925Y-18011380D02*
X12147973Y-18020904D01*
X12147973Y-18020904D02*
X12186068Y-18020904D01*
X12186068Y-18020904D02*
X12205115Y-18011380D01*
X12205115Y-18011380D02*
X12214639Y-17992332D01*
X12214639Y-17992332D02*
X12214639Y-17982809D01*
X12214639Y-17982809D02*
X12205115Y-17963761D01*
X12205115Y-17963761D02*
X12186068Y-17954237D01*
X12186068Y-17954237D02*
X12157496Y-17954237D01*
X12157496Y-17954237D02*
X12138449Y-17944713D01*
X12138449Y-17944713D02*
X12128925Y-17925666D01*
X12128925Y-17925666D02*
X12128925Y-17916142D01*
X12128925Y-17916142D02*
X12138449Y-17897094D01*
X12138449Y-17897094D02*
X12157496Y-17887570D01*
X12157496Y-17887570D02*
X12186068Y-17887570D01*
X12186068Y-17887570D02*
X12205115Y-17897094D01*
X12328925Y-18020904D02*
X12309877Y-18011380D01*
X12309877Y-18011380D02*
X12300354Y-17992332D01*
X12300354Y-17992332D02*
X12300354Y-17820904D01*
X12433687Y-18020904D02*
X12414639Y-18011380D01*
X12414639Y-18011380D02*
X12405115Y-18001856D01*
X12405115Y-18001856D02*
X12395592Y-17982809D01*
X12395592Y-17982809D02*
X12395592Y-17925666D01*
X12395592Y-17925666D02*
X12405115Y-17906618D01*
X12405115Y-17906618D02*
X12414639Y-17897094D01*
X12414639Y-17897094D02*
X12433687Y-17887570D01*
X12433687Y-17887570D02*
X12462258Y-17887570D01*
X12462258Y-17887570D02*
X12481306Y-17897094D01*
X12481306Y-17897094D02*
X12490830Y-17906618D01*
X12490830Y-17906618D02*
X12500354Y-17925666D01*
X12500354Y-17925666D02*
X12500354Y-17982809D01*
X12500354Y-17982809D02*
X12490830Y-18001856D01*
X12490830Y-18001856D02*
X12481306Y-18011380D01*
X12481306Y-18011380D02*
X12462258Y-18020904D01*
X12462258Y-18020904D02*
X12433687Y-18020904D01*
X12557496Y-17887570D02*
X12633687Y-17887570D01*
X12586068Y-17820904D02*
X12586068Y-17992332D01*
X12586068Y-17992332D02*
X12595592Y-18011380D01*
X12595592Y-18011380D02*
X12614639Y-18020904D01*
X12614639Y-18020904D02*
X12633687Y-18020904D01*
X12690830Y-18011380D02*
X12709877Y-18020904D01*
X12709877Y-18020904D02*
X12747973Y-18020904D01*
X12747973Y-18020904D02*
X12767020Y-18011380D01*
X12767020Y-18011380D02*
X12776544Y-17992332D01*
X12776544Y-17992332D02*
X12776544Y-17982809D01*
X12776544Y-17982809D02*
X12767020Y-17963761D01*
X12767020Y-17963761D02*
X12747973Y-17954237D01*
X12747973Y-17954237D02*
X12719401Y-17954237D01*
X12719401Y-17954237D02*
X12700354Y-17944713D01*
X12700354Y-17944713D02*
X12690830Y-17925666D01*
X12690830Y-17925666D02*
X12690830Y-17916142D01*
X12690830Y-17916142D02*
X12700354Y-17897094D01*
X12700354Y-17897094D02*
X12719401Y-17887570D01*
X12719401Y-17887570D02*
X12747973Y-17887570D01*
X12747973Y-17887570D02*
X12767020Y-17897094D01*
X12843211Y-18097094D02*
X12852735Y-18087570D01*
X12852735Y-18087570D02*
X12871782Y-18058999D01*
X12871782Y-18058999D02*
X12881306Y-18039951D01*
X12881306Y-18039951D02*
X12890830Y-18011380D01*
X12890830Y-18011380D02*
X12900354Y-17963761D01*
X12900354Y-17963761D02*
X12900354Y-17925666D01*
X12900354Y-17925666D02*
X12890830Y-17878047D01*
X12890830Y-17878047D02*
X12881306Y-17849475D01*
X12881306Y-17849475D02*
X12871782Y-17830428D01*
X12871782Y-17830428D02*
X12852735Y-17801856D01*
X12852735Y-17801856D02*
X12843211Y-17792332D01*
D13*
X6427133Y-18246454D02*
X6427133Y-18140387D01*
X6321066Y-18140387D01*
X6321066Y-18246454D01*
X6427133Y-18246454D01*
D11*
X6814639Y-18284904D02*
X6700353Y-18284904D01*
X6757496Y-18284904D02*
X6757496Y-18084904D01*
X6757496Y-18084904D02*
X6738448Y-18113475D01*
X6738448Y-18113475D02*
X6719401Y-18132523D01*
X6719401Y-18132523D02*
X6700353Y-18142047D01*
X6900353Y-18265856D02*
X6909877Y-18275380D01*
X6909877Y-18275380D02*
X6900353Y-18284904D01*
X6900353Y-18284904D02*
X6890829Y-18275380D01*
X6890829Y-18275380D02*
X6900353Y-18265856D01*
X6900353Y-18265856D02*
X6900353Y-18284904D01*
X7090829Y-18084904D02*
X6995591Y-18084904D01*
X6995591Y-18084904D02*
X6986067Y-18180142D01*
X6986067Y-18180142D02*
X6995591Y-18170618D01*
X6995591Y-18170618D02*
X7014639Y-18161094D01*
X7014639Y-18161094D02*
X7062258Y-18161094D01*
X7062258Y-18161094D02*
X7081305Y-18170618D01*
X7081305Y-18170618D02*
X7090829Y-18180142D01*
X7090829Y-18180142D02*
X7100353Y-18199190D01*
X7100353Y-18199190D02*
X7100353Y-18246809D01*
X7100353Y-18246809D02*
X7090829Y-18265856D01*
X7090829Y-18265856D02*
X7081305Y-18275380D01*
X7081305Y-18275380D02*
X7062258Y-18284904D01*
X7062258Y-18284904D02*
X7014639Y-18284904D01*
X7014639Y-18284904D02*
X6995591Y-18275380D01*
X6995591Y-18275380D02*
X6986067Y-18265856D01*
X7224162Y-18084904D02*
X7243210Y-18084904D01*
X7243210Y-18084904D02*
X7262258Y-18094428D01*
X7262258Y-18094428D02*
X7271782Y-18103951D01*
X7271782Y-18103951D02*
X7281305Y-18122999D01*
X7281305Y-18122999D02*
X7290829Y-18161094D01*
X7290829Y-18161094D02*
X7290829Y-18208713D01*
X7290829Y-18208713D02*
X7281305Y-18246809D01*
X7281305Y-18246809D02*
X7271782Y-18265856D01*
X7271782Y-18265856D02*
X7262258Y-18275380D01*
X7262258Y-18275380D02*
X7243210Y-18284904D01*
X7243210Y-18284904D02*
X7224162Y-18284904D01*
X7224162Y-18284904D02*
X7205115Y-18275380D01*
X7205115Y-18275380D02*
X7195591Y-18265856D01*
X7195591Y-18265856D02*
X7186067Y-18246809D01*
X7186067Y-18246809D02*
X7176543Y-18208713D01*
X7176543Y-18208713D02*
X7176543Y-18161094D01*
X7176543Y-18161094D02*
X7186067Y-18122999D01*
X7186067Y-18122999D02*
X7195591Y-18103951D01*
X7195591Y-18103951D02*
X7205115Y-18094428D01*
X7205115Y-18094428D02*
X7224162Y-18084904D01*
X7414639Y-18084904D02*
X7433686Y-18084904D01*
X7433686Y-18084904D02*
X7452734Y-18094428D01*
X7452734Y-18094428D02*
X7462258Y-18103951D01*
X7462258Y-18103951D02*
X7471782Y-18122999D01*
X7471782Y-18122999D02*
X7481305Y-18161094D01*
X7481305Y-18161094D02*
X7481305Y-18208713D01*
X7481305Y-18208713D02*
X7471782Y-18246809D01*
X7471782Y-18246809D02*
X7462258Y-18265856D01*
X7462258Y-18265856D02*
X7452734Y-18275380D01*
X7452734Y-18275380D02*
X7433686Y-18284904D01*
X7433686Y-18284904D02*
X7414639Y-18284904D01*
X7414639Y-18284904D02*
X7395591Y-18275380D01*
X7395591Y-18275380D02*
X7386067Y-18265856D01*
X7386067Y-18265856D02*
X7376543Y-18246809D01*
X7376543Y-18246809D02*
X7367020Y-18208713D01*
X7367020Y-18208713D02*
X7367020Y-18161094D01*
X7367020Y-18161094D02*
X7376543Y-18122999D01*
X7376543Y-18122999D02*
X7386067Y-18103951D01*
X7386067Y-18103951D02*
X7395591Y-18094428D01*
X7395591Y-18094428D02*
X7414639Y-18084904D01*
X7567020Y-18284904D02*
X7567020Y-18151570D01*
X7567020Y-18170618D02*
X7576543Y-18161094D01*
X7576543Y-18161094D02*
X7595591Y-18151570D01*
X7595591Y-18151570D02*
X7624163Y-18151570D01*
X7624163Y-18151570D02*
X7643210Y-18161094D01*
X7643210Y-18161094D02*
X7652734Y-18180142D01*
X7652734Y-18180142D02*
X7652734Y-18284904D01*
X7652734Y-18180142D02*
X7662258Y-18161094D01*
X7662258Y-18161094D02*
X7681305Y-18151570D01*
X7681305Y-18151570D02*
X7709877Y-18151570D01*
X7709877Y-18151570D02*
X7728924Y-18161094D01*
X7728924Y-18161094D02*
X7738448Y-18180142D01*
X7738448Y-18180142D02*
X7738448Y-18284904D01*
X7833686Y-18284904D02*
X7833686Y-18151570D01*
X7833686Y-18170618D02*
X7843210Y-18161094D01*
X7843210Y-18161094D02*
X7862258Y-18151570D01*
X7862258Y-18151570D02*
X7890829Y-18151570D01*
X7890829Y-18151570D02*
X7909877Y-18161094D01*
X7909877Y-18161094D02*
X7919401Y-18180142D01*
X7919401Y-18180142D02*
X7919401Y-18284904D01*
X7919401Y-18180142D02*
X7928924Y-18161094D01*
X7928924Y-18161094D02*
X7947972Y-18151570D01*
X7947972Y-18151570D02*
X7976543Y-18151570D01*
X7976543Y-18151570D02*
X7995591Y-18161094D01*
X7995591Y-18161094D02*
X8005115Y-18180142D01*
X8005115Y-18180142D02*
X8005115Y-18284904D01*
X8395591Y-18075380D02*
X8224163Y-18332523D01*
X8652734Y-18084904D02*
X8671782Y-18084904D01*
X8671782Y-18084904D02*
X8690829Y-18094428D01*
X8690829Y-18094428D02*
X8700353Y-18103951D01*
X8700353Y-18103951D02*
X8709877Y-18122999D01*
X8709877Y-18122999D02*
X8719401Y-18161094D01*
X8719401Y-18161094D02*
X8719401Y-18208713D01*
X8719401Y-18208713D02*
X8709877Y-18246809D01*
X8709877Y-18246809D02*
X8700353Y-18265856D01*
X8700353Y-18265856D02*
X8690829Y-18275380D01*
X8690829Y-18275380D02*
X8671782Y-18284904D01*
X8671782Y-18284904D02*
X8652734Y-18284904D01*
X8652734Y-18284904D02*
X8633687Y-18275380D01*
X8633687Y-18275380D02*
X8624163Y-18265856D01*
X8624163Y-18265856D02*
X8614639Y-18246809D01*
X8614639Y-18246809D02*
X8605115Y-18208713D01*
X8605115Y-18208713D02*
X8605115Y-18161094D01*
X8605115Y-18161094D02*
X8614639Y-18122999D01*
X8614639Y-18122999D02*
X8624163Y-18103951D01*
X8624163Y-18103951D02*
X8633687Y-18094428D01*
X8633687Y-18094428D02*
X8652734Y-18084904D01*
X8805115Y-18265856D02*
X8814639Y-18275380D01*
X8814639Y-18275380D02*
X8805115Y-18284904D01*
X8805115Y-18284904D02*
X8795591Y-18275380D01*
X8795591Y-18275380D02*
X8805115Y-18265856D01*
X8805115Y-18265856D02*
X8805115Y-18284904D01*
X8938448Y-18084904D02*
X8957496Y-18084904D01*
X8957496Y-18084904D02*
X8976544Y-18094428D01*
X8976544Y-18094428D02*
X8986068Y-18103951D01*
X8986068Y-18103951D02*
X8995591Y-18122999D01*
X8995591Y-18122999D02*
X9005115Y-18161094D01*
X9005115Y-18161094D02*
X9005115Y-18208713D01*
X9005115Y-18208713D02*
X8995591Y-18246809D01*
X8995591Y-18246809D02*
X8986068Y-18265856D01*
X8986068Y-18265856D02*
X8976544Y-18275380D01*
X8976544Y-18275380D02*
X8957496Y-18284904D01*
X8957496Y-18284904D02*
X8938448Y-18284904D01*
X8938448Y-18284904D02*
X8919401Y-18275380D01*
X8919401Y-18275380D02*
X8909877Y-18265856D01*
X8909877Y-18265856D02*
X8900353Y-18246809D01*
X8900353Y-18246809D02*
X8890829Y-18208713D01*
X8890829Y-18208713D02*
X8890829Y-18161094D01*
X8890829Y-18161094D02*
X8900353Y-18122999D01*
X8900353Y-18122999D02*
X8909877Y-18103951D01*
X8909877Y-18103951D02*
X8919401Y-18094428D01*
X8919401Y-18094428D02*
X8938448Y-18084904D01*
X9186068Y-18084904D02*
X9090829Y-18084904D01*
X9090829Y-18084904D02*
X9081306Y-18180142D01*
X9081306Y-18180142D02*
X9090829Y-18170618D01*
X9090829Y-18170618D02*
X9109877Y-18161094D01*
X9109877Y-18161094D02*
X9157496Y-18161094D01*
X9157496Y-18161094D02*
X9176544Y-18170618D01*
X9176544Y-18170618D02*
X9186068Y-18180142D01*
X9186068Y-18180142D02*
X9195591Y-18199190D01*
X9195591Y-18199190D02*
X9195591Y-18246809D01*
X9195591Y-18246809D02*
X9186068Y-18265856D01*
X9186068Y-18265856D02*
X9176544Y-18275380D01*
X9176544Y-18275380D02*
X9157496Y-18284904D01*
X9157496Y-18284904D02*
X9109877Y-18284904D01*
X9109877Y-18284904D02*
X9090829Y-18275380D01*
X9090829Y-18275380D02*
X9081306Y-18265856D01*
X9290829Y-18284904D02*
X9328925Y-18284904D01*
X9328925Y-18284904D02*
X9347972Y-18275380D01*
X9347972Y-18275380D02*
X9357496Y-18265856D01*
X9357496Y-18265856D02*
X9376544Y-18237285D01*
X9376544Y-18237285D02*
X9386068Y-18199190D01*
X9386068Y-18199190D02*
X9386068Y-18122999D01*
X9386068Y-18122999D02*
X9376544Y-18103951D01*
X9376544Y-18103951D02*
X9367020Y-18094428D01*
X9367020Y-18094428D02*
X9347972Y-18084904D01*
X9347972Y-18084904D02*
X9309877Y-18084904D01*
X9309877Y-18084904D02*
X9290829Y-18094428D01*
X9290829Y-18094428D02*
X9281306Y-18103951D01*
X9281306Y-18103951D02*
X9271782Y-18122999D01*
X9271782Y-18122999D02*
X9271782Y-18170618D01*
X9271782Y-18170618D02*
X9281306Y-18189666D01*
X9281306Y-18189666D02*
X9290829Y-18199190D01*
X9290829Y-18199190D02*
X9309877Y-18208713D01*
X9309877Y-18208713D02*
X9347972Y-18208713D01*
X9347972Y-18208713D02*
X9367020Y-18199190D01*
X9367020Y-18199190D02*
X9376544Y-18189666D01*
X9376544Y-18189666D02*
X9386068Y-18170618D01*
X9576544Y-18284904D02*
X9462258Y-18284904D01*
X9519401Y-18284904D02*
X9519401Y-18084904D01*
X9519401Y-18084904D02*
X9500353Y-18113475D01*
X9500353Y-18113475D02*
X9481306Y-18132523D01*
X9481306Y-18132523D02*
X9462258Y-18142047D01*
X9652734Y-18084904D02*
X9652734Y-18122999D01*
X9728925Y-18084904D02*
X9728925Y-18122999D01*
X10024163Y-18361094D02*
X10014639Y-18351570D01*
X10014639Y-18351570D02*
X9995591Y-18322999D01*
X9995591Y-18322999D02*
X9986068Y-18303951D01*
X9986068Y-18303951D02*
X9976544Y-18275380D01*
X9976544Y-18275380D02*
X9967020Y-18227761D01*
X9967020Y-18227761D02*
X9967020Y-18189666D01*
X9967020Y-18189666D02*
X9976544Y-18142047D01*
X9976544Y-18142047D02*
X9986068Y-18113475D01*
X9986068Y-18113475D02*
X9995591Y-18094428D01*
X9995591Y-18094428D02*
X10014639Y-18065856D01*
X10014639Y-18065856D02*
X10024163Y-18056332D01*
X10186068Y-18084904D02*
X10147972Y-18084904D01*
X10147972Y-18084904D02*
X10128925Y-18094428D01*
X10128925Y-18094428D02*
X10119401Y-18103951D01*
X10119401Y-18103951D02*
X10100353Y-18132523D01*
X10100353Y-18132523D02*
X10090830Y-18170618D01*
X10090830Y-18170618D02*
X10090830Y-18246809D01*
X10090830Y-18246809D02*
X10100353Y-18265856D01*
X10100353Y-18265856D02*
X10109877Y-18275380D01*
X10109877Y-18275380D02*
X10128925Y-18284904D01*
X10128925Y-18284904D02*
X10167020Y-18284904D01*
X10167020Y-18284904D02*
X10186068Y-18275380D01*
X10186068Y-18275380D02*
X10195591Y-18265856D01*
X10195591Y-18265856D02*
X10205115Y-18246809D01*
X10205115Y-18246809D02*
X10205115Y-18199190D01*
X10205115Y-18199190D02*
X10195591Y-18180142D01*
X10195591Y-18180142D02*
X10186068Y-18170618D01*
X10186068Y-18170618D02*
X10167020Y-18161094D01*
X10167020Y-18161094D02*
X10128925Y-18161094D01*
X10128925Y-18161094D02*
X10109877Y-18170618D01*
X10109877Y-18170618D02*
X10100353Y-18180142D01*
X10100353Y-18180142D02*
X10090830Y-18199190D01*
X10319401Y-18170618D02*
X10300353Y-18161094D01*
X10300353Y-18161094D02*
X10290830Y-18151570D01*
X10290830Y-18151570D02*
X10281306Y-18132523D01*
X10281306Y-18132523D02*
X10281306Y-18122999D01*
X10281306Y-18122999D02*
X10290830Y-18103951D01*
X10290830Y-18103951D02*
X10300353Y-18094428D01*
X10300353Y-18094428D02*
X10319401Y-18084904D01*
X10319401Y-18084904D02*
X10357496Y-18084904D01*
X10357496Y-18084904D02*
X10376544Y-18094428D01*
X10376544Y-18094428D02*
X10386068Y-18103951D01*
X10386068Y-18103951D02*
X10395591Y-18122999D01*
X10395591Y-18122999D02*
X10395591Y-18132523D01*
X10395591Y-18132523D02*
X10386068Y-18151570D01*
X10386068Y-18151570D02*
X10376544Y-18161094D01*
X10376544Y-18161094D02*
X10357496Y-18170618D01*
X10357496Y-18170618D02*
X10319401Y-18170618D01*
X10319401Y-18170618D02*
X10300353Y-18180142D01*
X10300353Y-18180142D02*
X10290830Y-18189666D01*
X10290830Y-18189666D02*
X10281306Y-18208713D01*
X10281306Y-18208713D02*
X10281306Y-18246809D01*
X10281306Y-18246809D02*
X10290830Y-18265856D01*
X10290830Y-18265856D02*
X10300353Y-18275380D01*
X10300353Y-18275380D02*
X10319401Y-18284904D01*
X10319401Y-18284904D02*
X10357496Y-18284904D01*
X10357496Y-18284904D02*
X10376544Y-18275380D01*
X10376544Y-18275380D02*
X10386068Y-18265856D01*
X10386068Y-18265856D02*
X10395591Y-18246809D01*
X10395591Y-18246809D02*
X10395591Y-18208713D01*
X10395591Y-18208713D02*
X10386068Y-18189666D01*
X10386068Y-18189666D02*
X10376544Y-18180142D01*
X10376544Y-18180142D02*
X10357496Y-18170618D01*
X10633687Y-18284904D02*
X10633687Y-18084904D01*
X10719401Y-18284904D02*
X10719401Y-18180142D01*
X10719401Y-18180142D02*
X10709877Y-18161094D01*
X10709877Y-18161094D02*
X10690830Y-18151570D01*
X10690830Y-18151570D02*
X10662258Y-18151570D01*
X10662258Y-18151570D02*
X10643211Y-18161094D01*
X10643211Y-18161094D02*
X10633687Y-18170618D01*
X10843211Y-18284904D02*
X10824163Y-18275380D01*
X10824163Y-18275380D02*
X10814639Y-18265856D01*
X10814639Y-18265856D02*
X10805115Y-18246809D01*
X10805115Y-18246809D02*
X10805115Y-18189666D01*
X10805115Y-18189666D02*
X10814639Y-18170618D01*
X10814639Y-18170618D02*
X10824163Y-18161094D01*
X10824163Y-18161094D02*
X10843211Y-18151570D01*
X10843211Y-18151570D02*
X10871782Y-18151570D01*
X10871782Y-18151570D02*
X10890830Y-18161094D01*
X10890830Y-18161094D02*
X10900353Y-18170618D01*
X10900353Y-18170618D02*
X10909877Y-18189666D01*
X10909877Y-18189666D02*
X10909877Y-18246809D01*
X10909877Y-18246809D02*
X10900353Y-18265856D01*
X10900353Y-18265856D02*
X10890830Y-18275380D01*
X10890830Y-18275380D02*
X10871782Y-18284904D01*
X10871782Y-18284904D02*
X10843211Y-18284904D01*
X11024163Y-18284904D02*
X11005115Y-18275380D01*
X11005115Y-18275380D02*
X10995592Y-18256332D01*
X10995592Y-18256332D02*
X10995592Y-18084904D01*
X11176544Y-18275380D02*
X11157496Y-18284904D01*
X11157496Y-18284904D02*
X11119401Y-18284904D01*
X11119401Y-18284904D02*
X11100353Y-18275380D01*
X11100353Y-18275380D02*
X11090830Y-18256332D01*
X11090830Y-18256332D02*
X11090830Y-18180142D01*
X11090830Y-18180142D02*
X11100353Y-18161094D01*
X11100353Y-18161094D02*
X11119401Y-18151570D01*
X11119401Y-18151570D02*
X11157496Y-18151570D01*
X11157496Y-18151570D02*
X11176544Y-18161094D01*
X11176544Y-18161094D02*
X11186068Y-18180142D01*
X11186068Y-18180142D02*
X11186068Y-18199190D01*
X11186068Y-18199190D02*
X11090830Y-18218237D01*
X11262258Y-18275380D02*
X11281306Y-18284904D01*
X11281306Y-18284904D02*
X11319401Y-18284904D01*
X11319401Y-18284904D02*
X11338449Y-18275380D01*
X11338449Y-18275380D02*
X11347972Y-18256332D01*
X11347972Y-18256332D02*
X11347972Y-18246809D01*
X11347972Y-18246809D02*
X11338449Y-18227761D01*
X11338449Y-18227761D02*
X11319401Y-18218237D01*
X11319401Y-18218237D02*
X11290830Y-18218237D01*
X11290830Y-18218237D02*
X11271782Y-18208713D01*
X11271782Y-18208713D02*
X11262258Y-18189666D01*
X11262258Y-18189666D02*
X11262258Y-18180142D01*
X11262258Y-18180142D02*
X11271782Y-18161094D01*
X11271782Y-18161094D02*
X11290830Y-18151570D01*
X11290830Y-18151570D02*
X11319401Y-18151570D01*
X11319401Y-18151570D02*
X11338449Y-18161094D01*
X11414639Y-18361094D02*
X11424163Y-18351570D01*
X11424163Y-18351570D02*
X11443211Y-18322999D01*
X11443211Y-18322999D02*
X11452734Y-18303951D01*
X11452734Y-18303951D02*
X11462258Y-18275380D01*
X11462258Y-18275380D02*
X11471782Y-18227761D01*
X11471782Y-18227761D02*
X11471782Y-18189666D01*
X11471782Y-18189666D02*
X11462258Y-18142047D01*
X11462258Y-18142047D02*
X11452734Y-18113475D01*
X11452734Y-18113475D02*
X11443211Y-18094428D01*
X11443211Y-18094428D02*
X11424163Y-18065856D01*
X11424163Y-18065856D02*
X11414639Y-18056332D01*
M02*
