G04 #@! TF.GenerationSoftware,KiCad,Pcbnew,8.0.6*
G04 #@! TF.CreationDate,2024-12-23T22:51:37-06:00*
G04 #@! TF.ProjectId,mk0,6d6b302e-6b69-4636-9164-5f7063625858,rev?*
G04 #@! TF.SameCoordinates,Original*
G04 #@! TF.FileFunction,Soldermask,Top*
G04 #@! TF.FilePolarity,Negative*
%FSLAX46Y46*%
G04 Gerber Fmt 4.6, Leading zero omitted, Abs format (unit mm)*
G04 Created by KiCad (PCBNEW 8.0.6) date 2024-12-23 22:51:37*
%MOMM*%
%LPD*%
G01*
G04 APERTURE LIST*
G04 Aperture macros list*
%AMRoundRect*
0 Rectangle with rounded corners*
0 $1 Rounding radius*
0 $2 $3 $4 $5 $6 $7 $8 $9 X,Y pos of 4 corners*
0 Add a 4 corners polygon primitive as box body*
4,1,4,$2,$3,$4,$5,$6,$7,$8,$9,$2,$3,0*
0 Add four circle primitives for the rounded corners*
1,1,$1+$1,$2,$3*
1,1,$1+$1,$4,$5*
1,1,$1+$1,$6,$7*
1,1,$1+$1,$8,$9*
0 Add four rect primitives between the rounded corners*
20,1,$1+$1,$2,$3,$4,$5,0*
20,1,$1+$1,$4,$5,$6,$7,0*
20,1,$1+$1,$6,$7,$8,$9,0*
20,1,$1+$1,$8,$9,$2,$3,0*%
G04 Aperture macros list end*
%ADD10RoundRect,0.250000X-0.475000X0.337500X-0.475000X-0.337500X0.475000X-0.337500X0.475000X0.337500X0*%
%ADD11RoundRect,0.250000X0.337500X0.475000X-0.337500X0.475000X-0.337500X-0.475000X0.337500X-0.475000X0*%
%ADD12C,4.000000*%
%ADD13C,2.200000*%
%ADD14RoundRect,0.250000X-0.250000X0.250000X-0.250000X-0.250000X0.250000X-0.250000X0.250000X0.250000X0*%
%ADD15R,1.050000X1.100000*%
%ADD16RoundRect,0.075000X0.662500X-0.075000X0.662500X0.075000X-0.662500X0.075000X-0.662500X-0.075000X0*%
%ADD17RoundRect,0.075000X0.075000X-0.662500X0.075000X0.662500X-0.075000X0.662500X-0.075000X-0.662500X0*%
%ADD18RoundRect,0.150000X0.587500X0.150000X-0.587500X0.150000X-0.587500X-0.150000X0.587500X-0.150000X0*%
%ADD19R,1.500000X1.500000*%
%ADD20RoundRect,0.250000X-0.450000X0.350000X-0.450000X-0.350000X0.450000X-0.350000X0.450000X0.350000X0*%
%ADD21RoundRect,0.250000X0.450000X-0.350000X0.450000X0.350000X-0.450000X0.350000X-0.450000X-0.350000X0*%
%ADD22RoundRect,0.325000X-0.925000X-0.325000X0.925000X-0.325000X0.925000X0.325000X-0.925000X0.325000X0*%
%ADD23C,0.650000*%
%ADD24R,0.600000X1.450000*%
%ADD25R,0.300000X1.450000*%
%ADD26O,1.000000X2.100000*%
%ADD27O,1.000000X1.600000*%
%ADD28RoundRect,0.250000X0.475000X-0.337500X0.475000X0.337500X-0.475000X0.337500X-0.475000X-0.337500X0*%
%ADD29RoundRect,0.250000X-0.337500X-0.475000X0.337500X-0.475000X0.337500X0.475000X-0.337500X0.475000X0*%
G04 APERTURE END LIST*
D10*
X232328150Y-75609500D03*
X232328150Y-77684500D03*
D11*
X209526025Y-64887000D03*
X211601025Y-64887000D03*
X209526025Y-70983000D03*
X211601025Y-70983000D03*
D12*
X180051775Y-154520625D03*
D13*
X184791480Y-151391216D03*
X178022219Y-150415921D03*
D12*
X163383025Y-144995625D03*
D13*
X168122730Y-141866216D03*
X161353469Y-140890921D03*
D12*
X140761150Y-139042500D03*
D13*
X143301150Y-133962500D03*
X136951150Y-136502500D03*
D12*
X112186150Y-139055000D03*
D13*
X114726150Y-133975000D03*
X108376150Y-136515000D03*
D12*
X93136150Y-143817500D03*
D13*
X95676150Y-138737500D03*
X89326150Y-141277500D03*
D12*
X74086150Y-143817500D03*
D13*
X76626150Y-138737500D03*
X70276150Y-141277500D03*
D12*
X189576775Y-137851875D03*
D13*
X194316480Y-134722466D03*
X187547219Y-133747171D03*
D12*
X169336150Y-122361250D03*
D13*
X171876150Y-117281250D03*
X165526150Y-119821250D03*
D12*
X150286150Y-119992500D03*
D13*
X152826150Y-114912500D03*
X146476150Y-117452500D03*
D12*
X131236150Y-117623750D03*
D13*
X133776150Y-112543750D03*
X127426150Y-115083750D03*
D12*
X112186150Y-120005000D03*
D13*
X114726150Y-114925000D03*
X108376150Y-117465000D03*
D12*
X93136150Y-124767500D03*
D13*
X95676150Y-119687500D03*
X89326150Y-122227500D03*
D12*
X74086150Y-124767500D03*
D13*
X76626150Y-119687500D03*
X70276150Y-122227500D03*
D12*
X169336150Y-103311250D03*
D13*
X171876150Y-98231250D03*
X165526150Y-100771250D03*
D12*
X150286150Y-100930000D03*
D13*
X152826150Y-95850000D03*
X146476150Y-98390000D03*
D12*
X131236150Y-98573750D03*
D13*
X133776150Y-93493750D03*
X127426150Y-96033750D03*
D12*
X112186150Y-100955000D03*
D13*
X114726150Y-95875000D03*
X108376150Y-98415000D03*
D12*
X93136150Y-105717500D03*
D13*
X95676150Y-100637500D03*
X89326150Y-103177500D03*
D12*
X74086150Y-105717500D03*
D13*
X76626150Y-100637500D03*
X70276150Y-103177500D03*
D12*
X188386150Y-96180000D03*
D13*
X190926150Y-91100000D03*
X184576150Y-93640000D03*
D12*
X169336150Y-84261250D03*
D13*
X171876150Y-79181250D03*
X165526150Y-81721250D03*
D12*
X150286150Y-81892500D03*
D13*
X152826150Y-76812500D03*
X146476150Y-79352500D03*
D12*
X131236150Y-79523750D03*
D13*
X133776150Y-74443750D03*
X127426150Y-76983750D03*
D12*
X112186150Y-81905000D03*
D13*
X114726150Y-76825000D03*
X108376150Y-79365000D03*
D12*
X93136150Y-86667500D03*
D13*
X95676150Y-81587500D03*
X89326150Y-84127500D03*
D12*
X74086150Y-86667500D03*
D13*
X76626150Y-81587500D03*
X70276150Y-84127500D03*
D12*
X188386150Y-77142500D03*
D13*
X190926150Y-72062500D03*
X184576150Y-74602500D03*
D12*
X169336150Y-65223750D03*
D13*
X171876150Y-60143750D03*
X165526150Y-62683750D03*
D12*
X150286150Y-62842500D03*
D13*
X152826150Y-57762500D03*
X146476150Y-60302500D03*
D12*
X131236150Y-60473750D03*
D13*
X133776150Y-55393750D03*
X127426150Y-57933750D03*
D12*
X112186150Y-62867500D03*
D13*
X114726150Y-57787500D03*
X108376150Y-60327500D03*
D12*
X93136150Y-67617500D03*
D13*
X95676150Y-62537500D03*
X89326150Y-65077500D03*
D12*
X73986150Y-67617500D03*
D13*
X76526150Y-62537500D03*
X70176150Y-65077500D03*
D14*
X216910350Y-124358125D03*
X216910350Y-121858125D03*
D15*
X219029150Y-86210500D03*
X217179150Y-86210500D03*
D16*
X214271025Y-78149500D03*
X214271025Y-77649500D03*
X214271025Y-77149500D03*
X214271025Y-76649500D03*
X214271025Y-76149500D03*
X214271025Y-75649500D03*
X214271025Y-75149500D03*
X214271025Y-74649500D03*
X214271025Y-74149500D03*
X214271025Y-73649500D03*
X214271025Y-73149500D03*
X214271025Y-72649500D03*
D17*
X215683525Y-71237000D03*
X216183525Y-71237000D03*
X216683525Y-71237000D03*
X217183525Y-71237000D03*
X217683525Y-71237000D03*
X218183525Y-71237000D03*
X218683525Y-71237000D03*
X219183525Y-71237000D03*
X219683525Y-71237000D03*
X220183525Y-71237000D03*
X220683525Y-71237000D03*
X221183525Y-71237000D03*
D16*
X222596025Y-72649500D03*
X222596025Y-73149500D03*
X222596025Y-73649500D03*
X222596025Y-74149500D03*
X222596025Y-74649500D03*
X222596025Y-75149500D03*
X222596025Y-75649500D03*
X222596025Y-76149500D03*
X222596025Y-76649500D03*
X222596025Y-77149500D03*
X222596025Y-77649500D03*
X222596025Y-78149500D03*
D17*
X221183525Y-79562000D03*
X220683525Y-79562000D03*
X220183525Y-79562000D03*
X219683525Y-79562000D03*
X219183525Y-79562000D03*
X218683525Y-79562000D03*
X218183525Y-79562000D03*
X217683525Y-79562000D03*
X217183525Y-79562000D03*
X216683525Y-79562000D03*
X216183525Y-79562000D03*
X215683525Y-79562000D03*
D18*
X211579525Y-68819000D03*
X211579525Y-66919000D03*
X209704525Y-67869000D03*
D19*
X205658150Y-93576500D03*
X205658150Y-85776500D03*
X228518150Y-93756500D03*
X228518150Y-85956500D03*
D20*
X221914150Y-86194500D03*
X221914150Y-84194500D03*
D21*
X210738150Y-86194500D03*
X210738150Y-84194500D03*
D20*
X214373525Y-66681000D03*
X214373525Y-68681000D03*
X219453525Y-62871000D03*
X219453525Y-64871000D03*
D22*
X227819650Y-62568625D03*
X227819650Y-57268625D03*
X227819650Y-59168625D03*
X227819650Y-60868625D03*
D23*
X217104025Y-59298625D03*
X211324025Y-59298625D03*
D24*
X217464025Y-60743625D03*
X216664025Y-60743625D03*
D25*
X215464025Y-60743625D03*
X214464025Y-60743625D03*
X213964025Y-60743625D03*
X212964025Y-60743625D03*
D24*
X211764025Y-60743625D03*
X210964025Y-60743625D03*
X210964025Y-60743625D03*
X211764025Y-60743625D03*
D25*
X212464025Y-60743625D03*
X213464025Y-60743625D03*
X214964025Y-60743625D03*
X215964025Y-60743625D03*
D24*
X216664025Y-60743625D03*
X217464025Y-60743625D03*
D26*
X218534025Y-59828625D03*
D27*
X218534025Y-55648625D03*
D26*
X209894025Y-59828625D03*
D27*
X209894025Y-55648625D03*
D14*
X219291600Y-121858125D03*
X219291600Y-124358125D03*
X214529100Y-121858125D03*
X214529100Y-124358125D03*
X221793500Y-118067500D03*
X221793500Y-115567500D03*
X219441000Y-118067500D03*
X219441000Y-115567500D03*
X217031000Y-118067500D03*
X217031000Y-115567500D03*
X221761750Y-111615900D03*
X221761750Y-109115900D03*
X219380500Y-111615900D03*
X219380500Y-109115900D03*
X216999250Y-111615900D03*
X216999250Y-109115900D03*
X221749050Y-105177000D03*
X221749050Y-102677000D03*
X219367800Y-105177000D03*
X219367800Y-102677000D03*
X216986550Y-105177000D03*
X216986550Y-102677000D03*
X221850650Y-96187300D03*
X221850650Y-98687300D03*
X219469400Y-96187300D03*
X219469400Y-98687300D03*
X217088150Y-98746675D03*
X217088150Y-96246675D03*
X212147850Y-124358125D03*
X212147850Y-121858125D03*
X209766600Y-124358125D03*
X209766600Y-121858125D03*
X207258350Y-124417500D03*
X207258350Y-121917500D03*
X214649750Y-118067500D03*
X214649750Y-115567500D03*
X212268500Y-118067500D03*
X212268500Y-115567500D03*
X209887250Y-118067500D03*
X209887250Y-115567500D03*
X207506000Y-118067500D03*
X207506000Y-115567500D03*
X214618000Y-111615900D03*
X214618000Y-109115900D03*
X212236750Y-111615900D03*
X212236750Y-109115900D03*
X209855500Y-111615900D03*
X209855500Y-109115900D03*
X207474250Y-111615900D03*
X207474250Y-109115900D03*
X214605300Y-105177000D03*
X214605300Y-102677000D03*
X212224050Y-105177000D03*
X212224050Y-102677000D03*
X209842800Y-105177000D03*
X209842800Y-102677000D03*
X207461550Y-105177000D03*
X207461550Y-102677000D03*
X214706900Y-98687300D03*
X214706900Y-96187300D03*
X212325650Y-98687300D03*
X212325650Y-96187300D03*
X209944400Y-98687300D03*
X209944400Y-96187300D03*
X207563150Y-96187300D03*
X207563150Y-98687300D03*
D10*
X221914150Y-90550000D03*
X221914150Y-88475000D03*
D28*
X214294150Y-84157000D03*
X214294150Y-86232000D03*
X225470150Y-88010000D03*
X225470150Y-85935000D03*
D10*
X229788150Y-75609500D03*
X229788150Y-77684500D03*
D29*
X205425650Y-78171000D03*
X203350650Y-78171000D03*
X205425650Y-75631000D03*
X203350650Y-75631000D03*
X205425650Y-73091000D03*
X203350650Y-73091000D03*
D11*
X231523150Y-86697000D03*
X233598150Y-86697000D03*
D28*
X211500150Y-75631000D03*
X211500150Y-77706000D03*
X208490150Y-75631000D03*
X208490150Y-77706000D03*
D11*
X231544650Y-83903000D03*
X233619650Y-83903000D03*
D12*
X188386150Y-115230000D03*
D13*
X190926150Y-110150000D03*
X184576150Y-112690000D03*
M02*
