%TF.GenerationSoftware,KiCad,Pcbnew,8.0.6*%
%TF.CreationDate,2024-12-23T22:53:40-06:00*%
%TF.ProjectId,mk0,6d6b302e-6b69-4636-9164-5f7063625858,rev?*%
%TF.SameCoordinates,Original*%
%TF.FileFunction,Drillmap*%
%TF.FilePolarity,Positive*%
%FSLAX45Y45*%
G04 Gerber Fmt 4.5, Leading zero omitted, Abs format (unit mm)*
G04 Created by KiCad (PCBNEW 8.0.6) date 2024-12-23 22:53:40*
%MOMM*%
%LPD*%
G01*
G04 APERTURE LIST*
%ADD10C,0.050000*%
%ADD11C,0.200000*%
%ADD12C,0.100000*%
%ADD13C,0.400000*%
G04 APERTURE END LIST*
D10*
X23622000Y-5080000D02*
X14086840Y-5080000D01*
X23596600Y-11750040D02*
X23622000Y-5080000D01*
X18354040Y-16758920D02*
X23596600Y-11750040D01*
X6451600Y-15341600D02*
X18354040Y-16758920D01*
X6451600Y-5806440D02*
X6451600Y-15341600D01*
X6451600Y-5806440D02*
X8620760Y-5064760D01*
X14086840Y-5080000D02*
X8620760Y-5064760D01*
D11*
D12*
X21099903Y-5897362D02*
X21164903Y-5962362D01*
X21164903Y-5897362D02*
X21099903Y-5962362D01*
X21677903Y-5897362D02*
X21742903Y-5962362D01*
X21742903Y-5897362D02*
X21677903Y-5962362D01*
D13*
X7598615Y-6761750D02*
G75*
G02*
X7198615Y-6761750I-200000J0D01*
G01*
X7198615Y-6761750D02*
G75*
G02*
X7598615Y-6761750I200000J0D01*
G01*
X7608615Y-8666750D02*
G75*
G02*
X7208615Y-8666750I-200000J0D01*
G01*
X7208615Y-8666750D02*
G75*
G02*
X7608615Y-8666750I200000J0D01*
G01*
X7608615Y-10571750D02*
G75*
G02*
X7208615Y-10571750I-200000J0D01*
G01*
X7208615Y-10571750D02*
G75*
G02*
X7608615Y-10571750I200000J0D01*
G01*
X7608615Y-12476750D02*
G75*
G02*
X7208615Y-12476750I-200000J0D01*
G01*
X7208615Y-12476750D02*
G75*
G02*
X7608615Y-12476750I200000J0D01*
G01*
X7608615Y-14381750D02*
G75*
G02*
X7208615Y-14381750I-200000J0D01*
G01*
X7208615Y-14381750D02*
G75*
G02*
X7608615Y-14381750I200000J0D01*
G01*
X9513615Y-6761750D02*
G75*
G02*
X9113615Y-6761750I-200000J0D01*
G01*
X9113615Y-6761750D02*
G75*
G02*
X9513615Y-6761750I200000J0D01*
G01*
X9513615Y-8666750D02*
G75*
G02*
X9113615Y-8666750I-200000J0D01*
G01*
X9113615Y-8666750D02*
G75*
G02*
X9513615Y-8666750I200000J0D01*
G01*
X9513615Y-10571750D02*
G75*
G02*
X9113615Y-10571750I-200000J0D01*
G01*
X9113615Y-10571750D02*
G75*
G02*
X9513615Y-10571750I200000J0D01*
G01*
X9513615Y-12476750D02*
G75*
G02*
X9113615Y-12476750I-200000J0D01*
G01*
X9113615Y-12476750D02*
G75*
G02*
X9513615Y-12476750I200000J0D01*
G01*
X9513615Y-14381750D02*
G75*
G02*
X9113615Y-14381750I-200000J0D01*
G01*
X9113615Y-14381750D02*
G75*
G02*
X9513615Y-14381750I200000J0D01*
G01*
X11418615Y-6286750D02*
G75*
G02*
X11018615Y-6286750I-200000J0D01*
G01*
X11018615Y-6286750D02*
G75*
G02*
X11418615Y-6286750I200000J0D01*
G01*
X11418615Y-8190500D02*
G75*
G02*
X11018615Y-8190500I-200000J0D01*
G01*
X11018615Y-8190500D02*
G75*
G02*
X11418615Y-8190500I200000J0D01*
G01*
X11418615Y-10095500D02*
G75*
G02*
X11018615Y-10095500I-200000J0D01*
G01*
X11018615Y-10095500D02*
G75*
G02*
X11418615Y-10095500I200000J0D01*
G01*
X11418615Y-12000500D02*
G75*
G02*
X11018615Y-12000500I-200000J0D01*
G01*
X11018615Y-12000500D02*
G75*
G02*
X11418615Y-12000500I200000J0D01*
G01*
X11418615Y-13905500D02*
G75*
G02*
X11018615Y-13905500I-200000J0D01*
G01*
X11018615Y-13905500D02*
G75*
G02*
X11418615Y-13905500I200000J0D01*
G01*
X13323615Y-6047375D02*
G75*
G02*
X12923615Y-6047375I-200000J0D01*
G01*
X12923615Y-6047375D02*
G75*
G02*
X13323615Y-6047375I200000J0D01*
G01*
X13323615Y-7952375D02*
G75*
G02*
X12923615Y-7952375I-200000J0D01*
G01*
X12923615Y-7952375D02*
G75*
G02*
X13323615Y-7952375I200000J0D01*
G01*
X13323615Y-9857375D02*
G75*
G02*
X12923615Y-9857375I-200000J0D01*
G01*
X12923615Y-9857375D02*
G75*
G02*
X13323615Y-9857375I200000J0D01*
G01*
X13323615Y-11762375D02*
G75*
G02*
X12923615Y-11762375I-200000J0D01*
G01*
X12923615Y-11762375D02*
G75*
G02*
X13323615Y-11762375I200000J0D01*
G01*
X14276115Y-13904250D02*
G75*
G02*
X13876115Y-13904250I-200000J0D01*
G01*
X13876115Y-13904250D02*
G75*
G02*
X14276115Y-13904250I200000J0D01*
G01*
X15228615Y-6284250D02*
G75*
G02*
X14828615Y-6284250I-200000J0D01*
G01*
X14828615Y-6284250D02*
G75*
G02*
X15228615Y-6284250I200000J0D01*
G01*
X15228615Y-8189250D02*
G75*
G02*
X14828615Y-8189250I-200000J0D01*
G01*
X14828615Y-8189250D02*
G75*
G02*
X15228615Y-8189250I200000J0D01*
G01*
X15228615Y-10093000D02*
G75*
G02*
X14828615Y-10093000I-200000J0D01*
G01*
X14828615Y-10093000D02*
G75*
G02*
X15228615Y-10093000I200000J0D01*
G01*
X15228615Y-11999250D02*
G75*
G02*
X14828615Y-11999250I-200000J0D01*
G01*
X14828615Y-11999250D02*
G75*
G02*
X15228615Y-11999250I200000J0D01*
G01*
X16538302Y-14499562D02*
G75*
G02*
X16138302Y-14499562I-200000J0D01*
G01*
X16138302Y-14499562D02*
G75*
G02*
X16538302Y-14499562I200000J0D01*
G01*
X17133615Y-6522375D02*
G75*
G02*
X16733615Y-6522375I-200000J0D01*
G01*
X16733615Y-6522375D02*
G75*
G02*
X17133615Y-6522375I200000J0D01*
G01*
X17133615Y-8426125D02*
G75*
G02*
X16733615Y-8426125I-200000J0D01*
G01*
X16733615Y-8426125D02*
G75*
G02*
X17133615Y-8426125I200000J0D01*
G01*
X17133615Y-10331125D02*
G75*
G02*
X16733615Y-10331125I-200000J0D01*
G01*
X16733615Y-10331125D02*
G75*
G02*
X17133615Y-10331125I200000J0D01*
G01*
X17133615Y-12236125D02*
G75*
G02*
X16733615Y-12236125I-200000J0D01*
G01*
X16733615Y-12236125D02*
G75*
G02*
X17133615Y-12236125I200000J0D01*
G01*
X18205178Y-15452062D02*
G75*
G02*
X17805178Y-15452062I-200000J0D01*
G01*
X17805178Y-15452062D02*
G75*
G02*
X18205178Y-15452062I200000J0D01*
G01*
X19038615Y-7714250D02*
G75*
G02*
X18638615Y-7714250I-200000J0D01*
G01*
X18638615Y-7714250D02*
G75*
G02*
X19038615Y-7714250I200000J0D01*
G01*
X19038615Y-9618000D02*
G75*
G02*
X18638615Y-9618000I-200000J0D01*
G01*
X18638615Y-9618000D02*
G75*
G02*
X19038615Y-9618000I200000J0D01*
G01*
X19038615Y-11523000D02*
G75*
G02*
X18638615Y-11523000I-200000J0D01*
G01*
X18638615Y-11523000D02*
G75*
G02*
X19038615Y-11523000I200000J0D01*
G01*
X19157678Y-13785187D02*
G75*
G02*
X18757678Y-13785187I-200000J0D01*
G01*
X18757678Y-13785187D02*
G75*
G02*
X19157678Y-13785187I200000J0D01*
G01*
D11*
X6709877Y-17072904D02*
X6709877Y-16872904D01*
X6709877Y-16872904D02*
X6757496Y-16872904D01*
X6757496Y-16872904D02*
X6786067Y-16882428D01*
X6786067Y-16882428D02*
X6805115Y-16901475D01*
X6805115Y-16901475D02*
X6814639Y-16920523D01*
X6814639Y-16920523D02*
X6824162Y-16958618D01*
X6824162Y-16958618D02*
X6824162Y-16987190D01*
X6824162Y-16987190D02*
X6814639Y-17025285D01*
X6814639Y-17025285D02*
X6805115Y-17044332D01*
X6805115Y-17044332D02*
X6786067Y-17063380D01*
X6786067Y-17063380D02*
X6757496Y-17072904D01*
X6757496Y-17072904D02*
X6709877Y-17072904D01*
X6909877Y-17072904D02*
X6909877Y-16939570D01*
X6909877Y-16977666D02*
X6919401Y-16958618D01*
X6919401Y-16958618D02*
X6928924Y-16949094D01*
X6928924Y-16949094D02*
X6947972Y-16939570D01*
X6947972Y-16939570D02*
X6967020Y-16939570D01*
X7033686Y-17072904D02*
X7033686Y-16939570D01*
X7033686Y-16872904D02*
X7024162Y-16882428D01*
X7024162Y-16882428D02*
X7033686Y-16891951D01*
X7033686Y-16891951D02*
X7043210Y-16882428D01*
X7043210Y-16882428D02*
X7033686Y-16872904D01*
X7033686Y-16872904D02*
X7033686Y-16891951D01*
X7157496Y-17072904D02*
X7138448Y-17063380D01*
X7138448Y-17063380D02*
X7128924Y-17044332D01*
X7128924Y-17044332D02*
X7128924Y-16872904D01*
X7262258Y-17072904D02*
X7243210Y-17063380D01*
X7243210Y-17063380D02*
X7233686Y-17044332D01*
X7233686Y-17044332D02*
X7233686Y-16872904D01*
X7490829Y-17072904D02*
X7490829Y-16872904D01*
X7490829Y-16872904D02*
X7557496Y-17015761D01*
X7557496Y-17015761D02*
X7624162Y-16872904D01*
X7624162Y-16872904D02*
X7624162Y-17072904D01*
X7805115Y-17072904D02*
X7805115Y-16968142D01*
X7805115Y-16968142D02*
X7795591Y-16949094D01*
X7795591Y-16949094D02*
X7776543Y-16939570D01*
X7776543Y-16939570D02*
X7738448Y-16939570D01*
X7738448Y-16939570D02*
X7719401Y-16949094D01*
X7805115Y-17063380D02*
X7786067Y-17072904D01*
X7786067Y-17072904D02*
X7738448Y-17072904D01*
X7738448Y-17072904D02*
X7719401Y-17063380D01*
X7719401Y-17063380D02*
X7709877Y-17044332D01*
X7709877Y-17044332D02*
X7709877Y-17025285D01*
X7709877Y-17025285D02*
X7719401Y-17006237D01*
X7719401Y-17006237D02*
X7738448Y-16996713D01*
X7738448Y-16996713D02*
X7786067Y-16996713D01*
X7786067Y-16996713D02*
X7805115Y-16987190D01*
X7900353Y-16939570D02*
X7900353Y-17139570D01*
X7900353Y-16949094D02*
X7919401Y-16939570D01*
X7919401Y-16939570D02*
X7957496Y-16939570D01*
X7957496Y-16939570D02*
X7976543Y-16949094D01*
X7976543Y-16949094D02*
X7986067Y-16958618D01*
X7986067Y-16958618D02*
X7995591Y-16977666D01*
X7995591Y-16977666D02*
X7995591Y-17034809D01*
X7995591Y-17034809D02*
X7986067Y-17053856D01*
X7986067Y-17053856D02*
X7976543Y-17063380D01*
X7976543Y-17063380D02*
X7957496Y-17072904D01*
X7957496Y-17072904D02*
X7919401Y-17072904D01*
X7919401Y-17072904D02*
X7900353Y-17063380D01*
X8081305Y-17053856D02*
X8090829Y-17063380D01*
X8090829Y-17063380D02*
X8081305Y-17072904D01*
X8081305Y-17072904D02*
X8071782Y-17063380D01*
X8071782Y-17063380D02*
X8081305Y-17053856D01*
X8081305Y-17053856D02*
X8081305Y-17072904D01*
X8081305Y-16949094D02*
X8090829Y-16958618D01*
X8090829Y-16958618D02*
X8081305Y-16968142D01*
X8081305Y-16968142D02*
X8071782Y-16958618D01*
X8071782Y-16958618D02*
X8081305Y-16949094D01*
X8081305Y-16949094D02*
X8081305Y-16968142D01*
D12*
X6384100Y-17368920D02*
X6449100Y-17433920D01*
X6449100Y-17368920D02*
X6384100Y-17433920D01*
D11*
X6747972Y-17292904D02*
X6767020Y-17292904D01*
X6767020Y-17292904D02*
X6786067Y-17302428D01*
X6786067Y-17302428D02*
X6795591Y-17311951D01*
X6795591Y-17311951D02*
X6805115Y-17330999D01*
X6805115Y-17330999D02*
X6814639Y-17369094D01*
X6814639Y-17369094D02*
X6814639Y-17416713D01*
X6814639Y-17416713D02*
X6805115Y-17454809D01*
X6805115Y-17454809D02*
X6795591Y-17473856D01*
X6795591Y-17473856D02*
X6786067Y-17483380D01*
X6786067Y-17483380D02*
X6767020Y-17492904D01*
X6767020Y-17492904D02*
X6747972Y-17492904D01*
X6747972Y-17492904D02*
X6728924Y-17483380D01*
X6728924Y-17483380D02*
X6719401Y-17473856D01*
X6719401Y-17473856D02*
X6709877Y-17454809D01*
X6709877Y-17454809D02*
X6700353Y-17416713D01*
X6700353Y-17416713D02*
X6700353Y-17369094D01*
X6700353Y-17369094D02*
X6709877Y-17330999D01*
X6709877Y-17330999D02*
X6719401Y-17311951D01*
X6719401Y-17311951D02*
X6728924Y-17302428D01*
X6728924Y-17302428D02*
X6747972Y-17292904D01*
X6900353Y-17473856D02*
X6909877Y-17483380D01*
X6909877Y-17483380D02*
X6900353Y-17492904D01*
X6900353Y-17492904D02*
X6890829Y-17483380D01*
X6890829Y-17483380D02*
X6900353Y-17473856D01*
X6900353Y-17473856D02*
X6900353Y-17492904D01*
X7081305Y-17292904D02*
X7043210Y-17292904D01*
X7043210Y-17292904D02*
X7024162Y-17302428D01*
X7024162Y-17302428D02*
X7014639Y-17311951D01*
X7014639Y-17311951D02*
X6995591Y-17340523D01*
X6995591Y-17340523D02*
X6986067Y-17378618D01*
X6986067Y-17378618D02*
X6986067Y-17454809D01*
X6986067Y-17454809D02*
X6995591Y-17473856D01*
X6995591Y-17473856D02*
X7005115Y-17483380D01*
X7005115Y-17483380D02*
X7024162Y-17492904D01*
X7024162Y-17492904D02*
X7062258Y-17492904D01*
X7062258Y-17492904D02*
X7081305Y-17483380D01*
X7081305Y-17483380D02*
X7090829Y-17473856D01*
X7090829Y-17473856D02*
X7100353Y-17454809D01*
X7100353Y-17454809D02*
X7100353Y-17407190D01*
X7100353Y-17407190D02*
X7090829Y-17388142D01*
X7090829Y-17388142D02*
X7081305Y-17378618D01*
X7081305Y-17378618D02*
X7062258Y-17369094D01*
X7062258Y-17369094D02*
X7024162Y-17369094D01*
X7024162Y-17369094D02*
X7005115Y-17378618D01*
X7005115Y-17378618D02*
X6995591Y-17388142D01*
X6995591Y-17388142D02*
X6986067Y-17407190D01*
X7281305Y-17292904D02*
X7186067Y-17292904D01*
X7186067Y-17292904D02*
X7176543Y-17388142D01*
X7176543Y-17388142D02*
X7186067Y-17378618D01*
X7186067Y-17378618D02*
X7205115Y-17369094D01*
X7205115Y-17369094D02*
X7252734Y-17369094D01*
X7252734Y-17369094D02*
X7271782Y-17378618D01*
X7271782Y-17378618D02*
X7281305Y-17388142D01*
X7281305Y-17388142D02*
X7290829Y-17407190D01*
X7290829Y-17407190D02*
X7290829Y-17454809D01*
X7290829Y-17454809D02*
X7281305Y-17473856D01*
X7281305Y-17473856D02*
X7271782Y-17483380D01*
X7271782Y-17483380D02*
X7252734Y-17492904D01*
X7252734Y-17492904D02*
X7205115Y-17492904D01*
X7205115Y-17492904D02*
X7186067Y-17483380D01*
X7186067Y-17483380D02*
X7176543Y-17473856D01*
X7414639Y-17292904D02*
X7433686Y-17292904D01*
X7433686Y-17292904D02*
X7452734Y-17302428D01*
X7452734Y-17302428D02*
X7462258Y-17311951D01*
X7462258Y-17311951D02*
X7471782Y-17330999D01*
X7471782Y-17330999D02*
X7481305Y-17369094D01*
X7481305Y-17369094D02*
X7481305Y-17416713D01*
X7481305Y-17416713D02*
X7471782Y-17454809D01*
X7471782Y-17454809D02*
X7462258Y-17473856D01*
X7462258Y-17473856D02*
X7452734Y-17483380D01*
X7452734Y-17483380D02*
X7433686Y-17492904D01*
X7433686Y-17492904D02*
X7414639Y-17492904D01*
X7414639Y-17492904D02*
X7395591Y-17483380D01*
X7395591Y-17483380D02*
X7386067Y-17473856D01*
X7386067Y-17473856D02*
X7376543Y-17454809D01*
X7376543Y-17454809D02*
X7367020Y-17416713D01*
X7367020Y-17416713D02*
X7367020Y-17369094D01*
X7367020Y-17369094D02*
X7376543Y-17330999D01*
X7376543Y-17330999D02*
X7386067Y-17311951D01*
X7386067Y-17311951D02*
X7395591Y-17302428D01*
X7395591Y-17302428D02*
X7414639Y-17292904D01*
X7567020Y-17492904D02*
X7567020Y-17359570D01*
X7567020Y-17378618D02*
X7576543Y-17369094D01*
X7576543Y-17369094D02*
X7595591Y-17359570D01*
X7595591Y-17359570D02*
X7624163Y-17359570D01*
X7624163Y-17359570D02*
X7643210Y-17369094D01*
X7643210Y-17369094D02*
X7652734Y-17388142D01*
X7652734Y-17388142D02*
X7652734Y-17492904D01*
X7652734Y-17388142D02*
X7662258Y-17369094D01*
X7662258Y-17369094D02*
X7681305Y-17359570D01*
X7681305Y-17359570D02*
X7709877Y-17359570D01*
X7709877Y-17359570D02*
X7728924Y-17369094D01*
X7728924Y-17369094D02*
X7738448Y-17388142D01*
X7738448Y-17388142D02*
X7738448Y-17492904D01*
X7833686Y-17492904D02*
X7833686Y-17359570D01*
X7833686Y-17378618D02*
X7843210Y-17369094D01*
X7843210Y-17369094D02*
X7862258Y-17359570D01*
X7862258Y-17359570D02*
X7890829Y-17359570D01*
X7890829Y-17359570D02*
X7909877Y-17369094D01*
X7909877Y-17369094D02*
X7919401Y-17388142D01*
X7919401Y-17388142D02*
X7919401Y-17492904D01*
X7919401Y-17388142D02*
X7928924Y-17369094D01*
X7928924Y-17369094D02*
X7947972Y-17359570D01*
X7947972Y-17359570D02*
X7976543Y-17359570D01*
X7976543Y-17359570D02*
X7995591Y-17369094D01*
X7995591Y-17369094D02*
X8005115Y-17388142D01*
X8005115Y-17388142D02*
X8005115Y-17492904D01*
X8395591Y-17283380D02*
X8224163Y-17540523D01*
X8652734Y-17292904D02*
X8671782Y-17292904D01*
X8671782Y-17292904D02*
X8690829Y-17302428D01*
X8690829Y-17302428D02*
X8700353Y-17311951D01*
X8700353Y-17311951D02*
X8709877Y-17330999D01*
X8709877Y-17330999D02*
X8719401Y-17369094D01*
X8719401Y-17369094D02*
X8719401Y-17416713D01*
X8719401Y-17416713D02*
X8709877Y-17454809D01*
X8709877Y-17454809D02*
X8700353Y-17473856D01*
X8700353Y-17473856D02*
X8690829Y-17483380D01*
X8690829Y-17483380D02*
X8671782Y-17492904D01*
X8671782Y-17492904D02*
X8652734Y-17492904D01*
X8652734Y-17492904D02*
X8633687Y-17483380D01*
X8633687Y-17483380D02*
X8624163Y-17473856D01*
X8624163Y-17473856D02*
X8614639Y-17454809D01*
X8614639Y-17454809D02*
X8605115Y-17416713D01*
X8605115Y-17416713D02*
X8605115Y-17369094D01*
X8605115Y-17369094D02*
X8614639Y-17330999D01*
X8614639Y-17330999D02*
X8624163Y-17311951D01*
X8624163Y-17311951D02*
X8633687Y-17302428D01*
X8633687Y-17302428D02*
X8652734Y-17292904D01*
X8805115Y-17473856D02*
X8814639Y-17483380D01*
X8814639Y-17483380D02*
X8805115Y-17492904D01*
X8805115Y-17492904D02*
X8795591Y-17483380D01*
X8795591Y-17483380D02*
X8805115Y-17473856D01*
X8805115Y-17473856D02*
X8805115Y-17492904D01*
X8938448Y-17292904D02*
X8957496Y-17292904D01*
X8957496Y-17292904D02*
X8976544Y-17302428D01*
X8976544Y-17302428D02*
X8986068Y-17311951D01*
X8986068Y-17311951D02*
X8995591Y-17330999D01*
X8995591Y-17330999D02*
X9005115Y-17369094D01*
X9005115Y-17369094D02*
X9005115Y-17416713D01*
X9005115Y-17416713D02*
X8995591Y-17454809D01*
X8995591Y-17454809D02*
X8986068Y-17473856D01*
X8986068Y-17473856D02*
X8976544Y-17483380D01*
X8976544Y-17483380D02*
X8957496Y-17492904D01*
X8957496Y-17492904D02*
X8938448Y-17492904D01*
X8938448Y-17492904D02*
X8919401Y-17483380D01*
X8919401Y-17483380D02*
X8909877Y-17473856D01*
X8909877Y-17473856D02*
X8900353Y-17454809D01*
X8900353Y-17454809D02*
X8890829Y-17416713D01*
X8890829Y-17416713D02*
X8890829Y-17369094D01*
X8890829Y-17369094D02*
X8900353Y-17330999D01*
X8900353Y-17330999D02*
X8909877Y-17311951D01*
X8909877Y-17311951D02*
X8919401Y-17302428D01*
X8919401Y-17302428D02*
X8938448Y-17292904D01*
X9081306Y-17311951D02*
X9090829Y-17302428D01*
X9090829Y-17302428D02*
X9109877Y-17292904D01*
X9109877Y-17292904D02*
X9157496Y-17292904D01*
X9157496Y-17292904D02*
X9176544Y-17302428D01*
X9176544Y-17302428D02*
X9186068Y-17311951D01*
X9186068Y-17311951D02*
X9195591Y-17330999D01*
X9195591Y-17330999D02*
X9195591Y-17350047D01*
X9195591Y-17350047D02*
X9186068Y-17378618D01*
X9186068Y-17378618D02*
X9071782Y-17492904D01*
X9071782Y-17492904D02*
X9195591Y-17492904D01*
X9376544Y-17292904D02*
X9281306Y-17292904D01*
X9281306Y-17292904D02*
X9271782Y-17388142D01*
X9271782Y-17388142D02*
X9281306Y-17378618D01*
X9281306Y-17378618D02*
X9300353Y-17369094D01*
X9300353Y-17369094D02*
X9347972Y-17369094D01*
X9347972Y-17369094D02*
X9367020Y-17378618D01*
X9367020Y-17378618D02*
X9376544Y-17388142D01*
X9376544Y-17388142D02*
X9386068Y-17407190D01*
X9386068Y-17407190D02*
X9386068Y-17454809D01*
X9386068Y-17454809D02*
X9376544Y-17473856D01*
X9376544Y-17473856D02*
X9367020Y-17483380D01*
X9367020Y-17483380D02*
X9347972Y-17492904D01*
X9347972Y-17492904D02*
X9300353Y-17492904D01*
X9300353Y-17492904D02*
X9281306Y-17483380D01*
X9281306Y-17483380D02*
X9271782Y-17473856D01*
X9557496Y-17292904D02*
X9519401Y-17292904D01*
X9519401Y-17292904D02*
X9500353Y-17302428D01*
X9500353Y-17302428D02*
X9490829Y-17311951D01*
X9490829Y-17311951D02*
X9471782Y-17340523D01*
X9471782Y-17340523D02*
X9462258Y-17378618D01*
X9462258Y-17378618D02*
X9462258Y-17454809D01*
X9462258Y-17454809D02*
X9471782Y-17473856D01*
X9471782Y-17473856D02*
X9481306Y-17483380D01*
X9481306Y-17483380D02*
X9500353Y-17492904D01*
X9500353Y-17492904D02*
X9538449Y-17492904D01*
X9538449Y-17492904D02*
X9557496Y-17483380D01*
X9557496Y-17483380D02*
X9567020Y-17473856D01*
X9567020Y-17473856D02*
X9576544Y-17454809D01*
X9576544Y-17454809D02*
X9576544Y-17407190D01*
X9576544Y-17407190D02*
X9567020Y-17388142D01*
X9567020Y-17388142D02*
X9557496Y-17378618D01*
X9557496Y-17378618D02*
X9538449Y-17369094D01*
X9538449Y-17369094D02*
X9500353Y-17369094D01*
X9500353Y-17369094D02*
X9481306Y-17378618D01*
X9481306Y-17378618D02*
X9471782Y-17388142D01*
X9471782Y-17388142D02*
X9462258Y-17407190D01*
X9652734Y-17292904D02*
X9652734Y-17330999D01*
X9728925Y-17292904D02*
X9728925Y-17330999D01*
X10024163Y-17569094D02*
X10014639Y-17559570D01*
X10014639Y-17559570D02*
X9995591Y-17530999D01*
X9995591Y-17530999D02*
X9986068Y-17511951D01*
X9986068Y-17511951D02*
X9976544Y-17483380D01*
X9976544Y-17483380D02*
X9967020Y-17435761D01*
X9967020Y-17435761D02*
X9967020Y-17397666D01*
X9967020Y-17397666D02*
X9976544Y-17350047D01*
X9976544Y-17350047D02*
X9986068Y-17321475D01*
X9986068Y-17321475D02*
X9995591Y-17302428D01*
X9995591Y-17302428D02*
X10014639Y-17273856D01*
X10014639Y-17273856D02*
X10024163Y-17264332D01*
X10090830Y-17311951D02*
X10100353Y-17302428D01*
X10100353Y-17302428D02*
X10119401Y-17292904D01*
X10119401Y-17292904D02*
X10167020Y-17292904D01*
X10167020Y-17292904D02*
X10186068Y-17302428D01*
X10186068Y-17302428D02*
X10195591Y-17311951D01*
X10195591Y-17311951D02*
X10205115Y-17330999D01*
X10205115Y-17330999D02*
X10205115Y-17350047D01*
X10205115Y-17350047D02*
X10195591Y-17378618D01*
X10195591Y-17378618D02*
X10081306Y-17492904D01*
X10081306Y-17492904D02*
X10205115Y-17492904D01*
X10443211Y-17492904D02*
X10443211Y-17292904D01*
X10528925Y-17492904D02*
X10528925Y-17388142D01*
X10528925Y-17388142D02*
X10519401Y-17369094D01*
X10519401Y-17369094D02*
X10500353Y-17359570D01*
X10500353Y-17359570D02*
X10471782Y-17359570D01*
X10471782Y-17359570D02*
X10452734Y-17369094D01*
X10452734Y-17369094D02*
X10443211Y-17378618D01*
X10652734Y-17492904D02*
X10633687Y-17483380D01*
X10633687Y-17483380D02*
X10624163Y-17473856D01*
X10624163Y-17473856D02*
X10614639Y-17454809D01*
X10614639Y-17454809D02*
X10614639Y-17397666D01*
X10614639Y-17397666D02*
X10624163Y-17378618D01*
X10624163Y-17378618D02*
X10633687Y-17369094D01*
X10633687Y-17369094D02*
X10652734Y-17359570D01*
X10652734Y-17359570D02*
X10681306Y-17359570D01*
X10681306Y-17359570D02*
X10700353Y-17369094D01*
X10700353Y-17369094D02*
X10709877Y-17378618D01*
X10709877Y-17378618D02*
X10719401Y-17397666D01*
X10719401Y-17397666D02*
X10719401Y-17454809D01*
X10719401Y-17454809D02*
X10709877Y-17473856D01*
X10709877Y-17473856D02*
X10700353Y-17483380D01*
X10700353Y-17483380D02*
X10681306Y-17492904D01*
X10681306Y-17492904D02*
X10652734Y-17492904D01*
X10833687Y-17492904D02*
X10814639Y-17483380D01*
X10814639Y-17483380D02*
X10805115Y-17464332D01*
X10805115Y-17464332D02*
X10805115Y-17292904D01*
X10986068Y-17483380D02*
X10967020Y-17492904D01*
X10967020Y-17492904D02*
X10928925Y-17492904D01*
X10928925Y-17492904D02*
X10909877Y-17483380D01*
X10909877Y-17483380D02*
X10900353Y-17464332D01*
X10900353Y-17464332D02*
X10900353Y-17388142D01*
X10900353Y-17388142D02*
X10909877Y-17369094D01*
X10909877Y-17369094D02*
X10928925Y-17359570D01*
X10928925Y-17359570D02*
X10967020Y-17359570D01*
X10967020Y-17359570D02*
X10986068Y-17369094D01*
X10986068Y-17369094D02*
X10995592Y-17388142D01*
X10995592Y-17388142D02*
X10995592Y-17407190D01*
X10995592Y-17407190D02*
X10900353Y-17426237D01*
X11071782Y-17483380D02*
X11090830Y-17492904D01*
X11090830Y-17492904D02*
X11128925Y-17492904D01*
X11128925Y-17492904D02*
X11147973Y-17483380D01*
X11147973Y-17483380D02*
X11157496Y-17464332D01*
X11157496Y-17464332D02*
X11157496Y-17454809D01*
X11157496Y-17454809D02*
X11147973Y-17435761D01*
X11147973Y-17435761D02*
X11128925Y-17426237D01*
X11128925Y-17426237D02*
X11100353Y-17426237D01*
X11100353Y-17426237D02*
X11081306Y-17416713D01*
X11081306Y-17416713D02*
X11071782Y-17397666D01*
X11071782Y-17397666D02*
X11071782Y-17388142D01*
X11071782Y-17388142D02*
X11081306Y-17369094D01*
X11081306Y-17369094D02*
X11100353Y-17359570D01*
X11100353Y-17359570D02*
X11128925Y-17359570D01*
X11128925Y-17359570D02*
X11147973Y-17369094D01*
X11224163Y-17569094D02*
X11233687Y-17559570D01*
X11233687Y-17559570D02*
X11252734Y-17530999D01*
X11252734Y-17530999D02*
X11262258Y-17511951D01*
X11262258Y-17511951D02*
X11271782Y-17483380D01*
X11271782Y-17483380D02*
X11281306Y-17435761D01*
X11281306Y-17435761D02*
X11281306Y-17397666D01*
X11281306Y-17397666D02*
X11271782Y-17350047D01*
X11271782Y-17350047D02*
X11262258Y-17321475D01*
X11262258Y-17321475D02*
X11252734Y-17302428D01*
X11252734Y-17302428D02*
X11233687Y-17273856D01*
X11233687Y-17273856D02*
X11224163Y-17264332D01*
X11586068Y-17569094D02*
X11576544Y-17559570D01*
X11576544Y-17559570D02*
X11557496Y-17530999D01*
X11557496Y-17530999D02*
X11547972Y-17511951D01*
X11547972Y-17511951D02*
X11538449Y-17483380D01*
X11538449Y-17483380D02*
X11528925Y-17435761D01*
X11528925Y-17435761D02*
X11528925Y-17397666D01*
X11528925Y-17397666D02*
X11538449Y-17350047D01*
X11538449Y-17350047D02*
X11547972Y-17321475D01*
X11547972Y-17321475D02*
X11557496Y-17302428D01*
X11557496Y-17302428D02*
X11576544Y-17273856D01*
X11576544Y-17273856D02*
X11586068Y-17264332D01*
X11662258Y-17359570D02*
X11662258Y-17492904D01*
X11662258Y-17378618D02*
X11671782Y-17369094D01*
X11671782Y-17369094D02*
X11690830Y-17359570D01*
X11690830Y-17359570D02*
X11719401Y-17359570D01*
X11719401Y-17359570D02*
X11738449Y-17369094D01*
X11738449Y-17369094D02*
X11747972Y-17388142D01*
X11747972Y-17388142D02*
X11747972Y-17492904D01*
X11871782Y-17492904D02*
X11852734Y-17483380D01*
X11852734Y-17483380D02*
X11843211Y-17473856D01*
X11843211Y-17473856D02*
X11833687Y-17454809D01*
X11833687Y-17454809D02*
X11833687Y-17397666D01*
X11833687Y-17397666D02*
X11843211Y-17378618D01*
X11843211Y-17378618D02*
X11852734Y-17369094D01*
X11852734Y-17369094D02*
X11871782Y-17359570D01*
X11871782Y-17359570D02*
X11900353Y-17359570D01*
X11900353Y-17359570D02*
X11919401Y-17369094D01*
X11919401Y-17369094D02*
X11928925Y-17378618D01*
X11928925Y-17378618D02*
X11938449Y-17397666D01*
X11938449Y-17397666D02*
X11938449Y-17454809D01*
X11938449Y-17454809D02*
X11928925Y-17473856D01*
X11928925Y-17473856D02*
X11919401Y-17483380D01*
X11919401Y-17483380D02*
X11900353Y-17492904D01*
X11900353Y-17492904D02*
X11871782Y-17492904D01*
X11995592Y-17359570D02*
X12071782Y-17359570D01*
X12024163Y-17292904D02*
X12024163Y-17464332D01*
X12024163Y-17464332D02*
X12033687Y-17483380D01*
X12033687Y-17483380D02*
X12052734Y-17492904D01*
X12052734Y-17492904D02*
X12071782Y-17492904D01*
X12290830Y-17359570D02*
X12290830Y-17559570D01*
X12290830Y-17369094D02*
X12309877Y-17359570D01*
X12309877Y-17359570D02*
X12347973Y-17359570D01*
X12347973Y-17359570D02*
X12367020Y-17369094D01*
X12367020Y-17369094D02*
X12376544Y-17378618D01*
X12376544Y-17378618D02*
X12386068Y-17397666D01*
X12386068Y-17397666D02*
X12386068Y-17454809D01*
X12386068Y-17454809D02*
X12376544Y-17473856D01*
X12376544Y-17473856D02*
X12367020Y-17483380D01*
X12367020Y-17483380D02*
X12347973Y-17492904D01*
X12347973Y-17492904D02*
X12309877Y-17492904D01*
X12309877Y-17492904D02*
X12290830Y-17483380D01*
X12500353Y-17492904D02*
X12481306Y-17483380D01*
X12481306Y-17483380D02*
X12471782Y-17464332D01*
X12471782Y-17464332D02*
X12471782Y-17292904D01*
X12662258Y-17492904D02*
X12662258Y-17388142D01*
X12662258Y-17388142D02*
X12652734Y-17369094D01*
X12652734Y-17369094D02*
X12633687Y-17359570D01*
X12633687Y-17359570D02*
X12595592Y-17359570D01*
X12595592Y-17359570D02*
X12576544Y-17369094D01*
X12662258Y-17483380D02*
X12643211Y-17492904D01*
X12643211Y-17492904D02*
X12595592Y-17492904D01*
X12595592Y-17492904D02*
X12576544Y-17483380D01*
X12576544Y-17483380D02*
X12567020Y-17464332D01*
X12567020Y-17464332D02*
X12567020Y-17445285D01*
X12567020Y-17445285D02*
X12576544Y-17426237D01*
X12576544Y-17426237D02*
X12595592Y-17416713D01*
X12595592Y-17416713D02*
X12643211Y-17416713D01*
X12643211Y-17416713D02*
X12662258Y-17407190D01*
X12728925Y-17359570D02*
X12805115Y-17359570D01*
X12757496Y-17292904D02*
X12757496Y-17464332D01*
X12757496Y-17464332D02*
X12767020Y-17483380D01*
X12767020Y-17483380D02*
X12786068Y-17492904D01*
X12786068Y-17492904D02*
X12805115Y-17492904D01*
X12947973Y-17483380D02*
X12928925Y-17492904D01*
X12928925Y-17492904D02*
X12890830Y-17492904D01*
X12890830Y-17492904D02*
X12871782Y-17483380D01*
X12871782Y-17483380D02*
X12862258Y-17464332D01*
X12862258Y-17464332D02*
X12862258Y-17388142D01*
X12862258Y-17388142D02*
X12871782Y-17369094D01*
X12871782Y-17369094D02*
X12890830Y-17359570D01*
X12890830Y-17359570D02*
X12928925Y-17359570D01*
X12928925Y-17359570D02*
X12947973Y-17369094D01*
X12947973Y-17369094D02*
X12957496Y-17388142D01*
X12957496Y-17388142D02*
X12957496Y-17407190D01*
X12957496Y-17407190D02*
X12862258Y-17426237D01*
X13128925Y-17492904D02*
X13128925Y-17292904D01*
X13128925Y-17483380D02*
X13109877Y-17492904D01*
X13109877Y-17492904D02*
X13071782Y-17492904D01*
X13071782Y-17492904D02*
X13052734Y-17483380D01*
X13052734Y-17483380D02*
X13043211Y-17473856D01*
X13043211Y-17473856D02*
X13033687Y-17454809D01*
X13033687Y-17454809D02*
X13033687Y-17397666D01*
X13033687Y-17397666D02*
X13043211Y-17378618D01*
X13043211Y-17378618D02*
X13052734Y-17369094D01*
X13052734Y-17369094D02*
X13071782Y-17359570D01*
X13071782Y-17359570D02*
X13109877Y-17359570D01*
X13109877Y-17359570D02*
X13128925Y-17369094D01*
X13205115Y-17569094D02*
X13214639Y-17559570D01*
X13214639Y-17559570D02*
X13233687Y-17530999D01*
X13233687Y-17530999D02*
X13243211Y-17511951D01*
X13243211Y-17511951D02*
X13252734Y-17483380D01*
X13252734Y-17483380D02*
X13262258Y-17435761D01*
X13262258Y-17435761D02*
X13262258Y-17397666D01*
X13262258Y-17397666D02*
X13252734Y-17350047D01*
X13252734Y-17350047D02*
X13243211Y-17321475D01*
X13243211Y-17321475D02*
X13233687Y-17302428D01*
X13233687Y-17302428D02*
X13214639Y-17273856D01*
X13214639Y-17273856D02*
X13205115Y-17264332D01*
X6449100Y-17665420D02*
G75*
G02*
X6249100Y-17665420I-100000J0D01*
G01*
X6249100Y-17665420D02*
G75*
G02*
X6449100Y-17665420I100000J0D01*
G01*
X6795591Y-17623570D02*
X6795591Y-17756904D01*
X6747972Y-17547380D02*
X6700353Y-17690237D01*
X6700353Y-17690237D02*
X6824162Y-17690237D01*
X6900353Y-17737856D02*
X6909877Y-17747380D01*
X6909877Y-17747380D02*
X6900353Y-17756904D01*
X6900353Y-17756904D02*
X6890829Y-17747380D01*
X6890829Y-17747380D02*
X6900353Y-17737856D01*
X6900353Y-17737856D02*
X6900353Y-17756904D01*
X7033686Y-17556904D02*
X7052734Y-17556904D01*
X7052734Y-17556904D02*
X7071782Y-17566428D01*
X7071782Y-17566428D02*
X7081305Y-17575951D01*
X7081305Y-17575951D02*
X7090829Y-17594999D01*
X7090829Y-17594999D02*
X7100353Y-17633094D01*
X7100353Y-17633094D02*
X7100353Y-17680713D01*
X7100353Y-17680713D02*
X7090829Y-17718809D01*
X7090829Y-17718809D02*
X7081305Y-17737856D01*
X7081305Y-17737856D02*
X7071782Y-17747380D01*
X7071782Y-17747380D02*
X7052734Y-17756904D01*
X7052734Y-17756904D02*
X7033686Y-17756904D01*
X7033686Y-17756904D02*
X7014639Y-17747380D01*
X7014639Y-17747380D02*
X7005115Y-17737856D01*
X7005115Y-17737856D02*
X6995591Y-17718809D01*
X6995591Y-17718809D02*
X6986067Y-17680713D01*
X6986067Y-17680713D02*
X6986067Y-17633094D01*
X6986067Y-17633094D02*
X6995591Y-17594999D01*
X6995591Y-17594999D02*
X7005115Y-17575951D01*
X7005115Y-17575951D02*
X7014639Y-17566428D01*
X7014639Y-17566428D02*
X7033686Y-17556904D01*
X7224162Y-17556904D02*
X7243210Y-17556904D01*
X7243210Y-17556904D02*
X7262258Y-17566428D01*
X7262258Y-17566428D02*
X7271782Y-17575951D01*
X7271782Y-17575951D02*
X7281305Y-17594999D01*
X7281305Y-17594999D02*
X7290829Y-17633094D01*
X7290829Y-17633094D02*
X7290829Y-17680713D01*
X7290829Y-17680713D02*
X7281305Y-17718809D01*
X7281305Y-17718809D02*
X7271782Y-17737856D01*
X7271782Y-17737856D02*
X7262258Y-17747380D01*
X7262258Y-17747380D02*
X7243210Y-17756904D01*
X7243210Y-17756904D02*
X7224162Y-17756904D01*
X7224162Y-17756904D02*
X7205115Y-17747380D01*
X7205115Y-17747380D02*
X7195591Y-17737856D01*
X7195591Y-17737856D02*
X7186067Y-17718809D01*
X7186067Y-17718809D02*
X7176543Y-17680713D01*
X7176543Y-17680713D02*
X7176543Y-17633094D01*
X7176543Y-17633094D02*
X7186067Y-17594999D01*
X7186067Y-17594999D02*
X7195591Y-17575951D01*
X7195591Y-17575951D02*
X7205115Y-17566428D01*
X7205115Y-17566428D02*
X7224162Y-17556904D01*
X7414639Y-17556904D02*
X7433686Y-17556904D01*
X7433686Y-17556904D02*
X7452734Y-17566428D01*
X7452734Y-17566428D02*
X7462258Y-17575951D01*
X7462258Y-17575951D02*
X7471782Y-17594999D01*
X7471782Y-17594999D02*
X7481305Y-17633094D01*
X7481305Y-17633094D02*
X7481305Y-17680713D01*
X7481305Y-17680713D02*
X7471782Y-17718809D01*
X7471782Y-17718809D02*
X7462258Y-17737856D01*
X7462258Y-17737856D02*
X7452734Y-17747380D01*
X7452734Y-17747380D02*
X7433686Y-17756904D01*
X7433686Y-17756904D02*
X7414639Y-17756904D01*
X7414639Y-17756904D02*
X7395591Y-17747380D01*
X7395591Y-17747380D02*
X7386067Y-17737856D01*
X7386067Y-17737856D02*
X7376543Y-17718809D01*
X7376543Y-17718809D02*
X7367020Y-17680713D01*
X7367020Y-17680713D02*
X7367020Y-17633094D01*
X7367020Y-17633094D02*
X7376543Y-17594999D01*
X7376543Y-17594999D02*
X7386067Y-17575951D01*
X7386067Y-17575951D02*
X7395591Y-17566428D01*
X7395591Y-17566428D02*
X7414639Y-17556904D01*
X7567020Y-17756904D02*
X7567020Y-17623570D01*
X7567020Y-17642618D02*
X7576543Y-17633094D01*
X7576543Y-17633094D02*
X7595591Y-17623570D01*
X7595591Y-17623570D02*
X7624163Y-17623570D01*
X7624163Y-17623570D02*
X7643210Y-17633094D01*
X7643210Y-17633094D02*
X7652734Y-17652142D01*
X7652734Y-17652142D02*
X7652734Y-17756904D01*
X7652734Y-17652142D02*
X7662258Y-17633094D01*
X7662258Y-17633094D02*
X7681305Y-17623570D01*
X7681305Y-17623570D02*
X7709877Y-17623570D01*
X7709877Y-17623570D02*
X7728924Y-17633094D01*
X7728924Y-17633094D02*
X7738448Y-17652142D01*
X7738448Y-17652142D02*
X7738448Y-17756904D01*
X7833686Y-17756904D02*
X7833686Y-17623570D01*
X7833686Y-17642618D02*
X7843210Y-17633094D01*
X7843210Y-17633094D02*
X7862258Y-17623570D01*
X7862258Y-17623570D02*
X7890829Y-17623570D01*
X7890829Y-17623570D02*
X7909877Y-17633094D01*
X7909877Y-17633094D02*
X7919401Y-17652142D01*
X7919401Y-17652142D02*
X7919401Y-17756904D01*
X7919401Y-17652142D02*
X7928924Y-17633094D01*
X7928924Y-17633094D02*
X7947972Y-17623570D01*
X7947972Y-17623570D02*
X7976543Y-17623570D01*
X7976543Y-17623570D02*
X7995591Y-17633094D01*
X7995591Y-17633094D02*
X8005115Y-17652142D01*
X8005115Y-17652142D02*
X8005115Y-17756904D01*
X8395591Y-17547380D02*
X8224163Y-17804523D01*
X8652734Y-17556904D02*
X8671782Y-17556904D01*
X8671782Y-17556904D02*
X8690829Y-17566428D01*
X8690829Y-17566428D02*
X8700353Y-17575951D01*
X8700353Y-17575951D02*
X8709877Y-17594999D01*
X8709877Y-17594999D02*
X8719401Y-17633094D01*
X8719401Y-17633094D02*
X8719401Y-17680713D01*
X8719401Y-17680713D02*
X8709877Y-17718809D01*
X8709877Y-17718809D02*
X8700353Y-17737856D01*
X8700353Y-17737856D02*
X8690829Y-17747380D01*
X8690829Y-17747380D02*
X8671782Y-17756904D01*
X8671782Y-17756904D02*
X8652734Y-17756904D01*
X8652734Y-17756904D02*
X8633687Y-17747380D01*
X8633687Y-17747380D02*
X8624163Y-17737856D01*
X8624163Y-17737856D02*
X8614639Y-17718809D01*
X8614639Y-17718809D02*
X8605115Y-17680713D01*
X8605115Y-17680713D02*
X8605115Y-17633094D01*
X8605115Y-17633094D02*
X8614639Y-17594999D01*
X8614639Y-17594999D02*
X8624163Y-17575951D01*
X8624163Y-17575951D02*
X8633687Y-17566428D01*
X8633687Y-17566428D02*
X8652734Y-17556904D01*
X8805115Y-17737856D02*
X8814639Y-17747380D01*
X8814639Y-17747380D02*
X8805115Y-17756904D01*
X8805115Y-17756904D02*
X8795591Y-17747380D01*
X8795591Y-17747380D02*
X8805115Y-17737856D01*
X8805115Y-17737856D02*
X8805115Y-17756904D01*
X9005115Y-17756904D02*
X8890829Y-17756904D01*
X8947972Y-17756904D02*
X8947972Y-17556904D01*
X8947972Y-17556904D02*
X8928925Y-17585475D01*
X8928925Y-17585475D02*
X8909877Y-17604523D01*
X8909877Y-17604523D02*
X8890829Y-17614047D01*
X9186068Y-17556904D02*
X9090829Y-17556904D01*
X9090829Y-17556904D02*
X9081306Y-17652142D01*
X9081306Y-17652142D02*
X9090829Y-17642618D01*
X9090829Y-17642618D02*
X9109877Y-17633094D01*
X9109877Y-17633094D02*
X9157496Y-17633094D01*
X9157496Y-17633094D02*
X9176544Y-17642618D01*
X9176544Y-17642618D02*
X9186068Y-17652142D01*
X9186068Y-17652142D02*
X9195591Y-17671190D01*
X9195591Y-17671190D02*
X9195591Y-17718809D01*
X9195591Y-17718809D02*
X9186068Y-17737856D01*
X9186068Y-17737856D02*
X9176544Y-17747380D01*
X9176544Y-17747380D02*
X9157496Y-17756904D01*
X9157496Y-17756904D02*
X9109877Y-17756904D01*
X9109877Y-17756904D02*
X9090829Y-17747380D01*
X9090829Y-17747380D02*
X9081306Y-17737856D01*
X9262258Y-17556904D02*
X9395591Y-17556904D01*
X9395591Y-17556904D02*
X9309877Y-17756904D01*
X9567020Y-17556904D02*
X9471782Y-17556904D01*
X9471782Y-17556904D02*
X9462258Y-17652142D01*
X9462258Y-17652142D02*
X9471782Y-17642618D01*
X9471782Y-17642618D02*
X9490829Y-17633094D01*
X9490829Y-17633094D02*
X9538449Y-17633094D01*
X9538449Y-17633094D02*
X9557496Y-17642618D01*
X9557496Y-17642618D02*
X9567020Y-17652142D01*
X9567020Y-17652142D02*
X9576544Y-17671190D01*
X9576544Y-17671190D02*
X9576544Y-17718809D01*
X9576544Y-17718809D02*
X9567020Y-17737856D01*
X9567020Y-17737856D02*
X9557496Y-17747380D01*
X9557496Y-17747380D02*
X9538449Y-17756904D01*
X9538449Y-17756904D02*
X9490829Y-17756904D01*
X9490829Y-17756904D02*
X9471782Y-17747380D01*
X9471782Y-17747380D02*
X9462258Y-17737856D01*
X9652734Y-17556904D02*
X9652734Y-17594999D01*
X9728925Y-17556904D02*
X9728925Y-17594999D01*
X10024163Y-17833094D02*
X10014639Y-17823570D01*
X10014639Y-17823570D02*
X9995591Y-17794999D01*
X9995591Y-17794999D02*
X9986068Y-17775951D01*
X9986068Y-17775951D02*
X9976544Y-17747380D01*
X9976544Y-17747380D02*
X9967020Y-17699761D01*
X9967020Y-17699761D02*
X9967020Y-17661666D01*
X9967020Y-17661666D02*
X9976544Y-17614047D01*
X9976544Y-17614047D02*
X9986068Y-17585475D01*
X9986068Y-17585475D02*
X9995591Y-17566428D01*
X9995591Y-17566428D02*
X10014639Y-17537856D01*
X10014639Y-17537856D02*
X10024163Y-17528332D01*
X10081306Y-17556904D02*
X10205115Y-17556904D01*
X10205115Y-17556904D02*
X10138449Y-17633094D01*
X10138449Y-17633094D02*
X10167020Y-17633094D01*
X10167020Y-17633094D02*
X10186068Y-17642618D01*
X10186068Y-17642618D02*
X10195591Y-17652142D01*
X10195591Y-17652142D02*
X10205115Y-17671190D01*
X10205115Y-17671190D02*
X10205115Y-17718809D01*
X10205115Y-17718809D02*
X10195591Y-17737856D01*
X10195591Y-17737856D02*
X10186068Y-17747380D01*
X10186068Y-17747380D02*
X10167020Y-17756904D01*
X10167020Y-17756904D02*
X10109877Y-17756904D01*
X10109877Y-17756904D02*
X10090830Y-17747380D01*
X10090830Y-17747380D02*
X10081306Y-17737856D01*
X10376544Y-17623570D02*
X10376544Y-17756904D01*
X10328925Y-17547380D02*
X10281306Y-17690237D01*
X10281306Y-17690237D02*
X10405115Y-17690237D01*
X10633687Y-17756904D02*
X10633687Y-17556904D01*
X10719401Y-17756904D02*
X10719401Y-17652142D01*
X10719401Y-17652142D02*
X10709877Y-17633094D01*
X10709877Y-17633094D02*
X10690830Y-17623570D01*
X10690830Y-17623570D02*
X10662258Y-17623570D01*
X10662258Y-17623570D02*
X10643211Y-17633094D01*
X10643211Y-17633094D02*
X10633687Y-17642618D01*
X10843211Y-17756904D02*
X10824163Y-17747380D01*
X10824163Y-17747380D02*
X10814639Y-17737856D01*
X10814639Y-17737856D02*
X10805115Y-17718809D01*
X10805115Y-17718809D02*
X10805115Y-17661666D01*
X10805115Y-17661666D02*
X10814639Y-17642618D01*
X10814639Y-17642618D02*
X10824163Y-17633094D01*
X10824163Y-17633094D02*
X10843211Y-17623570D01*
X10843211Y-17623570D02*
X10871782Y-17623570D01*
X10871782Y-17623570D02*
X10890830Y-17633094D01*
X10890830Y-17633094D02*
X10900353Y-17642618D01*
X10900353Y-17642618D02*
X10909877Y-17661666D01*
X10909877Y-17661666D02*
X10909877Y-17718809D01*
X10909877Y-17718809D02*
X10900353Y-17737856D01*
X10900353Y-17737856D02*
X10890830Y-17747380D01*
X10890830Y-17747380D02*
X10871782Y-17756904D01*
X10871782Y-17756904D02*
X10843211Y-17756904D01*
X11024163Y-17756904D02*
X11005115Y-17747380D01*
X11005115Y-17747380D02*
X10995592Y-17728332D01*
X10995592Y-17728332D02*
X10995592Y-17556904D01*
X11176544Y-17747380D02*
X11157496Y-17756904D01*
X11157496Y-17756904D02*
X11119401Y-17756904D01*
X11119401Y-17756904D02*
X11100353Y-17747380D01*
X11100353Y-17747380D02*
X11090830Y-17728332D01*
X11090830Y-17728332D02*
X11090830Y-17652142D01*
X11090830Y-17652142D02*
X11100353Y-17633094D01*
X11100353Y-17633094D02*
X11119401Y-17623570D01*
X11119401Y-17623570D02*
X11157496Y-17623570D01*
X11157496Y-17623570D02*
X11176544Y-17633094D01*
X11176544Y-17633094D02*
X11186068Y-17652142D01*
X11186068Y-17652142D02*
X11186068Y-17671190D01*
X11186068Y-17671190D02*
X11090830Y-17690237D01*
X11262258Y-17747380D02*
X11281306Y-17756904D01*
X11281306Y-17756904D02*
X11319401Y-17756904D01*
X11319401Y-17756904D02*
X11338449Y-17747380D01*
X11338449Y-17747380D02*
X11347972Y-17728332D01*
X11347972Y-17728332D02*
X11347972Y-17718809D01*
X11347972Y-17718809D02*
X11338449Y-17699761D01*
X11338449Y-17699761D02*
X11319401Y-17690237D01*
X11319401Y-17690237D02*
X11290830Y-17690237D01*
X11290830Y-17690237D02*
X11271782Y-17680713D01*
X11271782Y-17680713D02*
X11262258Y-17661666D01*
X11262258Y-17661666D02*
X11262258Y-17652142D01*
X11262258Y-17652142D02*
X11271782Y-17633094D01*
X11271782Y-17633094D02*
X11290830Y-17623570D01*
X11290830Y-17623570D02*
X11319401Y-17623570D01*
X11319401Y-17623570D02*
X11338449Y-17633094D01*
X11414639Y-17833094D02*
X11424163Y-17823570D01*
X11424163Y-17823570D02*
X11443211Y-17794999D01*
X11443211Y-17794999D02*
X11452734Y-17775951D01*
X11452734Y-17775951D02*
X11462258Y-17747380D01*
X11462258Y-17747380D02*
X11471782Y-17699761D01*
X11471782Y-17699761D02*
X11471782Y-17661666D01*
X11471782Y-17661666D02*
X11462258Y-17614047D01*
X11462258Y-17614047D02*
X11452734Y-17585475D01*
X11452734Y-17585475D02*
X11443211Y-17566428D01*
X11443211Y-17566428D02*
X11424163Y-17537856D01*
X11424163Y-17537856D02*
X11414639Y-17528332D01*
X11776544Y-17833094D02*
X11767020Y-17823570D01*
X11767020Y-17823570D02*
X11747972Y-17794999D01*
X11747972Y-17794999D02*
X11738449Y-17775951D01*
X11738449Y-17775951D02*
X11728925Y-17747380D01*
X11728925Y-17747380D02*
X11719401Y-17699761D01*
X11719401Y-17699761D02*
X11719401Y-17661666D01*
X11719401Y-17661666D02*
X11728925Y-17614047D01*
X11728925Y-17614047D02*
X11738449Y-17585475D01*
X11738449Y-17585475D02*
X11747972Y-17566428D01*
X11747972Y-17566428D02*
X11767020Y-17537856D01*
X11767020Y-17537856D02*
X11776544Y-17528332D01*
X11852734Y-17623570D02*
X11852734Y-17756904D01*
X11852734Y-17642618D02*
X11862258Y-17633094D01*
X11862258Y-17633094D02*
X11881306Y-17623570D01*
X11881306Y-17623570D02*
X11909877Y-17623570D01*
X11909877Y-17623570D02*
X11928925Y-17633094D01*
X11928925Y-17633094D02*
X11938449Y-17652142D01*
X11938449Y-17652142D02*
X11938449Y-17756904D01*
X12062258Y-17756904D02*
X12043211Y-17747380D01*
X12043211Y-17747380D02*
X12033687Y-17737856D01*
X12033687Y-17737856D02*
X12024163Y-17718809D01*
X12024163Y-17718809D02*
X12024163Y-17661666D01*
X12024163Y-17661666D02*
X12033687Y-17642618D01*
X12033687Y-17642618D02*
X12043211Y-17633094D01*
X12043211Y-17633094D02*
X12062258Y-17623570D01*
X12062258Y-17623570D02*
X12090830Y-17623570D01*
X12090830Y-17623570D02*
X12109877Y-17633094D01*
X12109877Y-17633094D02*
X12119401Y-17642618D01*
X12119401Y-17642618D02*
X12128925Y-17661666D01*
X12128925Y-17661666D02*
X12128925Y-17718809D01*
X12128925Y-17718809D02*
X12119401Y-17737856D01*
X12119401Y-17737856D02*
X12109877Y-17747380D01*
X12109877Y-17747380D02*
X12090830Y-17756904D01*
X12090830Y-17756904D02*
X12062258Y-17756904D01*
X12186068Y-17623570D02*
X12262258Y-17623570D01*
X12214639Y-17556904D02*
X12214639Y-17728332D01*
X12214639Y-17728332D02*
X12224163Y-17747380D01*
X12224163Y-17747380D02*
X12243211Y-17756904D01*
X12243211Y-17756904D02*
X12262258Y-17756904D01*
X12481306Y-17623570D02*
X12481306Y-17823570D01*
X12481306Y-17633094D02*
X12500353Y-17623570D01*
X12500353Y-17623570D02*
X12538449Y-17623570D01*
X12538449Y-17623570D02*
X12557496Y-17633094D01*
X12557496Y-17633094D02*
X12567020Y-17642618D01*
X12567020Y-17642618D02*
X12576544Y-17661666D01*
X12576544Y-17661666D02*
X12576544Y-17718809D01*
X12576544Y-17718809D02*
X12567020Y-17737856D01*
X12567020Y-17737856D02*
X12557496Y-17747380D01*
X12557496Y-17747380D02*
X12538449Y-17756904D01*
X12538449Y-17756904D02*
X12500353Y-17756904D01*
X12500353Y-17756904D02*
X12481306Y-17747380D01*
X12690830Y-17756904D02*
X12671782Y-17747380D01*
X12671782Y-17747380D02*
X12662258Y-17728332D01*
X12662258Y-17728332D02*
X12662258Y-17556904D01*
X12852734Y-17756904D02*
X12852734Y-17652142D01*
X12852734Y-17652142D02*
X12843211Y-17633094D01*
X12843211Y-17633094D02*
X12824163Y-17623570D01*
X12824163Y-17623570D02*
X12786068Y-17623570D01*
X12786068Y-17623570D02*
X12767020Y-17633094D01*
X12852734Y-17747380D02*
X12833687Y-17756904D01*
X12833687Y-17756904D02*
X12786068Y-17756904D01*
X12786068Y-17756904D02*
X12767020Y-17747380D01*
X12767020Y-17747380D02*
X12757496Y-17728332D01*
X12757496Y-17728332D02*
X12757496Y-17709285D01*
X12757496Y-17709285D02*
X12767020Y-17690237D01*
X12767020Y-17690237D02*
X12786068Y-17680713D01*
X12786068Y-17680713D02*
X12833687Y-17680713D01*
X12833687Y-17680713D02*
X12852734Y-17671190D01*
X12919401Y-17623570D02*
X12995592Y-17623570D01*
X12947973Y-17556904D02*
X12947973Y-17728332D01*
X12947973Y-17728332D02*
X12957496Y-17747380D01*
X12957496Y-17747380D02*
X12976544Y-17756904D01*
X12976544Y-17756904D02*
X12995592Y-17756904D01*
X13138449Y-17747380D02*
X13119401Y-17756904D01*
X13119401Y-17756904D02*
X13081306Y-17756904D01*
X13081306Y-17756904D02*
X13062258Y-17747380D01*
X13062258Y-17747380D02*
X13052734Y-17728332D01*
X13052734Y-17728332D02*
X13052734Y-17652142D01*
X13052734Y-17652142D02*
X13062258Y-17633094D01*
X13062258Y-17633094D02*
X13081306Y-17623570D01*
X13081306Y-17623570D02*
X13119401Y-17623570D01*
X13119401Y-17623570D02*
X13138449Y-17633094D01*
X13138449Y-17633094D02*
X13147973Y-17652142D01*
X13147973Y-17652142D02*
X13147973Y-17671190D01*
X13147973Y-17671190D02*
X13052734Y-17690237D01*
X13319401Y-17756904D02*
X13319401Y-17556904D01*
X13319401Y-17747380D02*
X13300354Y-17756904D01*
X13300354Y-17756904D02*
X13262258Y-17756904D01*
X13262258Y-17756904D02*
X13243211Y-17747380D01*
X13243211Y-17747380D02*
X13233687Y-17737856D01*
X13233687Y-17737856D02*
X13224163Y-17718809D01*
X13224163Y-17718809D02*
X13224163Y-17661666D01*
X13224163Y-17661666D02*
X13233687Y-17642618D01*
X13233687Y-17642618D02*
X13243211Y-17633094D01*
X13243211Y-17633094D02*
X13262258Y-17623570D01*
X13262258Y-17623570D02*
X13300354Y-17623570D01*
X13300354Y-17623570D02*
X13319401Y-17633094D01*
X13395592Y-17833094D02*
X13405115Y-17823570D01*
X13405115Y-17823570D02*
X13424163Y-17794999D01*
X13424163Y-17794999D02*
X13433687Y-17775951D01*
X13433687Y-17775951D02*
X13443211Y-17747380D01*
X13443211Y-17747380D02*
X13452734Y-17699761D01*
X13452734Y-17699761D02*
X13452734Y-17661666D01*
X13452734Y-17661666D02*
X13443211Y-17614047D01*
X13443211Y-17614047D02*
X13433687Y-17585475D01*
X13433687Y-17585475D02*
X13424163Y-17566428D01*
X13424163Y-17566428D02*
X13405115Y-17537856D01*
X13405115Y-17537856D02*
X13395592Y-17528332D01*
M02*
