M48
; DRILL file {KiCad 8.0.6} date 2024-12-23T22:53:28-0600
; FORMAT={-:-/ absolute / metric / decimal}
; #@! TF.CreationDate,2024-12-23T22:53:28-06:00
; #@! TF.GenerationSoftware,Kicad,Pcbnew,8.0.6
; #@! TF.FileFunction,Plated,1,2,PTH
FMAT,2
METRIC
; #@! TA.AperFunction,Plated,PTH,ViaDrill
T1C0.300
; #@! TA.AperFunction,Plated,PTH,ComponentDrill
T2C0.500
; #@! TA.AperFunction,Plated,PTH,ComponentDrill
T3C0.600
; #@! TA.AperFunction,Plated,PTH,ComponentDrill
T4C1.500
%
G90
G05
T1
X206.674Y-78.172
X207.081Y-73.092
X212.77Y-76.304
X212.962Y-77.345
X213.024Y-75.542
X215.471Y-75.346
X215.767Y-84.141
X215.805Y-109.101
X215.844Y-102.7
X215.945Y-96.249
X216.152Y-58.283
X216.152Y-74.925
X216.584Y-68.139
X216.804Y-74.462
X217.284Y-73.822
X217.825Y-64.049
X217.85Y-73.257
X218.25Y-115.591
X218.514Y-76.381
X219.114Y-75.773
X219.704Y-72.672
X219.714Y-75.187
X220.314Y-74.653
X220.803Y-120.347
X221.101Y-73.638
X224.454Y-90.516
X224.911Y-73.854
X225.775Y-95.498
X228.569Y-88.027
X231.338Y-97.425
X231.541Y-85.157
X232.379Y-79.264
T4
X70.176Y-65.078
X70.276Y-84.127
X70.276Y-103.177
X70.276Y-122.227
X70.276Y-141.278
X76.526Y-62.537
X76.626Y-81.587
X76.626Y-100.637
X76.626Y-119.688
X76.626Y-138.737
X89.326Y-65.078
X89.326Y-84.127
X89.326Y-103.177
X89.326Y-122.227
X89.326Y-141.278
X95.676Y-62.537
X95.676Y-81.587
X95.676Y-100.637
X95.676Y-119.688
X95.676Y-138.737
X108.376Y-60.328
X108.376Y-79.365
X108.376Y-98.415
X108.376Y-117.465
X108.376Y-136.515
X114.726Y-57.787
X114.726Y-76.825
X114.726Y-95.875
X114.726Y-114.925
X114.726Y-133.975
X127.426Y-57.934
X127.426Y-76.984
X127.426Y-96.034
X127.426Y-115.084
X133.776Y-55.394
X133.776Y-74.444
X133.776Y-93.494
X133.776Y-112.544
X136.951Y-136.502
X143.301Y-133.963
X146.476Y-60.302
X146.476Y-79.352
X146.476Y-98.39
X146.476Y-117.453
X152.826Y-57.762
X152.826Y-76.812
X152.826Y-95.85
X152.826Y-114.912
X161.353Y-140.891
X165.526Y-62.684
X165.526Y-81.721
X165.526Y-100.771
X165.526Y-119.821
X168.123Y-141.866
X171.876Y-60.144
X171.876Y-79.181
X171.876Y-98.231
X171.876Y-117.281
X178.022Y-150.416
X184.576Y-74.602
X184.576Y-93.64
X184.576Y-112.69
X184.791Y-151.391
X187.547Y-133.747
X190.926Y-72.062
X190.926Y-91.1
X190.926Y-110.15
X194.316Y-134.722
T2
X227.32Y-57.269G85X228.32Y-57.269
G05
X227.32Y-59.169G85X228.32Y-59.169
G05
X227.32Y-60.869G85X228.32Y-60.869
G05
X227.32Y-62.569G85X228.32Y-62.569
G05
T3
X209.894Y-55.949G85X209.894Y-55.349
G05
X209.894Y-60.379G85X209.894Y-59.279
G05
X218.534Y-55.949G85X218.534Y-55.349
G05
X218.534Y-60.379G85X218.534Y-59.279
G05
M30
