G04 #@! TF.GenerationSoftware,KiCad,Pcbnew,8.0.6*
G04 #@! TF.CreationDate,2024-12-23T22:51:37-06:00*
G04 #@! TF.ProjectId,mk0,6d6b302e-6b69-4636-9164-5f7063625858,rev?*
G04 #@! TF.SameCoordinates,Original*
G04 #@! TF.FileFunction,Paste,Top*
G04 #@! TF.FilePolarity,Positive*
%FSLAX46Y46*%
G04 Gerber Fmt 4.6, Leading zero omitted, Abs format (unit mm)*
G04 Created by KiCad (PCBNEW 8.0.6) date 2024-12-23 22:51:37*
%MOMM*%
%LPD*%
G01*
G04 APERTURE LIST*
G04 Aperture macros list*
%AMRoundRect*
0 Rectangle with rounded corners*
0 $1 Rounding radius*
0 $2 $3 $4 $5 $6 $7 $8 $9 X,Y pos of 4 corners*
0 Add a 4 corners polygon primitive as box body*
4,1,4,$2,$3,$4,$5,$6,$7,$8,$9,$2,$3,0*
0 Add four circle primitives for the rounded corners*
1,1,$1+$1,$2,$3*
1,1,$1+$1,$4,$5*
1,1,$1+$1,$6,$7*
1,1,$1+$1,$8,$9*
0 Add four rect primitives between the rounded corners*
20,1,$1+$1,$2,$3,$4,$5,0*
20,1,$1+$1,$4,$5,$6,$7,0*
20,1,$1+$1,$6,$7,$8,$9,0*
20,1,$1+$1,$8,$9,$2,$3,0*%
G04 Aperture macros list end*
%ADD10RoundRect,0.250000X-0.475000X0.337500X-0.475000X-0.337500X0.475000X-0.337500X0.475000X0.337500X0*%
%ADD11RoundRect,0.250000X0.337500X0.475000X-0.337500X0.475000X-0.337500X-0.475000X0.337500X-0.475000X0*%
%ADD12RoundRect,0.250000X-0.250000X0.250000X-0.250000X-0.250000X0.250000X-0.250000X0.250000X0.250000X0*%
%ADD13R,1.050000X1.100000*%
%ADD14RoundRect,0.075000X0.662500X-0.075000X0.662500X0.075000X-0.662500X0.075000X-0.662500X-0.075000X0*%
%ADD15RoundRect,0.075000X0.075000X-0.662500X0.075000X0.662500X-0.075000X0.662500X-0.075000X-0.662500X0*%
%ADD16RoundRect,0.150000X0.587500X0.150000X-0.587500X0.150000X-0.587500X-0.150000X0.587500X-0.150000X0*%
%ADD17R,1.500000X1.500000*%
%ADD18RoundRect,0.250000X-0.450000X0.350000X-0.450000X-0.350000X0.450000X-0.350000X0.450000X0.350000X0*%
%ADD19RoundRect,0.250000X0.450000X-0.350000X0.450000X0.350000X-0.450000X0.350000X-0.450000X-0.350000X0*%
%ADD20R,0.600000X1.450000*%
%ADD21R,0.300000X1.450000*%
%ADD22RoundRect,0.250000X0.475000X-0.337500X0.475000X0.337500X-0.475000X0.337500X-0.475000X-0.337500X0*%
%ADD23RoundRect,0.250000X-0.337500X-0.475000X0.337500X-0.475000X0.337500X0.475000X-0.337500X0.475000X0*%
G04 APERTURE END LIST*
D10*
X232328150Y-75609500D03*
X232328150Y-77684500D03*
D11*
X209526025Y-64887000D03*
X211601025Y-64887000D03*
X209526025Y-70983000D03*
X211601025Y-70983000D03*
D12*
X216910350Y-124358125D03*
X216910350Y-121858125D03*
D13*
X219029150Y-86210500D03*
X217179150Y-86210500D03*
D14*
X214271025Y-78149500D03*
X214271025Y-77649500D03*
X214271025Y-77149500D03*
X214271025Y-76649500D03*
X214271025Y-76149500D03*
X214271025Y-75649500D03*
X214271025Y-75149500D03*
X214271025Y-74649500D03*
X214271025Y-74149500D03*
X214271025Y-73649500D03*
X214271025Y-73149500D03*
X214271025Y-72649500D03*
D15*
X215683525Y-71237000D03*
X216183525Y-71237000D03*
X216683525Y-71237000D03*
X217183525Y-71237000D03*
X217683525Y-71237000D03*
X218183525Y-71237000D03*
X218683525Y-71237000D03*
X219183525Y-71237000D03*
X219683525Y-71237000D03*
X220183525Y-71237000D03*
X220683525Y-71237000D03*
X221183525Y-71237000D03*
D14*
X222596025Y-72649500D03*
X222596025Y-73149500D03*
X222596025Y-73649500D03*
X222596025Y-74149500D03*
X222596025Y-74649500D03*
X222596025Y-75149500D03*
X222596025Y-75649500D03*
X222596025Y-76149500D03*
X222596025Y-76649500D03*
X222596025Y-77149500D03*
X222596025Y-77649500D03*
X222596025Y-78149500D03*
D15*
X221183525Y-79562000D03*
X220683525Y-79562000D03*
X220183525Y-79562000D03*
X219683525Y-79562000D03*
X219183525Y-79562000D03*
X218683525Y-79562000D03*
X218183525Y-79562000D03*
X217683525Y-79562000D03*
X217183525Y-79562000D03*
X216683525Y-79562000D03*
X216183525Y-79562000D03*
X215683525Y-79562000D03*
D16*
X211579525Y-68819000D03*
X211579525Y-66919000D03*
X209704525Y-67869000D03*
D17*
X205658150Y-93576500D03*
X205658150Y-85776500D03*
X228518150Y-93756500D03*
X228518150Y-85956500D03*
D18*
X221914150Y-86194500D03*
X221914150Y-84194500D03*
D19*
X210738150Y-86194500D03*
X210738150Y-84194500D03*
D18*
X214373525Y-66681000D03*
X214373525Y-68681000D03*
X219453525Y-62871000D03*
X219453525Y-64871000D03*
D20*
X217464025Y-60743625D03*
X216664025Y-60743625D03*
D21*
X215464025Y-60743625D03*
X214464025Y-60743625D03*
X213964025Y-60743625D03*
X212964025Y-60743625D03*
D20*
X211764025Y-60743625D03*
X210964025Y-60743625D03*
X210964025Y-60743625D03*
X211764025Y-60743625D03*
D21*
X212464025Y-60743625D03*
X213464025Y-60743625D03*
X214964025Y-60743625D03*
X215964025Y-60743625D03*
D20*
X216664025Y-60743625D03*
X217464025Y-60743625D03*
D12*
X219291600Y-121858125D03*
X219291600Y-124358125D03*
X214529100Y-121858125D03*
X214529100Y-124358125D03*
X221793500Y-118067500D03*
X221793500Y-115567500D03*
X219441000Y-118067500D03*
X219441000Y-115567500D03*
X217031000Y-118067500D03*
X217031000Y-115567500D03*
X221761750Y-111615900D03*
X221761750Y-109115900D03*
X219380500Y-111615900D03*
X219380500Y-109115900D03*
X216999250Y-111615900D03*
X216999250Y-109115900D03*
X221749050Y-105177000D03*
X221749050Y-102677000D03*
X219367800Y-105177000D03*
X219367800Y-102677000D03*
X216986550Y-105177000D03*
X216986550Y-102677000D03*
X221850650Y-96187300D03*
X221850650Y-98687300D03*
X219469400Y-96187300D03*
X219469400Y-98687300D03*
X217088150Y-98746675D03*
X217088150Y-96246675D03*
X212147850Y-124358125D03*
X212147850Y-121858125D03*
X209766600Y-124358125D03*
X209766600Y-121858125D03*
X207258350Y-124417500D03*
X207258350Y-121917500D03*
X214649750Y-118067500D03*
X214649750Y-115567500D03*
X212268500Y-118067500D03*
X212268500Y-115567500D03*
X209887250Y-118067500D03*
X209887250Y-115567500D03*
X207506000Y-118067500D03*
X207506000Y-115567500D03*
X214618000Y-111615900D03*
X214618000Y-109115900D03*
X212236750Y-111615900D03*
X212236750Y-109115900D03*
X209855500Y-111615900D03*
X209855500Y-109115900D03*
X207474250Y-111615900D03*
X207474250Y-109115900D03*
X214605300Y-105177000D03*
X214605300Y-102677000D03*
X212224050Y-105177000D03*
X212224050Y-102677000D03*
X209842800Y-105177000D03*
X209842800Y-102677000D03*
X207461550Y-105177000D03*
X207461550Y-102677000D03*
X214706900Y-98687300D03*
X214706900Y-96187300D03*
X212325650Y-98687300D03*
X212325650Y-96187300D03*
X209944400Y-98687300D03*
X209944400Y-96187300D03*
X207563150Y-96187300D03*
X207563150Y-98687300D03*
D10*
X221914150Y-90550000D03*
X221914150Y-88475000D03*
D22*
X214294150Y-84157000D03*
X214294150Y-86232000D03*
X225470150Y-88010000D03*
X225470150Y-85935000D03*
D10*
X229788150Y-75609500D03*
X229788150Y-77684500D03*
D23*
X205425650Y-78171000D03*
X203350650Y-78171000D03*
X205425650Y-75631000D03*
X203350650Y-75631000D03*
X205425650Y-73091000D03*
X203350650Y-73091000D03*
D11*
X231523150Y-86697000D03*
X233598150Y-86697000D03*
D22*
X211500150Y-75631000D03*
X211500150Y-77706000D03*
X208490150Y-75631000D03*
X208490150Y-77706000D03*
D11*
X231544650Y-83903000D03*
X233619650Y-83903000D03*
M02*
