%TF.GenerationSoftware,KiCad,Pcbnew,8.0.7*%
%TF.CreationDate,2025-01-02T16:03:43-06:00*%
%TF.ProjectId,mk0,6d6b302e-6b69-4636-9164-5f7063625858,rev?*%
%TF.SameCoordinates,Original*%
%TF.FileFunction,Drillmap*%
%TF.FilePolarity,Positive*%
%FSLAX45Y45*%
G04 Gerber Fmt 4.5, Leading zero omitted, Abs format (unit mm)*
G04 Created by KiCad (PCBNEW 8.0.7) date 2025-01-02 16:03:43*
%MOMM*%
%LPD*%
G01*
G04 APERTURE LIST*
%ADD10C,0.050000*%
%ADD11C,0.200000*%
%ADD12C,0.100000*%
%ADD13C,0.400000*%
G04 APERTURE END LIST*
D10*
X23590000Y-5270000D02*
G75*
G02*
X23600000Y-5280000I0J-10000D01*
G01*
X6410000Y-15700000D02*
G75*
G02*
X6400000Y-15690000I0J10000D01*
G01*
X6400000Y-5280000D02*
G75*
G02*
X6410000Y-5270000I10000J0D01*
G01*
X18400000Y-17100000D02*
X6410000Y-15700000D01*
X23590000Y-5270000D02*
X6410000Y-5270000D01*
X23600000Y-5280000D02*
X23600000Y-12990000D01*
X23600000Y-12990000D02*
X18400000Y-17100000D01*
X6400000Y-15690000D02*
X6400000Y-5280000D01*
D11*
D12*
X21133500Y-5967500D02*
X21198500Y-6032500D01*
X21198500Y-5967500D02*
X21133500Y-6032500D01*
X21711500Y-5967500D02*
X21776500Y-6032500D01*
X21776500Y-5967500D02*
X21711500Y-6032500D01*
D13*
X7629660Y-7062430D02*
G75*
G02*
X7229660Y-7062430I-200000J0D01*
G01*
X7229660Y-7062430D02*
G75*
G02*
X7629660Y-7062430I200000J0D01*
G01*
X7639660Y-8967430D02*
G75*
G02*
X7239660Y-8967430I-200000J0D01*
G01*
X7239660Y-8967430D02*
G75*
G02*
X7639660Y-8967430I200000J0D01*
G01*
X7639660Y-10872430D02*
G75*
G02*
X7239660Y-10872430I-200000J0D01*
G01*
X7239660Y-10872430D02*
G75*
G02*
X7639660Y-10872430I200000J0D01*
G01*
X7639660Y-12777430D02*
G75*
G02*
X7239660Y-12777430I-200000J0D01*
G01*
X7239660Y-12777430D02*
G75*
G02*
X7639660Y-12777430I200000J0D01*
G01*
X7639660Y-14682430D02*
G75*
G02*
X7239660Y-14682430I-200000J0D01*
G01*
X7239660Y-14682430D02*
G75*
G02*
X7639660Y-14682430I200000J0D01*
G01*
X9544660Y-7062430D02*
G75*
G02*
X9144660Y-7062430I-200000J0D01*
G01*
X9144660Y-7062430D02*
G75*
G02*
X9544660Y-7062430I200000J0D01*
G01*
X9544660Y-8967430D02*
G75*
G02*
X9144660Y-8967430I-200000J0D01*
G01*
X9144660Y-8967430D02*
G75*
G02*
X9544660Y-8967430I200000J0D01*
G01*
X9544660Y-10872430D02*
G75*
G02*
X9144660Y-10872430I-200000J0D01*
G01*
X9144660Y-10872430D02*
G75*
G02*
X9544660Y-10872430I200000J0D01*
G01*
X9544660Y-12777430D02*
G75*
G02*
X9144660Y-12777430I-200000J0D01*
G01*
X9144660Y-12777430D02*
G75*
G02*
X9544660Y-12777430I200000J0D01*
G01*
X9544660Y-14682430D02*
G75*
G02*
X9144660Y-14682430I-200000J0D01*
G01*
X9144660Y-14682430D02*
G75*
G02*
X9544660Y-14682430I200000J0D01*
G01*
X11449660Y-6587430D02*
G75*
G02*
X11049660Y-6587430I-200000J0D01*
G01*
X11049660Y-6587430D02*
G75*
G02*
X11449660Y-6587430I200000J0D01*
G01*
X11449660Y-8491180D02*
G75*
G02*
X11049660Y-8491180I-200000J0D01*
G01*
X11049660Y-8491180D02*
G75*
G02*
X11449660Y-8491180I200000J0D01*
G01*
X11449660Y-10396180D02*
G75*
G02*
X11049660Y-10396180I-200000J0D01*
G01*
X11049660Y-10396180D02*
G75*
G02*
X11449660Y-10396180I200000J0D01*
G01*
X11449660Y-12301180D02*
G75*
G02*
X11049660Y-12301180I-200000J0D01*
G01*
X11049660Y-12301180D02*
G75*
G02*
X11449660Y-12301180I200000J0D01*
G01*
X11449660Y-14206180D02*
G75*
G02*
X11049660Y-14206180I-200000J0D01*
G01*
X11049660Y-14206180D02*
G75*
G02*
X11449660Y-14206180I200000J0D01*
G01*
X13354660Y-6348055D02*
G75*
G02*
X12954660Y-6348055I-200000J0D01*
G01*
X12954660Y-6348055D02*
G75*
G02*
X13354660Y-6348055I200000J0D01*
G01*
X13354660Y-8253055D02*
G75*
G02*
X12954660Y-8253055I-200000J0D01*
G01*
X12954660Y-8253055D02*
G75*
G02*
X13354660Y-8253055I200000J0D01*
G01*
X13354660Y-10158055D02*
G75*
G02*
X12954660Y-10158055I-200000J0D01*
G01*
X12954660Y-10158055D02*
G75*
G02*
X13354660Y-10158055I200000J0D01*
G01*
X13354660Y-12063055D02*
G75*
G02*
X12954660Y-12063055I-200000J0D01*
G01*
X12954660Y-12063055D02*
G75*
G02*
X13354660Y-12063055I200000J0D01*
G01*
X14307160Y-14204930D02*
G75*
G02*
X13907160Y-14204930I-200000J0D01*
G01*
X13907160Y-14204930D02*
G75*
G02*
X14307160Y-14204930I200000J0D01*
G01*
X15259660Y-6584930D02*
G75*
G02*
X14859660Y-6584930I-200000J0D01*
G01*
X14859660Y-6584930D02*
G75*
G02*
X15259660Y-6584930I200000J0D01*
G01*
X15259660Y-8489930D02*
G75*
G02*
X14859660Y-8489930I-200000J0D01*
G01*
X14859660Y-8489930D02*
G75*
G02*
X15259660Y-8489930I200000J0D01*
G01*
X15259660Y-10393680D02*
G75*
G02*
X14859660Y-10393680I-200000J0D01*
G01*
X14859660Y-10393680D02*
G75*
G02*
X15259660Y-10393680I200000J0D01*
G01*
X15259660Y-12299930D02*
G75*
G02*
X14859660Y-12299930I-200000J0D01*
G01*
X14859660Y-12299930D02*
G75*
G02*
X15259660Y-12299930I200000J0D01*
G01*
X16569347Y-14800242D02*
G75*
G02*
X16169347Y-14800242I-200000J0D01*
G01*
X16169347Y-14800242D02*
G75*
G02*
X16569347Y-14800242I200000J0D01*
G01*
X17164660Y-6823055D02*
G75*
G02*
X16764660Y-6823055I-200000J0D01*
G01*
X16764660Y-6823055D02*
G75*
G02*
X17164660Y-6823055I200000J0D01*
G01*
X17164660Y-8726805D02*
G75*
G02*
X16764660Y-8726805I-200000J0D01*
G01*
X16764660Y-8726805D02*
G75*
G02*
X17164660Y-8726805I200000J0D01*
G01*
X17164660Y-10631805D02*
G75*
G02*
X16764660Y-10631805I-200000J0D01*
G01*
X16764660Y-10631805D02*
G75*
G02*
X17164660Y-10631805I200000J0D01*
G01*
X17164660Y-12536805D02*
G75*
G02*
X16764660Y-12536805I-200000J0D01*
G01*
X16764660Y-12536805D02*
G75*
G02*
X17164660Y-12536805I200000J0D01*
G01*
X18236223Y-15752742D02*
G75*
G02*
X17836223Y-15752742I-200000J0D01*
G01*
X17836223Y-15752742D02*
G75*
G02*
X18236223Y-15752742I200000J0D01*
G01*
X19069660Y-8014930D02*
G75*
G02*
X18669660Y-8014930I-200000J0D01*
G01*
X18669660Y-8014930D02*
G75*
G02*
X19069660Y-8014930I200000J0D01*
G01*
X19069660Y-9918680D02*
G75*
G02*
X18669660Y-9918680I-200000J0D01*
G01*
X18669660Y-9918680D02*
G75*
G02*
X19069660Y-9918680I200000J0D01*
G01*
X19069660Y-11823680D02*
G75*
G02*
X18669660Y-11823680I-200000J0D01*
G01*
X18669660Y-11823680D02*
G75*
G02*
X19069660Y-11823680I200000J0D01*
G01*
X19188723Y-14085867D02*
G75*
G02*
X18788723Y-14085867I-200000J0D01*
G01*
X18788723Y-14085867D02*
G75*
G02*
X19188723Y-14085867I200000J0D01*
G01*
D11*
X6658277Y-17413984D02*
X6658277Y-17213984D01*
X6658277Y-17213984D02*
X6705896Y-17213984D01*
X6705896Y-17213984D02*
X6734467Y-17223508D01*
X6734467Y-17223508D02*
X6753515Y-17242555D01*
X6753515Y-17242555D02*
X6763039Y-17261603D01*
X6763039Y-17261603D02*
X6772562Y-17299698D01*
X6772562Y-17299698D02*
X6772562Y-17328270D01*
X6772562Y-17328270D02*
X6763039Y-17366365D01*
X6763039Y-17366365D02*
X6753515Y-17385412D01*
X6753515Y-17385412D02*
X6734467Y-17404460D01*
X6734467Y-17404460D02*
X6705896Y-17413984D01*
X6705896Y-17413984D02*
X6658277Y-17413984D01*
X6858277Y-17413984D02*
X6858277Y-17280650D01*
X6858277Y-17318746D02*
X6867801Y-17299698D01*
X6867801Y-17299698D02*
X6877324Y-17290174D01*
X6877324Y-17290174D02*
X6896372Y-17280650D01*
X6896372Y-17280650D02*
X6915420Y-17280650D01*
X6982086Y-17413984D02*
X6982086Y-17280650D01*
X6982086Y-17213984D02*
X6972562Y-17223508D01*
X6972562Y-17223508D02*
X6982086Y-17233031D01*
X6982086Y-17233031D02*
X6991610Y-17223508D01*
X6991610Y-17223508D02*
X6982086Y-17213984D01*
X6982086Y-17213984D02*
X6982086Y-17233031D01*
X7105896Y-17413984D02*
X7086848Y-17404460D01*
X7086848Y-17404460D02*
X7077324Y-17385412D01*
X7077324Y-17385412D02*
X7077324Y-17213984D01*
X7210658Y-17413984D02*
X7191610Y-17404460D01*
X7191610Y-17404460D02*
X7182086Y-17385412D01*
X7182086Y-17385412D02*
X7182086Y-17213984D01*
X7439229Y-17413984D02*
X7439229Y-17213984D01*
X7439229Y-17213984D02*
X7505896Y-17356841D01*
X7505896Y-17356841D02*
X7572562Y-17213984D01*
X7572562Y-17213984D02*
X7572562Y-17413984D01*
X7753515Y-17413984D02*
X7753515Y-17309222D01*
X7753515Y-17309222D02*
X7743991Y-17290174D01*
X7743991Y-17290174D02*
X7724943Y-17280650D01*
X7724943Y-17280650D02*
X7686848Y-17280650D01*
X7686848Y-17280650D02*
X7667801Y-17290174D01*
X7753515Y-17404460D02*
X7734467Y-17413984D01*
X7734467Y-17413984D02*
X7686848Y-17413984D01*
X7686848Y-17413984D02*
X7667801Y-17404460D01*
X7667801Y-17404460D02*
X7658277Y-17385412D01*
X7658277Y-17385412D02*
X7658277Y-17366365D01*
X7658277Y-17366365D02*
X7667801Y-17347317D01*
X7667801Y-17347317D02*
X7686848Y-17337793D01*
X7686848Y-17337793D02*
X7734467Y-17337793D01*
X7734467Y-17337793D02*
X7753515Y-17328270D01*
X7848753Y-17280650D02*
X7848753Y-17480650D01*
X7848753Y-17290174D02*
X7867801Y-17280650D01*
X7867801Y-17280650D02*
X7905896Y-17280650D01*
X7905896Y-17280650D02*
X7924943Y-17290174D01*
X7924943Y-17290174D02*
X7934467Y-17299698D01*
X7934467Y-17299698D02*
X7943991Y-17318746D01*
X7943991Y-17318746D02*
X7943991Y-17375889D01*
X7943991Y-17375889D02*
X7934467Y-17394936D01*
X7934467Y-17394936D02*
X7924943Y-17404460D01*
X7924943Y-17404460D02*
X7905896Y-17413984D01*
X7905896Y-17413984D02*
X7867801Y-17413984D01*
X7867801Y-17413984D02*
X7848753Y-17404460D01*
X8029705Y-17394936D02*
X8039229Y-17404460D01*
X8039229Y-17404460D02*
X8029705Y-17413984D01*
X8029705Y-17413984D02*
X8020182Y-17404460D01*
X8020182Y-17404460D02*
X8029705Y-17394936D01*
X8029705Y-17394936D02*
X8029705Y-17413984D01*
X8029705Y-17290174D02*
X8039229Y-17299698D01*
X8039229Y-17299698D02*
X8029705Y-17309222D01*
X8029705Y-17309222D02*
X8020182Y-17299698D01*
X8020182Y-17299698D02*
X8029705Y-17290174D01*
X8029705Y-17290174D02*
X8029705Y-17309222D01*
D12*
X6332500Y-17710000D02*
X6397500Y-17775000D01*
X6397500Y-17710000D02*
X6332500Y-17775000D01*
D11*
X6696372Y-17633984D02*
X6715420Y-17633984D01*
X6715420Y-17633984D02*
X6734467Y-17643508D01*
X6734467Y-17643508D02*
X6743991Y-17653031D01*
X6743991Y-17653031D02*
X6753515Y-17672079D01*
X6753515Y-17672079D02*
X6763039Y-17710174D01*
X6763039Y-17710174D02*
X6763039Y-17757793D01*
X6763039Y-17757793D02*
X6753515Y-17795889D01*
X6753515Y-17795889D02*
X6743991Y-17814936D01*
X6743991Y-17814936D02*
X6734467Y-17824460D01*
X6734467Y-17824460D02*
X6715420Y-17833984D01*
X6715420Y-17833984D02*
X6696372Y-17833984D01*
X6696372Y-17833984D02*
X6677324Y-17824460D01*
X6677324Y-17824460D02*
X6667801Y-17814936D01*
X6667801Y-17814936D02*
X6658277Y-17795889D01*
X6658277Y-17795889D02*
X6648753Y-17757793D01*
X6648753Y-17757793D02*
X6648753Y-17710174D01*
X6648753Y-17710174D02*
X6658277Y-17672079D01*
X6658277Y-17672079D02*
X6667801Y-17653031D01*
X6667801Y-17653031D02*
X6677324Y-17643508D01*
X6677324Y-17643508D02*
X6696372Y-17633984D01*
X6848753Y-17814936D02*
X6858277Y-17824460D01*
X6858277Y-17824460D02*
X6848753Y-17833984D01*
X6848753Y-17833984D02*
X6839229Y-17824460D01*
X6839229Y-17824460D02*
X6848753Y-17814936D01*
X6848753Y-17814936D02*
X6848753Y-17833984D01*
X7029705Y-17633984D02*
X6991610Y-17633984D01*
X6991610Y-17633984D02*
X6972562Y-17643508D01*
X6972562Y-17643508D02*
X6963039Y-17653031D01*
X6963039Y-17653031D02*
X6943991Y-17681603D01*
X6943991Y-17681603D02*
X6934467Y-17719698D01*
X6934467Y-17719698D02*
X6934467Y-17795889D01*
X6934467Y-17795889D02*
X6943991Y-17814936D01*
X6943991Y-17814936D02*
X6953515Y-17824460D01*
X6953515Y-17824460D02*
X6972562Y-17833984D01*
X6972562Y-17833984D02*
X7010658Y-17833984D01*
X7010658Y-17833984D02*
X7029705Y-17824460D01*
X7029705Y-17824460D02*
X7039229Y-17814936D01*
X7039229Y-17814936D02*
X7048753Y-17795889D01*
X7048753Y-17795889D02*
X7048753Y-17748270D01*
X7048753Y-17748270D02*
X7039229Y-17729222D01*
X7039229Y-17729222D02*
X7029705Y-17719698D01*
X7029705Y-17719698D02*
X7010658Y-17710174D01*
X7010658Y-17710174D02*
X6972562Y-17710174D01*
X6972562Y-17710174D02*
X6953515Y-17719698D01*
X6953515Y-17719698D02*
X6943991Y-17729222D01*
X6943991Y-17729222D02*
X6934467Y-17748270D01*
X7229705Y-17633984D02*
X7134467Y-17633984D01*
X7134467Y-17633984D02*
X7124943Y-17729222D01*
X7124943Y-17729222D02*
X7134467Y-17719698D01*
X7134467Y-17719698D02*
X7153515Y-17710174D01*
X7153515Y-17710174D02*
X7201134Y-17710174D01*
X7201134Y-17710174D02*
X7220182Y-17719698D01*
X7220182Y-17719698D02*
X7229705Y-17729222D01*
X7229705Y-17729222D02*
X7239229Y-17748270D01*
X7239229Y-17748270D02*
X7239229Y-17795889D01*
X7239229Y-17795889D02*
X7229705Y-17814936D01*
X7229705Y-17814936D02*
X7220182Y-17824460D01*
X7220182Y-17824460D02*
X7201134Y-17833984D01*
X7201134Y-17833984D02*
X7153515Y-17833984D01*
X7153515Y-17833984D02*
X7134467Y-17824460D01*
X7134467Y-17824460D02*
X7124943Y-17814936D01*
X7363039Y-17633984D02*
X7382086Y-17633984D01*
X7382086Y-17633984D02*
X7401134Y-17643508D01*
X7401134Y-17643508D02*
X7410658Y-17653031D01*
X7410658Y-17653031D02*
X7420182Y-17672079D01*
X7420182Y-17672079D02*
X7429705Y-17710174D01*
X7429705Y-17710174D02*
X7429705Y-17757793D01*
X7429705Y-17757793D02*
X7420182Y-17795889D01*
X7420182Y-17795889D02*
X7410658Y-17814936D01*
X7410658Y-17814936D02*
X7401134Y-17824460D01*
X7401134Y-17824460D02*
X7382086Y-17833984D01*
X7382086Y-17833984D02*
X7363039Y-17833984D01*
X7363039Y-17833984D02*
X7343991Y-17824460D01*
X7343991Y-17824460D02*
X7334467Y-17814936D01*
X7334467Y-17814936D02*
X7324943Y-17795889D01*
X7324943Y-17795889D02*
X7315420Y-17757793D01*
X7315420Y-17757793D02*
X7315420Y-17710174D01*
X7315420Y-17710174D02*
X7324943Y-17672079D01*
X7324943Y-17672079D02*
X7334467Y-17653031D01*
X7334467Y-17653031D02*
X7343991Y-17643508D01*
X7343991Y-17643508D02*
X7363039Y-17633984D01*
X7515420Y-17833984D02*
X7515420Y-17700650D01*
X7515420Y-17719698D02*
X7524943Y-17710174D01*
X7524943Y-17710174D02*
X7543991Y-17700650D01*
X7543991Y-17700650D02*
X7572563Y-17700650D01*
X7572563Y-17700650D02*
X7591610Y-17710174D01*
X7591610Y-17710174D02*
X7601134Y-17729222D01*
X7601134Y-17729222D02*
X7601134Y-17833984D01*
X7601134Y-17729222D02*
X7610658Y-17710174D01*
X7610658Y-17710174D02*
X7629705Y-17700650D01*
X7629705Y-17700650D02*
X7658277Y-17700650D01*
X7658277Y-17700650D02*
X7677324Y-17710174D01*
X7677324Y-17710174D02*
X7686848Y-17729222D01*
X7686848Y-17729222D02*
X7686848Y-17833984D01*
X7782086Y-17833984D02*
X7782086Y-17700650D01*
X7782086Y-17719698D02*
X7791610Y-17710174D01*
X7791610Y-17710174D02*
X7810658Y-17700650D01*
X7810658Y-17700650D02*
X7839229Y-17700650D01*
X7839229Y-17700650D02*
X7858277Y-17710174D01*
X7858277Y-17710174D02*
X7867801Y-17729222D01*
X7867801Y-17729222D02*
X7867801Y-17833984D01*
X7867801Y-17729222D02*
X7877324Y-17710174D01*
X7877324Y-17710174D02*
X7896372Y-17700650D01*
X7896372Y-17700650D02*
X7924943Y-17700650D01*
X7924943Y-17700650D02*
X7943991Y-17710174D01*
X7943991Y-17710174D02*
X7953515Y-17729222D01*
X7953515Y-17729222D02*
X7953515Y-17833984D01*
X8343991Y-17624460D02*
X8172563Y-17881603D01*
X8601134Y-17633984D02*
X8620182Y-17633984D01*
X8620182Y-17633984D02*
X8639229Y-17643508D01*
X8639229Y-17643508D02*
X8648753Y-17653031D01*
X8648753Y-17653031D02*
X8658277Y-17672079D01*
X8658277Y-17672079D02*
X8667801Y-17710174D01*
X8667801Y-17710174D02*
X8667801Y-17757793D01*
X8667801Y-17757793D02*
X8658277Y-17795889D01*
X8658277Y-17795889D02*
X8648753Y-17814936D01*
X8648753Y-17814936D02*
X8639229Y-17824460D01*
X8639229Y-17824460D02*
X8620182Y-17833984D01*
X8620182Y-17833984D02*
X8601134Y-17833984D01*
X8601134Y-17833984D02*
X8582087Y-17824460D01*
X8582087Y-17824460D02*
X8572563Y-17814936D01*
X8572563Y-17814936D02*
X8563039Y-17795889D01*
X8563039Y-17795889D02*
X8553515Y-17757793D01*
X8553515Y-17757793D02*
X8553515Y-17710174D01*
X8553515Y-17710174D02*
X8563039Y-17672079D01*
X8563039Y-17672079D02*
X8572563Y-17653031D01*
X8572563Y-17653031D02*
X8582087Y-17643508D01*
X8582087Y-17643508D02*
X8601134Y-17633984D01*
X8753515Y-17814936D02*
X8763039Y-17824460D01*
X8763039Y-17824460D02*
X8753515Y-17833984D01*
X8753515Y-17833984D02*
X8743991Y-17824460D01*
X8743991Y-17824460D02*
X8753515Y-17814936D01*
X8753515Y-17814936D02*
X8753515Y-17833984D01*
X8886848Y-17633984D02*
X8905896Y-17633984D01*
X8905896Y-17633984D02*
X8924944Y-17643508D01*
X8924944Y-17643508D02*
X8934468Y-17653031D01*
X8934468Y-17653031D02*
X8943991Y-17672079D01*
X8943991Y-17672079D02*
X8953515Y-17710174D01*
X8953515Y-17710174D02*
X8953515Y-17757793D01*
X8953515Y-17757793D02*
X8943991Y-17795889D01*
X8943991Y-17795889D02*
X8934468Y-17814936D01*
X8934468Y-17814936D02*
X8924944Y-17824460D01*
X8924944Y-17824460D02*
X8905896Y-17833984D01*
X8905896Y-17833984D02*
X8886848Y-17833984D01*
X8886848Y-17833984D02*
X8867801Y-17824460D01*
X8867801Y-17824460D02*
X8858277Y-17814936D01*
X8858277Y-17814936D02*
X8848753Y-17795889D01*
X8848753Y-17795889D02*
X8839229Y-17757793D01*
X8839229Y-17757793D02*
X8839229Y-17710174D01*
X8839229Y-17710174D02*
X8848753Y-17672079D01*
X8848753Y-17672079D02*
X8858277Y-17653031D01*
X8858277Y-17653031D02*
X8867801Y-17643508D01*
X8867801Y-17643508D02*
X8886848Y-17633984D01*
X9029706Y-17653031D02*
X9039229Y-17643508D01*
X9039229Y-17643508D02*
X9058277Y-17633984D01*
X9058277Y-17633984D02*
X9105896Y-17633984D01*
X9105896Y-17633984D02*
X9124944Y-17643508D01*
X9124944Y-17643508D02*
X9134468Y-17653031D01*
X9134468Y-17653031D02*
X9143991Y-17672079D01*
X9143991Y-17672079D02*
X9143991Y-17691127D01*
X9143991Y-17691127D02*
X9134468Y-17719698D01*
X9134468Y-17719698D02*
X9020182Y-17833984D01*
X9020182Y-17833984D02*
X9143991Y-17833984D01*
X9324944Y-17633984D02*
X9229706Y-17633984D01*
X9229706Y-17633984D02*
X9220182Y-17729222D01*
X9220182Y-17729222D02*
X9229706Y-17719698D01*
X9229706Y-17719698D02*
X9248753Y-17710174D01*
X9248753Y-17710174D02*
X9296372Y-17710174D01*
X9296372Y-17710174D02*
X9315420Y-17719698D01*
X9315420Y-17719698D02*
X9324944Y-17729222D01*
X9324944Y-17729222D02*
X9334468Y-17748270D01*
X9334468Y-17748270D02*
X9334468Y-17795889D01*
X9334468Y-17795889D02*
X9324944Y-17814936D01*
X9324944Y-17814936D02*
X9315420Y-17824460D01*
X9315420Y-17824460D02*
X9296372Y-17833984D01*
X9296372Y-17833984D02*
X9248753Y-17833984D01*
X9248753Y-17833984D02*
X9229706Y-17824460D01*
X9229706Y-17824460D02*
X9220182Y-17814936D01*
X9505896Y-17633984D02*
X9467801Y-17633984D01*
X9467801Y-17633984D02*
X9448753Y-17643508D01*
X9448753Y-17643508D02*
X9439229Y-17653031D01*
X9439229Y-17653031D02*
X9420182Y-17681603D01*
X9420182Y-17681603D02*
X9410658Y-17719698D01*
X9410658Y-17719698D02*
X9410658Y-17795889D01*
X9410658Y-17795889D02*
X9420182Y-17814936D01*
X9420182Y-17814936D02*
X9429706Y-17824460D01*
X9429706Y-17824460D02*
X9448753Y-17833984D01*
X9448753Y-17833984D02*
X9486849Y-17833984D01*
X9486849Y-17833984D02*
X9505896Y-17824460D01*
X9505896Y-17824460D02*
X9515420Y-17814936D01*
X9515420Y-17814936D02*
X9524944Y-17795889D01*
X9524944Y-17795889D02*
X9524944Y-17748270D01*
X9524944Y-17748270D02*
X9515420Y-17729222D01*
X9515420Y-17729222D02*
X9505896Y-17719698D01*
X9505896Y-17719698D02*
X9486849Y-17710174D01*
X9486849Y-17710174D02*
X9448753Y-17710174D01*
X9448753Y-17710174D02*
X9429706Y-17719698D01*
X9429706Y-17719698D02*
X9420182Y-17729222D01*
X9420182Y-17729222D02*
X9410658Y-17748270D01*
X9601134Y-17633984D02*
X9601134Y-17672079D01*
X9677325Y-17633984D02*
X9677325Y-17672079D01*
X9972563Y-17910174D02*
X9963039Y-17900650D01*
X9963039Y-17900650D02*
X9943991Y-17872079D01*
X9943991Y-17872079D02*
X9934468Y-17853031D01*
X9934468Y-17853031D02*
X9924944Y-17824460D01*
X9924944Y-17824460D02*
X9915420Y-17776841D01*
X9915420Y-17776841D02*
X9915420Y-17738746D01*
X9915420Y-17738746D02*
X9924944Y-17691127D01*
X9924944Y-17691127D02*
X9934468Y-17662555D01*
X9934468Y-17662555D02*
X9943991Y-17643508D01*
X9943991Y-17643508D02*
X9963039Y-17614936D01*
X9963039Y-17614936D02*
X9972563Y-17605412D01*
X10039230Y-17653031D02*
X10048753Y-17643508D01*
X10048753Y-17643508D02*
X10067801Y-17633984D01*
X10067801Y-17633984D02*
X10115420Y-17633984D01*
X10115420Y-17633984D02*
X10134468Y-17643508D01*
X10134468Y-17643508D02*
X10143991Y-17653031D01*
X10143991Y-17653031D02*
X10153515Y-17672079D01*
X10153515Y-17672079D02*
X10153515Y-17691127D01*
X10153515Y-17691127D02*
X10143991Y-17719698D01*
X10143991Y-17719698D02*
X10029706Y-17833984D01*
X10029706Y-17833984D02*
X10153515Y-17833984D01*
X10391611Y-17833984D02*
X10391611Y-17633984D01*
X10477325Y-17833984D02*
X10477325Y-17729222D01*
X10477325Y-17729222D02*
X10467801Y-17710174D01*
X10467801Y-17710174D02*
X10448753Y-17700650D01*
X10448753Y-17700650D02*
X10420182Y-17700650D01*
X10420182Y-17700650D02*
X10401134Y-17710174D01*
X10401134Y-17710174D02*
X10391611Y-17719698D01*
X10601134Y-17833984D02*
X10582087Y-17824460D01*
X10582087Y-17824460D02*
X10572563Y-17814936D01*
X10572563Y-17814936D02*
X10563039Y-17795889D01*
X10563039Y-17795889D02*
X10563039Y-17738746D01*
X10563039Y-17738746D02*
X10572563Y-17719698D01*
X10572563Y-17719698D02*
X10582087Y-17710174D01*
X10582087Y-17710174D02*
X10601134Y-17700650D01*
X10601134Y-17700650D02*
X10629706Y-17700650D01*
X10629706Y-17700650D02*
X10648753Y-17710174D01*
X10648753Y-17710174D02*
X10658277Y-17719698D01*
X10658277Y-17719698D02*
X10667801Y-17738746D01*
X10667801Y-17738746D02*
X10667801Y-17795889D01*
X10667801Y-17795889D02*
X10658277Y-17814936D01*
X10658277Y-17814936D02*
X10648753Y-17824460D01*
X10648753Y-17824460D02*
X10629706Y-17833984D01*
X10629706Y-17833984D02*
X10601134Y-17833984D01*
X10782087Y-17833984D02*
X10763039Y-17824460D01*
X10763039Y-17824460D02*
X10753515Y-17805412D01*
X10753515Y-17805412D02*
X10753515Y-17633984D01*
X10934468Y-17824460D02*
X10915420Y-17833984D01*
X10915420Y-17833984D02*
X10877325Y-17833984D01*
X10877325Y-17833984D02*
X10858277Y-17824460D01*
X10858277Y-17824460D02*
X10848753Y-17805412D01*
X10848753Y-17805412D02*
X10848753Y-17729222D01*
X10848753Y-17729222D02*
X10858277Y-17710174D01*
X10858277Y-17710174D02*
X10877325Y-17700650D01*
X10877325Y-17700650D02*
X10915420Y-17700650D01*
X10915420Y-17700650D02*
X10934468Y-17710174D01*
X10934468Y-17710174D02*
X10943992Y-17729222D01*
X10943992Y-17729222D02*
X10943992Y-17748270D01*
X10943992Y-17748270D02*
X10848753Y-17767317D01*
X11020182Y-17824460D02*
X11039230Y-17833984D01*
X11039230Y-17833984D02*
X11077325Y-17833984D01*
X11077325Y-17833984D02*
X11096373Y-17824460D01*
X11096373Y-17824460D02*
X11105896Y-17805412D01*
X11105896Y-17805412D02*
X11105896Y-17795889D01*
X11105896Y-17795889D02*
X11096373Y-17776841D01*
X11096373Y-17776841D02*
X11077325Y-17767317D01*
X11077325Y-17767317D02*
X11048753Y-17767317D01*
X11048753Y-17767317D02*
X11029706Y-17757793D01*
X11029706Y-17757793D02*
X11020182Y-17738746D01*
X11020182Y-17738746D02*
X11020182Y-17729222D01*
X11020182Y-17729222D02*
X11029706Y-17710174D01*
X11029706Y-17710174D02*
X11048753Y-17700650D01*
X11048753Y-17700650D02*
X11077325Y-17700650D01*
X11077325Y-17700650D02*
X11096373Y-17710174D01*
X11172563Y-17910174D02*
X11182087Y-17900650D01*
X11182087Y-17900650D02*
X11201134Y-17872079D01*
X11201134Y-17872079D02*
X11210658Y-17853031D01*
X11210658Y-17853031D02*
X11220182Y-17824460D01*
X11220182Y-17824460D02*
X11229706Y-17776841D01*
X11229706Y-17776841D02*
X11229706Y-17738746D01*
X11229706Y-17738746D02*
X11220182Y-17691127D01*
X11220182Y-17691127D02*
X11210658Y-17662555D01*
X11210658Y-17662555D02*
X11201134Y-17643508D01*
X11201134Y-17643508D02*
X11182087Y-17614936D01*
X11182087Y-17614936D02*
X11172563Y-17605412D01*
X11534468Y-17910174D02*
X11524944Y-17900650D01*
X11524944Y-17900650D02*
X11505896Y-17872079D01*
X11505896Y-17872079D02*
X11496372Y-17853031D01*
X11496372Y-17853031D02*
X11486849Y-17824460D01*
X11486849Y-17824460D02*
X11477325Y-17776841D01*
X11477325Y-17776841D02*
X11477325Y-17738746D01*
X11477325Y-17738746D02*
X11486849Y-17691127D01*
X11486849Y-17691127D02*
X11496372Y-17662555D01*
X11496372Y-17662555D02*
X11505896Y-17643508D01*
X11505896Y-17643508D02*
X11524944Y-17614936D01*
X11524944Y-17614936D02*
X11534468Y-17605412D01*
X11610658Y-17700650D02*
X11610658Y-17833984D01*
X11610658Y-17719698D02*
X11620182Y-17710174D01*
X11620182Y-17710174D02*
X11639230Y-17700650D01*
X11639230Y-17700650D02*
X11667801Y-17700650D01*
X11667801Y-17700650D02*
X11686849Y-17710174D01*
X11686849Y-17710174D02*
X11696372Y-17729222D01*
X11696372Y-17729222D02*
X11696372Y-17833984D01*
X11820182Y-17833984D02*
X11801134Y-17824460D01*
X11801134Y-17824460D02*
X11791611Y-17814936D01*
X11791611Y-17814936D02*
X11782087Y-17795889D01*
X11782087Y-17795889D02*
X11782087Y-17738746D01*
X11782087Y-17738746D02*
X11791611Y-17719698D01*
X11791611Y-17719698D02*
X11801134Y-17710174D01*
X11801134Y-17710174D02*
X11820182Y-17700650D01*
X11820182Y-17700650D02*
X11848753Y-17700650D01*
X11848753Y-17700650D02*
X11867801Y-17710174D01*
X11867801Y-17710174D02*
X11877325Y-17719698D01*
X11877325Y-17719698D02*
X11886849Y-17738746D01*
X11886849Y-17738746D02*
X11886849Y-17795889D01*
X11886849Y-17795889D02*
X11877325Y-17814936D01*
X11877325Y-17814936D02*
X11867801Y-17824460D01*
X11867801Y-17824460D02*
X11848753Y-17833984D01*
X11848753Y-17833984D02*
X11820182Y-17833984D01*
X11943992Y-17700650D02*
X12020182Y-17700650D01*
X11972563Y-17633984D02*
X11972563Y-17805412D01*
X11972563Y-17805412D02*
X11982087Y-17824460D01*
X11982087Y-17824460D02*
X12001134Y-17833984D01*
X12001134Y-17833984D02*
X12020182Y-17833984D01*
X12239230Y-17700650D02*
X12239230Y-17900650D01*
X12239230Y-17710174D02*
X12258277Y-17700650D01*
X12258277Y-17700650D02*
X12296373Y-17700650D01*
X12296373Y-17700650D02*
X12315420Y-17710174D01*
X12315420Y-17710174D02*
X12324944Y-17719698D01*
X12324944Y-17719698D02*
X12334468Y-17738746D01*
X12334468Y-17738746D02*
X12334468Y-17795889D01*
X12334468Y-17795889D02*
X12324944Y-17814936D01*
X12324944Y-17814936D02*
X12315420Y-17824460D01*
X12315420Y-17824460D02*
X12296373Y-17833984D01*
X12296373Y-17833984D02*
X12258277Y-17833984D01*
X12258277Y-17833984D02*
X12239230Y-17824460D01*
X12448753Y-17833984D02*
X12429706Y-17824460D01*
X12429706Y-17824460D02*
X12420182Y-17805412D01*
X12420182Y-17805412D02*
X12420182Y-17633984D01*
X12610658Y-17833984D02*
X12610658Y-17729222D01*
X12610658Y-17729222D02*
X12601134Y-17710174D01*
X12601134Y-17710174D02*
X12582087Y-17700650D01*
X12582087Y-17700650D02*
X12543992Y-17700650D01*
X12543992Y-17700650D02*
X12524944Y-17710174D01*
X12610658Y-17824460D02*
X12591611Y-17833984D01*
X12591611Y-17833984D02*
X12543992Y-17833984D01*
X12543992Y-17833984D02*
X12524944Y-17824460D01*
X12524944Y-17824460D02*
X12515420Y-17805412D01*
X12515420Y-17805412D02*
X12515420Y-17786365D01*
X12515420Y-17786365D02*
X12524944Y-17767317D01*
X12524944Y-17767317D02*
X12543992Y-17757793D01*
X12543992Y-17757793D02*
X12591611Y-17757793D01*
X12591611Y-17757793D02*
X12610658Y-17748270D01*
X12677325Y-17700650D02*
X12753515Y-17700650D01*
X12705896Y-17633984D02*
X12705896Y-17805412D01*
X12705896Y-17805412D02*
X12715420Y-17824460D01*
X12715420Y-17824460D02*
X12734468Y-17833984D01*
X12734468Y-17833984D02*
X12753515Y-17833984D01*
X12896373Y-17824460D02*
X12877325Y-17833984D01*
X12877325Y-17833984D02*
X12839230Y-17833984D01*
X12839230Y-17833984D02*
X12820182Y-17824460D01*
X12820182Y-17824460D02*
X12810658Y-17805412D01*
X12810658Y-17805412D02*
X12810658Y-17729222D01*
X12810658Y-17729222D02*
X12820182Y-17710174D01*
X12820182Y-17710174D02*
X12839230Y-17700650D01*
X12839230Y-17700650D02*
X12877325Y-17700650D01*
X12877325Y-17700650D02*
X12896373Y-17710174D01*
X12896373Y-17710174D02*
X12905896Y-17729222D01*
X12905896Y-17729222D02*
X12905896Y-17748270D01*
X12905896Y-17748270D02*
X12810658Y-17767317D01*
X13077325Y-17833984D02*
X13077325Y-17633984D01*
X13077325Y-17824460D02*
X13058277Y-17833984D01*
X13058277Y-17833984D02*
X13020182Y-17833984D01*
X13020182Y-17833984D02*
X13001134Y-17824460D01*
X13001134Y-17824460D02*
X12991611Y-17814936D01*
X12991611Y-17814936D02*
X12982087Y-17795889D01*
X12982087Y-17795889D02*
X12982087Y-17738746D01*
X12982087Y-17738746D02*
X12991611Y-17719698D01*
X12991611Y-17719698D02*
X13001134Y-17710174D01*
X13001134Y-17710174D02*
X13020182Y-17700650D01*
X13020182Y-17700650D02*
X13058277Y-17700650D01*
X13058277Y-17700650D02*
X13077325Y-17710174D01*
X13153515Y-17910174D02*
X13163039Y-17900650D01*
X13163039Y-17900650D02*
X13182087Y-17872079D01*
X13182087Y-17872079D02*
X13191611Y-17853031D01*
X13191611Y-17853031D02*
X13201134Y-17824460D01*
X13201134Y-17824460D02*
X13210658Y-17776841D01*
X13210658Y-17776841D02*
X13210658Y-17738746D01*
X13210658Y-17738746D02*
X13201134Y-17691127D01*
X13201134Y-17691127D02*
X13191611Y-17662555D01*
X13191611Y-17662555D02*
X13182087Y-17643508D01*
X13182087Y-17643508D02*
X13163039Y-17614936D01*
X13163039Y-17614936D02*
X13153515Y-17605412D01*
X6397500Y-18006500D02*
G75*
G02*
X6197500Y-18006500I-100000J0D01*
G01*
X6197500Y-18006500D02*
G75*
G02*
X6397500Y-18006500I100000J0D01*
G01*
X6743991Y-17964650D02*
X6743991Y-18097984D01*
X6696372Y-17888460D02*
X6648753Y-18031317D01*
X6648753Y-18031317D02*
X6772562Y-18031317D01*
X6848753Y-18078936D02*
X6858277Y-18088460D01*
X6858277Y-18088460D02*
X6848753Y-18097984D01*
X6848753Y-18097984D02*
X6839229Y-18088460D01*
X6839229Y-18088460D02*
X6848753Y-18078936D01*
X6848753Y-18078936D02*
X6848753Y-18097984D01*
X6982086Y-17897984D02*
X7001134Y-17897984D01*
X7001134Y-17897984D02*
X7020182Y-17907508D01*
X7020182Y-17907508D02*
X7029705Y-17917031D01*
X7029705Y-17917031D02*
X7039229Y-17936079D01*
X7039229Y-17936079D02*
X7048753Y-17974174D01*
X7048753Y-17974174D02*
X7048753Y-18021793D01*
X7048753Y-18021793D02*
X7039229Y-18059889D01*
X7039229Y-18059889D02*
X7029705Y-18078936D01*
X7029705Y-18078936D02*
X7020182Y-18088460D01*
X7020182Y-18088460D02*
X7001134Y-18097984D01*
X7001134Y-18097984D02*
X6982086Y-18097984D01*
X6982086Y-18097984D02*
X6963039Y-18088460D01*
X6963039Y-18088460D02*
X6953515Y-18078936D01*
X6953515Y-18078936D02*
X6943991Y-18059889D01*
X6943991Y-18059889D02*
X6934467Y-18021793D01*
X6934467Y-18021793D02*
X6934467Y-17974174D01*
X6934467Y-17974174D02*
X6943991Y-17936079D01*
X6943991Y-17936079D02*
X6953515Y-17917031D01*
X6953515Y-17917031D02*
X6963039Y-17907508D01*
X6963039Y-17907508D02*
X6982086Y-17897984D01*
X7172562Y-17897984D02*
X7191610Y-17897984D01*
X7191610Y-17897984D02*
X7210658Y-17907508D01*
X7210658Y-17907508D02*
X7220182Y-17917031D01*
X7220182Y-17917031D02*
X7229705Y-17936079D01*
X7229705Y-17936079D02*
X7239229Y-17974174D01*
X7239229Y-17974174D02*
X7239229Y-18021793D01*
X7239229Y-18021793D02*
X7229705Y-18059889D01*
X7229705Y-18059889D02*
X7220182Y-18078936D01*
X7220182Y-18078936D02*
X7210658Y-18088460D01*
X7210658Y-18088460D02*
X7191610Y-18097984D01*
X7191610Y-18097984D02*
X7172562Y-18097984D01*
X7172562Y-18097984D02*
X7153515Y-18088460D01*
X7153515Y-18088460D02*
X7143991Y-18078936D01*
X7143991Y-18078936D02*
X7134467Y-18059889D01*
X7134467Y-18059889D02*
X7124943Y-18021793D01*
X7124943Y-18021793D02*
X7124943Y-17974174D01*
X7124943Y-17974174D02*
X7134467Y-17936079D01*
X7134467Y-17936079D02*
X7143991Y-17917031D01*
X7143991Y-17917031D02*
X7153515Y-17907508D01*
X7153515Y-17907508D02*
X7172562Y-17897984D01*
X7363039Y-17897984D02*
X7382086Y-17897984D01*
X7382086Y-17897984D02*
X7401134Y-17907508D01*
X7401134Y-17907508D02*
X7410658Y-17917031D01*
X7410658Y-17917031D02*
X7420182Y-17936079D01*
X7420182Y-17936079D02*
X7429705Y-17974174D01*
X7429705Y-17974174D02*
X7429705Y-18021793D01*
X7429705Y-18021793D02*
X7420182Y-18059889D01*
X7420182Y-18059889D02*
X7410658Y-18078936D01*
X7410658Y-18078936D02*
X7401134Y-18088460D01*
X7401134Y-18088460D02*
X7382086Y-18097984D01*
X7382086Y-18097984D02*
X7363039Y-18097984D01*
X7363039Y-18097984D02*
X7343991Y-18088460D01*
X7343991Y-18088460D02*
X7334467Y-18078936D01*
X7334467Y-18078936D02*
X7324943Y-18059889D01*
X7324943Y-18059889D02*
X7315420Y-18021793D01*
X7315420Y-18021793D02*
X7315420Y-17974174D01*
X7315420Y-17974174D02*
X7324943Y-17936079D01*
X7324943Y-17936079D02*
X7334467Y-17917031D01*
X7334467Y-17917031D02*
X7343991Y-17907508D01*
X7343991Y-17907508D02*
X7363039Y-17897984D01*
X7515420Y-18097984D02*
X7515420Y-17964650D01*
X7515420Y-17983698D02*
X7524943Y-17974174D01*
X7524943Y-17974174D02*
X7543991Y-17964650D01*
X7543991Y-17964650D02*
X7572563Y-17964650D01*
X7572563Y-17964650D02*
X7591610Y-17974174D01*
X7591610Y-17974174D02*
X7601134Y-17993222D01*
X7601134Y-17993222D02*
X7601134Y-18097984D01*
X7601134Y-17993222D02*
X7610658Y-17974174D01*
X7610658Y-17974174D02*
X7629705Y-17964650D01*
X7629705Y-17964650D02*
X7658277Y-17964650D01*
X7658277Y-17964650D02*
X7677324Y-17974174D01*
X7677324Y-17974174D02*
X7686848Y-17993222D01*
X7686848Y-17993222D02*
X7686848Y-18097984D01*
X7782086Y-18097984D02*
X7782086Y-17964650D01*
X7782086Y-17983698D02*
X7791610Y-17974174D01*
X7791610Y-17974174D02*
X7810658Y-17964650D01*
X7810658Y-17964650D02*
X7839229Y-17964650D01*
X7839229Y-17964650D02*
X7858277Y-17974174D01*
X7858277Y-17974174D02*
X7867801Y-17993222D01*
X7867801Y-17993222D02*
X7867801Y-18097984D01*
X7867801Y-17993222D02*
X7877324Y-17974174D01*
X7877324Y-17974174D02*
X7896372Y-17964650D01*
X7896372Y-17964650D02*
X7924943Y-17964650D01*
X7924943Y-17964650D02*
X7943991Y-17974174D01*
X7943991Y-17974174D02*
X7953515Y-17993222D01*
X7953515Y-17993222D02*
X7953515Y-18097984D01*
X8343991Y-17888460D02*
X8172563Y-18145603D01*
X8601134Y-17897984D02*
X8620182Y-17897984D01*
X8620182Y-17897984D02*
X8639229Y-17907508D01*
X8639229Y-17907508D02*
X8648753Y-17917031D01*
X8648753Y-17917031D02*
X8658277Y-17936079D01*
X8658277Y-17936079D02*
X8667801Y-17974174D01*
X8667801Y-17974174D02*
X8667801Y-18021793D01*
X8667801Y-18021793D02*
X8658277Y-18059889D01*
X8658277Y-18059889D02*
X8648753Y-18078936D01*
X8648753Y-18078936D02*
X8639229Y-18088460D01*
X8639229Y-18088460D02*
X8620182Y-18097984D01*
X8620182Y-18097984D02*
X8601134Y-18097984D01*
X8601134Y-18097984D02*
X8582087Y-18088460D01*
X8582087Y-18088460D02*
X8572563Y-18078936D01*
X8572563Y-18078936D02*
X8563039Y-18059889D01*
X8563039Y-18059889D02*
X8553515Y-18021793D01*
X8553515Y-18021793D02*
X8553515Y-17974174D01*
X8553515Y-17974174D02*
X8563039Y-17936079D01*
X8563039Y-17936079D02*
X8572563Y-17917031D01*
X8572563Y-17917031D02*
X8582087Y-17907508D01*
X8582087Y-17907508D02*
X8601134Y-17897984D01*
X8753515Y-18078936D02*
X8763039Y-18088460D01*
X8763039Y-18088460D02*
X8753515Y-18097984D01*
X8753515Y-18097984D02*
X8743991Y-18088460D01*
X8743991Y-18088460D02*
X8753515Y-18078936D01*
X8753515Y-18078936D02*
X8753515Y-18097984D01*
X8953515Y-18097984D02*
X8839229Y-18097984D01*
X8896372Y-18097984D02*
X8896372Y-17897984D01*
X8896372Y-17897984D02*
X8877325Y-17926555D01*
X8877325Y-17926555D02*
X8858277Y-17945603D01*
X8858277Y-17945603D02*
X8839229Y-17955127D01*
X9134468Y-17897984D02*
X9039229Y-17897984D01*
X9039229Y-17897984D02*
X9029706Y-17993222D01*
X9029706Y-17993222D02*
X9039229Y-17983698D01*
X9039229Y-17983698D02*
X9058277Y-17974174D01*
X9058277Y-17974174D02*
X9105896Y-17974174D01*
X9105896Y-17974174D02*
X9124944Y-17983698D01*
X9124944Y-17983698D02*
X9134468Y-17993222D01*
X9134468Y-17993222D02*
X9143991Y-18012270D01*
X9143991Y-18012270D02*
X9143991Y-18059889D01*
X9143991Y-18059889D02*
X9134468Y-18078936D01*
X9134468Y-18078936D02*
X9124944Y-18088460D01*
X9124944Y-18088460D02*
X9105896Y-18097984D01*
X9105896Y-18097984D02*
X9058277Y-18097984D01*
X9058277Y-18097984D02*
X9039229Y-18088460D01*
X9039229Y-18088460D02*
X9029706Y-18078936D01*
X9210658Y-17897984D02*
X9343991Y-17897984D01*
X9343991Y-17897984D02*
X9258277Y-18097984D01*
X9515420Y-17897984D02*
X9420182Y-17897984D01*
X9420182Y-17897984D02*
X9410658Y-17993222D01*
X9410658Y-17993222D02*
X9420182Y-17983698D01*
X9420182Y-17983698D02*
X9439229Y-17974174D01*
X9439229Y-17974174D02*
X9486849Y-17974174D01*
X9486849Y-17974174D02*
X9505896Y-17983698D01*
X9505896Y-17983698D02*
X9515420Y-17993222D01*
X9515420Y-17993222D02*
X9524944Y-18012270D01*
X9524944Y-18012270D02*
X9524944Y-18059889D01*
X9524944Y-18059889D02*
X9515420Y-18078936D01*
X9515420Y-18078936D02*
X9505896Y-18088460D01*
X9505896Y-18088460D02*
X9486849Y-18097984D01*
X9486849Y-18097984D02*
X9439229Y-18097984D01*
X9439229Y-18097984D02*
X9420182Y-18088460D01*
X9420182Y-18088460D02*
X9410658Y-18078936D01*
X9601134Y-17897984D02*
X9601134Y-17936079D01*
X9677325Y-17897984D02*
X9677325Y-17936079D01*
X9972563Y-18174174D02*
X9963039Y-18164650D01*
X9963039Y-18164650D02*
X9943991Y-18136079D01*
X9943991Y-18136079D02*
X9934468Y-18117031D01*
X9934468Y-18117031D02*
X9924944Y-18088460D01*
X9924944Y-18088460D02*
X9915420Y-18040841D01*
X9915420Y-18040841D02*
X9915420Y-18002746D01*
X9915420Y-18002746D02*
X9924944Y-17955127D01*
X9924944Y-17955127D02*
X9934468Y-17926555D01*
X9934468Y-17926555D02*
X9943991Y-17907508D01*
X9943991Y-17907508D02*
X9963039Y-17878936D01*
X9963039Y-17878936D02*
X9972563Y-17869412D01*
X10029706Y-17897984D02*
X10153515Y-17897984D01*
X10153515Y-17897984D02*
X10086849Y-17974174D01*
X10086849Y-17974174D02*
X10115420Y-17974174D01*
X10115420Y-17974174D02*
X10134468Y-17983698D01*
X10134468Y-17983698D02*
X10143991Y-17993222D01*
X10143991Y-17993222D02*
X10153515Y-18012270D01*
X10153515Y-18012270D02*
X10153515Y-18059889D01*
X10153515Y-18059889D02*
X10143991Y-18078936D01*
X10143991Y-18078936D02*
X10134468Y-18088460D01*
X10134468Y-18088460D02*
X10115420Y-18097984D01*
X10115420Y-18097984D02*
X10058277Y-18097984D01*
X10058277Y-18097984D02*
X10039230Y-18088460D01*
X10039230Y-18088460D02*
X10029706Y-18078936D01*
X10324944Y-17964650D02*
X10324944Y-18097984D01*
X10277325Y-17888460D02*
X10229706Y-18031317D01*
X10229706Y-18031317D02*
X10353515Y-18031317D01*
X10582087Y-18097984D02*
X10582087Y-17897984D01*
X10667801Y-18097984D02*
X10667801Y-17993222D01*
X10667801Y-17993222D02*
X10658277Y-17974174D01*
X10658277Y-17974174D02*
X10639230Y-17964650D01*
X10639230Y-17964650D02*
X10610658Y-17964650D01*
X10610658Y-17964650D02*
X10591611Y-17974174D01*
X10591611Y-17974174D02*
X10582087Y-17983698D01*
X10791611Y-18097984D02*
X10772563Y-18088460D01*
X10772563Y-18088460D02*
X10763039Y-18078936D01*
X10763039Y-18078936D02*
X10753515Y-18059889D01*
X10753515Y-18059889D02*
X10753515Y-18002746D01*
X10753515Y-18002746D02*
X10763039Y-17983698D01*
X10763039Y-17983698D02*
X10772563Y-17974174D01*
X10772563Y-17974174D02*
X10791611Y-17964650D01*
X10791611Y-17964650D02*
X10820182Y-17964650D01*
X10820182Y-17964650D02*
X10839230Y-17974174D01*
X10839230Y-17974174D02*
X10848753Y-17983698D01*
X10848753Y-17983698D02*
X10858277Y-18002746D01*
X10858277Y-18002746D02*
X10858277Y-18059889D01*
X10858277Y-18059889D02*
X10848753Y-18078936D01*
X10848753Y-18078936D02*
X10839230Y-18088460D01*
X10839230Y-18088460D02*
X10820182Y-18097984D01*
X10820182Y-18097984D02*
X10791611Y-18097984D01*
X10972563Y-18097984D02*
X10953515Y-18088460D01*
X10953515Y-18088460D02*
X10943992Y-18069412D01*
X10943992Y-18069412D02*
X10943992Y-17897984D01*
X11124944Y-18088460D02*
X11105896Y-18097984D01*
X11105896Y-18097984D02*
X11067801Y-18097984D01*
X11067801Y-18097984D02*
X11048753Y-18088460D01*
X11048753Y-18088460D02*
X11039230Y-18069412D01*
X11039230Y-18069412D02*
X11039230Y-17993222D01*
X11039230Y-17993222D02*
X11048753Y-17974174D01*
X11048753Y-17974174D02*
X11067801Y-17964650D01*
X11067801Y-17964650D02*
X11105896Y-17964650D01*
X11105896Y-17964650D02*
X11124944Y-17974174D01*
X11124944Y-17974174D02*
X11134468Y-17993222D01*
X11134468Y-17993222D02*
X11134468Y-18012270D01*
X11134468Y-18012270D02*
X11039230Y-18031317D01*
X11210658Y-18088460D02*
X11229706Y-18097984D01*
X11229706Y-18097984D02*
X11267801Y-18097984D01*
X11267801Y-18097984D02*
X11286849Y-18088460D01*
X11286849Y-18088460D02*
X11296372Y-18069412D01*
X11296372Y-18069412D02*
X11296372Y-18059889D01*
X11296372Y-18059889D02*
X11286849Y-18040841D01*
X11286849Y-18040841D02*
X11267801Y-18031317D01*
X11267801Y-18031317D02*
X11239230Y-18031317D01*
X11239230Y-18031317D02*
X11220182Y-18021793D01*
X11220182Y-18021793D02*
X11210658Y-18002746D01*
X11210658Y-18002746D02*
X11210658Y-17993222D01*
X11210658Y-17993222D02*
X11220182Y-17974174D01*
X11220182Y-17974174D02*
X11239230Y-17964650D01*
X11239230Y-17964650D02*
X11267801Y-17964650D01*
X11267801Y-17964650D02*
X11286849Y-17974174D01*
X11363039Y-18174174D02*
X11372563Y-18164650D01*
X11372563Y-18164650D02*
X11391611Y-18136079D01*
X11391611Y-18136079D02*
X11401134Y-18117031D01*
X11401134Y-18117031D02*
X11410658Y-18088460D01*
X11410658Y-18088460D02*
X11420182Y-18040841D01*
X11420182Y-18040841D02*
X11420182Y-18002746D01*
X11420182Y-18002746D02*
X11410658Y-17955127D01*
X11410658Y-17955127D02*
X11401134Y-17926555D01*
X11401134Y-17926555D02*
X11391611Y-17907508D01*
X11391611Y-17907508D02*
X11372563Y-17878936D01*
X11372563Y-17878936D02*
X11363039Y-17869412D01*
X11724944Y-18174174D02*
X11715420Y-18164650D01*
X11715420Y-18164650D02*
X11696372Y-18136079D01*
X11696372Y-18136079D02*
X11686849Y-18117031D01*
X11686849Y-18117031D02*
X11677325Y-18088460D01*
X11677325Y-18088460D02*
X11667801Y-18040841D01*
X11667801Y-18040841D02*
X11667801Y-18002746D01*
X11667801Y-18002746D02*
X11677325Y-17955127D01*
X11677325Y-17955127D02*
X11686849Y-17926555D01*
X11686849Y-17926555D02*
X11696372Y-17907508D01*
X11696372Y-17907508D02*
X11715420Y-17878936D01*
X11715420Y-17878936D02*
X11724944Y-17869412D01*
X11801134Y-17964650D02*
X11801134Y-18097984D01*
X11801134Y-17983698D02*
X11810658Y-17974174D01*
X11810658Y-17974174D02*
X11829706Y-17964650D01*
X11829706Y-17964650D02*
X11858277Y-17964650D01*
X11858277Y-17964650D02*
X11877325Y-17974174D01*
X11877325Y-17974174D02*
X11886849Y-17993222D01*
X11886849Y-17993222D02*
X11886849Y-18097984D01*
X12010658Y-18097984D02*
X11991611Y-18088460D01*
X11991611Y-18088460D02*
X11982087Y-18078936D01*
X11982087Y-18078936D02*
X11972563Y-18059889D01*
X11972563Y-18059889D02*
X11972563Y-18002746D01*
X11972563Y-18002746D02*
X11982087Y-17983698D01*
X11982087Y-17983698D02*
X11991611Y-17974174D01*
X11991611Y-17974174D02*
X12010658Y-17964650D01*
X12010658Y-17964650D02*
X12039230Y-17964650D01*
X12039230Y-17964650D02*
X12058277Y-17974174D01*
X12058277Y-17974174D02*
X12067801Y-17983698D01*
X12067801Y-17983698D02*
X12077325Y-18002746D01*
X12077325Y-18002746D02*
X12077325Y-18059889D01*
X12077325Y-18059889D02*
X12067801Y-18078936D01*
X12067801Y-18078936D02*
X12058277Y-18088460D01*
X12058277Y-18088460D02*
X12039230Y-18097984D01*
X12039230Y-18097984D02*
X12010658Y-18097984D01*
X12134468Y-17964650D02*
X12210658Y-17964650D01*
X12163039Y-17897984D02*
X12163039Y-18069412D01*
X12163039Y-18069412D02*
X12172563Y-18088460D01*
X12172563Y-18088460D02*
X12191611Y-18097984D01*
X12191611Y-18097984D02*
X12210658Y-18097984D01*
X12429706Y-17964650D02*
X12429706Y-18164650D01*
X12429706Y-17974174D02*
X12448753Y-17964650D01*
X12448753Y-17964650D02*
X12486849Y-17964650D01*
X12486849Y-17964650D02*
X12505896Y-17974174D01*
X12505896Y-17974174D02*
X12515420Y-17983698D01*
X12515420Y-17983698D02*
X12524944Y-18002746D01*
X12524944Y-18002746D02*
X12524944Y-18059889D01*
X12524944Y-18059889D02*
X12515420Y-18078936D01*
X12515420Y-18078936D02*
X12505896Y-18088460D01*
X12505896Y-18088460D02*
X12486849Y-18097984D01*
X12486849Y-18097984D02*
X12448753Y-18097984D01*
X12448753Y-18097984D02*
X12429706Y-18088460D01*
X12639230Y-18097984D02*
X12620182Y-18088460D01*
X12620182Y-18088460D02*
X12610658Y-18069412D01*
X12610658Y-18069412D02*
X12610658Y-17897984D01*
X12801134Y-18097984D02*
X12801134Y-17993222D01*
X12801134Y-17993222D02*
X12791611Y-17974174D01*
X12791611Y-17974174D02*
X12772563Y-17964650D01*
X12772563Y-17964650D02*
X12734468Y-17964650D01*
X12734468Y-17964650D02*
X12715420Y-17974174D01*
X12801134Y-18088460D02*
X12782087Y-18097984D01*
X12782087Y-18097984D02*
X12734468Y-18097984D01*
X12734468Y-18097984D02*
X12715420Y-18088460D01*
X12715420Y-18088460D02*
X12705896Y-18069412D01*
X12705896Y-18069412D02*
X12705896Y-18050365D01*
X12705896Y-18050365D02*
X12715420Y-18031317D01*
X12715420Y-18031317D02*
X12734468Y-18021793D01*
X12734468Y-18021793D02*
X12782087Y-18021793D01*
X12782087Y-18021793D02*
X12801134Y-18012270D01*
X12867801Y-17964650D02*
X12943992Y-17964650D01*
X12896373Y-17897984D02*
X12896373Y-18069412D01*
X12896373Y-18069412D02*
X12905896Y-18088460D01*
X12905896Y-18088460D02*
X12924944Y-18097984D01*
X12924944Y-18097984D02*
X12943992Y-18097984D01*
X13086849Y-18088460D02*
X13067801Y-18097984D01*
X13067801Y-18097984D02*
X13029706Y-18097984D01*
X13029706Y-18097984D02*
X13010658Y-18088460D01*
X13010658Y-18088460D02*
X13001134Y-18069412D01*
X13001134Y-18069412D02*
X13001134Y-17993222D01*
X13001134Y-17993222D02*
X13010658Y-17974174D01*
X13010658Y-17974174D02*
X13029706Y-17964650D01*
X13029706Y-17964650D02*
X13067801Y-17964650D01*
X13067801Y-17964650D02*
X13086849Y-17974174D01*
X13086849Y-17974174D02*
X13096373Y-17993222D01*
X13096373Y-17993222D02*
X13096373Y-18012270D01*
X13096373Y-18012270D02*
X13001134Y-18031317D01*
X13267801Y-18097984D02*
X13267801Y-17897984D01*
X13267801Y-18088460D02*
X13248754Y-18097984D01*
X13248754Y-18097984D02*
X13210658Y-18097984D01*
X13210658Y-18097984D02*
X13191611Y-18088460D01*
X13191611Y-18088460D02*
X13182087Y-18078936D01*
X13182087Y-18078936D02*
X13172563Y-18059889D01*
X13172563Y-18059889D02*
X13172563Y-18002746D01*
X13172563Y-18002746D02*
X13182087Y-17983698D01*
X13182087Y-17983698D02*
X13191611Y-17974174D01*
X13191611Y-17974174D02*
X13210658Y-17964650D01*
X13210658Y-17964650D02*
X13248754Y-17964650D01*
X13248754Y-17964650D02*
X13267801Y-17974174D01*
X13343992Y-18174174D02*
X13353515Y-18164650D01*
X13353515Y-18164650D02*
X13372563Y-18136079D01*
X13372563Y-18136079D02*
X13382087Y-18117031D01*
X13382087Y-18117031D02*
X13391611Y-18088460D01*
X13391611Y-18088460D02*
X13401134Y-18040841D01*
X13401134Y-18040841D02*
X13401134Y-18002746D01*
X13401134Y-18002746D02*
X13391611Y-17955127D01*
X13391611Y-17955127D02*
X13382087Y-17926555D01*
X13382087Y-17926555D02*
X13372563Y-17907508D01*
X13372563Y-17907508D02*
X13353515Y-17878936D01*
X13353515Y-17878936D02*
X13343992Y-17869412D01*
M02*
