M48
; DRILL file {KiCad 8.0.7} date 2025-01-02T16:03:31-0600
; FORMAT={-:-/ absolute / metric / decimal}
; #@! TF.CreationDate,2025-01-02T16:03:31-06:00
; #@! TF.GenerationSoftware,Kicad,Pcbnew,8.0.7
; #@! TF.FileFunction,NonPlated,1,2,NPTH
FMAT,2
METRIC
; #@! TA.AperFunction,NonPlated,NPTH,ComponentDrill
T1C0.650
; #@! TA.AperFunction,NonPlated,NPTH,ComponentDrill
T2C4.000
%
G90
G05
T1
X211.66Y-60.0
X217.44Y-60.0
T2
X74.297Y-70.624
X74.397Y-89.674
X74.397Y-108.724
X74.397Y-127.774
X74.397Y-146.824
X93.447Y-70.624
X93.447Y-89.674
X93.447Y-108.724
X93.447Y-127.774
X93.447Y-146.824
X112.497Y-65.874
X112.497Y-84.912
X112.497Y-103.962
X112.497Y-123.012
X112.497Y-142.062
X131.547Y-63.481
X131.547Y-82.531
X131.547Y-101.581
X131.547Y-120.631
X141.072Y-142.049
X150.597Y-65.849
X150.597Y-84.899
X150.597Y-103.937
X150.597Y-122.999
X163.693Y-148.002
X169.647Y-68.231
X169.647Y-87.268
X169.647Y-106.318
X169.647Y-125.368
X180.362Y-157.527
X188.697Y-80.149
X188.697Y-99.187
X188.697Y-118.237
X189.887Y-140.859
M30
