G04 #@! TF.GenerationSoftware,KiCad,Pcbnew,8.0.7*
G04 #@! TF.CreationDate,2025-01-02T16:03:09-06:00*
G04 #@! TF.ProjectId,mk0,6d6b302e-6b69-4636-9164-5f7063625858,rev?*
G04 #@! TF.SameCoordinates,Original*
G04 #@! TF.FileFunction,Legend,Top*
G04 #@! TF.FilePolarity,Positive*
%FSLAX46Y46*%
G04 Gerber Fmt 4.6, Leading zero omitted, Abs format (unit mm)*
G04 Created by KiCad (PCBNEW 8.0.7) date 2025-01-02 16:03:09*
%MOMM*%
%LPD*%
G01*
G04 APERTURE LIST*
G04 Aperture macros list*
%AMRoundRect*
0 Rectangle with rounded corners*
0 $1 Rounding radius*
0 $2 $3 $4 $5 $6 $7 $8 $9 X,Y pos of 4 corners*
0 Add a 4 corners polygon primitive as box body*
4,1,4,$2,$3,$4,$5,$6,$7,$8,$9,$2,$3,0*
0 Add four circle primitives for the rounded corners*
1,1,$1+$1,$2,$3*
1,1,$1+$1,$4,$5*
1,1,$1+$1,$6,$7*
1,1,$1+$1,$8,$9*
0 Add four rect primitives between the rounded corners*
20,1,$1+$1,$2,$3,$4,$5,0*
20,1,$1+$1,$4,$5,$6,$7,0*
20,1,$1+$1,$6,$7,$8,$9,0*
20,1,$1+$1,$8,$9,$2,$3,0*%
G04 Aperture macros list end*
%ADD10C,0.150000*%
%ADD11C,0.120000*%
%ADD12C,4.000000*%
%ADD13C,2.200000*%
%ADD14R,1.500000X1.500000*%
%ADD15RoundRect,0.250000X-0.250000X0.250000X-0.250000X-0.250000X0.250000X-0.250000X0.250000X0.250000X0*%
%ADD16RoundRect,0.250000X0.337500X0.475000X-0.337500X0.475000X-0.337500X-0.475000X0.337500X-0.475000X0*%
%ADD17RoundRect,0.250000X0.475000X-0.337500X0.475000X0.337500X-0.475000X0.337500X-0.475000X-0.337500X0*%
%ADD18R,1.050000X1.100000*%
%ADD19RoundRect,0.250000X-0.475000X0.337500X-0.475000X-0.337500X0.475000X-0.337500X0.475000X0.337500X0*%
%ADD20C,0.650000*%
%ADD21R,0.600000X1.450000*%
%ADD22R,0.300000X1.450000*%
%ADD23O,1.000000X2.100000*%
%ADD24O,1.000000X1.600000*%
%ADD25RoundRect,0.250000X-0.450000X0.350000X-0.450000X-0.350000X0.450000X-0.350000X0.450000X0.350000X0*%
%ADD26RoundRect,0.250000X0.450000X-0.350000X0.450000X0.350000X-0.450000X0.350000X-0.450000X-0.350000X0*%
%ADD27RoundRect,0.150000X0.587500X0.150000X-0.587500X0.150000X-0.587500X-0.150000X0.587500X-0.150000X0*%
%ADD28RoundRect,0.075000X0.075000X-0.662500X0.075000X0.662500X-0.075000X0.662500X-0.075000X-0.662500X0*%
%ADD29RoundRect,0.075000X0.662500X-0.075000X0.662500X0.075000X-0.662500X0.075000X-0.662500X-0.075000X0*%
%ADD30RoundRect,0.250000X-0.337500X-0.475000X0.337500X-0.475000X0.337500X0.475000X-0.337500X0.475000X0*%
%ADD31RoundRect,0.325000X-0.925000X-0.325000X0.925000X-0.325000X0.925000X0.325000X-0.925000X0.325000X0*%
G04 APERTURE END LIST*
D10*
X234369819Y-116263220D02*
X233369819Y-116263220D01*
X233369819Y-116263220D02*
X233369819Y-116025125D01*
X233369819Y-116025125D02*
X233417438Y-115882268D01*
X233417438Y-115882268D02*
X233512676Y-115787030D01*
X233512676Y-115787030D02*
X233607914Y-115739411D01*
X233607914Y-115739411D02*
X233798390Y-115691792D01*
X233798390Y-115691792D02*
X233941247Y-115691792D01*
X233941247Y-115691792D02*
X234131723Y-115739411D01*
X234131723Y-115739411D02*
X234226961Y-115787030D01*
X234226961Y-115787030D02*
X234322200Y-115882268D01*
X234322200Y-115882268D02*
X234369819Y-116025125D01*
X234369819Y-116025125D02*
X234369819Y-116263220D01*
X234322200Y-114882268D02*
X234369819Y-114977506D01*
X234369819Y-114977506D02*
X234369819Y-115167982D01*
X234369819Y-115167982D02*
X234322200Y-115263220D01*
X234322200Y-115263220D02*
X234226961Y-115310839D01*
X234226961Y-115310839D02*
X233846009Y-115310839D01*
X233846009Y-115310839D02*
X233750771Y-115263220D01*
X233750771Y-115263220D02*
X233703152Y-115167982D01*
X233703152Y-115167982D02*
X233703152Y-114977506D01*
X233703152Y-114977506D02*
X233750771Y-114882268D01*
X233750771Y-114882268D02*
X233846009Y-114834649D01*
X233846009Y-114834649D02*
X233941247Y-114834649D01*
X233941247Y-114834649D02*
X234036485Y-115310839D01*
X234322200Y-114453696D02*
X234369819Y-114358458D01*
X234369819Y-114358458D02*
X234369819Y-114167982D01*
X234369819Y-114167982D02*
X234322200Y-114072744D01*
X234322200Y-114072744D02*
X234226961Y-114025125D01*
X234226961Y-114025125D02*
X234179342Y-114025125D01*
X234179342Y-114025125D02*
X234084104Y-114072744D01*
X234084104Y-114072744D02*
X234036485Y-114167982D01*
X234036485Y-114167982D02*
X234036485Y-114310839D01*
X234036485Y-114310839D02*
X233988866Y-114406077D01*
X233988866Y-114406077D02*
X233893628Y-114453696D01*
X233893628Y-114453696D02*
X233846009Y-114453696D01*
X233846009Y-114453696D02*
X233750771Y-114406077D01*
X233750771Y-114406077D02*
X233703152Y-114310839D01*
X233703152Y-114310839D02*
X233703152Y-114167982D01*
X233703152Y-114167982D02*
X233750771Y-114072744D01*
X234369819Y-113596553D02*
X233703152Y-113596553D01*
X233369819Y-113596553D02*
X233417438Y-113644172D01*
X233417438Y-113644172D02*
X233465057Y-113596553D01*
X233465057Y-113596553D02*
X233417438Y-113548934D01*
X233417438Y-113548934D02*
X233369819Y-113596553D01*
X233369819Y-113596553D02*
X233465057Y-113596553D01*
X233703152Y-112691792D02*
X234512676Y-112691792D01*
X234512676Y-112691792D02*
X234607914Y-112739411D01*
X234607914Y-112739411D02*
X234655533Y-112787030D01*
X234655533Y-112787030D02*
X234703152Y-112882268D01*
X234703152Y-112882268D02*
X234703152Y-113025125D01*
X234703152Y-113025125D02*
X234655533Y-113120363D01*
X234322200Y-112691792D02*
X234369819Y-112787030D01*
X234369819Y-112787030D02*
X234369819Y-112977506D01*
X234369819Y-112977506D02*
X234322200Y-113072744D01*
X234322200Y-113072744D02*
X234274580Y-113120363D01*
X234274580Y-113120363D02*
X234179342Y-113167982D01*
X234179342Y-113167982D02*
X233893628Y-113167982D01*
X233893628Y-113167982D02*
X233798390Y-113120363D01*
X233798390Y-113120363D02*
X233750771Y-113072744D01*
X233750771Y-113072744D02*
X233703152Y-112977506D01*
X233703152Y-112977506D02*
X233703152Y-112787030D01*
X233703152Y-112787030D02*
X233750771Y-112691792D01*
X233703152Y-112215601D02*
X234369819Y-112215601D01*
X233798390Y-112215601D02*
X233750771Y-112167982D01*
X233750771Y-112167982D02*
X233703152Y-112072744D01*
X233703152Y-112072744D02*
X233703152Y-111929887D01*
X233703152Y-111929887D02*
X233750771Y-111834649D01*
X233750771Y-111834649D02*
X233846009Y-111787030D01*
X233846009Y-111787030D02*
X234369819Y-111787030D01*
X234322200Y-110929887D02*
X234369819Y-111025125D01*
X234369819Y-111025125D02*
X234369819Y-111215601D01*
X234369819Y-111215601D02*
X234322200Y-111310839D01*
X234322200Y-111310839D02*
X234226961Y-111358458D01*
X234226961Y-111358458D02*
X233846009Y-111358458D01*
X233846009Y-111358458D02*
X233750771Y-111310839D01*
X233750771Y-111310839D02*
X233703152Y-111215601D01*
X233703152Y-111215601D02*
X233703152Y-111025125D01*
X233703152Y-111025125D02*
X233750771Y-110929887D01*
X233750771Y-110929887D02*
X233846009Y-110882268D01*
X233846009Y-110882268D02*
X233941247Y-110882268D01*
X233941247Y-110882268D02*
X234036485Y-111358458D01*
X234369819Y-110025125D02*
X233369819Y-110025125D01*
X234322200Y-110025125D02*
X234369819Y-110120363D01*
X234369819Y-110120363D02*
X234369819Y-110310839D01*
X234369819Y-110310839D02*
X234322200Y-110406077D01*
X234322200Y-110406077D02*
X234274580Y-110453696D01*
X234274580Y-110453696D02*
X234179342Y-110501315D01*
X234179342Y-110501315D02*
X233893628Y-110501315D01*
X233893628Y-110501315D02*
X233798390Y-110453696D01*
X233798390Y-110453696D02*
X233750771Y-110406077D01*
X233750771Y-110406077D02*
X233703152Y-110310839D01*
X233703152Y-110310839D02*
X233703152Y-110120363D01*
X233703152Y-110120363D02*
X233750771Y-110025125D01*
X234369819Y-108787029D02*
X233703152Y-108787029D01*
X233369819Y-108787029D02*
X233417438Y-108834648D01*
X233417438Y-108834648D02*
X233465057Y-108787029D01*
X233465057Y-108787029D02*
X233417438Y-108739410D01*
X233417438Y-108739410D02*
X233369819Y-108787029D01*
X233369819Y-108787029D02*
X233465057Y-108787029D01*
X233703152Y-108310839D02*
X234369819Y-108310839D01*
X233798390Y-108310839D02*
X233750771Y-108263220D01*
X233750771Y-108263220D02*
X233703152Y-108167982D01*
X233703152Y-108167982D02*
X233703152Y-108025125D01*
X233703152Y-108025125D02*
X233750771Y-107929887D01*
X233750771Y-107929887D02*
X233846009Y-107882268D01*
X233846009Y-107882268D02*
X234369819Y-107882268D01*
X234274580Y-106072744D02*
X234322200Y-106120363D01*
X234322200Y-106120363D02*
X234369819Y-106263220D01*
X234369819Y-106263220D02*
X234369819Y-106358458D01*
X234369819Y-106358458D02*
X234322200Y-106501315D01*
X234322200Y-106501315D02*
X234226961Y-106596553D01*
X234226961Y-106596553D02*
X234131723Y-106644172D01*
X234131723Y-106644172D02*
X233941247Y-106691791D01*
X233941247Y-106691791D02*
X233798390Y-106691791D01*
X233798390Y-106691791D02*
X233607914Y-106644172D01*
X233607914Y-106644172D02*
X233512676Y-106596553D01*
X233512676Y-106596553D02*
X233417438Y-106501315D01*
X233417438Y-106501315D02*
X233369819Y-106358458D01*
X233369819Y-106358458D02*
X233369819Y-106263220D01*
X233369819Y-106263220D02*
X233417438Y-106120363D01*
X233417438Y-106120363D02*
X233465057Y-106072744D01*
X234369819Y-105644172D02*
X233369819Y-105644172D01*
X234369819Y-105215601D02*
X233846009Y-105215601D01*
X233846009Y-105215601D02*
X233750771Y-105263220D01*
X233750771Y-105263220D02*
X233703152Y-105358458D01*
X233703152Y-105358458D02*
X233703152Y-105501315D01*
X233703152Y-105501315D02*
X233750771Y-105596553D01*
X233750771Y-105596553D02*
X233798390Y-105644172D01*
X234369819Y-104739410D02*
X233703152Y-104739410D01*
X233369819Y-104739410D02*
X233417438Y-104787029D01*
X233417438Y-104787029D02*
X233465057Y-104739410D01*
X233465057Y-104739410D02*
X233417438Y-104691791D01*
X233417438Y-104691791D02*
X233369819Y-104739410D01*
X233369819Y-104739410D02*
X233465057Y-104739410D01*
X234322200Y-103834649D02*
X234369819Y-103929887D01*
X234369819Y-103929887D02*
X234369819Y-104120363D01*
X234369819Y-104120363D02*
X234322200Y-104215601D01*
X234322200Y-104215601D02*
X234274580Y-104263220D01*
X234274580Y-104263220D02*
X234179342Y-104310839D01*
X234179342Y-104310839D02*
X233893628Y-104310839D01*
X233893628Y-104310839D02*
X233798390Y-104263220D01*
X233798390Y-104263220D02*
X233750771Y-104215601D01*
X233750771Y-104215601D02*
X233703152Y-104120363D01*
X233703152Y-104120363D02*
X233703152Y-103929887D01*
X233703152Y-103929887D02*
X233750771Y-103834649D01*
X234369819Y-102977506D02*
X233846009Y-102977506D01*
X233846009Y-102977506D02*
X233750771Y-103025125D01*
X233750771Y-103025125D02*
X233703152Y-103120363D01*
X233703152Y-103120363D02*
X233703152Y-103310839D01*
X233703152Y-103310839D02*
X233750771Y-103406077D01*
X234322200Y-102977506D02*
X234369819Y-103072744D01*
X234369819Y-103072744D02*
X234369819Y-103310839D01*
X234369819Y-103310839D02*
X234322200Y-103406077D01*
X234322200Y-103406077D02*
X234226961Y-103453696D01*
X234226961Y-103453696D02*
X234131723Y-103453696D01*
X234131723Y-103453696D02*
X234036485Y-103406077D01*
X234036485Y-103406077D02*
X233988866Y-103310839D01*
X233988866Y-103310839D02*
X233988866Y-103072744D01*
X233988866Y-103072744D02*
X233941247Y-102977506D01*
X233703152Y-102072744D02*
X234512676Y-102072744D01*
X234512676Y-102072744D02*
X234607914Y-102120363D01*
X234607914Y-102120363D02*
X234655533Y-102167982D01*
X234655533Y-102167982D02*
X234703152Y-102263220D01*
X234703152Y-102263220D02*
X234703152Y-102406077D01*
X234703152Y-102406077D02*
X234655533Y-102501315D01*
X234322200Y-102072744D02*
X234369819Y-102167982D01*
X234369819Y-102167982D02*
X234369819Y-102358458D01*
X234369819Y-102358458D02*
X234322200Y-102453696D01*
X234322200Y-102453696D02*
X234274580Y-102501315D01*
X234274580Y-102501315D02*
X234179342Y-102548934D01*
X234179342Y-102548934D02*
X233893628Y-102548934D01*
X233893628Y-102548934D02*
X233798390Y-102501315D01*
X233798390Y-102501315D02*
X233750771Y-102453696D01*
X233750771Y-102453696D02*
X233703152Y-102358458D01*
X233703152Y-102358458D02*
X233703152Y-102167982D01*
X233703152Y-102167982D02*
X233750771Y-102072744D01*
X234369819Y-101453696D02*
X234322200Y-101548934D01*
X234322200Y-101548934D02*
X234274580Y-101596553D01*
X234274580Y-101596553D02*
X234179342Y-101644172D01*
X234179342Y-101644172D02*
X233893628Y-101644172D01*
X233893628Y-101644172D02*
X233798390Y-101596553D01*
X233798390Y-101596553D02*
X233750771Y-101548934D01*
X233750771Y-101548934D02*
X233703152Y-101453696D01*
X233703152Y-101453696D02*
X233703152Y-101310839D01*
X233703152Y-101310839D02*
X233750771Y-101215601D01*
X233750771Y-101215601D02*
X233798390Y-101167982D01*
X233798390Y-101167982D02*
X233893628Y-101120363D01*
X233893628Y-101120363D02*
X234179342Y-101120363D01*
X234179342Y-101120363D02*
X234274580Y-101167982D01*
X234274580Y-101167982D02*
X234322200Y-101215601D01*
X234322200Y-101215601D02*
X234369819Y-101310839D01*
X234369819Y-101310839D02*
X234369819Y-101453696D01*
X231269819Y-113506077D02*
X231269819Y-112934649D01*
X232269819Y-113220363D02*
X231269819Y-113220363D01*
X232269819Y-112172744D02*
X231746009Y-112172744D01*
X231746009Y-112172744D02*
X231650771Y-112220363D01*
X231650771Y-112220363D02*
X231603152Y-112315601D01*
X231603152Y-112315601D02*
X231603152Y-112506077D01*
X231603152Y-112506077D02*
X231650771Y-112601315D01*
X232222200Y-112172744D02*
X232269819Y-112267982D01*
X232269819Y-112267982D02*
X232269819Y-112506077D01*
X232269819Y-112506077D02*
X232222200Y-112601315D01*
X232222200Y-112601315D02*
X232126961Y-112648934D01*
X232126961Y-112648934D02*
X232031723Y-112648934D01*
X232031723Y-112648934D02*
X231936485Y-112601315D01*
X231936485Y-112601315D02*
X231888866Y-112506077D01*
X231888866Y-112506077D02*
X231888866Y-112267982D01*
X231888866Y-112267982D02*
X231841247Y-112172744D01*
X232222200Y-111744172D02*
X232269819Y-111648934D01*
X232269819Y-111648934D02*
X232269819Y-111458458D01*
X232269819Y-111458458D02*
X232222200Y-111363220D01*
X232222200Y-111363220D02*
X232126961Y-111315601D01*
X232126961Y-111315601D02*
X232079342Y-111315601D01*
X232079342Y-111315601D02*
X231984104Y-111363220D01*
X231984104Y-111363220D02*
X231936485Y-111458458D01*
X231936485Y-111458458D02*
X231936485Y-111601315D01*
X231936485Y-111601315D02*
X231888866Y-111696553D01*
X231888866Y-111696553D02*
X231793628Y-111744172D01*
X231793628Y-111744172D02*
X231746009Y-111744172D01*
X231746009Y-111744172D02*
X231650771Y-111696553D01*
X231650771Y-111696553D02*
X231603152Y-111601315D01*
X231603152Y-111601315D02*
X231603152Y-111458458D01*
X231603152Y-111458458D02*
X231650771Y-111363220D01*
X231603152Y-111029886D02*
X231603152Y-110648934D01*
X231269819Y-110887029D02*
X232126961Y-110887029D01*
X232126961Y-110887029D02*
X232222200Y-110839410D01*
X232222200Y-110839410D02*
X232269819Y-110744172D01*
X232269819Y-110744172D02*
X232269819Y-110648934D01*
X232269819Y-110315600D02*
X231603152Y-110315600D01*
X231269819Y-110315600D02*
X231317438Y-110363219D01*
X231317438Y-110363219D02*
X231365057Y-110315600D01*
X231365057Y-110315600D02*
X231317438Y-110267981D01*
X231317438Y-110267981D02*
X231269819Y-110315600D01*
X231269819Y-110315600D02*
X231365057Y-110315600D01*
X232222200Y-109458458D02*
X232269819Y-109553696D01*
X232269819Y-109553696D02*
X232269819Y-109744172D01*
X232269819Y-109744172D02*
X232222200Y-109839410D01*
X232222200Y-109839410D02*
X232126961Y-109887029D01*
X232126961Y-109887029D02*
X231746009Y-109887029D01*
X231746009Y-109887029D02*
X231650771Y-109839410D01*
X231650771Y-109839410D02*
X231603152Y-109744172D01*
X231603152Y-109744172D02*
X231603152Y-109553696D01*
X231603152Y-109553696D02*
X231650771Y-109458458D01*
X231650771Y-109458458D02*
X231746009Y-109410839D01*
X231746009Y-109410839D02*
X231841247Y-109410839D01*
X231841247Y-109410839D02*
X231936485Y-109887029D01*
X232269819Y-108982267D02*
X231603152Y-108982267D01*
X231793628Y-108982267D02*
X231698390Y-108934648D01*
X231698390Y-108934648D02*
X231650771Y-108887029D01*
X231650771Y-108887029D02*
X231603152Y-108791791D01*
X231603152Y-108791791D02*
X231603152Y-108696553D01*
X232269819Y-107934648D02*
X231746009Y-107934648D01*
X231746009Y-107934648D02*
X231650771Y-107982267D01*
X231650771Y-107982267D02*
X231603152Y-108077505D01*
X231603152Y-108077505D02*
X231603152Y-108267981D01*
X231603152Y-108267981D02*
X231650771Y-108363219D01*
X232222200Y-107934648D02*
X232269819Y-108029886D01*
X232269819Y-108029886D02*
X232269819Y-108267981D01*
X232269819Y-108267981D02*
X232222200Y-108363219D01*
X232222200Y-108363219D02*
X232126961Y-108410838D01*
X232126961Y-108410838D02*
X232031723Y-108410838D01*
X232031723Y-108410838D02*
X231936485Y-108363219D01*
X231936485Y-108363219D02*
X231888866Y-108267981D01*
X231888866Y-108267981D02*
X231888866Y-108029886D01*
X231888866Y-108029886D02*
X231841247Y-107934648D01*
X231603152Y-106791790D02*
X232269819Y-106553695D01*
X232269819Y-106553695D02*
X231603152Y-106315600D01*
X231269819Y-105744171D02*
X231269819Y-105648933D01*
X231269819Y-105648933D02*
X231317438Y-105553695D01*
X231317438Y-105553695D02*
X231365057Y-105506076D01*
X231365057Y-105506076D02*
X231460295Y-105458457D01*
X231460295Y-105458457D02*
X231650771Y-105410838D01*
X231650771Y-105410838D02*
X231888866Y-105410838D01*
X231888866Y-105410838D02*
X232079342Y-105458457D01*
X232079342Y-105458457D02*
X232174580Y-105506076D01*
X232174580Y-105506076D02*
X232222200Y-105553695D01*
X232222200Y-105553695D02*
X232269819Y-105648933D01*
X232269819Y-105648933D02*
X232269819Y-105744171D01*
X232269819Y-105744171D02*
X232222200Y-105839409D01*
X232222200Y-105839409D02*
X232174580Y-105887028D01*
X232174580Y-105887028D02*
X232079342Y-105934647D01*
X232079342Y-105934647D02*
X231888866Y-105982266D01*
X231888866Y-105982266D02*
X231650771Y-105982266D01*
X231650771Y-105982266D02*
X231460295Y-105934647D01*
X231460295Y-105934647D02*
X231365057Y-105887028D01*
X231365057Y-105887028D02*
X231317438Y-105839409D01*
X231317438Y-105839409D02*
X231269819Y-105744171D01*
X232174580Y-104982266D02*
X232222200Y-104934647D01*
X232222200Y-104934647D02*
X232269819Y-104982266D01*
X232269819Y-104982266D02*
X232222200Y-105029885D01*
X232222200Y-105029885D02*
X232174580Y-104982266D01*
X232174580Y-104982266D02*
X232269819Y-104982266D01*
X232269819Y-103982267D02*
X232269819Y-104553695D01*
X232269819Y-104267981D02*
X231269819Y-104267981D01*
X231269819Y-104267981D02*
X231412676Y-104363219D01*
X231412676Y-104363219D02*
X231507914Y-104458457D01*
X231507914Y-104458457D02*
X231555533Y-104553695D01*
D11*
X105511600Y-58889300D02*
X119481600Y-58889300D01*
X105511600Y-72859300D02*
X105511600Y-58889300D01*
X119481600Y-58889300D02*
X119481600Y-72859300D01*
X119481600Y-72859300D02*
X105511600Y-72859300D01*
X204118600Y-89623300D02*
X207818600Y-89623300D01*
X204118600Y-95743300D02*
X204118600Y-89623300D01*
X207818600Y-89623300D02*
X207818600Y-95743300D01*
X207818600Y-95743300D02*
X204118600Y-95743300D01*
X216370800Y-124104925D02*
X216370800Y-127364925D01*
X218070800Y-124104925D02*
X216370800Y-124104925D01*
X218070800Y-124104925D02*
X218070800Y-127364925D01*
X221222200Y-111362700D02*
X221222200Y-114622700D01*
X222922200Y-111362700D02*
X221222200Y-111362700D01*
X222922200Y-111362700D02*
X222922200Y-114622700D01*
X211135227Y-67158800D02*
X210612723Y-67158800D01*
X211135227Y-68628800D02*
X210612723Y-68628800D01*
X221311100Y-98434100D02*
X221311100Y-101694100D01*
X223011100Y-98434100D02*
X221311100Y-98434100D01*
X223011100Y-98434100D02*
X223011100Y-101694100D01*
X216459700Y-111362700D02*
X216459700Y-114622700D01*
X218159700Y-111362700D02*
X216459700Y-111362700D01*
X218159700Y-111362700D02*
X218159700Y-114622700D01*
X211786100Y-98434100D02*
X211786100Y-101694100D01*
X213486100Y-98434100D02*
X211786100Y-98434100D01*
X213486100Y-98434100D02*
X213486100Y-101694100D01*
X209315950Y-111362700D02*
X209315950Y-114622700D01*
X211015950Y-111362700D02*
X209315950Y-111362700D01*
X211015950Y-111362700D02*
X211015950Y-114622700D01*
X213869600Y-88462552D02*
X213869600Y-87940048D01*
X215339600Y-88462552D02*
X215339600Y-87940048D01*
X181711600Y-111251800D02*
X195681600Y-111251800D01*
X181711600Y-125221800D02*
X181711600Y-111251800D01*
X195681600Y-111251800D02*
X195681600Y-125221800D01*
X195681600Y-125221800D02*
X181711600Y-125221800D01*
X218840950Y-111362700D02*
X218840950Y-114622700D01*
X220540950Y-111362700D02*
X218840950Y-111362700D01*
X220540950Y-111362700D02*
X220540950Y-114622700D01*
X211608300Y-124104925D02*
X211608300Y-127364925D01*
X213308300Y-124104925D02*
X211608300Y-124104925D01*
X213308300Y-124104925D02*
X213308300Y-127364925D01*
X216764600Y-88417300D02*
X216764600Y-90017300D01*
X216764600Y-90017300D02*
X219614600Y-90017300D01*
X219614600Y-88417300D02*
X216764600Y-88417300D01*
X218752050Y-124104925D02*
X218752050Y-127364925D01*
X220452050Y-124104925D02*
X218752050Y-124104925D01*
X220452050Y-124104925D02*
X220452050Y-127364925D01*
X233153852Y-86174800D02*
X232631348Y-86174800D01*
X233153852Y-87644800D02*
X232631348Y-87644800D01*
X216548600Y-98493475D02*
X216548600Y-101753475D01*
X218248600Y-98493475D02*
X216548600Y-98493475D01*
X218248600Y-98493475D02*
X218248600Y-101753475D01*
X170820538Y-160084112D02*
X177805538Y-147985738D01*
X177805538Y-147985738D02*
X189903913Y-154970738D01*
X182918913Y-167069112D02*
X170820538Y-160084112D01*
X189903913Y-154970738D02*
X182918913Y-167069112D01*
X143611600Y-58864300D02*
X157581600Y-58864300D01*
X143611600Y-72834300D02*
X143611600Y-58864300D01*
X157581600Y-58864300D02*
X157581600Y-72834300D01*
X157581600Y-72834300D02*
X143611600Y-72834300D01*
X229363600Y-79392548D02*
X229363600Y-79915052D01*
X230833600Y-79392548D02*
X230833600Y-79915052D01*
X209850000Y-55400000D02*
X209850000Y-53500000D01*
X209850000Y-59300000D02*
X209850000Y-57300000D01*
X219250000Y-53500000D02*
X209850000Y-53500000D01*
X219250000Y-55400000D02*
X219250000Y-53500000D01*
X219250000Y-59300000D02*
X219250000Y-57300000D01*
X86461600Y-101739300D02*
X100431600Y-101739300D01*
X86461600Y-115709300D02*
X86461600Y-101739300D01*
X100431600Y-101739300D02*
X100431600Y-115709300D01*
X100431600Y-115709300D02*
X86461600Y-115709300D01*
X67411600Y-139839300D02*
X81381600Y-139839300D01*
X67411600Y-153809300D02*
X67411600Y-139839300D01*
X81381600Y-139839300D02*
X81381600Y-153809300D01*
X81381600Y-153809300D02*
X67411600Y-153809300D01*
X67411600Y-82689300D02*
X81381600Y-82689300D01*
X67411600Y-96659300D02*
X67411600Y-82689300D01*
X81381600Y-82689300D02*
X81381600Y-96659300D01*
X81381600Y-96659300D02*
X67411600Y-96659300D01*
X218929850Y-98434100D02*
X218929850Y-101694100D01*
X220629850Y-98434100D02*
X218929850Y-98434100D01*
X220629850Y-98434100D02*
X220629850Y-101694100D01*
X67311600Y-63639300D02*
X81281600Y-63639300D01*
X67311600Y-77609300D02*
X67311600Y-63639300D01*
X81281600Y-63639300D02*
X81281600Y-77609300D01*
X81281600Y-77609300D02*
X67311600Y-77609300D01*
X124561600Y-94595550D02*
X138531600Y-94595550D01*
X124561600Y-108565550D02*
X124561600Y-94595550D01*
X138531600Y-94595550D02*
X138531600Y-108565550D01*
X138531600Y-108565550D02*
X124561600Y-108565550D01*
X221253950Y-117814300D02*
X221253950Y-121074300D01*
X222953950Y-117814300D02*
X221253950Y-117814300D01*
X222953950Y-117814300D02*
X222953950Y-121074300D01*
X180345538Y-143415362D02*
X187330538Y-131316988D01*
X187330538Y-131316988D02*
X199428913Y-138301988D01*
X192443913Y-150400362D02*
X180345538Y-143415362D01*
X199428913Y-138301988D02*
X192443913Y-150400362D01*
X105511600Y-96976800D02*
X119481600Y-96976800D01*
X105511600Y-110946800D02*
X105511600Y-96976800D01*
X119481600Y-96976800D02*
X119481600Y-110946800D01*
X119481600Y-110946800D02*
X105511600Y-110946800D01*
X105511600Y-77926800D02*
X119481600Y-77926800D01*
X105511600Y-91896800D02*
X105511600Y-77926800D01*
X119481600Y-77926800D02*
X119481600Y-91896800D01*
X119481600Y-91896800D02*
X105511600Y-91896800D01*
X162661600Y-61245550D02*
X176631600Y-61245550D01*
X162661600Y-75215550D02*
X162661600Y-61245550D01*
X176631600Y-61245550D02*
X176631600Y-75215550D01*
X176631600Y-75215550D02*
X162661600Y-75215550D01*
X124561600Y-113645550D02*
X138531600Y-113645550D01*
X124561600Y-127615550D02*
X124561600Y-113645550D01*
X138531600Y-113645550D02*
X138531600Y-127615550D01*
X138531600Y-127615550D02*
X124561600Y-127615550D01*
X216447000Y-104923800D02*
X216447000Y-108183800D01*
X218147000Y-104923800D02*
X216447000Y-104923800D01*
X218147000Y-104923800D02*
X218147000Y-108183800D01*
X213989550Y-124104925D02*
X213989550Y-127364925D01*
X215689550Y-124104925D02*
X213989550Y-124104925D01*
X215689550Y-124104925D02*
X215689550Y-127364925D01*
X162661600Y-80283050D02*
X176631600Y-80283050D01*
X162661600Y-94253050D02*
X162661600Y-80283050D01*
X176631600Y-80283050D02*
X176631600Y-94253050D01*
X176631600Y-94253050D02*
X162661600Y-94253050D01*
X211135227Y-73254800D02*
X210612723Y-73254800D01*
X211135227Y-74724800D02*
X210612723Y-74724800D01*
X206966450Y-117814300D02*
X206966450Y-121074300D01*
X208666450Y-117814300D02*
X206966450Y-117814300D01*
X208666450Y-117814300D02*
X208666450Y-121074300D01*
X218828250Y-104923800D02*
X218828250Y-108183800D01*
X220528250Y-104923800D02*
X218828250Y-104923800D01*
X220528250Y-104923800D02*
X220528250Y-108183800D01*
X162661600Y-118383050D02*
X176631600Y-118383050D01*
X162661600Y-132353050D02*
X162661600Y-118383050D01*
X176631600Y-118383050D02*
X176631600Y-132353050D01*
X176631600Y-132353050D02*
X162661600Y-132353050D01*
X226978600Y-89803300D02*
X230678600Y-89803300D01*
X226978600Y-95923300D02*
X226978600Y-89803300D01*
X230678600Y-89803300D02*
X230678600Y-95923300D01*
X230678600Y-95923300D02*
X226978600Y-95923300D01*
X231903600Y-79392548D02*
X231903600Y-79915052D01*
X233373600Y-79392548D02*
X233373600Y-79915052D01*
X105511600Y-116026800D02*
X119481600Y-116026800D01*
X105511600Y-129996800D02*
X105511600Y-116026800D01*
X119481600Y-116026800D02*
X119481600Y-129996800D01*
X119481600Y-129996800D02*
X105511600Y-129996800D01*
X214078450Y-111362700D02*
X214078450Y-114622700D01*
X215778450Y-111362700D02*
X214078450Y-111362700D01*
X215778450Y-111362700D02*
X215778450Y-114622700D01*
X233132352Y-88968800D02*
X232609848Y-88968800D01*
X233132352Y-90438800D02*
X232609848Y-90438800D01*
X143611600Y-77914300D02*
X157581600Y-77914300D01*
X143611600Y-91884300D02*
X143611600Y-77914300D01*
X157581600Y-77914300D02*
X157581600Y-91884300D01*
X157581600Y-91884300D02*
X143611600Y-91884300D01*
X218901450Y-117814300D02*
X218901450Y-121074300D01*
X220601450Y-117814300D02*
X218901450Y-117814300D01*
X220601450Y-117814300D02*
X220601450Y-121074300D01*
X213948975Y-70460736D02*
X213948975Y-70914864D01*
X215418975Y-70460736D02*
X215418975Y-70914864D01*
X209227050Y-124104925D02*
X209227050Y-127364925D01*
X210927050Y-124104925D02*
X209227050Y-124104925D01*
X210927050Y-124104925D02*
X210927050Y-127364925D01*
X210313600Y-88428364D02*
X210313600Y-87974236D01*
X211783600Y-88428364D02*
X211783600Y-87974236D01*
X221489600Y-92258048D02*
X221489600Y-92780552D01*
X222959600Y-92258048D02*
X222959600Y-92780552D01*
X124561600Y-56495550D02*
X138531600Y-56495550D01*
X124561600Y-70465550D02*
X124561600Y-56495550D01*
X138531600Y-56495550D02*
X138531600Y-70465550D01*
X138531600Y-70465550D02*
X124561600Y-70465550D01*
X210952475Y-69315800D02*
X210302475Y-69315800D01*
X210952475Y-69315800D02*
X211602475Y-69315800D01*
X210952475Y-72435800D02*
X210302475Y-72435800D01*
X210952475Y-72435800D02*
X211602475Y-72435800D01*
X212354975Y-72715800D02*
X211874975Y-72715800D01*
X212114975Y-72385800D01*
X212354975Y-72715800D01*
G36*
X212354975Y-72715800D02*
G01*
X211874975Y-72715800D01*
X212114975Y-72385800D01*
X212354975Y-72715800D01*
G37*
X221209500Y-104923800D02*
X221209500Y-108183800D01*
X222909500Y-104923800D02*
X221209500Y-104923800D01*
X222909500Y-104923800D02*
X222909500Y-108183800D01*
X154151788Y-150559112D02*
X161136788Y-138460738D01*
X161136788Y-138460738D02*
X173235163Y-145445738D01*
X166250163Y-157544112D02*
X154151788Y-150559112D01*
X173235163Y-145445738D02*
X166250163Y-157544112D01*
X211697200Y-111362700D02*
X211697200Y-114622700D01*
X213397200Y-111362700D02*
X211697200Y-111362700D01*
X213397200Y-111362700D02*
X213397200Y-114622700D01*
X215133975Y-74796300D02*
X215583975Y-74796300D01*
X215133975Y-75246300D02*
X215133975Y-74796300D01*
X215133975Y-81566300D02*
X215133975Y-82016300D01*
X215133975Y-82016300D02*
X215583975Y-82016300D01*
X222353975Y-74796300D02*
X221903975Y-74796300D01*
X222353975Y-75246300D02*
X222353975Y-74796300D01*
X222353975Y-81566300D02*
X222353975Y-82016300D01*
X222353975Y-82016300D02*
X221903975Y-82016300D01*
X215583975Y-82606300D02*
X215113975Y-82946300D01*
X215113975Y-82266300D01*
X215583975Y-82606300D01*
G36*
X215583975Y-82606300D02*
G01*
X215113975Y-82946300D01*
X215113975Y-82266300D01*
X215583975Y-82606300D01*
G37*
X67411600Y-101739300D02*
X81381600Y-101739300D01*
X67411600Y-115709300D02*
X67411600Y-101739300D01*
X81381600Y-101739300D02*
X81381600Y-115709300D01*
X81381600Y-115709300D02*
X67411600Y-115709300D01*
X204437348Y-75362800D02*
X204959852Y-75362800D01*
X204437348Y-76832800D02*
X204959852Y-76832800D01*
X206718800Y-124164300D02*
X206718800Y-127424300D01*
X208418800Y-124164300D02*
X206718800Y-124164300D01*
X208418800Y-124164300D02*
X208418800Y-127424300D01*
X209404850Y-98434100D02*
X209404850Y-101694100D01*
X211104850Y-98434100D02*
X209404850Y-98434100D01*
X211104850Y-98434100D02*
X211104850Y-101694100D01*
X124561600Y-75545550D02*
X138531600Y-75545550D01*
X124561600Y-89515550D02*
X124561600Y-75545550D01*
X138531600Y-75545550D02*
X138531600Y-89515550D01*
X138531600Y-89515550D02*
X124561600Y-89515550D01*
X214110200Y-117814300D02*
X214110200Y-121074300D01*
X215810200Y-117814300D02*
X214110200Y-117814300D01*
X215810200Y-117814300D02*
X215810200Y-121074300D01*
X134086600Y-135064300D02*
X148056600Y-135064300D01*
X134086600Y-149034300D02*
X134086600Y-135064300D01*
X148056600Y-135064300D02*
X148056600Y-149034300D01*
X148056600Y-149034300D02*
X134086600Y-149034300D01*
X211684500Y-104923800D02*
X211684500Y-108183800D01*
X213384500Y-104923800D02*
X211684500Y-104923800D01*
X213384500Y-104923800D02*
X213384500Y-108183800D01*
X214065750Y-104923800D02*
X214065750Y-108183800D01*
X215765750Y-104923800D02*
X214065750Y-104923800D01*
X215765750Y-104923800D02*
X215765750Y-108183800D01*
X211075600Y-79936552D02*
X211075600Y-79414048D01*
X212545600Y-79936552D02*
X212545600Y-79414048D01*
X86461600Y-63639300D02*
X100431600Y-63639300D01*
X86461600Y-77609300D02*
X86461600Y-63639300D01*
X100431600Y-63639300D02*
X100431600Y-77609300D01*
X100431600Y-77609300D02*
X86461600Y-77609300D01*
X67411600Y-120789300D02*
X81381600Y-120789300D01*
X67411600Y-134759300D02*
X67411600Y-120789300D01*
X81381600Y-120789300D02*
X81381600Y-134759300D01*
X81381600Y-134759300D02*
X67411600Y-134759300D01*
X162661600Y-99333050D02*
X176631600Y-99333050D01*
X162661600Y-113303050D02*
X162661600Y-99333050D01*
X176631600Y-99333050D02*
X176631600Y-113303050D01*
X176631600Y-113303050D02*
X162661600Y-113303050D01*
X181711600Y-73164300D02*
X195681600Y-73164300D01*
X181711600Y-87134300D02*
X181711600Y-73164300D01*
X195681600Y-73164300D02*
X195681600Y-87134300D01*
X195681600Y-87134300D02*
X181711600Y-87134300D01*
X204437348Y-80442800D02*
X204959852Y-80442800D01*
X204437348Y-81912800D02*
X204959852Y-81912800D01*
X209303250Y-104923800D02*
X209303250Y-108183800D01*
X211003250Y-104923800D02*
X209303250Y-104923800D01*
X211003250Y-104923800D02*
X211003250Y-108183800D01*
X214167350Y-98434100D02*
X214167350Y-101694100D01*
X215867350Y-98434100D02*
X214167350Y-98434100D01*
X215867350Y-98434100D02*
X215867350Y-101694100D01*
X206934700Y-111362700D02*
X206934700Y-114622700D01*
X208634700Y-111362700D02*
X206934700Y-111362700D01*
X208634700Y-111362700D02*
X208634700Y-114622700D01*
X105511600Y-135076800D02*
X119481600Y-135076800D01*
X105511600Y-149046800D02*
X105511600Y-135076800D01*
X119481600Y-135076800D02*
X119481600Y-149046800D01*
X119481600Y-149046800D02*
X105511600Y-149046800D01*
X225045600Y-90240552D02*
X225045600Y-89718048D01*
X226515600Y-90240552D02*
X226515600Y-89718048D01*
X208065600Y-79936552D02*
X208065600Y-79414048D01*
X209535600Y-79936552D02*
X209535600Y-79414048D01*
X181711600Y-92201800D02*
X195681600Y-92201800D01*
X181711600Y-106171800D02*
X181711600Y-92201800D01*
X195681600Y-92201800D02*
X195681600Y-106171800D01*
X195681600Y-106171800D02*
X181711600Y-106171800D01*
X204437348Y-77902800D02*
X204959852Y-77902800D01*
X204437348Y-79372800D02*
X204959852Y-79372800D01*
X207023600Y-98434100D02*
X207023600Y-101694100D01*
X208723600Y-98434100D02*
X207023600Y-98434100D01*
X208723600Y-98434100D02*
X208723600Y-101694100D01*
X143611600Y-116014300D02*
X157581600Y-116014300D01*
X143611600Y-129984300D02*
X143611600Y-116014300D01*
X157581600Y-116014300D02*
X157581600Y-129984300D01*
X157581600Y-129984300D02*
X143611600Y-129984300D01*
X227200000Y-53850000D02*
X228300000Y-53850000D01*
X227200000Y-57250000D02*
X227200000Y-53850000D01*
X227700000Y-60750000D02*
X227700000Y-57841608D01*
X230800000Y-61850000D02*
X228800000Y-61850000D01*
X231300000Y-53850000D02*
X232400000Y-53850000D01*
X231900000Y-57841608D02*
X231900000Y-60750000D01*
X232400000Y-53850000D02*
X232400000Y-57250000D01*
X227700000Y-57841608D02*
G75*
G02*
X227200000Y-57250000I100000J591608D01*
G01*
X228800000Y-61850000D02*
G75*
G02*
X227700000Y-60750000I2J1100002D01*
G01*
X231900000Y-60750000D02*
G75*
G02*
X230800000Y-61850000I-1100000J0D01*
G01*
X232400000Y-57250000D02*
G75*
G02*
X231900000Y-57841608I-600000J0D01*
G01*
X216491450Y-117814300D02*
X216491450Y-121074300D01*
X218191450Y-117814300D02*
X216491450Y-117814300D01*
X218191450Y-117814300D02*
X218191450Y-121074300D01*
X206922000Y-104923800D02*
X206922000Y-108183800D01*
X208622000Y-104923800D02*
X206922000Y-104923800D01*
X208622000Y-104923800D02*
X208622000Y-108183800D01*
X209347700Y-117814300D02*
X209347700Y-121074300D01*
X211047700Y-117814300D02*
X209347700Y-117814300D01*
X211047700Y-117814300D02*
X211047700Y-121074300D01*
X221489600Y-87974236D02*
X221489600Y-88428364D01*
X222959600Y-87974236D02*
X222959600Y-88428364D01*
X143611600Y-96951800D02*
X157581600Y-96951800D01*
X143611600Y-110921800D02*
X143611600Y-96951800D01*
X157581600Y-96951800D02*
X157581600Y-110921800D01*
X157581600Y-110921800D02*
X143611600Y-110921800D01*
X219028975Y-66650736D02*
X219028975Y-67104864D01*
X220498975Y-66650736D02*
X220498975Y-67104864D01*
X211728950Y-117814300D02*
X211728950Y-121074300D01*
X213428950Y-117814300D02*
X211728950Y-117814300D01*
X213428950Y-117814300D02*
X213428950Y-121074300D01*
X86461600Y-82689300D02*
X100431600Y-82689300D01*
X86461600Y-96659300D02*
X86461600Y-82689300D01*
X100431600Y-82689300D02*
X100431600Y-96659300D01*
X100431600Y-96659300D02*
X86461600Y-96659300D01*
X86461600Y-139839300D02*
X100431600Y-139839300D01*
X86461600Y-153809300D02*
X86461600Y-139839300D01*
X100431600Y-139839300D02*
X100431600Y-153809300D01*
X100431600Y-153809300D02*
X86461600Y-153809300D01*
X86461600Y-120789300D02*
X100431600Y-120789300D01*
X86461600Y-134759300D02*
X86461600Y-120789300D01*
X100431600Y-120789300D02*
X100431600Y-134759300D01*
X100431600Y-134759300D02*
X86461600Y-134759300D01*
%LPC*%
D12*
X112496600Y-65874300D03*
D13*
X115036600Y-60794300D03*
X108686600Y-63334300D03*
D14*
X205968600Y-96583300D03*
X205968600Y-88783300D03*
D15*
X217220800Y-124864925D03*
X217220800Y-127364925D03*
X222072200Y-112122700D03*
X222072200Y-114622700D03*
D16*
X211911475Y-67893800D03*
X209836475Y-67893800D03*
D15*
X222161100Y-99194100D03*
X222161100Y-101694100D03*
X217309700Y-112122700D03*
X217309700Y-114622700D03*
X212636100Y-99194100D03*
X212636100Y-101694100D03*
X210165950Y-112122700D03*
X210165950Y-114622700D03*
D17*
X214604600Y-89238800D03*
X214604600Y-87163800D03*
D12*
X188696600Y-118236800D03*
D13*
X191236600Y-113156800D03*
X184886600Y-115696800D03*
D15*
X219690950Y-112122700D03*
X219690950Y-114622700D03*
X212458300Y-124864925D03*
X212458300Y-127364925D03*
D18*
X217489600Y-89217300D03*
X219339600Y-89217300D03*
D15*
X219602050Y-124864925D03*
X219602050Y-127364925D03*
D16*
X233930100Y-86909800D03*
X231855100Y-86909800D03*
D15*
X217398600Y-99253475D03*
X217398600Y-101753475D03*
D12*
X180362225Y-157527425D03*
D13*
X185101930Y-154398016D03*
X178332670Y-153422721D03*
D12*
X150596600Y-65849300D03*
D13*
X153136600Y-60769300D03*
X146786600Y-63309300D03*
D19*
X230098600Y-78616300D03*
X230098600Y-80691300D03*
D20*
X217440000Y-60000000D03*
X211660000Y-60000000D03*
D21*
X217800000Y-61445000D03*
X217000000Y-61445000D03*
D22*
X215800000Y-61445000D03*
X214800000Y-61445000D03*
X214300000Y-61445000D03*
X213300000Y-61445000D03*
D21*
X212100000Y-61445000D03*
X211300000Y-61445000D03*
X211300000Y-61445000D03*
X212100000Y-61445000D03*
D22*
X212800000Y-61445000D03*
X213800000Y-61445000D03*
X215300000Y-61445000D03*
X216300000Y-61445000D03*
D21*
X217000000Y-61445000D03*
X217800000Y-61445000D03*
D23*
X218870000Y-60530000D03*
D24*
X218870000Y-56350000D03*
D23*
X210230000Y-60530000D03*
D24*
X210230000Y-56350000D03*
D12*
X93446600Y-108724300D03*
D13*
X95986600Y-103644300D03*
X89636600Y-106184300D03*
D12*
X74396600Y-146824300D03*
D13*
X76936600Y-141744300D03*
X70586600Y-144284300D03*
D12*
X74396600Y-89674300D03*
D13*
X76936600Y-84594300D03*
X70586600Y-87134300D03*
D15*
X219779850Y-99194100D03*
X219779850Y-101694100D03*
D12*
X74296600Y-70624300D03*
D13*
X76836600Y-65544300D03*
X70486600Y-68084300D03*
D12*
X131546600Y-101580550D03*
D13*
X134086600Y-96500550D03*
X127736600Y-99040550D03*
D15*
X222103950Y-118574300D03*
X222103950Y-121074300D03*
D12*
X189887225Y-140858675D03*
D13*
X194626930Y-137729266D03*
X187857670Y-136753971D03*
D12*
X112496600Y-103961800D03*
D13*
X115036600Y-98881800D03*
X108686600Y-101421800D03*
D12*
X112496600Y-84911800D03*
D13*
X115036600Y-79831800D03*
X108686600Y-82371800D03*
D12*
X169646600Y-68230550D03*
D13*
X172186600Y-63150550D03*
X165836600Y-65690550D03*
D12*
X131546600Y-120630550D03*
D13*
X134086600Y-115550550D03*
X127736600Y-118090550D03*
D15*
X217297000Y-105683800D03*
X217297000Y-108183800D03*
X214839550Y-124864925D03*
X214839550Y-127364925D03*
D12*
X169646600Y-87268050D03*
D13*
X172186600Y-82188050D03*
X165836600Y-84728050D03*
D16*
X211911475Y-73989800D03*
X209836475Y-73989800D03*
D15*
X207816450Y-118574300D03*
X207816450Y-121074300D03*
X219678250Y-105683800D03*
X219678250Y-108183800D03*
D12*
X169646600Y-125368050D03*
D13*
X172186600Y-120288050D03*
X165836600Y-122828050D03*
D14*
X228828600Y-88963300D03*
X228828600Y-96763300D03*
D19*
X232638600Y-78616300D03*
X232638600Y-80691300D03*
D12*
X112496600Y-123011800D03*
D13*
X115036600Y-117931800D03*
X108686600Y-120471800D03*
D15*
X214928450Y-112122700D03*
X214928450Y-114622700D03*
D16*
X233908600Y-89703800D03*
X231833600Y-89703800D03*
D12*
X150596600Y-84899300D03*
D13*
X153136600Y-79819300D03*
X146786600Y-82359300D03*
D15*
X219751450Y-118574300D03*
X219751450Y-121074300D03*
D25*
X214683975Y-69687800D03*
X214683975Y-71687800D03*
D15*
X210077050Y-124864925D03*
X210077050Y-127364925D03*
D26*
X211048600Y-89201300D03*
X211048600Y-87201300D03*
D19*
X222224600Y-91481800D03*
X222224600Y-93556800D03*
D12*
X131546600Y-63480550D03*
D13*
X134086600Y-58400550D03*
X127736600Y-60940550D03*
D27*
X211889975Y-71825800D03*
X211889975Y-69925800D03*
X210014975Y-70875800D03*
D15*
X222059500Y-105683800D03*
X222059500Y-108183800D03*
D12*
X163693475Y-148002425D03*
D13*
X168433180Y-144873016D03*
X161663920Y-143897721D03*
D15*
X212547200Y-112122700D03*
X212547200Y-114622700D03*
D28*
X215993975Y-82568800D03*
X216493975Y-82568800D03*
X216993975Y-82568800D03*
X217493975Y-82568800D03*
X217993975Y-82568800D03*
X218493975Y-82568800D03*
X218993975Y-82568800D03*
X219493975Y-82568800D03*
X219993975Y-82568800D03*
X220493975Y-82568800D03*
X220993975Y-82568800D03*
X221493975Y-82568800D03*
D29*
X222906475Y-81156300D03*
X222906475Y-80656300D03*
X222906475Y-80156300D03*
X222906475Y-79656300D03*
X222906475Y-79156300D03*
X222906475Y-78656300D03*
X222906475Y-78156300D03*
X222906475Y-77656300D03*
X222906475Y-77156300D03*
X222906475Y-76656300D03*
X222906475Y-76156300D03*
X222906475Y-75656300D03*
D28*
X221493975Y-74243800D03*
X220993975Y-74243800D03*
X220493975Y-74243800D03*
X219993975Y-74243800D03*
X219493975Y-74243800D03*
X218993975Y-74243800D03*
X218493975Y-74243800D03*
X217993975Y-74243800D03*
X217493975Y-74243800D03*
X216993975Y-74243800D03*
X216493975Y-74243800D03*
X215993975Y-74243800D03*
D29*
X214581475Y-75656300D03*
X214581475Y-76156300D03*
X214581475Y-76656300D03*
X214581475Y-77156300D03*
X214581475Y-77656300D03*
X214581475Y-78156300D03*
X214581475Y-78656300D03*
X214581475Y-79156300D03*
X214581475Y-79656300D03*
X214581475Y-80156300D03*
X214581475Y-80656300D03*
X214581475Y-81156300D03*
D12*
X74396600Y-108724300D03*
D13*
X76936600Y-103644300D03*
X70586600Y-106184300D03*
D30*
X203661100Y-76097800D03*
X205736100Y-76097800D03*
D15*
X207568800Y-124924300D03*
X207568800Y-127424300D03*
X210254850Y-99194100D03*
X210254850Y-101694100D03*
D12*
X131546600Y-82530550D03*
D13*
X134086600Y-77450550D03*
X127736600Y-79990550D03*
D15*
X214960200Y-118574300D03*
X214960200Y-121074300D03*
D12*
X141071600Y-142049300D03*
D13*
X143611600Y-136969300D03*
X137261600Y-139509300D03*
D15*
X212534500Y-105683800D03*
X212534500Y-108183800D03*
X214915750Y-105683800D03*
X214915750Y-108183800D03*
D17*
X211810600Y-80712800D03*
X211810600Y-78637800D03*
D12*
X93446600Y-70624300D03*
D13*
X95986600Y-65544300D03*
X89636600Y-68084300D03*
D12*
X74396600Y-127774300D03*
D13*
X76936600Y-122694300D03*
X70586600Y-125234300D03*
D12*
X169646600Y-106318050D03*
D13*
X172186600Y-101238050D03*
X165836600Y-103778050D03*
D12*
X188696600Y-80149300D03*
D13*
X191236600Y-75069300D03*
X184886600Y-77609300D03*
D30*
X203661100Y-81177800D03*
X205736100Y-81177800D03*
D15*
X210153250Y-105683800D03*
X210153250Y-108183800D03*
X215017350Y-99194100D03*
X215017350Y-101694100D03*
X207784700Y-112122700D03*
X207784700Y-114622700D03*
D12*
X112496600Y-142061800D03*
D13*
X115036600Y-136981800D03*
X108686600Y-139521800D03*
D17*
X225780600Y-91016800D03*
X225780600Y-88941800D03*
X208800600Y-80712800D03*
X208800600Y-78637800D03*
D12*
X188696600Y-99186800D03*
D13*
X191236600Y-94106800D03*
X184886600Y-96646800D03*
D30*
X203661100Y-78637800D03*
X205736100Y-78637800D03*
D15*
X207873600Y-99194100D03*
X207873600Y-101694100D03*
D12*
X150596600Y-122999300D03*
D13*
X153136600Y-117919300D03*
X146786600Y-120459300D03*
D31*
X229800000Y-58100000D03*
X229800000Y-56400000D03*
X229800000Y-54500000D03*
X229800000Y-59800000D03*
D15*
X217341450Y-118574300D03*
X217341450Y-121074300D03*
X207772000Y-105683800D03*
X207772000Y-108183800D03*
X210197700Y-118574300D03*
X210197700Y-121074300D03*
D25*
X222224600Y-87201300D03*
X222224600Y-89201300D03*
D12*
X150596600Y-103936800D03*
D13*
X153136600Y-98856800D03*
X146786600Y-101396800D03*
D25*
X219763975Y-65877800D03*
X219763975Y-67877800D03*
D15*
X212578950Y-118574300D03*
X212578950Y-121074300D03*
D12*
X93446600Y-89674300D03*
D13*
X95986600Y-84594300D03*
X89636600Y-87134300D03*
D12*
X93446600Y-146824300D03*
D13*
X95986600Y-141744300D03*
X89636600Y-144284300D03*
D12*
X93446600Y-127774300D03*
D13*
X95986600Y-122694300D03*
X89636600Y-125234300D03*
%LPD*%
M02*
