G04 #@! TF.GenerationSoftware,KiCad,Pcbnew,8.0.7*
G04 #@! TF.CreationDate,2025-01-02T16:03:09-06:00*
G04 #@! TF.ProjectId,mk0,6d6b302e-6b69-4636-9164-5f7063625858,rev?*
G04 #@! TF.SameCoordinates,Original*
G04 #@! TF.FileFunction,Soldermask,Bot*
G04 #@! TF.FilePolarity,Negative*
%FSLAX46Y46*%
G04 Gerber Fmt 4.6, Leading zero omitted, Abs format (unit mm)*
G04 Created by KiCad (PCBNEW 8.0.7) date 2025-01-02 16:03:09*
%MOMM*%
%LPD*%
G01*
G04 APERTURE LIST*
G04 Aperture macros list*
%AMRoundRect*
0 Rectangle with rounded corners*
0 $1 Rounding radius*
0 $2 $3 $4 $5 $6 $7 $8 $9 X,Y pos of 4 corners*
0 Add a 4 corners polygon primitive as box body*
4,1,4,$2,$3,$4,$5,$6,$7,$8,$9,$2,$3,0*
0 Add four circle primitives for the rounded corners*
1,1,$1+$1,$2,$3*
1,1,$1+$1,$4,$5*
1,1,$1+$1,$6,$7*
1,1,$1+$1,$8,$9*
0 Add four rect primitives between the rounded corners*
20,1,$1+$1,$2,$3,$4,$5,0*
20,1,$1+$1,$4,$5,$6,$7,0*
20,1,$1+$1,$6,$7,$8,$9,0*
20,1,$1+$1,$8,$9,$2,$3,0*%
G04 Aperture macros list end*
%ADD10C,4.000000*%
%ADD11C,2.200000*%
%ADD12C,0.650000*%
%ADD13O,1.000000X2.100000*%
%ADD14O,1.000000X1.600000*%
%ADD15RoundRect,0.325000X-0.925000X-0.325000X0.925000X-0.325000X0.925000X0.325000X-0.925000X0.325000X0*%
%ADD16R,2.500000X1.000000*%
G04 APERTURE END LIST*
D10*
X112496600Y-65874300D03*
D11*
X115036600Y-60794300D03*
X108686600Y-63334300D03*
D10*
X188696600Y-118236800D03*
D11*
X191236600Y-113156800D03*
X184886600Y-115696800D03*
D10*
X180362225Y-157527425D03*
D11*
X185101930Y-154398016D03*
X178332670Y-153422721D03*
D10*
X150596600Y-65849300D03*
D11*
X153136600Y-60769300D03*
X146786600Y-63309300D03*
D12*
X217440000Y-60000000D03*
X211660000Y-60000000D03*
D13*
X218870000Y-60530000D03*
D14*
X218870000Y-56350000D03*
D13*
X210230000Y-60530000D03*
D14*
X210230000Y-56350000D03*
D10*
X93446600Y-108724300D03*
D11*
X95986600Y-103644300D03*
X89636600Y-106184300D03*
D10*
X74396600Y-146824300D03*
D11*
X76936600Y-141744300D03*
X70586600Y-144284300D03*
D10*
X74396600Y-89674300D03*
D11*
X76936600Y-84594300D03*
X70586600Y-87134300D03*
D10*
X74296600Y-70624300D03*
D11*
X76836600Y-65544300D03*
X70486600Y-68084300D03*
D10*
X131546600Y-101580550D03*
D11*
X134086600Y-96500550D03*
X127736600Y-99040550D03*
D10*
X189887225Y-140858675D03*
D11*
X194626930Y-137729266D03*
X187857670Y-136753971D03*
D10*
X112496600Y-103961800D03*
D11*
X115036600Y-98881800D03*
X108686600Y-101421800D03*
D10*
X112496600Y-84911800D03*
D11*
X115036600Y-79831800D03*
X108686600Y-82371800D03*
D10*
X169646600Y-68230550D03*
D11*
X172186600Y-63150550D03*
X165836600Y-65690550D03*
D10*
X131546600Y-120630550D03*
D11*
X134086600Y-115550550D03*
X127736600Y-118090550D03*
D10*
X169646600Y-87268050D03*
D11*
X172186600Y-82188050D03*
X165836600Y-84728050D03*
D10*
X169646600Y-125368050D03*
D11*
X172186600Y-120288050D03*
X165836600Y-122828050D03*
D10*
X112496600Y-123011800D03*
D11*
X115036600Y-117931800D03*
X108686600Y-120471800D03*
D10*
X150596600Y-84899300D03*
D11*
X153136600Y-79819300D03*
X146786600Y-82359300D03*
D10*
X131546600Y-63480550D03*
D11*
X134086600Y-58400550D03*
X127736600Y-60940550D03*
D10*
X163693475Y-148002425D03*
D11*
X168433180Y-144873016D03*
X161663920Y-143897721D03*
D10*
X74396600Y-108724300D03*
D11*
X76936600Y-103644300D03*
X70586600Y-106184300D03*
D10*
X131546600Y-82530550D03*
D11*
X134086600Y-77450550D03*
X127736600Y-79990550D03*
D10*
X141071600Y-142049300D03*
D11*
X143611600Y-136969300D03*
X137261600Y-139509300D03*
D10*
X93446600Y-70624300D03*
D11*
X95986600Y-65544300D03*
X89636600Y-68084300D03*
D10*
X74396600Y-127774300D03*
D11*
X76936600Y-122694300D03*
X70586600Y-125234300D03*
D10*
X169646600Y-106318050D03*
D11*
X172186600Y-101238050D03*
X165836600Y-103778050D03*
D10*
X188696600Y-80149300D03*
D11*
X191236600Y-75069300D03*
X184886600Y-77609300D03*
D10*
X112496600Y-142061800D03*
D11*
X115036600Y-136981800D03*
X108686600Y-139521800D03*
D10*
X188696600Y-99186800D03*
D11*
X191236600Y-94106800D03*
X184886600Y-96646800D03*
D10*
X150596600Y-122999300D03*
D11*
X153136600Y-117919300D03*
X146786600Y-120459300D03*
D15*
X229800000Y-58100000D03*
X229800000Y-56400000D03*
X229800000Y-54500000D03*
X229800000Y-59800000D03*
D10*
X150596600Y-103936800D03*
D11*
X153136600Y-98856800D03*
X146786600Y-101396800D03*
D10*
X93446600Y-89674300D03*
D11*
X95986600Y-84594300D03*
X89636600Y-87134300D03*
D10*
X93446600Y-146824300D03*
D11*
X95986600Y-141744300D03*
X89636600Y-144284300D03*
D10*
X93446600Y-127774300D03*
D11*
X95986600Y-122694300D03*
X89636600Y-125234300D03*
D16*
X223481400Y-118745000D03*
X223481400Y-116205000D03*
X223481400Y-113665000D03*
X223481400Y-111125000D03*
X223481400Y-108585000D03*
X223481400Y-106045000D03*
X223481400Y-103505000D03*
X223481400Y-100965000D03*
X223481400Y-98425000D03*
X223481400Y-95885000D03*
M02*
