%TF.GenerationSoftware,KiCad,Pcbnew,8.0.7*%
%TF.CreationDate,2025-01-02T16:03:43-06:00*%
%TF.ProjectId,mk0,6d6b302e-6b69-4636-9164-5f7063625858,rev?*%
%TF.SameCoordinates,Original*%
%TF.FileFunction,Drillmap*%
%TF.FilePolarity,Positive*%
%FSLAX45Y45*%
G04 Gerber Fmt 4.5, Leading zero omitted, Abs format (unit mm)*
G04 Created by KiCad (PCBNEW 8.0.7) date 2025-01-02 16:03:43*
%MOMM*%
%LPD*%
G01*
G04 APERTURE LIST*
%ADD10C,0.050000*%
%ADD11C,0.200000*%
%ADD12C,0.100000*%
%ADD13C,0.150000*%
G04 APERTURE END LIST*
D10*
X23590000Y-5270000D02*
G75*
G02*
X23600000Y-5280000I0J-10000D01*
G01*
X6410000Y-15700000D02*
G75*
G02*
X6400000Y-15690000I0J10000D01*
G01*
X6400000Y-5280000D02*
G75*
G02*
X6410000Y-5270000I10000J0D01*
G01*
X18400000Y-17100000D02*
X6410000Y-15700000D01*
X23590000Y-5270000D02*
X6410000Y-5270000D01*
X23600000Y-5280000D02*
X23600000Y-12990000D01*
X23600000Y-12990000D02*
X18400000Y-17100000D01*
X6400000Y-15690000D02*
X6400000Y-5280000D01*
D11*
D12*
X20683460Y-8102840D02*
X20713460Y-8132840D01*
X20713460Y-8102840D02*
X20683460Y-8132840D01*
X20724100Y-7594840D02*
X20754100Y-7624840D01*
X20754100Y-7594840D02*
X20724100Y-7624840D01*
X21293060Y-7916130D02*
X21323060Y-7946130D01*
X21323060Y-7916130D02*
X21293060Y-7946130D01*
X21312239Y-8020161D02*
X21342239Y-8050161D01*
X21342239Y-8020161D02*
X21312239Y-8050161D01*
X21318460Y-7839930D02*
X21348460Y-7869930D01*
X21348460Y-7839930D02*
X21318460Y-7869930D01*
X21505000Y-5875000D02*
X21535000Y-5905000D01*
X21535000Y-5875000D02*
X21505000Y-5905000D01*
X21563190Y-7820261D02*
X21593190Y-7850261D01*
X21593190Y-7820261D02*
X21563190Y-7850261D01*
X21592780Y-8699740D02*
X21622780Y-8729740D01*
X21622780Y-8699740D02*
X21592780Y-8729740D01*
X21596590Y-11195810D02*
X21626590Y-11225810D01*
X21626590Y-11195810D02*
X21596590Y-11225810D01*
X21600400Y-10555730D02*
X21630400Y-10585730D01*
X21630400Y-10555730D02*
X21600400Y-10585730D01*
X21610560Y-9910570D02*
X21640560Y-9940570D01*
X21640560Y-9910570D02*
X21610560Y-9940570D01*
X21631235Y-7778191D02*
X21661235Y-7808191D01*
X21661235Y-7778191D02*
X21631235Y-7808191D01*
X21674398Y-7099540D02*
X21704398Y-7129540D01*
X21704398Y-7099540D02*
X21674398Y-7129540D01*
X21696470Y-7731883D02*
X21726470Y-7761883D01*
X21726470Y-7731883D02*
X21696470Y-7761883D01*
X21744491Y-7667899D02*
X21774491Y-7697899D01*
X21774491Y-7667899D02*
X21744491Y-7697899D01*
X21765000Y-6505000D02*
X21795000Y-6535000D01*
X21795000Y-6505000D02*
X21765000Y-6535000D01*
X21798520Y-6690600D02*
X21828520Y-6720600D01*
X21828520Y-6690600D02*
X21798520Y-6720600D01*
X21801060Y-7611330D02*
X21831060Y-7641330D01*
X21831060Y-7611330D02*
X21801060Y-7641330D01*
X21841065Y-11844780D02*
X21871065Y-11874780D01*
X21871065Y-11844780D02*
X21841065Y-11874780D01*
X21867440Y-7923750D02*
X21897440Y-7953750D01*
X21897440Y-7923750D02*
X21867440Y-7953750D01*
X21927440Y-7862967D02*
X21957440Y-7892967D01*
X21957440Y-7862967D02*
X21927440Y-7892967D01*
X21986480Y-7552910D02*
X22016480Y-7582910D01*
X22016480Y-7552910D02*
X21986480Y-7582910D01*
X21987440Y-7804370D02*
X22017440Y-7834370D01*
X22017440Y-7804370D02*
X21987440Y-7834370D01*
X22047440Y-7751030D02*
X22077440Y-7781030D01*
X22077440Y-7751030D02*
X22047440Y-7781030D01*
X22096335Y-12320362D02*
X22126335Y-12350362D01*
X22126335Y-12320362D02*
X22096335Y-12350362D01*
X22126180Y-7649430D02*
X22156180Y-7679430D01*
X22156180Y-7649430D02*
X22126180Y-7679430D01*
X22325000Y-11245000D02*
X22355000Y-11275000D01*
X22355000Y-11245000D02*
X22325000Y-11275000D01*
X22335000Y-10935000D02*
X22365000Y-10965000D01*
X22365000Y-10935000D02*
X22335000Y-10965000D01*
X22461460Y-9337280D02*
X22491460Y-9367280D01*
X22491460Y-9337280D02*
X22461460Y-9367280D01*
X22507180Y-7671040D02*
X22537180Y-7701040D01*
X22537180Y-7671040D02*
X22507180Y-7701040D01*
X22593540Y-9835430D02*
X22623540Y-9865430D01*
X22623540Y-9835430D02*
X22593540Y-9865430D01*
X22872940Y-9088360D02*
X22902940Y-9118360D01*
X22902940Y-9088360D02*
X22872940Y-9118360D01*
X23149800Y-10028160D02*
X23179800Y-10058160D01*
X23179800Y-10028160D02*
X23149800Y-10058160D01*
X23170120Y-8801340D02*
X23200120Y-8831340D01*
X23200120Y-8801340D02*
X23170120Y-8831340D01*
X23253940Y-8212060D02*
X23283940Y-8242060D01*
X23283940Y-8212060D02*
X23253940Y-8242060D01*
X23005000Y-5450000D02*
G75*
G02*
X22955000Y-5450000I-25000J0D01*
G01*
X22955000Y-5450000D02*
G75*
G02*
X23005000Y-5450000I25000J0D01*
G01*
X22930000Y-5475000D02*
X23030000Y-5475000D01*
X23030000Y-5425000D02*
G75*
G02*
X23030000Y-5475000I0J-25000D01*
G01*
X23030000Y-5425000D02*
X22930000Y-5425000D01*
X22930000Y-5425000D02*
G75*
G03*
X22930000Y-5475000I0J-25000D01*
G01*
X23005000Y-5640000D02*
G75*
G02*
X22955000Y-5640000I-25000J0D01*
G01*
X22955000Y-5640000D02*
G75*
G02*
X23005000Y-5640000I25000J0D01*
G01*
X22930000Y-5665000D02*
X23030000Y-5665000D01*
X23030000Y-5615000D02*
G75*
G02*
X23030000Y-5665000I0J-25000D01*
G01*
X23030000Y-5615000D02*
X22930000Y-5615000D01*
X22930000Y-5615000D02*
G75*
G03*
X22930000Y-5665000I0J-25000D01*
G01*
X23005000Y-5810000D02*
G75*
G02*
X22955000Y-5810000I-25000J0D01*
G01*
X22955000Y-5810000D02*
G75*
G02*
X23005000Y-5810000I25000J0D01*
G01*
X22930000Y-5835000D02*
X23030000Y-5835000D01*
X23030000Y-5785000D02*
G75*
G02*
X23030000Y-5835000I0J-25000D01*
G01*
X23030000Y-5785000D02*
X22930000Y-5785000D01*
X22930000Y-5785000D02*
G75*
G03*
X22930000Y-5835000I0J-25000D01*
G01*
X23005000Y-5980000D02*
G75*
G02*
X22955000Y-5980000I-25000J0D01*
G01*
X22955000Y-5980000D02*
G75*
G02*
X23005000Y-5980000I25000J0D01*
G01*
X22930000Y-6005000D02*
X23030000Y-6005000D01*
X23030000Y-5955000D02*
G75*
G02*
X23030000Y-6005000I0J-25000D01*
G01*
X23030000Y-5955000D02*
X22930000Y-5955000D01*
X22930000Y-5955000D02*
G75*
G03*
X22930000Y-6005000I0J-25000D01*
G01*
X21023000Y-5605000D02*
X21023000Y-5665000D01*
X20993000Y-5635000D02*
X21053000Y-5635000D01*
X21053000Y-5665000D02*
X21053000Y-5605000D01*
X20993000Y-5605000D02*
G75*
G02*
X21053000Y-5605000I30000J0D01*
G01*
X20993000Y-5605000D02*
X20993000Y-5665000D01*
X20993000Y-5665000D02*
G75*
G03*
X21053000Y-5665000I30000J0D01*
G01*
X21023000Y-6023000D02*
X21023000Y-6083000D01*
X20993000Y-6053000D02*
X21053000Y-6053000D01*
X21053000Y-6108000D02*
X21053000Y-5998000D01*
X20993000Y-5998000D02*
G75*
G02*
X21053000Y-5998000I30000J0D01*
G01*
X20993000Y-5998000D02*
X20993000Y-6108000D01*
X20993000Y-6108000D02*
G75*
G03*
X21053000Y-6108000I30000J0D01*
G01*
X21887000Y-5605000D02*
X21887000Y-5665000D01*
X21857000Y-5635000D02*
X21917000Y-5635000D01*
X21917000Y-5665000D02*
X21917000Y-5605000D01*
X21857000Y-5605000D02*
G75*
G02*
X21917000Y-5605000I30000J0D01*
G01*
X21857000Y-5605000D02*
X21857000Y-5665000D01*
X21857000Y-5665000D02*
G75*
G03*
X21917000Y-5665000I30000J0D01*
G01*
X21887000Y-6023000D02*
X21887000Y-6083000D01*
X21857000Y-6053000D02*
X21917000Y-6053000D01*
X21917000Y-6108000D02*
X21917000Y-5998000D01*
X21857000Y-5998000D02*
G75*
G02*
X21917000Y-5998000I30000J0D01*
G01*
X21857000Y-5998000D02*
X21857000Y-6108000D01*
X21857000Y-6108000D02*
G75*
G03*
X21917000Y-6108000I30000J0D01*
G01*
D13*
X7101693Y-6861463D02*
X7101693Y-6755396D01*
X6995626Y-6755396D01*
X6995626Y-6861463D01*
X7101693Y-6861463D01*
X7111693Y-8766464D02*
X7111693Y-8660397D01*
X7005626Y-8660397D01*
X7005626Y-8766464D01*
X7111693Y-8766464D01*
X7111693Y-10671464D02*
X7111693Y-10565397D01*
X7005626Y-10565397D01*
X7005626Y-10671464D01*
X7111693Y-10671464D01*
X7111693Y-12576463D02*
X7111693Y-12470396D01*
X7005626Y-12470396D01*
X7005626Y-12576463D01*
X7111693Y-12576463D01*
X7111693Y-14481463D02*
X7111693Y-14375396D01*
X7005626Y-14375396D01*
X7005626Y-14481463D01*
X7111693Y-14481463D01*
X7736693Y-6607463D02*
X7736693Y-6501396D01*
X7630626Y-6501396D01*
X7630626Y-6607463D01*
X7736693Y-6607463D01*
X7746693Y-8512464D02*
X7746693Y-8406397D01*
X7640626Y-8406397D01*
X7640626Y-8512464D01*
X7746693Y-8512464D01*
X7746693Y-10417464D02*
X7746693Y-10311397D01*
X7640626Y-10311397D01*
X7640626Y-10417464D01*
X7746693Y-10417464D01*
X7746693Y-12322463D02*
X7746693Y-12216396D01*
X7640626Y-12216396D01*
X7640626Y-12322463D01*
X7746693Y-12322463D01*
X7746693Y-14227463D02*
X7746693Y-14121396D01*
X7640626Y-14121396D01*
X7640626Y-14227463D01*
X7746693Y-14227463D01*
X9016694Y-6861463D02*
X9016694Y-6755396D01*
X8910627Y-6755396D01*
X8910627Y-6861463D01*
X9016694Y-6861463D01*
X9016694Y-8766464D02*
X9016694Y-8660397D01*
X8910627Y-8660397D01*
X8910627Y-8766464D01*
X9016694Y-8766464D01*
X9016694Y-10671464D02*
X9016694Y-10565397D01*
X8910627Y-10565397D01*
X8910627Y-10671464D01*
X9016694Y-10671464D01*
X9016694Y-12576463D02*
X9016694Y-12470396D01*
X8910627Y-12470396D01*
X8910627Y-12576463D01*
X9016694Y-12576463D01*
X9016694Y-14481463D02*
X9016694Y-14375396D01*
X8910627Y-14375396D01*
X8910627Y-14481463D01*
X9016694Y-14481463D01*
X9651694Y-6607463D02*
X9651694Y-6501396D01*
X9545627Y-6501396D01*
X9545627Y-6607463D01*
X9651694Y-6607463D01*
X9651694Y-8512464D02*
X9651694Y-8406397D01*
X9545627Y-8406397D01*
X9545627Y-8512464D01*
X9651694Y-8512464D01*
X9651694Y-10417464D02*
X9651694Y-10311397D01*
X9545627Y-10311397D01*
X9545627Y-10417464D01*
X9651694Y-10417464D01*
X9651694Y-12322463D02*
X9651694Y-12216396D01*
X9545627Y-12216396D01*
X9545627Y-12322463D01*
X9651694Y-12322463D01*
X9651694Y-14227463D02*
X9651694Y-14121396D01*
X9545627Y-14121396D01*
X9545627Y-14227463D01*
X9651694Y-14227463D01*
X10921694Y-6386463D02*
X10921694Y-6280396D01*
X10815627Y-6280396D01*
X10815627Y-6386463D01*
X10921694Y-6386463D01*
X10921694Y-8290213D02*
X10921694Y-8184146D01*
X10815627Y-8184146D01*
X10815627Y-8290213D01*
X10921694Y-8290213D01*
X10921694Y-10195214D02*
X10921694Y-10089147D01*
X10815627Y-10089147D01*
X10815627Y-10195214D01*
X10921694Y-10195214D01*
X10921694Y-12100213D02*
X10921694Y-11994146D01*
X10815627Y-11994146D01*
X10815627Y-12100213D01*
X10921694Y-12100213D01*
X10921694Y-14005213D02*
X10921694Y-13899146D01*
X10815627Y-13899146D01*
X10815627Y-14005213D01*
X10921694Y-14005213D01*
X11556693Y-6132463D02*
X11556693Y-6026396D01*
X11450626Y-6026396D01*
X11450626Y-6132463D01*
X11556693Y-6132463D01*
X11556693Y-8036213D02*
X11556693Y-7930146D01*
X11450626Y-7930146D01*
X11450626Y-8036213D01*
X11556693Y-8036213D01*
X11556693Y-9941214D02*
X11556693Y-9835147D01*
X11450626Y-9835147D01*
X11450626Y-9941214D01*
X11556693Y-9941214D01*
X11556693Y-11846213D02*
X11556693Y-11740146D01*
X11450626Y-11740146D01*
X11450626Y-11846213D01*
X11556693Y-11846213D01*
X11556693Y-13751213D02*
X11556693Y-13645146D01*
X11450626Y-13645146D01*
X11450626Y-13751213D01*
X11556693Y-13751213D01*
X12826693Y-6147088D02*
X12826693Y-6041021D01*
X12720626Y-6041021D01*
X12720626Y-6147088D01*
X12826693Y-6147088D01*
X12826693Y-8052088D02*
X12826693Y-7946021D01*
X12720626Y-7946021D01*
X12720626Y-8052088D01*
X12826693Y-8052088D01*
X12826693Y-9957089D02*
X12826693Y-9851022D01*
X12720626Y-9851022D01*
X12720626Y-9957089D01*
X12826693Y-9957089D01*
X12826693Y-11862088D02*
X12826693Y-11756021D01*
X12720626Y-11756021D01*
X12720626Y-11862088D01*
X12826693Y-11862088D01*
X13461693Y-5893088D02*
X13461693Y-5787021D01*
X13355626Y-5787021D01*
X13355626Y-5893088D01*
X13461693Y-5893088D01*
X13461693Y-7798088D02*
X13461693Y-7692021D01*
X13355626Y-7692021D01*
X13355626Y-7798088D01*
X13461693Y-7798088D01*
X13461693Y-9703089D02*
X13461693Y-9597022D01*
X13355626Y-9597022D01*
X13355626Y-9703089D01*
X13461693Y-9703089D01*
X13461693Y-11608088D02*
X13461693Y-11502021D01*
X13355626Y-11502021D01*
X13355626Y-11608088D01*
X13461693Y-11608088D01*
X13779193Y-14003963D02*
X13779193Y-13897896D01*
X13673126Y-13897896D01*
X13673126Y-14003963D01*
X13779193Y-14003963D01*
X14414193Y-13749963D02*
X14414193Y-13643896D01*
X14308126Y-13643896D01*
X14308126Y-13749963D01*
X14414193Y-13749963D01*
X14731693Y-6383963D02*
X14731693Y-6277896D01*
X14625626Y-6277896D01*
X14625626Y-6383963D01*
X14731693Y-6383963D01*
X14731693Y-8288963D02*
X14731693Y-8182896D01*
X14625626Y-8182896D01*
X14625626Y-8288963D01*
X14731693Y-8288963D01*
X14731693Y-10192714D02*
X14731693Y-10086647D01*
X14625626Y-10086647D01*
X14625626Y-10192714D01*
X14731693Y-10192714D01*
X14731693Y-12098963D02*
X14731693Y-11992896D01*
X14625626Y-11992896D01*
X14625626Y-12098963D01*
X14731693Y-12098963D01*
X15366693Y-6129963D02*
X15366693Y-6023896D01*
X15260626Y-6023896D01*
X15260626Y-6129963D01*
X15366693Y-6129963D01*
X15366693Y-8034963D02*
X15366693Y-7928896D01*
X15260626Y-7928896D01*
X15260626Y-8034963D01*
X15366693Y-8034963D01*
X15366693Y-9938714D02*
X15366693Y-9832647D01*
X15260626Y-9832647D01*
X15260626Y-9938714D01*
X15366693Y-9938714D01*
X15366693Y-11844963D02*
X15366693Y-11738896D01*
X15260626Y-11738896D01*
X15260626Y-11844963D01*
X15366693Y-11844963D01*
X16219425Y-14442806D02*
X16219425Y-14336739D01*
X16113358Y-14336739D01*
X16113358Y-14442806D01*
X16219425Y-14442806D01*
X16636693Y-6622088D02*
X16636693Y-6516021D01*
X16530626Y-6516021D01*
X16530626Y-6622088D01*
X16636693Y-6622088D01*
X16636693Y-8525839D02*
X16636693Y-8419772D01*
X16530626Y-8419772D01*
X16530626Y-8525839D01*
X16636693Y-8525839D01*
X16636693Y-10430839D02*
X16636693Y-10324772D01*
X16530626Y-10324772D01*
X16530626Y-10430839D01*
X16636693Y-10430839D01*
X16636693Y-12335838D02*
X16636693Y-12229771D01*
X16530626Y-12229771D01*
X16530626Y-12335838D01*
X16636693Y-12335838D01*
X16896352Y-14540335D02*
X16896352Y-14434268D01*
X16790285Y-14434268D01*
X16790285Y-14540335D01*
X16896352Y-14540335D01*
X17271694Y-6368088D02*
X17271694Y-6262021D01*
X17165627Y-6262021D01*
X17165627Y-6368088D01*
X17271694Y-6368088D01*
X17271694Y-8271838D02*
X17271694Y-8165771D01*
X17165627Y-8165771D01*
X17165627Y-8271838D01*
X17271694Y-8271838D01*
X17271694Y-10176839D02*
X17271694Y-10070772D01*
X17165627Y-10070772D01*
X17165627Y-10176839D01*
X17271694Y-10176839D01*
X17271694Y-12081838D02*
X17271694Y-11975771D01*
X17165627Y-11975771D01*
X17165627Y-12081838D01*
X17271694Y-12081838D01*
X17886301Y-15395306D02*
X17886301Y-15289239D01*
X17780234Y-15289239D01*
X17780234Y-15395306D01*
X17886301Y-15395306D01*
X18541694Y-7813963D02*
X18541694Y-7707896D01*
X18435627Y-7707896D01*
X18435627Y-7813963D01*
X18541694Y-7813963D01*
X18541694Y-9717714D02*
X18541694Y-9611647D01*
X18435627Y-9611647D01*
X18435627Y-9717714D01*
X18541694Y-9717714D01*
X18541694Y-11622713D02*
X18541694Y-11516646D01*
X18435627Y-11516646D01*
X18435627Y-11622713D01*
X18541694Y-11622713D01*
X18563227Y-15492835D02*
X18563227Y-15386768D01*
X18457160Y-15386768D01*
X18457160Y-15492835D01*
X18563227Y-15492835D01*
X18838801Y-13728431D02*
X18838801Y-13622364D01*
X18732734Y-13622364D01*
X18732734Y-13728431D01*
X18838801Y-13728431D01*
X19176694Y-7559963D02*
X19176694Y-7453896D01*
X19070627Y-7453896D01*
X19070627Y-7559963D01*
X19176694Y-7559963D01*
X19176694Y-9463714D02*
X19176694Y-9357647D01*
X19070627Y-9357647D01*
X19070627Y-9463714D01*
X19176694Y-9463714D01*
X19176694Y-11368713D02*
X19176694Y-11262646D01*
X19070627Y-11262646D01*
X19070627Y-11368713D01*
X19176694Y-11368713D01*
X19515727Y-13825960D02*
X19515727Y-13719893D01*
X19409660Y-13719893D01*
X19409660Y-13825960D01*
X19515727Y-13825960D01*
D11*
X6658277Y-17413984D02*
X6658277Y-17213984D01*
X6658277Y-17213984D02*
X6705896Y-17213984D01*
X6705896Y-17213984D02*
X6734467Y-17223508D01*
X6734467Y-17223508D02*
X6753515Y-17242555D01*
X6753515Y-17242555D02*
X6763039Y-17261603D01*
X6763039Y-17261603D02*
X6772562Y-17299698D01*
X6772562Y-17299698D02*
X6772562Y-17328270D01*
X6772562Y-17328270D02*
X6763039Y-17366365D01*
X6763039Y-17366365D02*
X6753515Y-17385412D01*
X6753515Y-17385412D02*
X6734467Y-17404460D01*
X6734467Y-17404460D02*
X6705896Y-17413984D01*
X6705896Y-17413984D02*
X6658277Y-17413984D01*
X6858277Y-17413984D02*
X6858277Y-17280650D01*
X6858277Y-17318746D02*
X6867801Y-17299698D01*
X6867801Y-17299698D02*
X6877324Y-17290174D01*
X6877324Y-17290174D02*
X6896372Y-17280650D01*
X6896372Y-17280650D02*
X6915420Y-17280650D01*
X6982086Y-17413984D02*
X6982086Y-17280650D01*
X6982086Y-17213984D02*
X6972562Y-17223508D01*
X6972562Y-17223508D02*
X6982086Y-17233031D01*
X6982086Y-17233031D02*
X6991610Y-17223508D01*
X6991610Y-17223508D02*
X6982086Y-17213984D01*
X6982086Y-17213984D02*
X6982086Y-17233031D01*
X7105896Y-17413984D02*
X7086848Y-17404460D01*
X7086848Y-17404460D02*
X7077324Y-17385412D01*
X7077324Y-17385412D02*
X7077324Y-17213984D01*
X7210658Y-17413984D02*
X7191610Y-17404460D01*
X7191610Y-17404460D02*
X7182086Y-17385412D01*
X7182086Y-17385412D02*
X7182086Y-17213984D01*
X7439229Y-17413984D02*
X7439229Y-17213984D01*
X7439229Y-17213984D02*
X7505896Y-17356841D01*
X7505896Y-17356841D02*
X7572562Y-17213984D01*
X7572562Y-17213984D02*
X7572562Y-17413984D01*
X7753515Y-17413984D02*
X7753515Y-17309222D01*
X7753515Y-17309222D02*
X7743991Y-17290174D01*
X7743991Y-17290174D02*
X7724943Y-17280650D01*
X7724943Y-17280650D02*
X7686848Y-17280650D01*
X7686848Y-17280650D02*
X7667801Y-17290174D01*
X7753515Y-17404460D02*
X7734467Y-17413984D01*
X7734467Y-17413984D02*
X7686848Y-17413984D01*
X7686848Y-17413984D02*
X7667801Y-17404460D01*
X7667801Y-17404460D02*
X7658277Y-17385412D01*
X7658277Y-17385412D02*
X7658277Y-17366365D01*
X7658277Y-17366365D02*
X7667801Y-17347317D01*
X7667801Y-17347317D02*
X7686848Y-17337793D01*
X7686848Y-17337793D02*
X7734467Y-17337793D01*
X7734467Y-17337793D02*
X7753515Y-17328270D01*
X7848753Y-17280650D02*
X7848753Y-17480650D01*
X7848753Y-17290174D02*
X7867801Y-17280650D01*
X7867801Y-17280650D02*
X7905896Y-17280650D01*
X7905896Y-17280650D02*
X7924943Y-17290174D01*
X7924943Y-17290174D02*
X7934467Y-17299698D01*
X7934467Y-17299698D02*
X7943991Y-17318746D01*
X7943991Y-17318746D02*
X7943991Y-17375889D01*
X7943991Y-17375889D02*
X7934467Y-17394936D01*
X7934467Y-17394936D02*
X7924943Y-17404460D01*
X7924943Y-17404460D02*
X7905896Y-17413984D01*
X7905896Y-17413984D02*
X7867801Y-17413984D01*
X7867801Y-17413984D02*
X7848753Y-17404460D01*
X8029705Y-17394936D02*
X8039229Y-17404460D01*
X8039229Y-17404460D02*
X8029705Y-17413984D01*
X8029705Y-17413984D02*
X8020182Y-17404460D01*
X8020182Y-17404460D02*
X8029705Y-17394936D01*
X8029705Y-17394936D02*
X8029705Y-17413984D01*
X8029705Y-17290174D02*
X8039229Y-17299698D01*
X8039229Y-17299698D02*
X8029705Y-17309222D01*
X8029705Y-17309222D02*
X8020182Y-17299698D01*
X8020182Y-17299698D02*
X8029705Y-17290174D01*
X8029705Y-17290174D02*
X8029705Y-17309222D01*
D12*
X6367500Y-17727500D02*
X6397500Y-17757500D01*
X6397500Y-17727500D02*
X6367500Y-17757500D01*
D11*
X6696372Y-17633984D02*
X6715420Y-17633984D01*
X6715420Y-17633984D02*
X6734467Y-17643508D01*
X6734467Y-17643508D02*
X6743991Y-17653031D01*
X6743991Y-17653031D02*
X6753515Y-17672079D01*
X6753515Y-17672079D02*
X6763039Y-17710174D01*
X6763039Y-17710174D02*
X6763039Y-17757793D01*
X6763039Y-17757793D02*
X6753515Y-17795889D01*
X6753515Y-17795889D02*
X6743991Y-17814936D01*
X6743991Y-17814936D02*
X6734467Y-17824460D01*
X6734467Y-17824460D02*
X6715420Y-17833984D01*
X6715420Y-17833984D02*
X6696372Y-17833984D01*
X6696372Y-17833984D02*
X6677324Y-17824460D01*
X6677324Y-17824460D02*
X6667801Y-17814936D01*
X6667801Y-17814936D02*
X6658277Y-17795889D01*
X6658277Y-17795889D02*
X6648753Y-17757793D01*
X6648753Y-17757793D02*
X6648753Y-17710174D01*
X6648753Y-17710174D02*
X6658277Y-17672079D01*
X6658277Y-17672079D02*
X6667801Y-17653031D01*
X6667801Y-17653031D02*
X6677324Y-17643508D01*
X6677324Y-17643508D02*
X6696372Y-17633984D01*
X6848753Y-17814936D02*
X6858277Y-17824460D01*
X6858277Y-17824460D02*
X6848753Y-17833984D01*
X6848753Y-17833984D02*
X6839229Y-17824460D01*
X6839229Y-17824460D02*
X6848753Y-17814936D01*
X6848753Y-17814936D02*
X6848753Y-17833984D01*
X6924943Y-17633984D02*
X7048753Y-17633984D01*
X7048753Y-17633984D02*
X6982086Y-17710174D01*
X6982086Y-17710174D02*
X7010658Y-17710174D01*
X7010658Y-17710174D02*
X7029705Y-17719698D01*
X7029705Y-17719698D02*
X7039229Y-17729222D01*
X7039229Y-17729222D02*
X7048753Y-17748270D01*
X7048753Y-17748270D02*
X7048753Y-17795889D01*
X7048753Y-17795889D02*
X7039229Y-17814936D01*
X7039229Y-17814936D02*
X7029705Y-17824460D01*
X7029705Y-17824460D02*
X7010658Y-17833984D01*
X7010658Y-17833984D02*
X6953515Y-17833984D01*
X6953515Y-17833984D02*
X6934467Y-17824460D01*
X6934467Y-17824460D02*
X6924943Y-17814936D01*
X7172562Y-17633984D02*
X7191610Y-17633984D01*
X7191610Y-17633984D02*
X7210658Y-17643508D01*
X7210658Y-17643508D02*
X7220182Y-17653031D01*
X7220182Y-17653031D02*
X7229705Y-17672079D01*
X7229705Y-17672079D02*
X7239229Y-17710174D01*
X7239229Y-17710174D02*
X7239229Y-17757793D01*
X7239229Y-17757793D02*
X7229705Y-17795889D01*
X7229705Y-17795889D02*
X7220182Y-17814936D01*
X7220182Y-17814936D02*
X7210658Y-17824460D01*
X7210658Y-17824460D02*
X7191610Y-17833984D01*
X7191610Y-17833984D02*
X7172562Y-17833984D01*
X7172562Y-17833984D02*
X7153515Y-17824460D01*
X7153515Y-17824460D02*
X7143991Y-17814936D01*
X7143991Y-17814936D02*
X7134467Y-17795889D01*
X7134467Y-17795889D02*
X7124943Y-17757793D01*
X7124943Y-17757793D02*
X7124943Y-17710174D01*
X7124943Y-17710174D02*
X7134467Y-17672079D01*
X7134467Y-17672079D02*
X7143991Y-17653031D01*
X7143991Y-17653031D02*
X7153515Y-17643508D01*
X7153515Y-17643508D02*
X7172562Y-17633984D01*
X7363039Y-17633984D02*
X7382086Y-17633984D01*
X7382086Y-17633984D02*
X7401134Y-17643508D01*
X7401134Y-17643508D02*
X7410658Y-17653031D01*
X7410658Y-17653031D02*
X7420182Y-17672079D01*
X7420182Y-17672079D02*
X7429705Y-17710174D01*
X7429705Y-17710174D02*
X7429705Y-17757793D01*
X7429705Y-17757793D02*
X7420182Y-17795889D01*
X7420182Y-17795889D02*
X7410658Y-17814936D01*
X7410658Y-17814936D02*
X7401134Y-17824460D01*
X7401134Y-17824460D02*
X7382086Y-17833984D01*
X7382086Y-17833984D02*
X7363039Y-17833984D01*
X7363039Y-17833984D02*
X7343991Y-17824460D01*
X7343991Y-17824460D02*
X7334467Y-17814936D01*
X7334467Y-17814936D02*
X7324943Y-17795889D01*
X7324943Y-17795889D02*
X7315420Y-17757793D01*
X7315420Y-17757793D02*
X7315420Y-17710174D01*
X7315420Y-17710174D02*
X7324943Y-17672079D01*
X7324943Y-17672079D02*
X7334467Y-17653031D01*
X7334467Y-17653031D02*
X7343991Y-17643508D01*
X7343991Y-17643508D02*
X7363039Y-17633984D01*
X7515420Y-17833984D02*
X7515420Y-17700650D01*
X7515420Y-17719698D02*
X7524943Y-17710174D01*
X7524943Y-17710174D02*
X7543991Y-17700650D01*
X7543991Y-17700650D02*
X7572563Y-17700650D01*
X7572563Y-17700650D02*
X7591610Y-17710174D01*
X7591610Y-17710174D02*
X7601134Y-17729222D01*
X7601134Y-17729222D02*
X7601134Y-17833984D01*
X7601134Y-17729222D02*
X7610658Y-17710174D01*
X7610658Y-17710174D02*
X7629705Y-17700650D01*
X7629705Y-17700650D02*
X7658277Y-17700650D01*
X7658277Y-17700650D02*
X7677324Y-17710174D01*
X7677324Y-17710174D02*
X7686848Y-17729222D01*
X7686848Y-17729222D02*
X7686848Y-17833984D01*
X7782086Y-17833984D02*
X7782086Y-17700650D01*
X7782086Y-17719698D02*
X7791610Y-17710174D01*
X7791610Y-17710174D02*
X7810658Y-17700650D01*
X7810658Y-17700650D02*
X7839229Y-17700650D01*
X7839229Y-17700650D02*
X7858277Y-17710174D01*
X7858277Y-17710174D02*
X7867801Y-17729222D01*
X7867801Y-17729222D02*
X7867801Y-17833984D01*
X7867801Y-17729222D02*
X7877324Y-17710174D01*
X7877324Y-17710174D02*
X7896372Y-17700650D01*
X7896372Y-17700650D02*
X7924943Y-17700650D01*
X7924943Y-17700650D02*
X7943991Y-17710174D01*
X7943991Y-17710174D02*
X7953515Y-17729222D01*
X7953515Y-17729222D02*
X7953515Y-17833984D01*
X8343991Y-17624460D02*
X8172563Y-17881603D01*
X8601134Y-17633984D02*
X8620182Y-17633984D01*
X8620182Y-17633984D02*
X8639229Y-17643508D01*
X8639229Y-17643508D02*
X8648753Y-17653031D01*
X8648753Y-17653031D02*
X8658277Y-17672079D01*
X8658277Y-17672079D02*
X8667801Y-17710174D01*
X8667801Y-17710174D02*
X8667801Y-17757793D01*
X8667801Y-17757793D02*
X8658277Y-17795889D01*
X8658277Y-17795889D02*
X8648753Y-17814936D01*
X8648753Y-17814936D02*
X8639229Y-17824460D01*
X8639229Y-17824460D02*
X8620182Y-17833984D01*
X8620182Y-17833984D02*
X8601134Y-17833984D01*
X8601134Y-17833984D02*
X8582087Y-17824460D01*
X8582087Y-17824460D02*
X8572563Y-17814936D01*
X8572563Y-17814936D02*
X8563039Y-17795889D01*
X8563039Y-17795889D02*
X8553515Y-17757793D01*
X8553515Y-17757793D02*
X8553515Y-17710174D01*
X8553515Y-17710174D02*
X8563039Y-17672079D01*
X8563039Y-17672079D02*
X8572563Y-17653031D01*
X8572563Y-17653031D02*
X8582087Y-17643508D01*
X8582087Y-17643508D02*
X8601134Y-17633984D01*
X8753515Y-17814936D02*
X8763039Y-17824460D01*
X8763039Y-17824460D02*
X8753515Y-17833984D01*
X8753515Y-17833984D02*
X8743991Y-17824460D01*
X8743991Y-17824460D02*
X8753515Y-17814936D01*
X8753515Y-17814936D02*
X8753515Y-17833984D01*
X8886848Y-17633984D02*
X8905896Y-17633984D01*
X8905896Y-17633984D02*
X8924944Y-17643508D01*
X8924944Y-17643508D02*
X8934468Y-17653031D01*
X8934468Y-17653031D02*
X8943991Y-17672079D01*
X8943991Y-17672079D02*
X8953515Y-17710174D01*
X8953515Y-17710174D02*
X8953515Y-17757793D01*
X8953515Y-17757793D02*
X8943991Y-17795889D01*
X8943991Y-17795889D02*
X8934468Y-17814936D01*
X8934468Y-17814936D02*
X8924944Y-17824460D01*
X8924944Y-17824460D02*
X8905896Y-17833984D01*
X8905896Y-17833984D02*
X8886848Y-17833984D01*
X8886848Y-17833984D02*
X8867801Y-17824460D01*
X8867801Y-17824460D02*
X8858277Y-17814936D01*
X8858277Y-17814936D02*
X8848753Y-17795889D01*
X8848753Y-17795889D02*
X8839229Y-17757793D01*
X8839229Y-17757793D02*
X8839229Y-17710174D01*
X8839229Y-17710174D02*
X8848753Y-17672079D01*
X8848753Y-17672079D02*
X8858277Y-17653031D01*
X8858277Y-17653031D02*
X8867801Y-17643508D01*
X8867801Y-17643508D02*
X8886848Y-17633984D01*
X9143991Y-17833984D02*
X9029706Y-17833984D01*
X9086848Y-17833984D02*
X9086848Y-17633984D01*
X9086848Y-17633984D02*
X9067801Y-17662555D01*
X9067801Y-17662555D02*
X9048753Y-17681603D01*
X9048753Y-17681603D02*
X9029706Y-17691127D01*
X9334468Y-17833984D02*
X9220182Y-17833984D01*
X9277325Y-17833984D02*
X9277325Y-17633984D01*
X9277325Y-17633984D02*
X9258277Y-17662555D01*
X9258277Y-17662555D02*
X9239229Y-17681603D01*
X9239229Y-17681603D02*
X9220182Y-17691127D01*
X9448753Y-17719698D02*
X9429706Y-17710174D01*
X9429706Y-17710174D02*
X9420182Y-17700650D01*
X9420182Y-17700650D02*
X9410658Y-17681603D01*
X9410658Y-17681603D02*
X9410658Y-17672079D01*
X9410658Y-17672079D02*
X9420182Y-17653031D01*
X9420182Y-17653031D02*
X9429706Y-17643508D01*
X9429706Y-17643508D02*
X9448753Y-17633984D01*
X9448753Y-17633984D02*
X9486849Y-17633984D01*
X9486849Y-17633984D02*
X9505896Y-17643508D01*
X9505896Y-17643508D02*
X9515420Y-17653031D01*
X9515420Y-17653031D02*
X9524944Y-17672079D01*
X9524944Y-17672079D02*
X9524944Y-17681603D01*
X9524944Y-17681603D02*
X9515420Y-17700650D01*
X9515420Y-17700650D02*
X9505896Y-17710174D01*
X9505896Y-17710174D02*
X9486849Y-17719698D01*
X9486849Y-17719698D02*
X9448753Y-17719698D01*
X9448753Y-17719698D02*
X9429706Y-17729222D01*
X9429706Y-17729222D02*
X9420182Y-17738746D01*
X9420182Y-17738746D02*
X9410658Y-17757793D01*
X9410658Y-17757793D02*
X9410658Y-17795889D01*
X9410658Y-17795889D02*
X9420182Y-17814936D01*
X9420182Y-17814936D02*
X9429706Y-17824460D01*
X9429706Y-17824460D02*
X9448753Y-17833984D01*
X9448753Y-17833984D02*
X9486849Y-17833984D01*
X9486849Y-17833984D02*
X9505896Y-17824460D01*
X9505896Y-17824460D02*
X9515420Y-17814936D01*
X9515420Y-17814936D02*
X9524944Y-17795889D01*
X9524944Y-17795889D02*
X9524944Y-17757793D01*
X9524944Y-17757793D02*
X9515420Y-17738746D01*
X9515420Y-17738746D02*
X9505896Y-17729222D01*
X9505896Y-17729222D02*
X9486849Y-17719698D01*
X9601134Y-17633984D02*
X9601134Y-17672079D01*
X9677325Y-17633984D02*
X9677325Y-17672079D01*
X9972563Y-17910174D02*
X9963039Y-17900650D01*
X9963039Y-17900650D02*
X9943991Y-17872079D01*
X9943991Y-17872079D02*
X9934468Y-17853031D01*
X9934468Y-17853031D02*
X9924944Y-17824460D01*
X9924944Y-17824460D02*
X9915420Y-17776841D01*
X9915420Y-17776841D02*
X9915420Y-17738746D01*
X9915420Y-17738746D02*
X9924944Y-17691127D01*
X9924944Y-17691127D02*
X9934468Y-17662555D01*
X9934468Y-17662555D02*
X9943991Y-17643508D01*
X9943991Y-17643508D02*
X9963039Y-17614936D01*
X9963039Y-17614936D02*
X9972563Y-17605412D01*
X10029706Y-17633984D02*
X10153515Y-17633984D01*
X10153515Y-17633984D02*
X10086849Y-17710174D01*
X10086849Y-17710174D02*
X10115420Y-17710174D01*
X10115420Y-17710174D02*
X10134468Y-17719698D01*
X10134468Y-17719698D02*
X10143991Y-17729222D01*
X10143991Y-17729222D02*
X10153515Y-17748270D01*
X10153515Y-17748270D02*
X10153515Y-17795889D01*
X10153515Y-17795889D02*
X10143991Y-17814936D01*
X10143991Y-17814936D02*
X10134468Y-17824460D01*
X10134468Y-17824460D02*
X10115420Y-17833984D01*
X10115420Y-17833984D02*
X10058277Y-17833984D01*
X10058277Y-17833984D02*
X10039230Y-17824460D01*
X10039230Y-17824460D02*
X10029706Y-17814936D01*
X10334468Y-17633984D02*
X10239230Y-17633984D01*
X10239230Y-17633984D02*
X10229706Y-17729222D01*
X10229706Y-17729222D02*
X10239230Y-17719698D01*
X10239230Y-17719698D02*
X10258277Y-17710174D01*
X10258277Y-17710174D02*
X10305896Y-17710174D01*
X10305896Y-17710174D02*
X10324944Y-17719698D01*
X10324944Y-17719698D02*
X10334468Y-17729222D01*
X10334468Y-17729222D02*
X10343991Y-17748270D01*
X10343991Y-17748270D02*
X10343991Y-17795889D01*
X10343991Y-17795889D02*
X10334468Y-17814936D01*
X10334468Y-17814936D02*
X10324944Y-17824460D01*
X10324944Y-17824460D02*
X10305896Y-17833984D01*
X10305896Y-17833984D02*
X10258277Y-17833984D01*
X10258277Y-17833984D02*
X10239230Y-17824460D01*
X10239230Y-17824460D02*
X10229706Y-17814936D01*
X10582087Y-17833984D02*
X10582087Y-17633984D01*
X10667801Y-17833984D02*
X10667801Y-17729222D01*
X10667801Y-17729222D02*
X10658277Y-17710174D01*
X10658277Y-17710174D02*
X10639230Y-17700650D01*
X10639230Y-17700650D02*
X10610658Y-17700650D01*
X10610658Y-17700650D02*
X10591611Y-17710174D01*
X10591611Y-17710174D02*
X10582087Y-17719698D01*
X10791611Y-17833984D02*
X10772563Y-17824460D01*
X10772563Y-17824460D02*
X10763039Y-17814936D01*
X10763039Y-17814936D02*
X10753515Y-17795889D01*
X10753515Y-17795889D02*
X10753515Y-17738746D01*
X10753515Y-17738746D02*
X10763039Y-17719698D01*
X10763039Y-17719698D02*
X10772563Y-17710174D01*
X10772563Y-17710174D02*
X10791611Y-17700650D01*
X10791611Y-17700650D02*
X10820182Y-17700650D01*
X10820182Y-17700650D02*
X10839230Y-17710174D01*
X10839230Y-17710174D02*
X10848753Y-17719698D01*
X10848753Y-17719698D02*
X10858277Y-17738746D01*
X10858277Y-17738746D02*
X10858277Y-17795889D01*
X10858277Y-17795889D02*
X10848753Y-17814936D01*
X10848753Y-17814936D02*
X10839230Y-17824460D01*
X10839230Y-17824460D02*
X10820182Y-17833984D01*
X10820182Y-17833984D02*
X10791611Y-17833984D01*
X10972563Y-17833984D02*
X10953515Y-17824460D01*
X10953515Y-17824460D02*
X10943992Y-17805412D01*
X10943992Y-17805412D02*
X10943992Y-17633984D01*
X11124944Y-17824460D02*
X11105896Y-17833984D01*
X11105896Y-17833984D02*
X11067801Y-17833984D01*
X11067801Y-17833984D02*
X11048753Y-17824460D01*
X11048753Y-17824460D02*
X11039230Y-17805412D01*
X11039230Y-17805412D02*
X11039230Y-17729222D01*
X11039230Y-17729222D02*
X11048753Y-17710174D01*
X11048753Y-17710174D02*
X11067801Y-17700650D01*
X11067801Y-17700650D02*
X11105896Y-17700650D01*
X11105896Y-17700650D02*
X11124944Y-17710174D01*
X11124944Y-17710174D02*
X11134468Y-17729222D01*
X11134468Y-17729222D02*
X11134468Y-17748270D01*
X11134468Y-17748270D02*
X11039230Y-17767317D01*
X11210658Y-17824460D02*
X11229706Y-17833984D01*
X11229706Y-17833984D02*
X11267801Y-17833984D01*
X11267801Y-17833984D02*
X11286849Y-17824460D01*
X11286849Y-17824460D02*
X11296372Y-17805412D01*
X11296372Y-17805412D02*
X11296372Y-17795889D01*
X11296372Y-17795889D02*
X11286849Y-17776841D01*
X11286849Y-17776841D02*
X11267801Y-17767317D01*
X11267801Y-17767317D02*
X11239230Y-17767317D01*
X11239230Y-17767317D02*
X11220182Y-17757793D01*
X11220182Y-17757793D02*
X11210658Y-17738746D01*
X11210658Y-17738746D02*
X11210658Y-17729222D01*
X11210658Y-17729222D02*
X11220182Y-17710174D01*
X11220182Y-17710174D02*
X11239230Y-17700650D01*
X11239230Y-17700650D02*
X11267801Y-17700650D01*
X11267801Y-17700650D02*
X11286849Y-17710174D01*
X11363039Y-17910174D02*
X11372563Y-17900650D01*
X11372563Y-17900650D02*
X11391611Y-17872079D01*
X11391611Y-17872079D02*
X11401134Y-17853031D01*
X11401134Y-17853031D02*
X11410658Y-17824460D01*
X11410658Y-17824460D02*
X11420182Y-17776841D01*
X11420182Y-17776841D02*
X11420182Y-17738746D01*
X11420182Y-17738746D02*
X11410658Y-17691127D01*
X11410658Y-17691127D02*
X11401134Y-17662555D01*
X11401134Y-17662555D02*
X11391611Y-17643508D01*
X11391611Y-17643508D02*
X11372563Y-17614936D01*
X11372563Y-17614936D02*
X11363039Y-17605412D01*
D12*
X6397500Y-18006500D02*
G75*
G02*
X6347500Y-18006500I-25000J0D01*
G01*
X6347500Y-18006500D02*
G75*
G02*
X6397500Y-18006500I25000J0D01*
G01*
D11*
X6696372Y-17897984D02*
X6715420Y-17897984D01*
X6715420Y-17897984D02*
X6734467Y-17907508D01*
X6734467Y-17907508D02*
X6743991Y-17917031D01*
X6743991Y-17917031D02*
X6753515Y-17936079D01*
X6753515Y-17936079D02*
X6763039Y-17974174D01*
X6763039Y-17974174D02*
X6763039Y-18021793D01*
X6763039Y-18021793D02*
X6753515Y-18059889D01*
X6753515Y-18059889D02*
X6743991Y-18078936D01*
X6743991Y-18078936D02*
X6734467Y-18088460D01*
X6734467Y-18088460D02*
X6715420Y-18097984D01*
X6715420Y-18097984D02*
X6696372Y-18097984D01*
X6696372Y-18097984D02*
X6677324Y-18088460D01*
X6677324Y-18088460D02*
X6667801Y-18078936D01*
X6667801Y-18078936D02*
X6658277Y-18059889D01*
X6658277Y-18059889D02*
X6648753Y-18021793D01*
X6648753Y-18021793D02*
X6648753Y-17974174D01*
X6648753Y-17974174D02*
X6658277Y-17936079D01*
X6658277Y-17936079D02*
X6667801Y-17917031D01*
X6667801Y-17917031D02*
X6677324Y-17907508D01*
X6677324Y-17907508D02*
X6696372Y-17897984D01*
X6848753Y-18078936D02*
X6858277Y-18088460D01*
X6858277Y-18088460D02*
X6848753Y-18097984D01*
X6848753Y-18097984D02*
X6839229Y-18088460D01*
X6839229Y-18088460D02*
X6848753Y-18078936D01*
X6848753Y-18078936D02*
X6848753Y-18097984D01*
X7039229Y-17897984D02*
X6943991Y-17897984D01*
X6943991Y-17897984D02*
X6934467Y-17993222D01*
X6934467Y-17993222D02*
X6943991Y-17983698D01*
X6943991Y-17983698D02*
X6963039Y-17974174D01*
X6963039Y-17974174D02*
X7010658Y-17974174D01*
X7010658Y-17974174D02*
X7029705Y-17983698D01*
X7029705Y-17983698D02*
X7039229Y-17993222D01*
X7039229Y-17993222D02*
X7048753Y-18012270D01*
X7048753Y-18012270D02*
X7048753Y-18059889D01*
X7048753Y-18059889D02*
X7039229Y-18078936D01*
X7039229Y-18078936D02*
X7029705Y-18088460D01*
X7029705Y-18088460D02*
X7010658Y-18097984D01*
X7010658Y-18097984D02*
X6963039Y-18097984D01*
X6963039Y-18097984D02*
X6943991Y-18088460D01*
X6943991Y-18088460D02*
X6934467Y-18078936D01*
X7172562Y-17897984D02*
X7191610Y-17897984D01*
X7191610Y-17897984D02*
X7210658Y-17907508D01*
X7210658Y-17907508D02*
X7220182Y-17917031D01*
X7220182Y-17917031D02*
X7229705Y-17936079D01*
X7229705Y-17936079D02*
X7239229Y-17974174D01*
X7239229Y-17974174D02*
X7239229Y-18021793D01*
X7239229Y-18021793D02*
X7229705Y-18059889D01*
X7229705Y-18059889D02*
X7220182Y-18078936D01*
X7220182Y-18078936D02*
X7210658Y-18088460D01*
X7210658Y-18088460D02*
X7191610Y-18097984D01*
X7191610Y-18097984D02*
X7172562Y-18097984D01*
X7172562Y-18097984D02*
X7153515Y-18088460D01*
X7153515Y-18088460D02*
X7143991Y-18078936D01*
X7143991Y-18078936D02*
X7134467Y-18059889D01*
X7134467Y-18059889D02*
X7124943Y-18021793D01*
X7124943Y-18021793D02*
X7124943Y-17974174D01*
X7124943Y-17974174D02*
X7134467Y-17936079D01*
X7134467Y-17936079D02*
X7143991Y-17917031D01*
X7143991Y-17917031D02*
X7153515Y-17907508D01*
X7153515Y-17907508D02*
X7172562Y-17897984D01*
X7363039Y-17897984D02*
X7382086Y-17897984D01*
X7382086Y-17897984D02*
X7401134Y-17907508D01*
X7401134Y-17907508D02*
X7410658Y-17917031D01*
X7410658Y-17917031D02*
X7420182Y-17936079D01*
X7420182Y-17936079D02*
X7429705Y-17974174D01*
X7429705Y-17974174D02*
X7429705Y-18021793D01*
X7429705Y-18021793D02*
X7420182Y-18059889D01*
X7420182Y-18059889D02*
X7410658Y-18078936D01*
X7410658Y-18078936D02*
X7401134Y-18088460D01*
X7401134Y-18088460D02*
X7382086Y-18097984D01*
X7382086Y-18097984D02*
X7363039Y-18097984D01*
X7363039Y-18097984D02*
X7343991Y-18088460D01*
X7343991Y-18088460D02*
X7334467Y-18078936D01*
X7334467Y-18078936D02*
X7324943Y-18059889D01*
X7324943Y-18059889D02*
X7315420Y-18021793D01*
X7315420Y-18021793D02*
X7315420Y-17974174D01*
X7315420Y-17974174D02*
X7324943Y-17936079D01*
X7324943Y-17936079D02*
X7334467Y-17917031D01*
X7334467Y-17917031D02*
X7343991Y-17907508D01*
X7343991Y-17907508D02*
X7363039Y-17897984D01*
X7515420Y-18097984D02*
X7515420Y-17964650D01*
X7515420Y-17983698D02*
X7524943Y-17974174D01*
X7524943Y-17974174D02*
X7543991Y-17964650D01*
X7543991Y-17964650D02*
X7572563Y-17964650D01*
X7572563Y-17964650D02*
X7591610Y-17974174D01*
X7591610Y-17974174D02*
X7601134Y-17993222D01*
X7601134Y-17993222D02*
X7601134Y-18097984D01*
X7601134Y-17993222D02*
X7610658Y-17974174D01*
X7610658Y-17974174D02*
X7629705Y-17964650D01*
X7629705Y-17964650D02*
X7658277Y-17964650D01*
X7658277Y-17964650D02*
X7677324Y-17974174D01*
X7677324Y-17974174D02*
X7686848Y-17993222D01*
X7686848Y-17993222D02*
X7686848Y-18097984D01*
X7782086Y-18097984D02*
X7782086Y-17964650D01*
X7782086Y-17983698D02*
X7791610Y-17974174D01*
X7791610Y-17974174D02*
X7810658Y-17964650D01*
X7810658Y-17964650D02*
X7839229Y-17964650D01*
X7839229Y-17964650D02*
X7858277Y-17974174D01*
X7858277Y-17974174D02*
X7867801Y-17993222D01*
X7867801Y-17993222D02*
X7867801Y-18097984D01*
X7867801Y-17993222D02*
X7877324Y-17974174D01*
X7877324Y-17974174D02*
X7896372Y-17964650D01*
X7896372Y-17964650D02*
X7924943Y-17964650D01*
X7924943Y-17964650D02*
X7943991Y-17974174D01*
X7943991Y-17974174D02*
X7953515Y-17993222D01*
X7953515Y-17993222D02*
X7953515Y-18097984D01*
X8343991Y-17888460D02*
X8172563Y-18145603D01*
X8601134Y-17897984D02*
X8620182Y-17897984D01*
X8620182Y-17897984D02*
X8639229Y-17907508D01*
X8639229Y-17907508D02*
X8648753Y-17917031D01*
X8648753Y-17917031D02*
X8658277Y-17936079D01*
X8658277Y-17936079D02*
X8667801Y-17974174D01*
X8667801Y-17974174D02*
X8667801Y-18021793D01*
X8667801Y-18021793D02*
X8658277Y-18059889D01*
X8658277Y-18059889D02*
X8648753Y-18078936D01*
X8648753Y-18078936D02*
X8639229Y-18088460D01*
X8639229Y-18088460D02*
X8620182Y-18097984D01*
X8620182Y-18097984D02*
X8601134Y-18097984D01*
X8601134Y-18097984D02*
X8582087Y-18088460D01*
X8582087Y-18088460D02*
X8572563Y-18078936D01*
X8572563Y-18078936D02*
X8563039Y-18059889D01*
X8563039Y-18059889D02*
X8553515Y-18021793D01*
X8553515Y-18021793D02*
X8553515Y-17974174D01*
X8553515Y-17974174D02*
X8563039Y-17936079D01*
X8563039Y-17936079D02*
X8572563Y-17917031D01*
X8572563Y-17917031D02*
X8582087Y-17907508D01*
X8582087Y-17907508D02*
X8601134Y-17897984D01*
X8753515Y-18078936D02*
X8763039Y-18088460D01*
X8763039Y-18088460D02*
X8753515Y-18097984D01*
X8753515Y-18097984D02*
X8743991Y-18088460D01*
X8743991Y-18088460D02*
X8753515Y-18078936D01*
X8753515Y-18078936D02*
X8753515Y-18097984D01*
X8886848Y-17897984D02*
X8905896Y-17897984D01*
X8905896Y-17897984D02*
X8924944Y-17907508D01*
X8924944Y-17907508D02*
X8934468Y-17917031D01*
X8934468Y-17917031D02*
X8943991Y-17936079D01*
X8943991Y-17936079D02*
X8953515Y-17974174D01*
X8953515Y-17974174D02*
X8953515Y-18021793D01*
X8953515Y-18021793D02*
X8943991Y-18059889D01*
X8943991Y-18059889D02*
X8934468Y-18078936D01*
X8934468Y-18078936D02*
X8924944Y-18088460D01*
X8924944Y-18088460D02*
X8905896Y-18097984D01*
X8905896Y-18097984D02*
X8886848Y-18097984D01*
X8886848Y-18097984D02*
X8867801Y-18088460D01*
X8867801Y-18088460D02*
X8858277Y-18078936D01*
X8858277Y-18078936D02*
X8848753Y-18059889D01*
X8848753Y-18059889D02*
X8839229Y-18021793D01*
X8839229Y-18021793D02*
X8839229Y-17974174D01*
X8839229Y-17974174D02*
X8848753Y-17936079D01*
X8848753Y-17936079D02*
X8858277Y-17917031D01*
X8858277Y-17917031D02*
X8867801Y-17907508D01*
X8867801Y-17907508D02*
X8886848Y-17897984D01*
X9143991Y-18097984D02*
X9029706Y-18097984D01*
X9086848Y-18097984D02*
X9086848Y-17897984D01*
X9086848Y-17897984D02*
X9067801Y-17926555D01*
X9067801Y-17926555D02*
X9048753Y-17945603D01*
X9048753Y-17945603D02*
X9029706Y-17955127D01*
X9239229Y-18097984D02*
X9277325Y-18097984D01*
X9277325Y-18097984D02*
X9296372Y-18088460D01*
X9296372Y-18088460D02*
X9305896Y-18078936D01*
X9305896Y-18078936D02*
X9324944Y-18050365D01*
X9324944Y-18050365D02*
X9334468Y-18012270D01*
X9334468Y-18012270D02*
X9334468Y-17936079D01*
X9334468Y-17936079D02*
X9324944Y-17917031D01*
X9324944Y-17917031D02*
X9315420Y-17907508D01*
X9315420Y-17907508D02*
X9296372Y-17897984D01*
X9296372Y-17897984D02*
X9258277Y-17897984D01*
X9258277Y-17897984D02*
X9239229Y-17907508D01*
X9239229Y-17907508D02*
X9229706Y-17917031D01*
X9229706Y-17917031D02*
X9220182Y-17936079D01*
X9220182Y-17936079D02*
X9220182Y-17983698D01*
X9220182Y-17983698D02*
X9229706Y-18002746D01*
X9229706Y-18002746D02*
X9239229Y-18012270D01*
X9239229Y-18012270D02*
X9258277Y-18021793D01*
X9258277Y-18021793D02*
X9296372Y-18021793D01*
X9296372Y-18021793D02*
X9315420Y-18012270D01*
X9315420Y-18012270D02*
X9324944Y-18002746D01*
X9324944Y-18002746D02*
X9334468Y-17983698D01*
X9401134Y-17897984D02*
X9534468Y-17897984D01*
X9534468Y-17897984D02*
X9448753Y-18097984D01*
X9601134Y-17897984D02*
X9601134Y-17936079D01*
X9677325Y-17897984D02*
X9677325Y-17936079D01*
X9972563Y-18174174D02*
X9963039Y-18164650D01*
X9963039Y-18164650D02*
X9943991Y-18136079D01*
X9943991Y-18136079D02*
X9934468Y-18117031D01*
X9934468Y-18117031D02*
X9924944Y-18088460D01*
X9924944Y-18088460D02*
X9915420Y-18040841D01*
X9915420Y-18040841D02*
X9915420Y-18002746D01*
X9915420Y-18002746D02*
X9924944Y-17955127D01*
X9924944Y-17955127D02*
X9934468Y-17926555D01*
X9934468Y-17926555D02*
X9943991Y-17907508D01*
X9943991Y-17907508D02*
X9963039Y-17878936D01*
X9963039Y-17878936D02*
X9972563Y-17869412D01*
X10086849Y-17897984D02*
X10105896Y-17897984D01*
X10105896Y-17897984D02*
X10124944Y-17907508D01*
X10124944Y-17907508D02*
X10134468Y-17917031D01*
X10134468Y-17917031D02*
X10143991Y-17936079D01*
X10143991Y-17936079D02*
X10153515Y-17974174D01*
X10153515Y-17974174D02*
X10153515Y-18021793D01*
X10153515Y-18021793D02*
X10143991Y-18059889D01*
X10143991Y-18059889D02*
X10134468Y-18078936D01*
X10134468Y-18078936D02*
X10124944Y-18088460D01*
X10124944Y-18088460D02*
X10105896Y-18097984D01*
X10105896Y-18097984D02*
X10086849Y-18097984D01*
X10086849Y-18097984D02*
X10067801Y-18088460D01*
X10067801Y-18088460D02*
X10058277Y-18078936D01*
X10058277Y-18078936D02*
X10048753Y-18059889D01*
X10048753Y-18059889D02*
X10039230Y-18021793D01*
X10039230Y-18021793D02*
X10039230Y-17974174D01*
X10039230Y-17974174D02*
X10048753Y-17936079D01*
X10048753Y-17936079D02*
X10058277Y-17917031D01*
X10058277Y-17917031D02*
X10067801Y-17907508D01*
X10067801Y-17907508D02*
X10086849Y-17897984D01*
X10391611Y-18097984D02*
X10391611Y-17897984D01*
X10477325Y-18097984D02*
X10477325Y-17993222D01*
X10477325Y-17993222D02*
X10467801Y-17974174D01*
X10467801Y-17974174D02*
X10448753Y-17964650D01*
X10448753Y-17964650D02*
X10420182Y-17964650D01*
X10420182Y-17964650D02*
X10401134Y-17974174D01*
X10401134Y-17974174D02*
X10391611Y-17983698D01*
X10601134Y-18097984D02*
X10582087Y-18088460D01*
X10582087Y-18088460D02*
X10572563Y-18078936D01*
X10572563Y-18078936D02*
X10563039Y-18059889D01*
X10563039Y-18059889D02*
X10563039Y-18002746D01*
X10563039Y-18002746D02*
X10572563Y-17983698D01*
X10572563Y-17983698D02*
X10582087Y-17974174D01*
X10582087Y-17974174D02*
X10601134Y-17964650D01*
X10601134Y-17964650D02*
X10629706Y-17964650D01*
X10629706Y-17964650D02*
X10648753Y-17974174D01*
X10648753Y-17974174D02*
X10658277Y-17983698D01*
X10658277Y-17983698D02*
X10667801Y-18002746D01*
X10667801Y-18002746D02*
X10667801Y-18059889D01*
X10667801Y-18059889D02*
X10658277Y-18078936D01*
X10658277Y-18078936D02*
X10648753Y-18088460D01*
X10648753Y-18088460D02*
X10629706Y-18097984D01*
X10629706Y-18097984D02*
X10601134Y-18097984D01*
X10782087Y-18097984D02*
X10763039Y-18088460D01*
X10763039Y-18088460D02*
X10753515Y-18069412D01*
X10753515Y-18069412D02*
X10753515Y-17897984D01*
X10934468Y-18088460D02*
X10915420Y-18097984D01*
X10915420Y-18097984D02*
X10877325Y-18097984D01*
X10877325Y-18097984D02*
X10858277Y-18088460D01*
X10858277Y-18088460D02*
X10848753Y-18069412D01*
X10848753Y-18069412D02*
X10848753Y-17993222D01*
X10848753Y-17993222D02*
X10858277Y-17974174D01*
X10858277Y-17974174D02*
X10877325Y-17964650D01*
X10877325Y-17964650D02*
X10915420Y-17964650D01*
X10915420Y-17964650D02*
X10934468Y-17974174D01*
X10934468Y-17974174D02*
X10943992Y-17993222D01*
X10943992Y-17993222D02*
X10943992Y-18012270D01*
X10943992Y-18012270D02*
X10848753Y-18031317D01*
X11020182Y-18088460D02*
X11039230Y-18097984D01*
X11039230Y-18097984D02*
X11077325Y-18097984D01*
X11077325Y-18097984D02*
X11096373Y-18088460D01*
X11096373Y-18088460D02*
X11105896Y-18069412D01*
X11105896Y-18069412D02*
X11105896Y-18059889D01*
X11105896Y-18059889D02*
X11096373Y-18040841D01*
X11096373Y-18040841D02*
X11077325Y-18031317D01*
X11077325Y-18031317D02*
X11048753Y-18031317D01*
X11048753Y-18031317D02*
X11029706Y-18021793D01*
X11029706Y-18021793D02*
X11020182Y-18002746D01*
X11020182Y-18002746D02*
X11020182Y-17993222D01*
X11020182Y-17993222D02*
X11029706Y-17974174D01*
X11029706Y-17974174D02*
X11048753Y-17964650D01*
X11048753Y-17964650D02*
X11077325Y-17964650D01*
X11077325Y-17964650D02*
X11096373Y-17974174D01*
X11343992Y-18021793D02*
X11496373Y-18021793D01*
X11420182Y-18097984D02*
X11420182Y-17945603D01*
X11829706Y-17964650D02*
X11829706Y-18097984D01*
X11782087Y-17888460D02*
X11734468Y-18031317D01*
X11734468Y-18031317D02*
X11858277Y-18031317D01*
X12077325Y-18088460D02*
X12096373Y-18097984D01*
X12096373Y-18097984D02*
X12134468Y-18097984D01*
X12134468Y-18097984D02*
X12153515Y-18088460D01*
X12153515Y-18088460D02*
X12163039Y-18069412D01*
X12163039Y-18069412D02*
X12163039Y-18059889D01*
X12163039Y-18059889D02*
X12153515Y-18040841D01*
X12153515Y-18040841D02*
X12134468Y-18031317D01*
X12134468Y-18031317D02*
X12105896Y-18031317D01*
X12105896Y-18031317D02*
X12086849Y-18021793D01*
X12086849Y-18021793D02*
X12077325Y-18002746D01*
X12077325Y-18002746D02*
X12077325Y-17993222D01*
X12077325Y-17993222D02*
X12086849Y-17974174D01*
X12086849Y-17974174D02*
X12105896Y-17964650D01*
X12105896Y-17964650D02*
X12134468Y-17964650D01*
X12134468Y-17964650D02*
X12153515Y-17974174D01*
X12277325Y-18097984D02*
X12258277Y-18088460D01*
X12258277Y-18088460D02*
X12248754Y-18069412D01*
X12248754Y-18069412D02*
X12248754Y-17897984D01*
X12382087Y-18097984D02*
X12363039Y-18088460D01*
X12363039Y-18088460D02*
X12353515Y-18078936D01*
X12353515Y-18078936D02*
X12343992Y-18059889D01*
X12343992Y-18059889D02*
X12343992Y-18002746D01*
X12343992Y-18002746D02*
X12353515Y-17983698D01*
X12353515Y-17983698D02*
X12363039Y-17974174D01*
X12363039Y-17974174D02*
X12382087Y-17964650D01*
X12382087Y-17964650D02*
X12410658Y-17964650D01*
X12410658Y-17964650D02*
X12429706Y-17974174D01*
X12429706Y-17974174D02*
X12439230Y-17983698D01*
X12439230Y-17983698D02*
X12448754Y-18002746D01*
X12448754Y-18002746D02*
X12448754Y-18059889D01*
X12448754Y-18059889D02*
X12439230Y-18078936D01*
X12439230Y-18078936D02*
X12429706Y-18088460D01*
X12429706Y-18088460D02*
X12410658Y-18097984D01*
X12410658Y-18097984D02*
X12382087Y-18097984D01*
X12505896Y-17964650D02*
X12582087Y-17964650D01*
X12534468Y-17897984D02*
X12534468Y-18069412D01*
X12534468Y-18069412D02*
X12543992Y-18088460D01*
X12543992Y-18088460D02*
X12563039Y-18097984D01*
X12563039Y-18097984D02*
X12582087Y-18097984D01*
X12639230Y-18088460D02*
X12658277Y-18097984D01*
X12658277Y-18097984D02*
X12696373Y-18097984D01*
X12696373Y-18097984D02*
X12715420Y-18088460D01*
X12715420Y-18088460D02*
X12724944Y-18069412D01*
X12724944Y-18069412D02*
X12724944Y-18059889D01*
X12724944Y-18059889D02*
X12715420Y-18040841D01*
X12715420Y-18040841D02*
X12696373Y-18031317D01*
X12696373Y-18031317D02*
X12667801Y-18031317D01*
X12667801Y-18031317D02*
X12648754Y-18021793D01*
X12648754Y-18021793D02*
X12639230Y-18002746D01*
X12639230Y-18002746D02*
X12639230Y-17993222D01*
X12639230Y-17993222D02*
X12648754Y-17974174D01*
X12648754Y-17974174D02*
X12667801Y-17964650D01*
X12667801Y-17964650D02*
X12696373Y-17964650D01*
X12696373Y-17964650D02*
X12715420Y-17974174D01*
X12791611Y-18174174D02*
X12801135Y-18164650D01*
X12801135Y-18164650D02*
X12820182Y-18136079D01*
X12820182Y-18136079D02*
X12829706Y-18117031D01*
X12829706Y-18117031D02*
X12839230Y-18088460D01*
X12839230Y-18088460D02*
X12848754Y-18040841D01*
X12848754Y-18040841D02*
X12848754Y-18002746D01*
X12848754Y-18002746D02*
X12839230Y-17955127D01*
X12839230Y-17955127D02*
X12829706Y-17926555D01*
X12829706Y-17926555D02*
X12820182Y-17907508D01*
X12820182Y-17907508D02*
X12801135Y-17878936D01*
X12801135Y-17878936D02*
X12791611Y-17869412D01*
D12*
X6367500Y-18240500D02*
X6367500Y-18300500D01*
X6337500Y-18270500D02*
X6397500Y-18270500D01*
D11*
X6696372Y-18161984D02*
X6715420Y-18161984D01*
X6715420Y-18161984D02*
X6734467Y-18171508D01*
X6734467Y-18171508D02*
X6743991Y-18181031D01*
X6743991Y-18181031D02*
X6753515Y-18200079D01*
X6753515Y-18200079D02*
X6763039Y-18238174D01*
X6763039Y-18238174D02*
X6763039Y-18285793D01*
X6763039Y-18285793D02*
X6753515Y-18323889D01*
X6753515Y-18323889D02*
X6743991Y-18342936D01*
X6743991Y-18342936D02*
X6734467Y-18352460D01*
X6734467Y-18352460D02*
X6715420Y-18361984D01*
X6715420Y-18361984D02*
X6696372Y-18361984D01*
X6696372Y-18361984D02*
X6677324Y-18352460D01*
X6677324Y-18352460D02*
X6667801Y-18342936D01*
X6667801Y-18342936D02*
X6658277Y-18323889D01*
X6658277Y-18323889D02*
X6648753Y-18285793D01*
X6648753Y-18285793D02*
X6648753Y-18238174D01*
X6648753Y-18238174D02*
X6658277Y-18200079D01*
X6658277Y-18200079D02*
X6667801Y-18181031D01*
X6667801Y-18181031D02*
X6677324Y-18171508D01*
X6677324Y-18171508D02*
X6696372Y-18161984D01*
X6848753Y-18342936D02*
X6858277Y-18352460D01*
X6858277Y-18352460D02*
X6848753Y-18361984D01*
X6848753Y-18361984D02*
X6839229Y-18352460D01*
X6839229Y-18352460D02*
X6848753Y-18342936D01*
X6848753Y-18342936D02*
X6848753Y-18361984D01*
X7029705Y-18161984D02*
X6991610Y-18161984D01*
X6991610Y-18161984D02*
X6972562Y-18171508D01*
X6972562Y-18171508D02*
X6963039Y-18181031D01*
X6963039Y-18181031D02*
X6943991Y-18209603D01*
X6943991Y-18209603D02*
X6934467Y-18247698D01*
X6934467Y-18247698D02*
X6934467Y-18323889D01*
X6934467Y-18323889D02*
X6943991Y-18342936D01*
X6943991Y-18342936D02*
X6953515Y-18352460D01*
X6953515Y-18352460D02*
X6972562Y-18361984D01*
X6972562Y-18361984D02*
X7010658Y-18361984D01*
X7010658Y-18361984D02*
X7029705Y-18352460D01*
X7029705Y-18352460D02*
X7039229Y-18342936D01*
X7039229Y-18342936D02*
X7048753Y-18323889D01*
X7048753Y-18323889D02*
X7048753Y-18276270D01*
X7048753Y-18276270D02*
X7039229Y-18257222D01*
X7039229Y-18257222D02*
X7029705Y-18247698D01*
X7029705Y-18247698D02*
X7010658Y-18238174D01*
X7010658Y-18238174D02*
X6972562Y-18238174D01*
X6972562Y-18238174D02*
X6953515Y-18247698D01*
X6953515Y-18247698D02*
X6943991Y-18257222D01*
X6943991Y-18257222D02*
X6934467Y-18276270D01*
X7172562Y-18161984D02*
X7191610Y-18161984D01*
X7191610Y-18161984D02*
X7210658Y-18171508D01*
X7210658Y-18171508D02*
X7220182Y-18181031D01*
X7220182Y-18181031D02*
X7229705Y-18200079D01*
X7229705Y-18200079D02*
X7239229Y-18238174D01*
X7239229Y-18238174D02*
X7239229Y-18285793D01*
X7239229Y-18285793D02*
X7229705Y-18323889D01*
X7229705Y-18323889D02*
X7220182Y-18342936D01*
X7220182Y-18342936D02*
X7210658Y-18352460D01*
X7210658Y-18352460D02*
X7191610Y-18361984D01*
X7191610Y-18361984D02*
X7172562Y-18361984D01*
X7172562Y-18361984D02*
X7153515Y-18352460D01*
X7153515Y-18352460D02*
X7143991Y-18342936D01*
X7143991Y-18342936D02*
X7134467Y-18323889D01*
X7134467Y-18323889D02*
X7124943Y-18285793D01*
X7124943Y-18285793D02*
X7124943Y-18238174D01*
X7124943Y-18238174D02*
X7134467Y-18200079D01*
X7134467Y-18200079D02*
X7143991Y-18181031D01*
X7143991Y-18181031D02*
X7153515Y-18171508D01*
X7153515Y-18171508D02*
X7172562Y-18161984D01*
X7363039Y-18161984D02*
X7382086Y-18161984D01*
X7382086Y-18161984D02*
X7401134Y-18171508D01*
X7401134Y-18171508D02*
X7410658Y-18181031D01*
X7410658Y-18181031D02*
X7420182Y-18200079D01*
X7420182Y-18200079D02*
X7429705Y-18238174D01*
X7429705Y-18238174D02*
X7429705Y-18285793D01*
X7429705Y-18285793D02*
X7420182Y-18323889D01*
X7420182Y-18323889D02*
X7410658Y-18342936D01*
X7410658Y-18342936D02*
X7401134Y-18352460D01*
X7401134Y-18352460D02*
X7382086Y-18361984D01*
X7382086Y-18361984D02*
X7363039Y-18361984D01*
X7363039Y-18361984D02*
X7343991Y-18352460D01*
X7343991Y-18352460D02*
X7334467Y-18342936D01*
X7334467Y-18342936D02*
X7324943Y-18323889D01*
X7324943Y-18323889D02*
X7315420Y-18285793D01*
X7315420Y-18285793D02*
X7315420Y-18238174D01*
X7315420Y-18238174D02*
X7324943Y-18200079D01*
X7324943Y-18200079D02*
X7334467Y-18181031D01*
X7334467Y-18181031D02*
X7343991Y-18171508D01*
X7343991Y-18171508D02*
X7363039Y-18161984D01*
X7515420Y-18361984D02*
X7515420Y-18228650D01*
X7515420Y-18247698D02*
X7524943Y-18238174D01*
X7524943Y-18238174D02*
X7543991Y-18228650D01*
X7543991Y-18228650D02*
X7572563Y-18228650D01*
X7572563Y-18228650D02*
X7591610Y-18238174D01*
X7591610Y-18238174D02*
X7601134Y-18257222D01*
X7601134Y-18257222D02*
X7601134Y-18361984D01*
X7601134Y-18257222D02*
X7610658Y-18238174D01*
X7610658Y-18238174D02*
X7629705Y-18228650D01*
X7629705Y-18228650D02*
X7658277Y-18228650D01*
X7658277Y-18228650D02*
X7677324Y-18238174D01*
X7677324Y-18238174D02*
X7686848Y-18257222D01*
X7686848Y-18257222D02*
X7686848Y-18361984D01*
X7782086Y-18361984D02*
X7782086Y-18228650D01*
X7782086Y-18247698D02*
X7791610Y-18238174D01*
X7791610Y-18238174D02*
X7810658Y-18228650D01*
X7810658Y-18228650D02*
X7839229Y-18228650D01*
X7839229Y-18228650D02*
X7858277Y-18238174D01*
X7858277Y-18238174D02*
X7867801Y-18257222D01*
X7867801Y-18257222D02*
X7867801Y-18361984D01*
X7867801Y-18257222D02*
X7877324Y-18238174D01*
X7877324Y-18238174D02*
X7896372Y-18228650D01*
X7896372Y-18228650D02*
X7924943Y-18228650D01*
X7924943Y-18228650D02*
X7943991Y-18238174D01*
X7943991Y-18238174D02*
X7953515Y-18257222D01*
X7953515Y-18257222D02*
X7953515Y-18361984D01*
X8343991Y-18152460D02*
X8172563Y-18409603D01*
X8601134Y-18161984D02*
X8620182Y-18161984D01*
X8620182Y-18161984D02*
X8639229Y-18171508D01*
X8639229Y-18171508D02*
X8648753Y-18181031D01*
X8648753Y-18181031D02*
X8658277Y-18200079D01*
X8658277Y-18200079D02*
X8667801Y-18238174D01*
X8667801Y-18238174D02*
X8667801Y-18285793D01*
X8667801Y-18285793D02*
X8658277Y-18323889D01*
X8658277Y-18323889D02*
X8648753Y-18342936D01*
X8648753Y-18342936D02*
X8639229Y-18352460D01*
X8639229Y-18352460D02*
X8620182Y-18361984D01*
X8620182Y-18361984D02*
X8601134Y-18361984D01*
X8601134Y-18361984D02*
X8582087Y-18352460D01*
X8582087Y-18352460D02*
X8572563Y-18342936D01*
X8572563Y-18342936D02*
X8563039Y-18323889D01*
X8563039Y-18323889D02*
X8553515Y-18285793D01*
X8553515Y-18285793D02*
X8553515Y-18238174D01*
X8553515Y-18238174D02*
X8563039Y-18200079D01*
X8563039Y-18200079D02*
X8572563Y-18181031D01*
X8572563Y-18181031D02*
X8582087Y-18171508D01*
X8582087Y-18171508D02*
X8601134Y-18161984D01*
X8753515Y-18342936D02*
X8763039Y-18352460D01*
X8763039Y-18352460D02*
X8753515Y-18361984D01*
X8753515Y-18361984D02*
X8743991Y-18352460D01*
X8743991Y-18352460D02*
X8753515Y-18342936D01*
X8753515Y-18342936D02*
X8753515Y-18361984D01*
X8886848Y-18161984D02*
X8905896Y-18161984D01*
X8905896Y-18161984D02*
X8924944Y-18171508D01*
X8924944Y-18171508D02*
X8934468Y-18181031D01*
X8934468Y-18181031D02*
X8943991Y-18200079D01*
X8943991Y-18200079D02*
X8953515Y-18238174D01*
X8953515Y-18238174D02*
X8953515Y-18285793D01*
X8953515Y-18285793D02*
X8943991Y-18323889D01*
X8943991Y-18323889D02*
X8934468Y-18342936D01*
X8934468Y-18342936D02*
X8924944Y-18352460D01*
X8924944Y-18352460D02*
X8905896Y-18361984D01*
X8905896Y-18361984D02*
X8886848Y-18361984D01*
X8886848Y-18361984D02*
X8867801Y-18352460D01*
X8867801Y-18352460D02*
X8858277Y-18342936D01*
X8858277Y-18342936D02*
X8848753Y-18323889D01*
X8848753Y-18323889D02*
X8839229Y-18285793D01*
X8839229Y-18285793D02*
X8839229Y-18238174D01*
X8839229Y-18238174D02*
X8848753Y-18200079D01*
X8848753Y-18200079D02*
X8858277Y-18181031D01*
X8858277Y-18181031D02*
X8867801Y-18171508D01*
X8867801Y-18171508D02*
X8886848Y-18161984D01*
X9029706Y-18181031D02*
X9039229Y-18171508D01*
X9039229Y-18171508D02*
X9058277Y-18161984D01*
X9058277Y-18161984D02*
X9105896Y-18161984D01*
X9105896Y-18161984D02*
X9124944Y-18171508D01*
X9124944Y-18171508D02*
X9134468Y-18181031D01*
X9134468Y-18181031D02*
X9143991Y-18200079D01*
X9143991Y-18200079D02*
X9143991Y-18219127D01*
X9143991Y-18219127D02*
X9134468Y-18247698D01*
X9134468Y-18247698D02*
X9020182Y-18361984D01*
X9020182Y-18361984D02*
X9143991Y-18361984D01*
X9210658Y-18161984D02*
X9334468Y-18161984D01*
X9334468Y-18161984D02*
X9267801Y-18238174D01*
X9267801Y-18238174D02*
X9296372Y-18238174D01*
X9296372Y-18238174D02*
X9315420Y-18247698D01*
X9315420Y-18247698D02*
X9324944Y-18257222D01*
X9324944Y-18257222D02*
X9334468Y-18276270D01*
X9334468Y-18276270D02*
X9334468Y-18323889D01*
X9334468Y-18323889D02*
X9324944Y-18342936D01*
X9324944Y-18342936D02*
X9315420Y-18352460D01*
X9315420Y-18352460D02*
X9296372Y-18361984D01*
X9296372Y-18361984D02*
X9239229Y-18361984D01*
X9239229Y-18361984D02*
X9220182Y-18352460D01*
X9220182Y-18352460D02*
X9210658Y-18342936D01*
X9505896Y-18161984D02*
X9467801Y-18161984D01*
X9467801Y-18161984D02*
X9448753Y-18171508D01*
X9448753Y-18171508D02*
X9439229Y-18181031D01*
X9439229Y-18181031D02*
X9420182Y-18209603D01*
X9420182Y-18209603D02*
X9410658Y-18247698D01*
X9410658Y-18247698D02*
X9410658Y-18323889D01*
X9410658Y-18323889D02*
X9420182Y-18342936D01*
X9420182Y-18342936D02*
X9429706Y-18352460D01*
X9429706Y-18352460D02*
X9448753Y-18361984D01*
X9448753Y-18361984D02*
X9486849Y-18361984D01*
X9486849Y-18361984D02*
X9505896Y-18352460D01*
X9505896Y-18352460D02*
X9515420Y-18342936D01*
X9515420Y-18342936D02*
X9524944Y-18323889D01*
X9524944Y-18323889D02*
X9524944Y-18276270D01*
X9524944Y-18276270D02*
X9515420Y-18257222D01*
X9515420Y-18257222D02*
X9505896Y-18247698D01*
X9505896Y-18247698D02*
X9486849Y-18238174D01*
X9486849Y-18238174D02*
X9448753Y-18238174D01*
X9448753Y-18238174D02*
X9429706Y-18247698D01*
X9429706Y-18247698D02*
X9420182Y-18257222D01*
X9420182Y-18257222D02*
X9410658Y-18276270D01*
X9601134Y-18161984D02*
X9601134Y-18200079D01*
X9677325Y-18161984D02*
X9677325Y-18200079D01*
X9972563Y-18438174D02*
X9963039Y-18428650D01*
X9963039Y-18428650D02*
X9943991Y-18400079D01*
X9943991Y-18400079D02*
X9934468Y-18381031D01*
X9934468Y-18381031D02*
X9924944Y-18352460D01*
X9924944Y-18352460D02*
X9915420Y-18304841D01*
X9915420Y-18304841D02*
X9915420Y-18266746D01*
X9915420Y-18266746D02*
X9924944Y-18219127D01*
X9924944Y-18219127D02*
X9934468Y-18190555D01*
X9934468Y-18190555D02*
X9943991Y-18171508D01*
X9943991Y-18171508D02*
X9963039Y-18142936D01*
X9963039Y-18142936D02*
X9972563Y-18133412D01*
X10086849Y-18161984D02*
X10105896Y-18161984D01*
X10105896Y-18161984D02*
X10124944Y-18171508D01*
X10124944Y-18171508D02*
X10134468Y-18181031D01*
X10134468Y-18181031D02*
X10143991Y-18200079D01*
X10143991Y-18200079D02*
X10153515Y-18238174D01*
X10153515Y-18238174D02*
X10153515Y-18285793D01*
X10153515Y-18285793D02*
X10143991Y-18323889D01*
X10143991Y-18323889D02*
X10134468Y-18342936D01*
X10134468Y-18342936D02*
X10124944Y-18352460D01*
X10124944Y-18352460D02*
X10105896Y-18361984D01*
X10105896Y-18361984D02*
X10086849Y-18361984D01*
X10086849Y-18361984D02*
X10067801Y-18352460D01*
X10067801Y-18352460D02*
X10058277Y-18342936D01*
X10058277Y-18342936D02*
X10048753Y-18323889D01*
X10048753Y-18323889D02*
X10039230Y-18285793D01*
X10039230Y-18285793D02*
X10039230Y-18238174D01*
X10039230Y-18238174D02*
X10048753Y-18200079D01*
X10048753Y-18200079D02*
X10058277Y-18181031D01*
X10058277Y-18181031D02*
X10067801Y-18171508D01*
X10067801Y-18171508D02*
X10086849Y-18161984D01*
X10391611Y-18361984D02*
X10391611Y-18161984D01*
X10477325Y-18361984D02*
X10477325Y-18257222D01*
X10477325Y-18257222D02*
X10467801Y-18238174D01*
X10467801Y-18238174D02*
X10448753Y-18228650D01*
X10448753Y-18228650D02*
X10420182Y-18228650D01*
X10420182Y-18228650D02*
X10401134Y-18238174D01*
X10401134Y-18238174D02*
X10391611Y-18247698D01*
X10601134Y-18361984D02*
X10582087Y-18352460D01*
X10582087Y-18352460D02*
X10572563Y-18342936D01*
X10572563Y-18342936D02*
X10563039Y-18323889D01*
X10563039Y-18323889D02*
X10563039Y-18266746D01*
X10563039Y-18266746D02*
X10572563Y-18247698D01*
X10572563Y-18247698D02*
X10582087Y-18238174D01*
X10582087Y-18238174D02*
X10601134Y-18228650D01*
X10601134Y-18228650D02*
X10629706Y-18228650D01*
X10629706Y-18228650D02*
X10648753Y-18238174D01*
X10648753Y-18238174D02*
X10658277Y-18247698D01*
X10658277Y-18247698D02*
X10667801Y-18266746D01*
X10667801Y-18266746D02*
X10667801Y-18323889D01*
X10667801Y-18323889D02*
X10658277Y-18342936D01*
X10658277Y-18342936D02*
X10648753Y-18352460D01*
X10648753Y-18352460D02*
X10629706Y-18361984D01*
X10629706Y-18361984D02*
X10601134Y-18361984D01*
X10782087Y-18361984D02*
X10763039Y-18352460D01*
X10763039Y-18352460D02*
X10753515Y-18333412D01*
X10753515Y-18333412D02*
X10753515Y-18161984D01*
X10934468Y-18352460D02*
X10915420Y-18361984D01*
X10915420Y-18361984D02*
X10877325Y-18361984D01*
X10877325Y-18361984D02*
X10858277Y-18352460D01*
X10858277Y-18352460D02*
X10848753Y-18333412D01*
X10848753Y-18333412D02*
X10848753Y-18257222D01*
X10848753Y-18257222D02*
X10858277Y-18238174D01*
X10858277Y-18238174D02*
X10877325Y-18228650D01*
X10877325Y-18228650D02*
X10915420Y-18228650D01*
X10915420Y-18228650D02*
X10934468Y-18238174D01*
X10934468Y-18238174D02*
X10943992Y-18257222D01*
X10943992Y-18257222D02*
X10943992Y-18276270D01*
X10943992Y-18276270D02*
X10848753Y-18295317D01*
X11020182Y-18352460D02*
X11039230Y-18361984D01*
X11039230Y-18361984D02*
X11077325Y-18361984D01*
X11077325Y-18361984D02*
X11096373Y-18352460D01*
X11096373Y-18352460D02*
X11105896Y-18333412D01*
X11105896Y-18333412D02*
X11105896Y-18323889D01*
X11105896Y-18323889D02*
X11096373Y-18304841D01*
X11096373Y-18304841D02*
X11077325Y-18295317D01*
X11077325Y-18295317D02*
X11048753Y-18295317D01*
X11048753Y-18295317D02*
X11029706Y-18285793D01*
X11029706Y-18285793D02*
X11020182Y-18266746D01*
X11020182Y-18266746D02*
X11020182Y-18257222D01*
X11020182Y-18257222D02*
X11029706Y-18238174D01*
X11029706Y-18238174D02*
X11048753Y-18228650D01*
X11048753Y-18228650D02*
X11077325Y-18228650D01*
X11077325Y-18228650D02*
X11096373Y-18238174D01*
X11343992Y-18285793D02*
X11496373Y-18285793D01*
X11420182Y-18361984D02*
X11420182Y-18209603D01*
X11829706Y-18228650D02*
X11829706Y-18361984D01*
X11782087Y-18152460D02*
X11734468Y-18295317D01*
X11734468Y-18295317D02*
X11858277Y-18295317D01*
X12077325Y-18352460D02*
X12096373Y-18361984D01*
X12096373Y-18361984D02*
X12134468Y-18361984D01*
X12134468Y-18361984D02*
X12153515Y-18352460D01*
X12153515Y-18352460D02*
X12163039Y-18333412D01*
X12163039Y-18333412D02*
X12163039Y-18323889D01*
X12163039Y-18323889D02*
X12153515Y-18304841D01*
X12153515Y-18304841D02*
X12134468Y-18295317D01*
X12134468Y-18295317D02*
X12105896Y-18295317D01*
X12105896Y-18295317D02*
X12086849Y-18285793D01*
X12086849Y-18285793D02*
X12077325Y-18266746D01*
X12077325Y-18266746D02*
X12077325Y-18257222D01*
X12077325Y-18257222D02*
X12086849Y-18238174D01*
X12086849Y-18238174D02*
X12105896Y-18228650D01*
X12105896Y-18228650D02*
X12134468Y-18228650D01*
X12134468Y-18228650D02*
X12153515Y-18238174D01*
X12277325Y-18361984D02*
X12258277Y-18352460D01*
X12258277Y-18352460D02*
X12248754Y-18333412D01*
X12248754Y-18333412D02*
X12248754Y-18161984D01*
X12382087Y-18361984D02*
X12363039Y-18352460D01*
X12363039Y-18352460D02*
X12353515Y-18342936D01*
X12353515Y-18342936D02*
X12343992Y-18323889D01*
X12343992Y-18323889D02*
X12343992Y-18266746D01*
X12343992Y-18266746D02*
X12353515Y-18247698D01*
X12353515Y-18247698D02*
X12363039Y-18238174D01*
X12363039Y-18238174D02*
X12382087Y-18228650D01*
X12382087Y-18228650D02*
X12410658Y-18228650D01*
X12410658Y-18228650D02*
X12429706Y-18238174D01*
X12429706Y-18238174D02*
X12439230Y-18247698D01*
X12439230Y-18247698D02*
X12448754Y-18266746D01*
X12448754Y-18266746D02*
X12448754Y-18323889D01*
X12448754Y-18323889D02*
X12439230Y-18342936D01*
X12439230Y-18342936D02*
X12429706Y-18352460D01*
X12429706Y-18352460D02*
X12410658Y-18361984D01*
X12410658Y-18361984D02*
X12382087Y-18361984D01*
X12505896Y-18228650D02*
X12582087Y-18228650D01*
X12534468Y-18161984D02*
X12534468Y-18333412D01*
X12534468Y-18333412D02*
X12543992Y-18352460D01*
X12543992Y-18352460D02*
X12563039Y-18361984D01*
X12563039Y-18361984D02*
X12582087Y-18361984D01*
X12639230Y-18352460D02*
X12658277Y-18361984D01*
X12658277Y-18361984D02*
X12696373Y-18361984D01*
X12696373Y-18361984D02*
X12715420Y-18352460D01*
X12715420Y-18352460D02*
X12724944Y-18333412D01*
X12724944Y-18333412D02*
X12724944Y-18323889D01*
X12724944Y-18323889D02*
X12715420Y-18304841D01*
X12715420Y-18304841D02*
X12696373Y-18295317D01*
X12696373Y-18295317D02*
X12667801Y-18295317D01*
X12667801Y-18295317D02*
X12648754Y-18285793D01*
X12648754Y-18285793D02*
X12639230Y-18266746D01*
X12639230Y-18266746D02*
X12639230Y-18257222D01*
X12639230Y-18257222D02*
X12648754Y-18238174D01*
X12648754Y-18238174D02*
X12667801Y-18228650D01*
X12667801Y-18228650D02*
X12696373Y-18228650D01*
X12696373Y-18228650D02*
X12715420Y-18238174D01*
X12791611Y-18438174D02*
X12801135Y-18428650D01*
X12801135Y-18428650D02*
X12820182Y-18400079D01*
X12820182Y-18400079D02*
X12829706Y-18381031D01*
X12829706Y-18381031D02*
X12839230Y-18352460D01*
X12839230Y-18352460D02*
X12848754Y-18304841D01*
X12848754Y-18304841D02*
X12848754Y-18266746D01*
X12848754Y-18266746D02*
X12839230Y-18219127D01*
X12839230Y-18219127D02*
X12829706Y-18190555D01*
X12829706Y-18190555D02*
X12820182Y-18171508D01*
X12820182Y-18171508D02*
X12801135Y-18142936D01*
X12801135Y-18142936D02*
X12791611Y-18133412D01*
D13*
X6375533Y-18587534D02*
X6375533Y-18481467D01*
X6269466Y-18481467D01*
X6269466Y-18587534D01*
X6375533Y-18587534D01*
D11*
X6763039Y-18625984D02*
X6648753Y-18625984D01*
X6705896Y-18625984D02*
X6705896Y-18425984D01*
X6705896Y-18425984D02*
X6686848Y-18454555D01*
X6686848Y-18454555D02*
X6667801Y-18473603D01*
X6667801Y-18473603D02*
X6648753Y-18483127D01*
X6848753Y-18606936D02*
X6858277Y-18616460D01*
X6858277Y-18616460D02*
X6848753Y-18625984D01*
X6848753Y-18625984D02*
X6839229Y-18616460D01*
X6839229Y-18616460D02*
X6848753Y-18606936D01*
X6848753Y-18606936D02*
X6848753Y-18625984D01*
X7039229Y-18425984D02*
X6943991Y-18425984D01*
X6943991Y-18425984D02*
X6934467Y-18521222D01*
X6934467Y-18521222D02*
X6943991Y-18511698D01*
X6943991Y-18511698D02*
X6963039Y-18502174D01*
X6963039Y-18502174D02*
X7010658Y-18502174D01*
X7010658Y-18502174D02*
X7029705Y-18511698D01*
X7029705Y-18511698D02*
X7039229Y-18521222D01*
X7039229Y-18521222D02*
X7048753Y-18540270D01*
X7048753Y-18540270D02*
X7048753Y-18587889D01*
X7048753Y-18587889D02*
X7039229Y-18606936D01*
X7039229Y-18606936D02*
X7029705Y-18616460D01*
X7029705Y-18616460D02*
X7010658Y-18625984D01*
X7010658Y-18625984D02*
X6963039Y-18625984D01*
X6963039Y-18625984D02*
X6943991Y-18616460D01*
X6943991Y-18616460D02*
X6934467Y-18606936D01*
X7172562Y-18425984D02*
X7191610Y-18425984D01*
X7191610Y-18425984D02*
X7210658Y-18435508D01*
X7210658Y-18435508D02*
X7220182Y-18445031D01*
X7220182Y-18445031D02*
X7229705Y-18464079D01*
X7229705Y-18464079D02*
X7239229Y-18502174D01*
X7239229Y-18502174D02*
X7239229Y-18549793D01*
X7239229Y-18549793D02*
X7229705Y-18587889D01*
X7229705Y-18587889D02*
X7220182Y-18606936D01*
X7220182Y-18606936D02*
X7210658Y-18616460D01*
X7210658Y-18616460D02*
X7191610Y-18625984D01*
X7191610Y-18625984D02*
X7172562Y-18625984D01*
X7172562Y-18625984D02*
X7153515Y-18616460D01*
X7153515Y-18616460D02*
X7143991Y-18606936D01*
X7143991Y-18606936D02*
X7134467Y-18587889D01*
X7134467Y-18587889D02*
X7124943Y-18549793D01*
X7124943Y-18549793D02*
X7124943Y-18502174D01*
X7124943Y-18502174D02*
X7134467Y-18464079D01*
X7134467Y-18464079D02*
X7143991Y-18445031D01*
X7143991Y-18445031D02*
X7153515Y-18435508D01*
X7153515Y-18435508D02*
X7172562Y-18425984D01*
X7363039Y-18425984D02*
X7382086Y-18425984D01*
X7382086Y-18425984D02*
X7401134Y-18435508D01*
X7401134Y-18435508D02*
X7410658Y-18445031D01*
X7410658Y-18445031D02*
X7420182Y-18464079D01*
X7420182Y-18464079D02*
X7429705Y-18502174D01*
X7429705Y-18502174D02*
X7429705Y-18549793D01*
X7429705Y-18549793D02*
X7420182Y-18587889D01*
X7420182Y-18587889D02*
X7410658Y-18606936D01*
X7410658Y-18606936D02*
X7401134Y-18616460D01*
X7401134Y-18616460D02*
X7382086Y-18625984D01*
X7382086Y-18625984D02*
X7363039Y-18625984D01*
X7363039Y-18625984D02*
X7343991Y-18616460D01*
X7343991Y-18616460D02*
X7334467Y-18606936D01*
X7334467Y-18606936D02*
X7324943Y-18587889D01*
X7324943Y-18587889D02*
X7315420Y-18549793D01*
X7315420Y-18549793D02*
X7315420Y-18502174D01*
X7315420Y-18502174D02*
X7324943Y-18464079D01*
X7324943Y-18464079D02*
X7334467Y-18445031D01*
X7334467Y-18445031D02*
X7343991Y-18435508D01*
X7343991Y-18435508D02*
X7363039Y-18425984D01*
X7515420Y-18625984D02*
X7515420Y-18492650D01*
X7515420Y-18511698D02*
X7524943Y-18502174D01*
X7524943Y-18502174D02*
X7543991Y-18492650D01*
X7543991Y-18492650D02*
X7572563Y-18492650D01*
X7572563Y-18492650D02*
X7591610Y-18502174D01*
X7591610Y-18502174D02*
X7601134Y-18521222D01*
X7601134Y-18521222D02*
X7601134Y-18625984D01*
X7601134Y-18521222D02*
X7610658Y-18502174D01*
X7610658Y-18502174D02*
X7629705Y-18492650D01*
X7629705Y-18492650D02*
X7658277Y-18492650D01*
X7658277Y-18492650D02*
X7677324Y-18502174D01*
X7677324Y-18502174D02*
X7686848Y-18521222D01*
X7686848Y-18521222D02*
X7686848Y-18625984D01*
X7782086Y-18625984D02*
X7782086Y-18492650D01*
X7782086Y-18511698D02*
X7791610Y-18502174D01*
X7791610Y-18502174D02*
X7810658Y-18492650D01*
X7810658Y-18492650D02*
X7839229Y-18492650D01*
X7839229Y-18492650D02*
X7858277Y-18502174D01*
X7858277Y-18502174D02*
X7867801Y-18521222D01*
X7867801Y-18521222D02*
X7867801Y-18625984D01*
X7867801Y-18521222D02*
X7877324Y-18502174D01*
X7877324Y-18502174D02*
X7896372Y-18492650D01*
X7896372Y-18492650D02*
X7924943Y-18492650D01*
X7924943Y-18492650D02*
X7943991Y-18502174D01*
X7943991Y-18502174D02*
X7953515Y-18521222D01*
X7953515Y-18521222D02*
X7953515Y-18625984D01*
X8343991Y-18416460D02*
X8172563Y-18673603D01*
X8601134Y-18425984D02*
X8620182Y-18425984D01*
X8620182Y-18425984D02*
X8639229Y-18435508D01*
X8639229Y-18435508D02*
X8648753Y-18445031D01*
X8648753Y-18445031D02*
X8658277Y-18464079D01*
X8658277Y-18464079D02*
X8667801Y-18502174D01*
X8667801Y-18502174D02*
X8667801Y-18549793D01*
X8667801Y-18549793D02*
X8658277Y-18587889D01*
X8658277Y-18587889D02*
X8648753Y-18606936D01*
X8648753Y-18606936D02*
X8639229Y-18616460D01*
X8639229Y-18616460D02*
X8620182Y-18625984D01*
X8620182Y-18625984D02*
X8601134Y-18625984D01*
X8601134Y-18625984D02*
X8582087Y-18616460D01*
X8582087Y-18616460D02*
X8572563Y-18606936D01*
X8572563Y-18606936D02*
X8563039Y-18587889D01*
X8563039Y-18587889D02*
X8553515Y-18549793D01*
X8553515Y-18549793D02*
X8553515Y-18502174D01*
X8553515Y-18502174D02*
X8563039Y-18464079D01*
X8563039Y-18464079D02*
X8572563Y-18445031D01*
X8572563Y-18445031D02*
X8582087Y-18435508D01*
X8582087Y-18435508D02*
X8601134Y-18425984D01*
X8753515Y-18606936D02*
X8763039Y-18616460D01*
X8763039Y-18616460D02*
X8753515Y-18625984D01*
X8753515Y-18625984D02*
X8743991Y-18616460D01*
X8743991Y-18616460D02*
X8753515Y-18606936D01*
X8753515Y-18606936D02*
X8753515Y-18625984D01*
X8886848Y-18425984D02*
X8905896Y-18425984D01*
X8905896Y-18425984D02*
X8924944Y-18435508D01*
X8924944Y-18435508D02*
X8934468Y-18445031D01*
X8934468Y-18445031D02*
X8943991Y-18464079D01*
X8943991Y-18464079D02*
X8953515Y-18502174D01*
X8953515Y-18502174D02*
X8953515Y-18549793D01*
X8953515Y-18549793D02*
X8943991Y-18587889D01*
X8943991Y-18587889D02*
X8934468Y-18606936D01*
X8934468Y-18606936D02*
X8924944Y-18616460D01*
X8924944Y-18616460D02*
X8905896Y-18625984D01*
X8905896Y-18625984D02*
X8886848Y-18625984D01*
X8886848Y-18625984D02*
X8867801Y-18616460D01*
X8867801Y-18616460D02*
X8858277Y-18606936D01*
X8858277Y-18606936D02*
X8848753Y-18587889D01*
X8848753Y-18587889D02*
X8839229Y-18549793D01*
X8839229Y-18549793D02*
X8839229Y-18502174D01*
X8839229Y-18502174D02*
X8848753Y-18464079D01*
X8848753Y-18464079D02*
X8858277Y-18445031D01*
X8858277Y-18445031D02*
X8867801Y-18435508D01*
X8867801Y-18435508D02*
X8886848Y-18425984D01*
X9134468Y-18425984D02*
X9039229Y-18425984D01*
X9039229Y-18425984D02*
X9029706Y-18521222D01*
X9029706Y-18521222D02*
X9039229Y-18511698D01*
X9039229Y-18511698D02*
X9058277Y-18502174D01*
X9058277Y-18502174D02*
X9105896Y-18502174D01*
X9105896Y-18502174D02*
X9124944Y-18511698D01*
X9124944Y-18511698D02*
X9134468Y-18521222D01*
X9134468Y-18521222D02*
X9143991Y-18540270D01*
X9143991Y-18540270D02*
X9143991Y-18587889D01*
X9143991Y-18587889D02*
X9134468Y-18606936D01*
X9134468Y-18606936D02*
X9124944Y-18616460D01*
X9124944Y-18616460D02*
X9105896Y-18625984D01*
X9105896Y-18625984D02*
X9058277Y-18625984D01*
X9058277Y-18625984D02*
X9039229Y-18616460D01*
X9039229Y-18616460D02*
X9029706Y-18606936D01*
X9239229Y-18625984D02*
X9277325Y-18625984D01*
X9277325Y-18625984D02*
X9296372Y-18616460D01*
X9296372Y-18616460D02*
X9305896Y-18606936D01*
X9305896Y-18606936D02*
X9324944Y-18578365D01*
X9324944Y-18578365D02*
X9334468Y-18540270D01*
X9334468Y-18540270D02*
X9334468Y-18464079D01*
X9334468Y-18464079D02*
X9324944Y-18445031D01*
X9324944Y-18445031D02*
X9315420Y-18435508D01*
X9315420Y-18435508D02*
X9296372Y-18425984D01*
X9296372Y-18425984D02*
X9258277Y-18425984D01*
X9258277Y-18425984D02*
X9239229Y-18435508D01*
X9239229Y-18435508D02*
X9229706Y-18445031D01*
X9229706Y-18445031D02*
X9220182Y-18464079D01*
X9220182Y-18464079D02*
X9220182Y-18511698D01*
X9220182Y-18511698D02*
X9229706Y-18530746D01*
X9229706Y-18530746D02*
X9239229Y-18540270D01*
X9239229Y-18540270D02*
X9258277Y-18549793D01*
X9258277Y-18549793D02*
X9296372Y-18549793D01*
X9296372Y-18549793D02*
X9315420Y-18540270D01*
X9315420Y-18540270D02*
X9324944Y-18530746D01*
X9324944Y-18530746D02*
X9334468Y-18511698D01*
X9524944Y-18625984D02*
X9410658Y-18625984D01*
X9467801Y-18625984D02*
X9467801Y-18425984D01*
X9467801Y-18425984D02*
X9448753Y-18454555D01*
X9448753Y-18454555D02*
X9429706Y-18473603D01*
X9429706Y-18473603D02*
X9410658Y-18483127D01*
X9601134Y-18425984D02*
X9601134Y-18464079D01*
X9677325Y-18425984D02*
X9677325Y-18464079D01*
X9972563Y-18702174D02*
X9963039Y-18692650D01*
X9963039Y-18692650D02*
X9943991Y-18664079D01*
X9943991Y-18664079D02*
X9934468Y-18645031D01*
X9934468Y-18645031D02*
X9924944Y-18616460D01*
X9924944Y-18616460D02*
X9915420Y-18568841D01*
X9915420Y-18568841D02*
X9915420Y-18530746D01*
X9915420Y-18530746D02*
X9924944Y-18483127D01*
X9924944Y-18483127D02*
X9934468Y-18454555D01*
X9934468Y-18454555D02*
X9943991Y-18435508D01*
X9943991Y-18435508D02*
X9963039Y-18406936D01*
X9963039Y-18406936D02*
X9972563Y-18397412D01*
X10134468Y-18425984D02*
X10096372Y-18425984D01*
X10096372Y-18425984D02*
X10077325Y-18435508D01*
X10077325Y-18435508D02*
X10067801Y-18445031D01*
X10067801Y-18445031D02*
X10048753Y-18473603D01*
X10048753Y-18473603D02*
X10039230Y-18511698D01*
X10039230Y-18511698D02*
X10039230Y-18587889D01*
X10039230Y-18587889D02*
X10048753Y-18606936D01*
X10048753Y-18606936D02*
X10058277Y-18616460D01*
X10058277Y-18616460D02*
X10077325Y-18625984D01*
X10077325Y-18625984D02*
X10115420Y-18625984D01*
X10115420Y-18625984D02*
X10134468Y-18616460D01*
X10134468Y-18616460D02*
X10143991Y-18606936D01*
X10143991Y-18606936D02*
X10153515Y-18587889D01*
X10153515Y-18587889D02*
X10153515Y-18540270D01*
X10153515Y-18540270D02*
X10143991Y-18521222D01*
X10143991Y-18521222D02*
X10134468Y-18511698D01*
X10134468Y-18511698D02*
X10115420Y-18502174D01*
X10115420Y-18502174D02*
X10077325Y-18502174D01*
X10077325Y-18502174D02*
X10058277Y-18511698D01*
X10058277Y-18511698D02*
X10048753Y-18521222D01*
X10048753Y-18521222D02*
X10039230Y-18540270D01*
X10267801Y-18511698D02*
X10248753Y-18502174D01*
X10248753Y-18502174D02*
X10239230Y-18492650D01*
X10239230Y-18492650D02*
X10229706Y-18473603D01*
X10229706Y-18473603D02*
X10229706Y-18464079D01*
X10229706Y-18464079D02*
X10239230Y-18445031D01*
X10239230Y-18445031D02*
X10248753Y-18435508D01*
X10248753Y-18435508D02*
X10267801Y-18425984D01*
X10267801Y-18425984D02*
X10305896Y-18425984D01*
X10305896Y-18425984D02*
X10324944Y-18435508D01*
X10324944Y-18435508D02*
X10334468Y-18445031D01*
X10334468Y-18445031D02*
X10343991Y-18464079D01*
X10343991Y-18464079D02*
X10343991Y-18473603D01*
X10343991Y-18473603D02*
X10334468Y-18492650D01*
X10334468Y-18492650D02*
X10324944Y-18502174D01*
X10324944Y-18502174D02*
X10305896Y-18511698D01*
X10305896Y-18511698D02*
X10267801Y-18511698D01*
X10267801Y-18511698D02*
X10248753Y-18521222D01*
X10248753Y-18521222D02*
X10239230Y-18530746D01*
X10239230Y-18530746D02*
X10229706Y-18549793D01*
X10229706Y-18549793D02*
X10229706Y-18587889D01*
X10229706Y-18587889D02*
X10239230Y-18606936D01*
X10239230Y-18606936D02*
X10248753Y-18616460D01*
X10248753Y-18616460D02*
X10267801Y-18625984D01*
X10267801Y-18625984D02*
X10305896Y-18625984D01*
X10305896Y-18625984D02*
X10324944Y-18616460D01*
X10324944Y-18616460D02*
X10334468Y-18606936D01*
X10334468Y-18606936D02*
X10343991Y-18587889D01*
X10343991Y-18587889D02*
X10343991Y-18549793D01*
X10343991Y-18549793D02*
X10334468Y-18530746D01*
X10334468Y-18530746D02*
X10324944Y-18521222D01*
X10324944Y-18521222D02*
X10305896Y-18511698D01*
X10582087Y-18625984D02*
X10582087Y-18425984D01*
X10667801Y-18625984D02*
X10667801Y-18521222D01*
X10667801Y-18521222D02*
X10658277Y-18502174D01*
X10658277Y-18502174D02*
X10639230Y-18492650D01*
X10639230Y-18492650D02*
X10610658Y-18492650D01*
X10610658Y-18492650D02*
X10591611Y-18502174D01*
X10591611Y-18502174D02*
X10582087Y-18511698D01*
X10791611Y-18625984D02*
X10772563Y-18616460D01*
X10772563Y-18616460D02*
X10763039Y-18606936D01*
X10763039Y-18606936D02*
X10753515Y-18587889D01*
X10753515Y-18587889D02*
X10753515Y-18530746D01*
X10753515Y-18530746D02*
X10763039Y-18511698D01*
X10763039Y-18511698D02*
X10772563Y-18502174D01*
X10772563Y-18502174D02*
X10791611Y-18492650D01*
X10791611Y-18492650D02*
X10820182Y-18492650D01*
X10820182Y-18492650D02*
X10839230Y-18502174D01*
X10839230Y-18502174D02*
X10848753Y-18511698D01*
X10848753Y-18511698D02*
X10858277Y-18530746D01*
X10858277Y-18530746D02*
X10858277Y-18587889D01*
X10858277Y-18587889D02*
X10848753Y-18606936D01*
X10848753Y-18606936D02*
X10839230Y-18616460D01*
X10839230Y-18616460D02*
X10820182Y-18625984D01*
X10820182Y-18625984D02*
X10791611Y-18625984D01*
X10972563Y-18625984D02*
X10953515Y-18616460D01*
X10953515Y-18616460D02*
X10943992Y-18597412D01*
X10943992Y-18597412D02*
X10943992Y-18425984D01*
X11124944Y-18616460D02*
X11105896Y-18625984D01*
X11105896Y-18625984D02*
X11067801Y-18625984D01*
X11067801Y-18625984D02*
X11048753Y-18616460D01*
X11048753Y-18616460D02*
X11039230Y-18597412D01*
X11039230Y-18597412D02*
X11039230Y-18521222D01*
X11039230Y-18521222D02*
X11048753Y-18502174D01*
X11048753Y-18502174D02*
X11067801Y-18492650D01*
X11067801Y-18492650D02*
X11105896Y-18492650D01*
X11105896Y-18492650D02*
X11124944Y-18502174D01*
X11124944Y-18502174D02*
X11134468Y-18521222D01*
X11134468Y-18521222D02*
X11134468Y-18540270D01*
X11134468Y-18540270D02*
X11039230Y-18559317D01*
X11210658Y-18616460D02*
X11229706Y-18625984D01*
X11229706Y-18625984D02*
X11267801Y-18625984D01*
X11267801Y-18625984D02*
X11286849Y-18616460D01*
X11286849Y-18616460D02*
X11296372Y-18597412D01*
X11296372Y-18597412D02*
X11296372Y-18587889D01*
X11296372Y-18587889D02*
X11286849Y-18568841D01*
X11286849Y-18568841D02*
X11267801Y-18559317D01*
X11267801Y-18559317D02*
X11239230Y-18559317D01*
X11239230Y-18559317D02*
X11220182Y-18549793D01*
X11220182Y-18549793D02*
X11210658Y-18530746D01*
X11210658Y-18530746D02*
X11210658Y-18521222D01*
X11210658Y-18521222D02*
X11220182Y-18502174D01*
X11220182Y-18502174D02*
X11239230Y-18492650D01*
X11239230Y-18492650D02*
X11267801Y-18492650D01*
X11267801Y-18492650D02*
X11286849Y-18502174D01*
X11363039Y-18702174D02*
X11372563Y-18692650D01*
X11372563Y-18692650D02*
X11391611Y-18664079D01*
X11391611Y-18664079D02*
X11401134Y-18645031D01*
X11401134Y-18645031D02*
X11410658Y-18616460D01*
X11410658Y-18616460D02*
X11420182Y-18568841D01*
X11420182Y-18568841D02*
X11420182Y-18530746D01*
X11420182Y-18530746D02*
X11410658Y-18483127D01*
X11410658Y-18483127D02*
X11401134Y-18454555D01*
X11401134Y-18454555D02*
X11391611Y-18435508D01*
X11391611Y-18435508D02*
X11372563Y-18406936D01*
X11372563Y-18406936D02*
X11363039Y-18397412D01*
M02*
