M48
; DRILL file {KiCad 8.0.7} date 2025-01-02T16:03:31-0600
; FORMAT={-:-/ absolute / metric / decimal}
; #@! TF.CreationDate,2025-01-02T16:03:31-06:00
; #@! TF.GenerationSoftware,Kicad,Pcbnew,8.0.7
; #@! TF.FileFunction,Plated,1,2,PTH
FMAT,2
METRIC
; #@! TA.AperFunction,Plated,PTH,ViaDrill
T1C0.300
; #@! TA.AperFunction,Plated,PTH,ComponentDrill
T2C0.500
; #@! TA.AperFunction,Plated,PTH,ComponentDrill
T3C0.600
; #@! TA.AperFunction,Plated,PTH,ComponentDrill
T4C1.500
%
G90
G05
T1
X206.985Y-81.178
X207.391Y-76.098
X213.081Y-79.311
X213.272Y-80.352
X213.335Y-78.549
X215.2Y-58.9
X215.782Y-78.353
X216.078Y-87.147
X216.116Y-112.108
X216.154Y-105.707
X216.256Y-99.256
X216.462Y-77.932
X216.894Y-71.145
X217.115Y-77.469
X217.595Y-76.829
X217.8Y-65.2
X218.135Y-67.056
X218.161Y-76.263
X218.561Y-118.598
X218.824Y-79.388
X219.424Y-78.78
X220.015Y-75.679
X220.024Y-78.194
X220.624Y-77.66
X221.113Y-123.354
X221.412Y-76.644
X223.4Y-112.6
X223.5Y-109.5
X224.765Y-93.523
X225.222Y-76.86
X226.085Y-98.504
X228.879Y-91.034
X231.648Y-100.432
X231.851Y-88.163
X232.689Y-82.271
T4
X70.487Y-68.084
X70.587Y-87.134
X70.587Y-106.184
X70.587Y-125.234
X70.587Y-144.284
X76.837Y-65.544
X76.937Y-84.594
X76.937Y-103.644
X76.937Y-122.694
X76.937Y-141.744
X89.637Y-68.084
X89.637Y-87.134
X89.637Y-106.184
X89.637Y-125.234
X89.637Y-144.284
X95.987Y-65.544
X95.987Y-84.594
X95.987Y-103.644
X95.987Y-122.694
X95.987Y-141.744
X108.687Y-63.334
X108.687Y-82.372
X108.687Y-101.422
X108.687Y-120.472
X108.687Y-139.522
X115.037Y-60.794
X115.037Y-79.832
X115.037Y-98.882
X115.037Y-117.932
X115.037Y-136.982
X127.737Y-60.941
X127.737Y-79.991
X127.737Y-99.041
X127.737Y-118.091
X134.087Y-58.401
X134.087Y-77.451
X134.087Y-96.501
X134.087Y-115.551
X137.262Y-139.509
X143.612Y-136.969
X146.787Y-63.309
X146.787Y-82.359
X146.787Y-101.397
X146.787Y-120.459
X153.137Y-60.769
X153.137Y-79.819
X153.137Y-98.857
X153.137Y-117.919
X161.664Y-143.898
X165.837Y-65.691
X165.837Y-84.728
X165.837Y-103.778
X165.837Y-122.828
X168.433Y-144.873
X172.187Y-63.151
X172.187Y-82.188
X172.187Y-101.238
X172.187Y-120.288
X178.333Y-153.423
X184.887Y-77.609
X184.887Y-96.647
X184.887Y-115.697
X185.102Y-154.398
X187.858Y-136.754
X191.237Y-75.069
X191.237Y-94.107
X191.237Y-113.157
X194.627Y-137.729
T2
X229.3Y-54.5G85X230.3Y-54.5
G05
X229.3Y-56.4G85X230.3Y-56.4
G05
X229.3Y-58.1G85X230.3Y-58.1
G05
X229.3Y-59.8G85X230.3Y-59.8
G05
T3
X210.23Y-56.65G85X210.23Y-56.05
G05
X210.23Y-61.08G85X210.23Y-59.98
G05
X218.87Y-56.65G85X218.87Y-56.05
G05
X218.87Y-61.08G85X218.87Y-59.98
G05
M30
