G04 #@! TF.GenerationSoftware,KiCad,Pcbnew,8.0.7*
G04 #@! TF.CreationDate,2025-01-02T16:03:09-06:00*
G04 #@! TF.ProjectId,mk0,6d6b302e-6b69-4636-9164-5f7063625858,rev?*
G04 #@! TF.SameCoordinates,Original*
G04 #@! TF.FileFunction,Soldermask,Top*
G04 #@! TF.FilePolarity,Negative*
%FSLAX46Y46*%
G04 Gerber Fmt 4.6, Leading zero omitted, Abs format (unit mm)*
G04 Created by KiCad (PCBNEW 8.0.7) date 2025-01-02 16:03:09*
%MOMM*%
%LPD*%
G01*
G04 APERTURE LIST*
G04 Aperture macros list*
%AMRoundRect*
0 Rectangle with rounded corners*
0 $1 Rounding radius*
0 $2 $3 $4 $5 $6 $7 $8 $9 X,Y pos of 4 corners*
0 Add a 4 corners polygon primitive as box body*
4,1,4,$2,$3,$4,$5,$6,$7,$8,$9,$2,$3,0*
0 Add four circle primitives for the rounded corners*
1,1,$1+$1,$2,$3*
1,1,$1+$1,$4,$5*
1,1,$1+$1,$6,$7*
1,1,$1+$1,$8,$9*
0 Add four rect primitives between the rounded corners*
20,1,$1+$1,$2,$3,$4,$5,0*
20,1,$1+$1,$4,$5,$6,$7,0*
20,1,$1+$1,$6,$7,$8,$9,0*
20,1,$1+$1,$8,$9,$2,$3,0*%
G04 Aperture macros list end*
%ADD10C,4.000000*%
%ADD11C,2.200000*%
%ADD12R,1.500000X1.500000*%
%ADD13RoundRect,0.250000X-0.250000X0.250000X-0.250000X-0.250000X0.250000X-0.250000X0.250000X0.250000X0*%
%ADD14RoundRect,0.250000X0.337500X0.475000X-0.337500X0.475000X-0.337500X-0.475000X0.337500X-0.475000X0*%
%ADD15RoundRect,0.250000X0.475000X-0.337500X0.475000X0.337500X-0.475000X0.337500X-0.475000X-0.337500X0*%
%ADD16R,1.050000X1.100000*%
%ADD17RoundRect,0.250000X-0.475000X0.337500X-0.475000X-0.337500X0.475000X-0.337500X0.475000X0.337500X0*%
%ADD18C,0.650000*%
%ADD19R,0.600000X1.450000*%
%ADD20R,0.300000X1.450000*%
%ADD21O,1.000000X2.100000*%
%ADD22O,1.000000X1.600000*%
%ADD23RoundRect,0.250000X-0.450000X0.350000X-0.450000X-0.350000X0.450000X-0.350000X0.450000X0.350000X0*%
%ADD24RoundRect,0.250000X0.450000X-0.350000X0.450000X0.350000X-0.450000X0.350000X-0.450000X-0.350000X0*%
%ADD25RoundRect,0.150000X0.587500X0.150000X-0.587500X0.150000X-0.587500X-0.150000X0.587500X-0.150000X0*%
%ADD26RoundRect,0.075000X0.075000X-0.662500X0.075000X0.662500X-0.075000X0.662500X-0.075000X-0.662500X0*%
%ADD27RoundRect,0.075000X0.662500X-0.075000X0.662500X0.075000X-0.662500X0.075000X-0.662500X-0.075000X0*%
%ADD28RoundRect,0.250000X-0.337500X-0.475000X0.337500X-0.475000X0.337500X0.475000X-0.337500X0.475000X0*%
%ADD29RoundRect,0.325000X-0.925000X-0.325000X0.925000X-0.325000X0.925000X0.325000X-0.925000X0.325000X0*%
G04 APERTURE END LIST*
D10*
X112496600Y-65874300D03*
D11*
X115036600Y-60794300D03*
X108686600Y-63334300D03*
D12*
X205968600Y-96583300D03*
X205968600Y-88783300D03*
D13*
X217220800Y-124864925D03*
X217220800Y-127364925D03*
X222072200Y-112122700D03*
X222072200Y-114622700D03*
D14*
X211911475Y-67893800D03*
X209836475Y-67893800D03*
D13*
X222161100Y-99194100D03*
X222161100Y-101694100D03*
X217309700Y-112122700D03*
X217309700Y-114622700D03*
X212636100Y-99194100D03*
X212636100Y-101694100D03*
X210165950Y-112122700D03*
X210165950Y-114622700D03*
D15*
X214604600Y-89238800D03*
X214604600Y-87163800D03*
D10*
X188696600Y-118236800D03*
D11*
X191236600Y-113156800D03*
X184886600Y-115696800D03*
D13*
X219690950Y-112122700D03*
X219690950Y-114622700D03*
X212458300Y-124864925D03*
X212458300Y-127364925D03*
D16*
X217489600Y-89217300D03*
X219339600Y-89217300D03*
D13*
X219602050Y-124864925D03*
X219602050Y-127364925D03*
D14*
X233930100Y-86909800D03*
X231855100Y-86909800D03*
D13*
X217398600Y-99253475D03*
X217398600Y-101753475D03*
D10*
X180362225Y-157527425D03*
D11*
X185101930Y-154398016D03*
X178332670Y-153422721D03*
D10*
X150596600Y-65849300D03*
D11*
X153136600Y-60769300D03*
X146786600Y-63309300D03*
D17*
X230098600Y-78616300D03*
X230098600Y-80691300D03*
D18*
X217440000Y-60000000D03*
X211660000Y-60000000D03*
D19*
X217800000Y-61445000D03*
X217000000Y-61445000D03*
D20*
X215800000Y-61445000D03*
X214800000Y-61445000D03*
X214300000Y-61445000D03*
X213300000Y-61445000D03*
D19*
X212100000Y-61445000D03*
X211300000Y-61445000D03*
X211300000Y-61445000D03*
X212100000Y-61445000D03*
D20*
X212800000Y-61445000D03*
X213800000Y-61445000D03*
X215300000Y-61445000D03*
X216300000Y-61445000D03*
D19*
X217000000Y-61445000D03*
X217800000Y-61445000D03*
D21*
X218870000Y-60530000D03*
D22*
X218870000Y-56350000D03*
D21*
X210230000Y-60530000D03*
D22*
X210230000Y-56350000D03*
D10*
X93446600Y-108724300D03*
D11*
X95986600Y-103644300D03*
X89636600Y-106184300D03*
D10*
X74396600Y-146824300D03*
D11*
X76936600Y-141744300D03*
X70586600Y-144284300D03*
D10*
X74396600Y-89674300D03*
D11*
X76936600Y-84594300D03*
X70586600Y-87134300D03*
D13*
X219779850Y-99194100D03*
X219779850Y-101694100D03*
D10*
X74296600Y-70624300D03*
D11*
X76836600Y-65544300D03*
X70486600Y-68084300D03*
D10*
X131546600Y-101580550D03*
D11*
X134086600Y-96500550D03*
X127736600Y-99040550D03*
D13*
X222103950Y-118574300D03*
X222103950Y-121074300D03*
D10*
X189887225Y-140858675D03*
D11*
X194626930Y-137729266D03*
X187857670Y-136753971D03*
D10*
X112496600Y-103961800D03*
D11*
X115036600Y-98881800D03*
X108686600Y-101421800D03*
D10*
X112496600Y-84911800D03*
D11*
X115036600Y-79831800D03*
X108686600Y-82371800D03*
D10*
X169646600Y-68230550D03*
D11*
X172186600Y-63150550D03*
X165836600Y-65690550D03*
D10*
X131546600Y-120630550D03*
D11*
X134086600Y-115550550D03*
X127736600Y-118090550D03*
D13*
X217297000Y-105683800D03*
X217297000Y-108183800D03*
X214839550Y-124864925D03*
X214839550Y-127364925D03*
D10*
X169646600Y-87268050D03*
D11*
X172186600Y-82188050D03*
X165836600Y-84728050D03*
D14*
X211911475Y-73989800D03*
X209836475Y-73989800D03*
D13*
X207816450Y-118574300D03*
X207816450Y-121074300D03*
X219678250Y-105683800D03*
X219678250Y-108183800D03*
D10*
X169646600Y-125368050D03*
D11*
X172186600Y-120288050D03*
X165836600Y-122828050D03*
D12*
X228828600Y-88963300D03*
X228828600Y-96763300D03*
D17*
X232638600Y-78616300D03*
X232638600Y-80691300D03*
D10*
X112496600Y-123011800D03*
D11*
X115036600Y-117931800D03*
X108686600Y-120471800D03*
D13*
X214928450Y-112122700D03*
X214928450Y-114622700D03*
D14*
X233908600Y-89703800D03*
X231833600Y-89703800D03*
D10*
X150596600Y-84899300D03*
D11*
X153136600Y-79819300D03*
X146786600Y-82359300D03*
D13*
X219751450Y-118574300D03*
X219751450Y-121074300D03*
D23*
X214683975Y-69687800D03*
X214683975Y-71687800D03*
D13*
X210077050Y-124864925D03*
X210077050Y-127364925D03*
D24*
X211048600Y-89201300D03*
X211048600Y-87201300D03*
D17*
X222224600Y-91481800D03*
X222224600Y-93556800D03*
D10*
X131546600Y-63480550D03*
D11*
X134086600Y-58400550D03*
X127736600Y-60940550D03*
D25*
X211889975Y-71825800D03*
X211889975Y-69925800D03*
X210014975Y-70875800D03*
D13*
X222059500Y-105683800D03*
X222059500Y-108183800D03*
D10*
X163693475Y-148002425D03*
D11*
X168433180Y-144873016D03*
X161663920Y-143897721D03*
D13*
X212547200Y-112122700D03*
X212547200Y-114622700D03*
D26*
X215993975Y-82568800D03*
X216493975Y-82568800D03*
X216993975Y-82568800D03*
X217493975Y-82568800D03*
X217993975Y-82568800D03*
X218493975Y-82568800D03*
X218993975Y-82568800D03*
X219493975Y-82568800D03*
X219993975Y-82568800D03*
X220493975Y-82568800D03*
X220993975Y-82568800D03*
X221493975Y-82568800D03*
D27*
X222906475Y-81156300D03*
X222906475Y-80656300D03*
X222906475Y-80156300D03*
X222906475Y-79656300D03*
X222906475Y-79156300D03*
X222906475Y-78656300D03*
X222906475Y-78156300D03*
X222906475Y-77656300D03*
X222906475Y-77156300D03*
X222906475Y-76656300D03*
X222906475Y-76156300D03*
X222906475Y-75656300D03*
D26*
X221493975Y-74243800D03*
X220993975Y-74243800D03*
X220493975Y-74243800D03*
X219993975Y-74243800D03*
X219493975Y-74243800D03*
X218993975Y-74243800D03*
X218493975Y-74243800D03*
X217993975Y-74243800D03*
X217493975Y-74243800D03*
X216993975Y-74243800D03*
X216493975Y-74243800D03*
X215993975Y-74243800D03*
D27*
X214581475Y-75656300D03*
X214581475Y-76156300D03*
X214581475Y-76656300D03*
X214581475Y-77156300D03*
X214581475Y-77656300D03*
X214581475Y-78156300D03*
X214581475Y-78656300D03*
X214581475Y-79156300D03*
X214581475Y-79656300D03*
X214581475Y-80156300D03*
X214581475Y-80656300D03*
X214581475Y-81156300D03*
D10*
X74396600Y-108724300D03*
D11*
X76936600Y-103644300D03*
X70586600Y-106184300D03*
D28*
X203661100Y-76097800D03*
X205736100Y-76097800D03*
D13*
X207568800Y-124924300D03*
X207568800Y-127424300D03*
X210254850Y-99194100D03*
X210254850Y-101694100D03*
D10*
X131546600Y-82530550D03*
D11*
X134086600Y-77450550D03*
X127736600Y-79990550D03*
D13*
X214960200Y-118574300D03*
X214960200Y-121074300D03*
D10*
X141071600Y-142049300D03*
D11*
X143611600Y-136969300D03*
X137261600Y-139509300D03*
D13*
X212534500Y-105683800D03*
X212534500Y-108183800D03*
X214915750Y-105683800D03*
X214915750Y-108183800D03*
D15*
X211810600Y-80712800D03*
X211810600Y-78637800D03*
D10*
X93446600Y-70624300D03*
D11*
X95986600Y-65544300D03*
X89636600Y-68084300D03*
D10*
X74396600Y-127774300D03*
D11*
X76936600Y-122694300D03*
X70586600Y-125234300D03*
D10*
X169646600Y-106318050D03*
D11*
X172186600Y-101238050D03*
X165836600Y-103778050D03*
D10*
X188696600Y-80149300D03*
D11*
X191236600Y-75069300D03*
X184886600Y-77609300D03*
D28*
X203661100Y-81177800D03*
X205736100Y-81177800D03*
D13*
X210153250Y-105683800D03*
X210153250Y-108183800D03*
X215017350Y-99194100D03*
X215017350Y-101694100D03*
X207784700Y-112122700D03*
X207784700Y-114622700D03*
D10*
X112496600Y-142061800D03*
D11*
X115036600Y-136981800D03*
X108686600Y-139521800D03*
D15*
X225780600Y-91016800D03*
X225780600Y-88941800D03*
X208800600Y-80712800D03*
X208800600Y-78637800D03*
D10*
X188696600Y-99186800D03*
D11*
X191236600Y-94106800D03*
X184886600Y-96646800D03*
D28*
X203661100Y-78637800D03*
X205736100Y-78637800D03*
D13*
X207873600Y-99194100D03*
X207873600Y-101694100D03*
D10*
X150596600Y-122999300D03*
D11*
X153136600Y-117919300D03*
X146786600Y-120459300D03*
D29*
X229800000Y-58100000D03*
X229800000Y-56400000D03*
X229800000Y-54500000D03*
X229800000Y-59800000D03*
D13*
X217341450Y-118574300D03*
X217341450Y-121074300D03*
X207772000Y-105683800D03*
X207772000Y-108183800D03*
X210197700Y-118574300D03*
X210197700Y-121074300D03*
D23*
X222224600Y-87201300D03*
X222224600Y-89201300D03*
D10*
X150596600Y-103936800D03*
D11*
X153136600Y-98856800D03*
X146786600Y-101396800D03*
D23*
X219763975Y-65877800D03*
X219763975Y-67877800D03*
D13*
X212578950Y-118574300D03*
X212578950Y-121074300D03*
D10*
X93446600Y-89674300D03*
D11*
X95986600Y-84594300D03*
X89636600Y-87134300D03*
D10*
X93446600Y-146824300D03*
D11*
X95986600Y-141744300D03*
X89636600Y-144284300D03*
D10*
X93446600Y-127774300D03*
D11*
X95986600Y-122694300D03*
X89636600Y-125234300D03*
M02*
